<svg id="monitor-temperature-plants-water-report" height="512" viewBox="0 0 64 64" width="512" xmlns="http://www.w3.org/2000/svg"><path d="m59 2h-54a3.009 3.009 0 0 0 -3 3v43a3.009 3.009 0 0 0 3 3h19v3h-4a1 1 0 0 0 -1 1v6a1 1 0 0 0 1 1h24a1 1 0 0 0 1-1v-6a1 1 0 0 0 -1-1h-4v-3h19a3.009 3.009 0 0 0 3-3v-43a3.009 3.009 0 0 0 -3-3zm-16 54v4h-22v-4zm-17-2v-3h12v3zm34-6a1 1 0 0 1 -1 1h-54a1 1 0 0 1 -1-1v-2h56zm0-4h-56v-39a1 1 0 0 1 1-1h54a1 1 0 0 1 1 1z"/><path d="m35 24a8.011 8.011 0 0 0 8-8 1 1 0 0 0 -1-1h-3a7.974 7.974 0 0 0 -6 2.73v-2.73h2a8.011 8.011 0 0 0 8-8 1 1 0 0 0 -1-1h-3a8 8 0 0 0 -7.74 6.03 8.008 8.008 0 0 0 -6.26-3.03h-3a1 1 0 0 0 -1 1 8.011 8.011 0 0 0 8 8h2v3.73a7.974 7.974 0 0 0 -6-2.73h-3a1 1 0 0 0 -1 1 8.011 8.011 0 0 0 8 8h2v3.65l-7.48 9.35h-1.52v2h20v-2h-1.52l-7.48-9.35v-7.65zm4-7h1.92a6.017 6.017 0 0 1 -5.92 5h-1.92a6.017 6.017 0 0 1 5.92-5zm0-9h1.92a6.017 6.017 0 0 1 -5.92 5h-1.92a6.017 6.017 0 0 1 5.92-5zm-10 8a6.017 6.017 0 0 1 -5.92-5h1.92a6.017 6.017 0 0 1 5.92 5zm0 10a6.017 6.017 0 0 1 -5.92-5h1.92a6.017 6.017 0 0 1 5.92 5zm8.92 15h-11.84l5.92-7.4z"/><path d="m49.242 16.348c-.742.861-7.242 8.534-7.242 12.652a8 8 0 0 0 16 0c0-4.118-6.5-11.791-7.242-12.652a1.032 1.032 0 0 0 -1.516 0zm.758 18.652a6.006 6.006 0 0 1 -6-6c0-2.534 3.818-7.756 6-10.439 2.183 2.682 6 7.9 6 10.439a6.006 6.006 0 0 1 -6 6z"/><path d="m45.757 28h8.485v2h-8.485z" transform="matrix(.707 -.707 .707 .707 -5.861 43.849)"/><circle cx="47" cy="27" r="1"/><circle cx="53" cy="31" r="1"/><path d="m9.814 30.862a5.192 5.192 0 0 0 1.186.138 4.985 4.985 0 0 0 3-8.979v-13.021a3 3 0 0 0 -6 0v13.02a4.986 4.986 0 0 0 1.814 8.842zm-.314-7.443a1 1 0 0 0 .5-.864v-13.555a1 1 0 0 1 2 0v2h-1v2h1v1h-1v2h1v1h-1v2h1v1h-1v2h1v.555a1 1 0 0 0 .5.864 2.983 2.983 0 0 1 .366 4.933 2.993 2.993 0 1 1 -3.366-4.933z"/><path d="m7 34h4v2h-4z"/><path d="m13 34h4v2h-4z"/><path d="m7 38h6v2h-6z"/><path d="m48 8h4v2h-4z"/><path d="m54 8h4v2h-4z"/><path d="m48 12h6v2h-6z"/></svg>