<?xml version="1.0" encoding="iso-8859-1"?>
<!-- Generator: Adobe Illustrator 19.0.0, SVG Export Plug-In . SVG Version: 6.00 Build 0)  -->
<svg version="1.1" id="Capa_1" xmlns="http://www.w3.org/2000/svg" xmlns:xlink="http://www.w3.org/1999/xlink" x="0px" y="0px"
	 viewBox="0 0 512 512" style="enable-background:new 0 0 512 512;" xml:space="preserve">
<g>
	<path style="fill:#FFC66C;" d="M444.305,390.32c-24.895,24.895-13.804,55.218-13.804,55.218s30.324,11.09,55.218-13.804
		s13.84-54.926,13.805-55.22C499.525,376.514,469.2,365.425,444.305,390.32z"/>
	<path style="fill:#FFC66C;" d="M356.475,376.514c-0.035,0.293-11.089,30.325,13.805,55.22
		c24.895,24.895,55.218,13.804,55.218,13.804s11.09-30.324-13.804-55.218C386.8,365.425,356.475,376.514,356.475,376.514z"/>
	<path style="fill:#FFC66C;" d="M444.305,322.42c-24.895,24.895-13.804,55.218-13.804,55.218s30.324,11.09,55.218-13.804
		s13.84-54.926,13.805-55.22C499.525,308.615,469.2,297.526,444.305,322.42z"/>
	<path style="fill:#FFC66C;" d="M398.755,286.591c0,35.206,29.284,48.806,29.284,48.806s29.284-13.6,29.284-48.806
		s-29.052-48.625-29.284-48.808C428.039,237.783,398.755,251.385,398.755,286.591z"/>
	<path style="fill:#FFC66C;" d="M356.475,308.615c-0.035,0.293-11.089,30.325,13.805,55.22
		c24.895,24.895,55.218,13.804,55.218,13.804s11.09-30.324-13.804-55.218C386.8,297.526,356.475,308.615,356.475,308.615z"/>
</g>
<g>
	<path style="fill:#FFB954;" d="M272.305,390.32c-24.895,24.895-13.804,55.218-13.804,55.218s30.324,11.09,55.218-13.804
		c24.895-24.895,13.84-54.926,13.805-55.22C327.525,376.514,297.2,365.425,272.305,390.32z"/>
	<path style="fill:#FFB954;" d="M184.475,376.514c-0.035,0.293-11.089,30.325,13.805,55.22s55.218,13.804,55.218,13.804
		s11.09-30.324-13.804-55.218C214.8,365.425,184.475,376.514,184.475,376.514z"/>
	<path style="fill:#FFB954;" d="M272.305,322.42c-24.895,24.895-13.804,55.218-13.804,55.218s30.324,11.09,55.218-13.804
		c24.895-24.895,13.84-54.926,13.805-55.22C327.525,308.615,297.2,297.526,272.305,322.42z"/>
	<path style="fill:#FFB954;" d="M184.475,308.615c-0.035,0.293-11.089,30.325,13.805,55.22s55.218,13.804,55.218,13.804
		s11.09-30.324-13.804-55.218C214.8,297.526,184.475,308.615,184.475,308.615z"/>
	<path style="fill:#FFB954;" d="M272.305,254.518c-24.895,24.895-13.804,55.218-13.804,55.218s30.324,11.09,55.218-13.804
		c24.895-24.895,13.84-54.926,13.805-55.22C327.525,240.713,297.2,229.623,272.305,254.518z"/>
	<path style="fill:#FFB954;" d="M184.475,240.713c-0.035,0.293-11.089,30.325,13.805,55.22s55.218,13.804,55.218,13.804
		s11.09-30.324-13.804-55.218S184.475,240.713,184.475,240.713z"/>
	<path style="fill:#FFB954;" d="M226.755,218.7c0,35.206,29.284,48.806,29.284,48.806s29.284-13.6,29.284-48.806
		s-29.052-48.625-29.284-48.808C256.039,169.892,226.755,183.494,226.755,218.7z"/>
</g>
<g>
	<path style="fill:#FFC66C;" d="M100.305,390.32c-24.895,24.895-13.804,55.218-13.804,55.218s30.324,11.09,55.218-13.804
		s13.84-54.926,13.805-55.22C155.525,376.514,125.2,365.425,100.305,390.32z"/>
	<path style="fill:#FFC66C;" d="M12.475,376.514c-0.035,0.293-11.089,30.325,13.805,55.22s55.218,13.804,55.218,13.804
		s11.09-30.324-13.804-55.218C42.8,365.425,12.475,376.514,12.475,376.514z"/>
	<path style="fill:#FFC66C;" d="M100.305,322.42c-24.895,24.895-13.804,55.218-13.804,55.218s30.324,11.09,55.218-13.804
		s13.84-54.926,13.805-55.22C155.525,308.615,125.2,297.526,100.305,322.42z"/>
	<path style="fill:#FFC66C;" d="M54.755,286.591c0,35.206,29.284,48.806,29.284,48.806s29.284-13.6,29.284-48.806
		s-29.052-48.625-29.284-48.808C84.039,237.783,54.755,251.385,54.755,286.591z"/>
	<path style="fill:#FFC66C;" d="M12.475,308.615c-0.035,0.293-11.089,30.325,13.805,55.22s55.218,13.804,55.218,13.804
		s11.09-30.324-13.804-55.218C42.8,297.526,12.475,308.615,12.475,308.615z"/>
</g>
<path d="M275.103,458.019c12.939,0,30.181-3.707,45.688-19.213c26.698-26.698,18.385-58.656,16.322-65.132
	c-0.889-3.002-3.152-5.453-6.154-6.551c-0.324-0.119-2.259-0.804-5.388-1.499c20.852-25.476,13.47-53.795,11.542-59.849
	c-0.889-3.003-3.152-5.453-6.154-6.551c-0.324-0.119-2.259-0.805-5.389-1.5c20.855-25.478,13.472-53.799,11.543-59.852
	c-0.889-3.002-3.152-5.452-6.153-6.55c-0.998-0.365-17.234-6.095-36.606-0.963c0.615-3.643,0.97-7.518,0.97-11.658
	c0-37.752-28.469-54.472-34.511-57.595c-2.752-1.496-6.087-1.629-8.986-0.282c-1.432,0.665-35.072,16.762-35.072,57.877
	c0,4.149,0.356,8.031,0.974,11.681c-19.407-5.17-35.689,0.575-36.687,0.94c-3,1.097-5.263,3.546-6.152,6.547
	c-1.877,5.856-9.389,34.286,11.542,59.855c-3.13,0.695-5.065,1.381-5.389,1.5c-3.001,1.097-5.263,3.546-6.153,6.547
	c-1.876,5.856-9.387,34.285,11.54,59.853c-3.129,0.695-5.063,1.381-5.388,1.499c-3.001,1.097-5.263,3.546-6.153,6.547
	c-2.006,6.26-10.468,38.346,16.321,65.136c15.509,15.509,32.749,19.214,45.688,19.213c3.342,0,6.387-0.251,9.051-0.606V492h-152
	v-34.6c2.688,0.362,5.769,0.619,9.154,0.619c12.939,0,30.181-3.707,45.688-19.213c26.698-26.698,18.385-58.656,16.322-65.132
	c-0.889-3.002-3.152-5.453-6.154-6.551c-0.324-0.119-2.259-0.804-5.388-1.499c20.852-25.476,13.47-53.795,11.542-59.849
	c-0.889-3.003-3.152-5.453-6.154-6.551c-0.997-0.365-17.235-6.096-36.607-0.962c0.616-3.646,0.972-7.525,0.972-11.67
	c0-37.753-28.47-54.473-34.512-57.596c-2.752-1.495-6.085-1.628-8.985-0.281c-1.432,0.665-35.072,16.762-35.072,57.877
	c0,4.154,0.357,8.039,0.976,11.692c-19.408-5.172-35.691,0.574-36.689,0.94c-3.001,1.097-5.263,3.546-6.153,6.547
	c-1.876,5.856-9.387,34.285,11.54,59.853c-3.129,0.695-5.063,1.381-5.388,1.499c-3.001,1.097-5.263,3.546-6.153,6.547
	c-2.006,6.26-10.468,38.346,16.321,65.136c15.509,15.509,32.749,19.214,45.688,19.213c3.342,0,6.387-0.251,9.051-0.606V492H10
	c-5.523,0-10,4.477-10,10s4.477,10,10,10h298.333c5.523,0,10-4.477,10-10s-4.477-10-10-10h-42.385v-34.6
	C268.636,457.762,271.718,458.019,275.103,458.019z M174.645,238.879c0.082-0.442,0.176-0.789,0.235-0.983
	C174.786,238.218,174.707,238.546,174.645,238.879z M174.645,306.784c0.083-0.444,0.177-0.792,0.236-0.987
	C174.786,306.12,174.707,306.449,174.645,306.784z M174.645,374.681c0.082-0.443,0.177-0.79,0.235-0.984
	C174.786,374.019,174.707,374.347,174.645,374.681z M2.645,306.784c0.083-0.444,0.177-0.792,0.236-0.987
	C2.786,306.12,2.707,306.449,2.645,306.784z M2.645,374.681c0.082-0.443,0.177-0.79,0.235-0.984
	C2.786,374.019,2.707,374.347,2.645,374.681z M134.648,424.663c-14.787,14.788-31.799,14.111-39.929,12.658
	c-1.446-8.117-2.126-25.147,12.658-39.93c5.13-5.13,10.527-8.396,15.729-10.417c0.849-0.279,1.703-0.581,2.561-0.904
	c8.777-2.784,16.755-2.206,21.603-1.344C148.804,393.284,149.278,410.033,134.648,424.663z M147.269,316.825
	c1.535,8.56,2.009,25.309-12.621,39.938c-5.135,5.135-10.538,8.402-15.744,10.422c-0.839,0.275-1.682,0.573-2.53,0.892
	c-8.806,2.797-16.81,2.208-21.655,1.344c-1.352-7.593-2.032-22.983,9.985-37.04c0.959-0.963,1.921-1.998,2.877-3.087
	C122.297,314.738,139.161,315.386,147.269,316.825z M84.007,249.426c7.138,4.967,19.316,16.475,19.316,37.165
	c0,13.177-4.967,22.634-10.336,29.011c-1.098,1.108-2.133,2.225-3.114,3.348c-2.111,2.055-4.148,3.651-5.831,4.824
	c-1.864-1.299-4.154-3.112-6.497-5.485c-0.599-0.669-1.221-1.335-1.862-1.998c-5.595-6.38-10.93-16.043-10.93-29.699
	C64.754,265.71,77.225,254.162,84.007,249.426z M20.73,316.83c8.181-1.452,25.145-2.087,39.893,12.662
	c0.243,0.243,0.47,0.488,0.705,0.732c0.353,0.388,0.706,0.764,1.06,1.134c8.591,9.501,11.192,19.709,11.56,27.783v4.249
	c-0.106,2.319-0.368,4.364-0.666,6.031c-4.858,0.865-12.908,1.452-21.757-1.381c-0.783-0.294-1.562-0.568-2.338-0.825
	c-5.236-2.017-10.672-5.289-15.835-10.452C18.726,342.137,19.196,325.392,20.73,316.83z M73.283,437.316
	c-8.164,1.458-25.159,2.119-39.931-12.653c-14.626-14.626-14.156-31.372-12.622-39.933c4.865-0.866,12.838-1.44,21.605,1.34
	c0.855,0.323,1.707,0.624,2.554,0.902c5.204,2.021,10.603,5.287,15.734,10.418c10.015,10.015,12.933,21.047,13.325,29.652v4.242
	C73.843,433.603,73.58,435.649,73.283,437.316z M221.187,367.216c-5.236-2.017-10.672-5.289-15.835-10.452
	c-14.626-14.626-14.156-31.372-12.622-39.933c4.885-0.867,12.903-1.44,21.711,1.378c0.79,0.297,1.577,0.576,2.36,0.834
	c5.231,2.018,10.662,5.29,15.822,10.45c10.014,10.014,12.932,21.044,13.325,29.649v4.249c-0.106,2.319-0.368,4.364-0.666,6.031
	c-4.857,0.865-12.908,1.452-21.757-1.381C222.743,367.746,221.963,367.472,221.187,367.216z M297.583,318.198
	c8.81-2.814,16.823-2.236,21.686-1.373c1.535,8.56,2.009,25.309-12.621,39.938c-5.137,5.136-10.541,8.404-15.749,10.424
	c-0.836,0.275-1.677,0.571-2.521,0.889c-8.809,2.798-16.814,2.21-21.66,1.346c-1.446-8.117-2.126-25.147,12.658-39.93
	c5.153-5.154,10.577-8.425,15.801-10.444C295.975,318.785,296.777,318.501,297.583,318.198z M306.648,424.663
	c-14.786,14.788-31.797,14.111-39.929,12.658c-1.446-8.117-2.126-25.147,12.658-39.93c5.131-5.131,10.53-8.398,15.732-10.419
	c0.847-0.278,1.698-0.579,2.553-0.902c8.779-2.786,16.759-2.207,21.607-1.346C320.804,393.284,321.278,410.033,306.648,424.663z
	 M319.269,248.923c1.535,8.56,2.008,25.309-12.621,39.938c-5.161,5.16-10.591,8.433-15.821,10.451
	c-0.788,0.26-1.579,0.539-2.373,0.837c-8.838,2.825-16.875,2.237-21.735,1.371c-1.351-7.582-2.029-22.94,9.936-36.981
	c1.001-1.003,2.005-2.08,3.002-3.22C294.356,246.839,311.176,247.485,319.269,248.923z M256.007,181.536
	c7.138,4.967,19.316,16.475,19.316,37.165c0,13.11-4.916,22.54-10.254,28.915c-1.151,1.159-2.234,2.327-3.258,3.502
	c-2.09,2.027-4.105,3.605-5.773,4.767c-1.835-1.28-4.094-3.068-6.412-5.406c-0.644-0.722-1.314-1.441-2.007-2.156
	c-5.566-6.379-10.866-16.021-10.866-29.623C236.754,197.82,249.225,186.271,256.007,181.536z M192.73,248.928
	c8.177-1.455,25.143-2.089,39.893,12.661c0.192,0.192,0.37,0.385,0.557,0.578c0.451,0.498,0.901,0.981,1.353,1.451
	c8.474,9.455,11.049,19.592,11.415,27.62v4.249c-0.106,2.319-0.368,4.364-0.666,6.031c-4.869,0.866-12.946,1.454-21.82-1.402
	c-0.741-0.277-1.479-0.537-2.214-0.781c-5.255-2.015-10.714-5.292-15.897-10.475C190.725,274.234,191.196,257.489,192.73,248.928z
	 M245.283,437.316c-8.165,1.458-25.158,2.119-39.931-12.653c-14.626-14.626-14.156-31.372-12.622-39.933
	c4.865-0.866,12.839-1.44,21.606,1.341c0.854,0.323,1.705,0.623,2.551,0.901c5.205,2.021,10.604,5.287,15.736,10.419
	c10.015,10.015,12.933,21.047,13.325,29.652v4.242C245.843,433.603,245.58,435.649,245.283,437.316z"/>
<path d="M297.57,96.102c2.559,0,5.119-0.976,7.071-2.929c3.905-3.905,3.905-10.237,0-14.143c-26.85-26.849-70.536-26.849-97.386,0
	c-3.905,3.905-3.905,10.237,0,14.143c3.905,3.905,10.237,3.905,14.143,0c19.051-19.052,50.05-19.052,69.101,0
	C292.451,95.126,295.011,96.102,297.57,96.102z"/>
<path d="M179.776,51.552C200.122,31.205,227.174,20,255.948,20s55.826,11.205,76.172,31.552c1.953,1.953,4.512,2.929,7.071,2.929
	s5.119-0.976,7.071-2.929c3.905-3.905,3.905-10.237,0-14.143C322.139,13.286,290.064,0,255.948,0
	c-34.117,0-66.191,13.286-90.315,37.409c-3.905,3.905-3.905,10.237,0,14.143C169.539,55.457,175.871,55.457,179.776,51.552z"/>
<path d="M248.88,120.93c-1.86,1.86-2.93,4.44-2.93,7.07c0,2.63,1.07,5.21,2.93,7.07s4.44,2.93,7.07,2.93s5.21-1.07,7.07-2.93
	c1.86-1.86,2.93-4.44,2.93-7.07c0-2.63-1.07-5.21-2.93-7.07s-4.44-2.93-7.07-2.93S250.74,119.07,248.88,120.93z"/>
<path d="M502,492h-64.052v-34.6c2.688,0.362,5.769,0.619,9.154,0.619c12.939,0,30.181-3.707,45.688-19.213
	c26.698-26.698,18.385-58.656,16.322-65.132c-0.889-3.002-3.152-5.453-6.154-6.551c-0.324-0.119-2.259-0.804-5.388-1.499
	c20.852-25.476,13.47-53.795,11.542-59.849c-0.889-3.003-3.152-5.453-6.154-6.551c-0.997-0.365-17.235-6.096-36.607-0.962
	c0.616-3.646,0.972-7.525,0.972-11.67c0-37.753-28.47-54.473-34.512-57.596c-2.752-1.495-6.086-1.628-8.985-0.281
	c-1.432,0.665-35.072,16.762-35.072,57.877c0,4.154,0.357,8.039,0.976,11.692c-19.409-5.172-35.691,0.574-36.689,0.939
	c-3.001,1.097-5.263,3.546-6.153,6.547c-1.876,5.856-9.387,34.285,11.54,59.853c-3.129,0.695-5.063,1.381-5.388,1.499
	c-3.001,1.097-5.263,3.546-6.153,6.547c-2.006,6.26-10.468,38.346,16.321,65.136c15.509,15.509,32.749,19.214,45.688,19.213
	c3.342,0,6.387-0.251,9.051-0.606V492h-33.282c-5.523,0-10,4.477-10,10s4.477,10,10,10H502c5.523,0,10-4.477,10-10
	S507.523,492,502,492z M346.645,306.784c0.083-0.444,0.177-0.792,0.236-0.987C346.786,306.12,346.707,306.449,346.645,306.784z
	 M346.645,374.681c0.082-0.443,0.177-0.79,0.235-0.984C346.786,374.019,346.707,374.347,346.645,374.681z M478.648,424.663
	c-14.787,14.788-31.798,14.111-39.929,12.658c-1.446-8.117-2.126-25.147,12.658-39.93c5.131-5.131,10.529-8.397,15.732-10.418
	c0.847-0.278,1.699-0.579,2.555-0.902c8.779-2.786,16.758-2.207,21.606-1.345C492.804,393.284,493.278,410.033,478.648,424.663z
	 M491.269,316.825c1.535,8.56,2.009,25.309-12.621,39.938c-5.136,5.136-10.541,8.404-15.748,10.424
	c-0.837,0.275-1.678,0.571-2.522,0.89c-8.808,2.798-16.813,2.209-21.659,1.345c-1.352-7.593-2.032-22.983,9.985-37.04
	c0.959-0.963,1.921-1.998,2.877-3.087C466.297,314.738,483.16,315.386,491.269,316.825z M428.007,249.426
	c7.138,4.967,19.316,16.475,19.316,37.165c0,13.177-4.967,22.634-10.336,29.011c-1.098,1.108-2.133,2.225-3.114,3.348
	c-2.111,2.055-4.148,3.651-5.831,4.824c-1.864-1.299-4.154-3.112-6.497-5.485c-0.599-0.669-1.221-1.335-1.862-1.998
	c-5.595-6.38-10.93-16.043-10.93-29.699C408.754,265.71,421.225,254.162,428.007,249.426z M364.73,316.83
	c8.181-1.452,25.145-2.087,39.893,12.662c0.243,0.243,0.47,0.488,0.705,0.732c0.353,0.388,0.706,0.764,1.06,1.134
	c8.591,9.501,11.192,19.709,11.56,27.783v4.249c-0.106,2.319-0.368,4.364-0.666,6.031c-4.857,0.865-12.906,1.452-21.754-1.38
	c-0.785-0.295-1.567-0.57-2.345-0.827c-5.235-2.017-10.67-5.289-15.832-10.451C362.726,342.137,363.196,325.392,364.73,316.83z
	 M417.283,437.316c-8.164,1.458-25.159,2.119-39.931-12.653c-14.626-14.626-14.156-31.372-12.622-39.933
	c4.865-0.866,12.839-1.44,21.606,1.341c0.854,0.323,1.705,0.623,2.551,0.901c5.205,2.021,10.604,5.287,15.736,10.419
	c10.015,10.015,12.933,21.047,13.325,29.652v4.242C417.843,433.603,417.58,435.649,417.283,437.316z"/>
<path d="M348.189,492h-0.398c-5.523,0-10,4.477-10,10s4.477,10,10,10h0.398c5.523,0,10-4.477,10-10S353.712,492,348.189,492z"/>
<g>
</g>
<g>
</g>
<g>
</g>
<g>
</g>
<g>
</g>
<g>
</g>
<g>
</g>
<g>
</g>
<g>
</g>
<g>
</g>
<g>
</g>
<g>
</g>
<g>
</g>
<g>
</g>
<g>
</g>
</svg>
