<?xml version="1.0" encoding="iso-8859-1"?>
<!-- Generator: Adobe Illustrator 19.0.0, SVG Export Plug-In . SVG Version: 6.00 Build 0)  -->
<svg version="1.1" id="Capa_1" xmlns="http://www.w3.org/2000/svg" xmlns:xlink="http://www.w3.org/1999/xlink" x="0px" y="0px"
	 viewBox="0 0 512.003 512.003" style="enable-background:new 0 0 512.003 512.003;" xml:space="preserve">
<path style="fill:#FFB954;" d="M46.75,10h91.5C158.546,10,175,26.453,175,46.75v46.5c0,20.296-16.454,36.75-36.75,36.75H116v35.127
	L80.873,130H46.75C26.454,130,10,113.546,10,93.25v-46.5C10,26.453,26.454,10,46.75,10z"/>
<path style="fill:#4DBAF6;" d="M502,391.886H195.146c-8.397,0-16.228-4.236-20.823-11.265l-26.626-40.728
	c-4.595-7.029-12.425-11.265-20.823-11.265H10V214.677h140.571l32.8-9.625l56.228-15.824l0.214-94.421
	c0.053-23.563,19.17-42.636,42.732-42.636H502v252.337V391.886z"/>
<path style="fill:#FFFFFF;" d="M10,254.677h24c8.837,0,16-7.163,16-16v-24H10"/>
<g>
	<path style="fill:#898998;" d="M11.821,445.597C10.631,440.38,10,434.949,10,429.371s0.631-11.008,1.821-16.226h7.95
		c1.533-5.954,3.901-11.57,6.952-16.734l-5.629-5.629c5.823-9.266,13.68-17.123,22.946-22.946l5.629,5.629
		c5.164-3.051,10.78-5.419,16.734-6.952v-7.95c5.217-1.191,10.648-1.821,16.226-1.821s11.008,0.631,16.226,1.821v7.95
		c5.954,1.533,11.57,3.901,16.734,6.952l5.629-5.629c9.266,5.823,17.123,13.68,22.946,22.946l-5.629,5.629
		c3.051,5.164,5.419,10.78,6.952,16.734h7.95c1.191,5.217,1.821,10.648,1.821,16.226s-0.631,11.008-1.821,16.226h-7.95
		c-1.533,5.954-3.901,11.57-6.952,16.734l5.629,5.629c-5.823,9.266-13.68,17.123-22.946,22.946l-5.629-5.629
		c-5.164,3.051-10.78,5.419-16.734,6.952v7.95C93.637,501.369,88.207,502,82.629,502s-11.008-0.631-16.226-1.821v-7.95
		c-5.954-1.533-11.57-3.901-16.734-6.952l-5.629,5.629c-9.266-5.823-17.123-13.68-22.946-22.946l5.629-5.629
		c-3.051-5.164-5.419-10.78-6.952-16.734L11.821,445.597L11.821,445.597z"/>
	<path style="fill:#898998;" d="M284.533,416.486c-1.805-7.91-2.761-16.143-2.761-24.6s0.956-16.69,2.761-24.6h12.053
		c2.323-9.027,5.914-17.541,10.54-25.37l-8.534-8.534c8.829-14.049,20.741-25.961,34.79-34.79l8.534,8.534
		c7.829-4.626,16.343-8.216,25.37-10.54v-12.053c7.91-1.805,16.143-2.761,24.6-2.761s16.69,0.956,24.6,2.761v12.053
		c9.027,2.323,17.541,5.914,25.37,10.54l8.534-8.534c14.049,8.829,25.961,20.741,34.79,34.79l-8.534,8.534
		c4.626,7.829,8.216,16.343,10.54,25.37h12.053c1.805,7.91,2.761,16.143,2.761,24.6s-0.956,16.69-2.761,24.6h-12.053
		c-2.323,9.027-5.914,17.541-10.54,25.37l8.534,8.534c-8.829,14.049-20.741,25.961-34.79,34.79l-8.534-8.534
		c-7.829,4.626-16.343,8.216-25.37,10.54v12.053c-7.91,1.805-16.143,2.761-24.6,2.761s-16.69-0.956-24.6-2.761v-12.053
		c-9.027-2.323-17.541-5.914-25.37-10.54l-8.534,8.534c-14.049-8.829-25.961-20.741-34.79-34.79l8.534-8.534
		c-4.626-7.829-8.216-16.343-10.54-25.37H284.533z"/>
</g>
<g>
	<path style="fill:#C9F3FF;" d="M239.911,188.057V94.904c0-23.601,19.132-42.733,42.732-42.733H502v135.886H239.911z"/>
	<rect x="399.25" y="52.17" style="fill:#C9F3FF;" width="102.75" height="135.89"/>
</g>
<g>
	<circle style="fill:#B3B6C3;" cx="391.89" cy="391.891" r="51.54"/>
	<circle style="fill:#B3B6C3;" cx="82.63" cy="429.37" r="23.429"/>
</g>
<rect x="150.57" y="181.09" style="fill:#FF5D5D;" width="32.8" height="70.912"/>
<path d="M391.886,330.343c-33.935,0-61.543,27.608-61.543,61.543s27.608,61.543,61.543,61.543s61.543-27.608,61.543-61.543
	S425.821,330.343,391.886,330.343z M391.886,433.429c-22.907,0-41.543-18.636-41.543-41.543s18.636-41.543,41.543-41.543
	s41.543,18.636,41.543,41.543S414.792,433.429,391.886,433.429z"/>
<path d="M502,42.171H282.546c-29.011,0-52.667,23.602-52.732,52.613l-0.197,86.865l-36.246,10.2v-10.762
	c0-2.673-1.07-5.235-2.972-7.113c-1.902-1.879-4.486-2.925-7.148-2.886l-6.28,0.076v-10.286c0-0.943,0.768-1.711,1.711-1.711H204
	c5.523,0,10-4.477,10-10s-4.477-10-10-10h-25.318c-11.972,0-21.711,9.739-21.711,21.711v10.527l-6.52,0.078
	c-5.476,0.066-9.88,4.523-9.88,10v23.195H10c-5.523,0-10,4.477-10,10v113.951c0,5.523,4.477,10,10,10h116.875
	c5.04,0,9.695,2.519,12.453,6.737l26.625,40.727c6.465,9.889,17.378,15.793,29.193,15.793h77.041
	c0.47,5.673,1.336,11.302,2.596,16.825c1.038,4.548,5.084,7.775,9.75,7.775h4.599c1.565,4.636,3.45,9.172,5.645,13.578l-3.256,3.256
	c-3.299,3.299-3.878,8.441-1.396,12.392c9.577,15.24,22.695,28.358,37.936,37.936c3.951,2.482,9.092,1.902,12.392-1.396l3.256-3.256
	c4.406,2.194,8.942,4.08,13.578,5.645v4.599c0,4.666,3.227,8.711,7.775,9.75c8.758,1.999,17.783,3.012,26.825,3.012
	s18.067-1.013,26.825-3.012c4.548-1.038,7.775-5.084,7.775-9.75v-4.599c4.635-1.565,9.172-3.451,13.577-5.645l3.257,3.256
	c3.3,3.299,8.441,3.878,12.392,1.396c15.24-9.577,28.358-22.695,37.936-37.936c2.482-3.95,1.903-9.092-1.396-12.392l-3.256-3.257
	c2.194-4.405,4.08-8.942,5.645-13.577h4.599c4.666,0,8.711-3.227,9.75-7.775c1.999-8.758,3.012-17.783,3.012-26.825V52.171
	C512,46.648,507.523,42.171,502,42.171z M249.814,94.83c0.041-18.008,14.724-32.658,32.732-32.658h109.101v115.886H267.823
	l56.784-56.784c3.905-3.905,3.905-10.237,0-14.143c-3.905-3.905-10.237-3.905-14.143,0l-60.816,60.816L249.814,94.83z
	 M160.572,191.363l12.8-0.154v50.911l-12.8,0.154V191.363z M20,224.677h20v14c0,3.309-2.691,6-6,6H20V224.677z M490.941,406.486
	h-3.755c-4.563,0-8.547,3.088-9.684,7.507c-2.045,7.945-5.23,15.608-9.465,22.777c-2.321,3.929-1.688,8.931,1.539,12.157
	l2.666,2.666c-5.834,7.824-12.824,14.813-20.648,20.648l-2.666-2.666c-3.226-3.227-8.229-3.859-12.157-1.539
	c-7.169,4.235-14.832,7.42-22.777,9.465c-4.418,1.137-7.507,5.122-7.507,9.684v3.755c-9.642,1.408-19.559,1.408-29.2,0v-3.755
	c0-4.563-3.088-8.547-7.507-9.684c-7.945-2.045-15.608-5.23-22.777-9.465c-3.93-2.321-8.931-1.688-12.158,1.539l-2.666,2.666
	c-7.824-5.834-14.813-12.824-20.647-20.648l2.666-2.666c3.227-3.227,3.859-8.229,1.538-12.158
	c-4.235-7.167-7.419-14.83-9.465-22.776c-1.137-4.418-5.122-7.507-9.684-7.507h-3.755c-0.704-4.821-1.059-9.706-1.059-14.6
	s0.355-9.779,1.059-14.6h3.755c4.563,0,8.547-3.088,9.684-7.507c2.045-7.945,5.23-15.608,9.465-22.777
	c2.321-3.929,1.688-8.931-1.539-12.158l-2.666-2.666c5.834-7.824,12.824-14.813,20.648-20.647l2.666,2.666
	c3.227,3.227,8.229,3.86,12.158,1.538c7.167-4.235,14.83-7.419,22.776-9.465c4.418-1.137,7.507-5.122,7.507-9.684v-3.755
	c9.642-1.408,19.559-1.408,29.2,0v3.755c0,4.563,3.088,8.547,7.507,9.684c7.946,2.046,15.609,5.23,22.776,9.465
	c3.929,2.322,8.931,1.688,12.158-1.538l2.666-2.666c7.824,5.834,14.813,12.823,20.648,20.647l-2.666,2.666
	c-3.227,3.227-3.86,8.229-1.539,12.158c4.235,7.169,7.42,14.833,9.465,22.777c1.137,4.418,5.122,7.507,9.684,7.507h3.755
	c0.704,4.821,1.059,9.706,1.059,14.6S491.645,401.665,490.941,406.486z M492,350.289c-0.927-2.222-1.928-4.418-3.005-6.581
	l3.005-3.004V350.289z M492,325.521c-9.411-14.157-21.902-26.356-36.289-35.396c-3.952-2.483-9.093-1.903-12.392,1.396l-3.256,3.256
	c-4.406-2.194-8.941-4.08-13.578-5.645v-4.599c0-4.666-3.227-8.711-7.775-9.75c-17.516-3.997-36.135-3.997-53.65,0
	c-4.548,1.038-7.775,5.084-7.775,9.75v4.599c-4.636,1.565-9.172,3.45-13.578,5.645l-3.256-3.256
	c-3.299-3.3-8.441-3.878-12.392-1.396c-15.24,9.577-28.358,22.695-37.936,37.936c-2.483,3.95-1.903,9.093,1.396,12.392l3.256,3.256
	c-2.194,4.406-4.08,8.942-5.645,13.578h-4.599c-4.666,0-8.711,3.227-9.75,7.775c-1.26,5.523-2.127,11.152-2.596,16.825h-77.041
	c-5.04,0-9.695-2.519-12.453-6.736l-26.625-40.728c-6.465-9.889-17.378-15.793-29.193-15.793H20V264.68h14c14.336,0,26-11.664,26-26
	v-14h80.572v27.717c0,2.673,1.07,5.235,2.972,7.113c1.873,1.851,4.398,2.887,7.028,2.887c0.04,0,0.08,0,0.12,0l32.8-0.395
	c5.476-0.066,9.88-4.523,9.88-10v-39.374l36.539-10.283v32.334c0,5.523,4.477,10,10,10s10-4.477,10-10v-36.62H492V325.521z
	 M492,178.057h-64.645L492,113.412V178.057z M492,85.127l-80.353,80.353V62.171H492V85.127z"/>
<path d="M82.628,395.943c-18.433,0-33.428,14.996-33.428,33.429S64.196,462.8,82.628,462.8s33.429-14.996,33.429-33.428
	S101.061,395.943,82.628,395.943z M82.628,442.8c-7.404,0-13.428-6.024-13.428-13.428c0-7.405,6.024-13.429,13.428-13.429
	c7.405,0,13.429,6.024,13.429,13.429C96.057,436.776,90.033,442.8,82.628,442.8z"/>
<path d="M153.436,403.146h-0.633c-0.613-1.636-1.286-3.253-2.015-4.846l0.446-0.445c3.299-3.299,3.878-8.441,1.396-12.392
	c-6.588-10.483-15.61-19.506-26.093-26.093c-3.951-2.483-9.092-1.902-12.392,1.396l-0.445,0.446
	c-1.593-0.729-3.21-1.401-4.846-2.015v-0.633c0-4.666-3.227-8.711-7.775-9.75c-12.051-2.749-24.85-2.749-36.9,0
	c-4.549,1.038-7.775,5.083-7.775,9.75v0.633c-1.636,0.614-3.252,1.286-4.846,2.015l-0.446-0.446
	c-3.299-3.299-8.439-3.878-12.392-1.396c-10.482,6.587-19.505,15.609-26.092,26.092c-2.483,3.951-1.903,9.093,1.396,12.392
	l0.446,0.446c-0.729,1.593-1.401,3.21-2.015,4.846h-0.633c-4.666,0-8.711,3.227-9.75,7.775C0.697,416.947,0,423.154,0,429.372
	s0.697,12.425,2.072,18.45c1.038,4.549,5.083,7.775,9.75,7.775h0.633c0.613,1.636,1.285,3.252,2.015,4.846l-0.446,0.446
	c-3.299,3.299-3.878,8.442-1.396,12.392c6.587,10.482,15.61,19.505,26.092,26.092c3.951,2.482,9.092,1.903,12.392-1.396l0.446-0.446
	c1.593,0.729,3.21,1.401,4.846,2.015v0.633c0,4.666,3.227,8.711,7.775,9.75c6.025,1.375,12.233,2.072,18.45,2.072
	s12.425-0.697,18.45-2.072c4.549-1.038,7.775-5.083,7.775-9.75v-0.633c1.636-0.613,3.252-1.285,4.846-2.015l0.446,0.446
	c3.299,3.299,8.441,3.879,12.392,1.396c10.483-6.587,19.505-15.61,26.092-26.092c2.482-3.951,1.903-9.092-1.396-12.392l-0.446-0.446
	c0.729-1.594,1.401-3.21,2.015-4.846h0.633c4.666,0,8.711-3.227,9.75-7.775c1.375-6.025,2.072-12.233,2.072-18.45
	s-0.697-12.425-2.072-18.45C162.147,406.373,158.102,403.146,153.436,403.146z M144.949,435.611
	c-4.335,0.231-8.055,3.249-9.147,7.493c-1.27,4.931-3.247,9.688-5.877,14.14c-2.231,3.777-1.733,8.545,1.175,11.775
	c-2.641,3.22-5.604,6.183-8.824,8.824c-3.229-2.908-7.998-3.407-11.775-1.175c-4.453,2.631-9.21,4.608-14.139,5.876
	c-4.245,1.092-7.262,4.812-7.494,9.148c-4.14,0.41-8.34,0.41-12.479,0c-0.231-4.336-3.249-8.056-7.494-9.148
	c-4.929-1.268-9.686-3.246-14.139-5.876c-3.777-2.232-8.545-1.733-11.775,1.175c-3.219-2.642-6.182-5.604-8.824-8.824
	c2.908-3.23,3.407-7.999,1.175-11.775c-2.631-4.453-4.608-9.21-5.876-14.139c-1.092-4.245-4.812-7.262-9.148-7.494
	c-0.205-2.07-0.308-4.154-0.308-6.24s0.103-4.17,0.308-6.24c4.336-0.231,8.056-3.249,9.148-7.494
	c1.269-4.929,3.246-9.687,5.876-14.139c2.231-3.777,1.733-8.545-1.175-11.775c2.641-3.22,5.604-6.183,8.824-8.824
	c3.229,2.908,7.998,3.407,11.775,1.175c4.452-2.63,9.209-4.607,14.14-5.877c4.244-1.092,7.261-4.812,7.493-9.147
	c4.14-0.41,8.34-0.41,12.479,0c0.231,4.335,3.249,8.055,7.493,9.147c4.931,1.27,9.688,3.247,14.14,5.877
	c3.776,2.231,8.545,1.733,11.775-1.175c3.22,2.641,6.182,5.604,8.824,8.824c-2.908,3.23-3.406,7.999-1.175,11.775
	c2.63,4.452,4.607,9.209,5.877,14.14c1.092,4.244,4.812,7.261,9.147,7.493c0.205,2.07,0.308,4.154,0.308,6.24
	S145.154,433.542,144.949,435.611z"/>
<path d="M239.91,265.22c-2.63,0-5.21,1.07-7.07,2.93s-2.93,4.44-2.93,7.07c0,2.64,1.07,5.21,2.93,7.08
	c1.86,1.86,4.44,2.92,7.07,2.92s5.21-1.06,7.07-2.92c1.86-1.87,2.93-4.44,2.93-7.08c0-2.63-1.07-5.2-2.93-7.07
	C245.12,266.29,242.54,265.22,239.91,265.22z"/>
<path d="M46.75,140h29.98l32.199,32.198c1.913,1.913,4.47,2.929,7.073,2.929c1.288,0,2.587-0.25,3.824-0.762
	c3.737-1.548,6.173-5.194,6.173-9.239V140h12.25c25.778,0,46.75-20.972,46.75-46.75v-46.5C185,20.972,164.028,0,138.25,0h-91.5
	C20.972,0,0,20.972,0,46.75v46.5C0,119.028,20.972,140,46.75,140z M20,46.75C20,32,32,20,46.75,20h91.5C153,20,165,32,165,46.75
	v46.5C165,108,153,120,138.25,120H116c-5.523,0-10,4.477-10,10v10.985l-18.057-18.056c-1.875-1.875-4.418-2.929-7.071-2.929H46.75
	C32,120,20,108,20,93.25V46.75z"/>
<path d="M49.34,80.5c2.63,0,5.21-1.07,7.07-2.93c1.87-1.86,2.93-4.44,2.93-7.07s-1.06-5.21-2.93-7.07
	c-1.86-1.86-4.43-2.93-7.07-2.93c-2.63,0-5.21,1.07-7.07,2.93s-2.93,4.44-2.93,7.07s1.07,5.21,2.93,7.07S46.71,80.5,49.34,80.5z"/>
<path d="M90,80.5c2.63,0,5.21-1.07,7.07-2.93S100,73.13,100,70.5s-1.07-5.21-2.93-7.07S92.63,60.5,90,60.5s-5.21,1.07-7.07,2.93
	S80,67.87,80,70.5s1.07,5.21,2.93,7.07S87.37,80.5,90,80.5z"/>
<path d="M130.66,80.5c2.63,0,5.21-1.07,7.07-2.93s2.93-4.44,2.93-7.07s-1.07-5.21-2.93-7.07c-1.86-1.86-4.44-2.93-7.07-2.93
	c-2.64,0-5.21,1.07-7.07,2.93s-2.93,4.44-2.93,7.07s1.07,5.21,2.93,7.07S128.03,80.5,130.66,80.5z"/>
<path d="M344.77,96.97c2.63,0,5.2-1.07,7.07-2.93c1.86-1.86,2.93-4.44,2.93-7.07s-1.07-5.21-2.93-7.07
	c-1.87-1.86-4.44-2.93-7.07-2.93c-2.64,0-5.21,1.07-7.08,2.93c-1.86,1.86-2.92,4.44-2.92,7.07s1.06,5.21,2.92,7.07
	C339.56,95.9,342.13,96.97,344.77,96.97z"/>
<g>
</g>
<g>
</g>
<g>
</g>
<g>
</g>
<g>
</g>
<g>
</g>
<g>
</g>
<g>
</g>
<g>
</g>
<g>
</g>
<g>
</g>
<g>
</g>
<g>
</g>
<g>
</g>
<g>
</g>
</svg>
