<?xml version="1.0" encoding="iso-8859-1"?>
<!-- Generator: Adobe Illustrator 19.0.0, SVG Export Plug-In . SVG Version: 6.00 Build 0)  -->
<svg version="1.1" id="Capa_1" xmlns="http://www.w3.org/2000/svg" xmlns:xlink="http://www.w3.org/1999/xlink" x="0px" y="0px"
	 viewBox="0 0 512 512" style="enable-background:new 0 0 512 512;" xml:space="preserve">
<path style="fill:#4DBAF6;" d="M30,189.965h452c11.046,0,20,8.954,20,20v272c0,11.046-8.954,20-20,20H30c-11.046,0-20-8.954-20-20
	v-272C10,198.919,18.954,189.965,30,189.965z"/>
<rect x="63.994" y="189.95" style="fill:#FFFFFF;" width="366.01" height="312"/>
<g>
	<path style="fill:#A0E557;" d="M258.664,459.233c0,0,57.476,14.804,97.594-25.314s24.907-97.187,24.907-97.187
		s-57.069-15.211-97.187,24.907S258.664,459.233,258.664,459.233z"/>
	<path style="fill:#A0E557;" d="M228.022,361.639c-40.118-40.118-97.187-24.907-97.187-24.907s-15.211,57.069,24.907,97.187
		s97.594,25.314,97.594,25.314S268.14,401.757,228.022,361.639z"/>
	<path style="fill:#A0E557;" d="M256.127,338.637c0,0,29.718-17.545,29.718-50.535s-29.718-50.2-29.718-50.2
		s-29.719,17.21-29.719,50.2S256.127,338.637,256.127,338.637z"/>
</g>
<path d="M383.741,327.069c-2.557-0.681-63.141-16.194-106.834,27.499c-9.499,9.499-16.215,19.816-20.907,30.172
	c-4.692-10.356-11.408-20.673-20.907-30.172c-43.693-43.691-104.277-28.181-106.834-27.499c-3.461,0.922-6.165,3.626-7.087,7.087
	c-0.682,2.558-16.193,63.142,27.499,106.834c25.506,25.506,56.912,30.966,79.128,30.966c15.807,0,26.962-2.764,28.031-3.04
	c0.058-0.015,0.112-0.04,0.17-0.056c0.058,0.016,0.112,0.041,0.17,0.056c1.069,0.275,12.221,3.04,28.031,3.04
	c22.216,0,53.625-5.463,79.128-30.966c43.692-43.693,28.18-104.276,27.499-106.834C389.906,330.695,387.202,327.991,383.741,327.069
	z M162.813,426.848c-28.292-28.292-25.703-66.94-23.453-81.589c14.67-2.253,53.307-4.832,81.59,23.451
	c21.899,21.899,25.45,50.133,24.938,68.643l-28.608-28.608c-3.905-3.905-10.237-3.905-14.142,0s-3.905,10.237,0,14.142
	l28.945,28.944C213.632,452.478,185.073,449.109,162.813,426.848z M349.187,426.848c-22.118,22.118-50.705,25.521-69.208,24.922
	l28.882-28.882c3.905-3.905,3.906-10.237,0-14.142s-10.237-3.905-14.142,0l-28.607,28.607c-0.513-18.517,3.041-46.746,24.937-68.642
	c28.292-28.292,66.94-25.703,81.589-23.453C374.892,359.926,377.473,398.562,349.187,426.848z"/>
<path d="M251.043,347.248c1.568,0.926,3.326,1.389,5.084,1.389c1.758,0,3.516-0.463,5.084-1.389
	c1.414-0.835,34.634-20.887,34.634-59.146c0-38.314-33.29-58.033-34.707-58.854c-3.1-1.795-6.923-1.795-10.022,0
	c-1.417,0.821-34.707,20.54-34.707,58.854C216.409,326.361,249.629,346.413,251.043,347.248z M256.116,250.139
	c7.227,5.842,19.729,18.73,19.729,37.963c0,19.275-12.433,32.272-19.718,38.233c-7.285-5.961-19.718-18.958-19.718-38.233
	C236.409,268.816,248.875,255.973,256.116,250.139z"/>
<path d="M482,179.965H30c-16.542,0-30,13.458-30,30v272c0,16.542,13.458,30,30,30h452c16.542,0,30-13.458,30-30v-272
	C512,193.423,498.542,179.965,482,179.965z M53.994,491.965H30c-5.514,0-10-4.486-10-10v-272c0-5.514,4.486-10,10-10h23.994V491.965
	z M492,481.965c0,5.514-4.486,10-10,10H73.994v-292H102v43c0,5.523,4.477,10,10,10s10-4.477,10-10v-43h298v215.852
	c0,5.523,4.477,10,10,10s10-4.477,10-10V199.965h42c5.514,0,10,4.486,10,10V481.965z"/>
<path d="M430,448.295c-2.63,0-5.21,1.07-7.07,2.93c-1.86,1.86-2.93,4.44-2.93,7.07c0,2.64,1.07,5.21,2.93,7.07
	c1.86,1.87,4.44,2.93,7.07,2.93s5.21-1.06,7.07-2.93c1.86-1.86,2.93-4.44,2.93-7.07s-1.07-5.2-2.93-7.07
	C435.21,449.365,432.63,448.295,430,448.295z"/>
<path d="M465.99,335.975c-2.63,0-5.21,1.07-7.07,2.93s-2.93,4.44-2.93,7.07s1.07,5.21,2.93,7.07c1.86,1.86,4.44,2.93,7.07,2.93
	s5.21-1.07,7.07-2.93c1.86-1.86,2.93-4.44,2.93-7.07s-1.07-5.21-2.93-7.07C471.2,337.045,468.62,335.975,465.99,335.975z"/>
<path d="M291.032,125.053c2.559,0,5.119-0.976,7.071-2.929c3.905-3.905,3.905-10.237,0-14.143c-23.244-23.244-61.065-23.244-84.31,0
	c-3.905,3.905-3.905,10.237,0,14.143c3.905,3.905,10.237,3.905,14.143,0c15.445-15.446,40.579-15.446,56.024,0
	C285.913,124.077,288.473,125.053,291.032,125.053z"/>
<path d="M329.748,90.478c3.905-3.905,3.905-10.237,0-14.142c-40.693-40.692-106.905-40.691-147.599,0
	c-3.905,3.905-3.905,10.237,0,14.143c1.953,1.953,4.512,2.929,7.071,2.929s5.119-0.976,7.071-2.929
	c32.895-32.896,86.419-32.896,119.315,0C319.511,94.384,325.843,94.384,329.748,90.478z"/>
<path d="M163.903,58.091c50.753-50.753,133.337-50.754,184.089,0c1.953,1.953,4.512,2.929,7.071,2.929s5.119-0.976,7.071-2.929
	c3.905-3.905,3.905-10.237,0-14.143c-58.551-58.551-153.822-58.551-212.375,0c-3.905,3.905-3.905,10.237,0,14.143
	C153.666,61.997,159.998,61.997,163.903,58.091z"/>
<path d="M248.88,143.394c-1.86,1.86-2.93,4.44-2.93,7.07s1.07,5.21,2.93,7.07s4.44,2.93,7.07,2.93s5.21-1.07,7.07-2.93
	c1.86-1.86,2.93-4.44,2.93-7.07s-1.07-5.21-2.93-7.07s-4.44-2.93-7.07-2.93S250.74,141.535,248.88,143.394z"/>
<path d="M122,280.965c0-2.63-1.07-5.21-2.93-7.07c-1.86-1.86-4.44-2.93-7.07-2.93s-5.21,1.07-7.07,2.93s-2.93,4.44-2.93,7.07
	s1.07,5.21,2.93,7.07c1.86,1.86,4.44,2.93,7.07,2.93s5.21-1.07,7.07-2.93S122,283.595,122,280.965z"/>
<g>
</g>
<g>
</g>
<g>
</g>
<g>
</g>
<g>
</g>
<g>
</g>
<g>
</g>
<g>
</g>
<g>
</g>
<g>
</g>
<g>
</g>
<g>
</g>
<g>
</g>
<g>
</g>
<g>
</g>
</svg>
