<?xml version="1.0" encoding="iso-8859-1"?>
<!-- Generator: Adobe Illustrator 19.0.0, SVG Export Plug-In . SVG Version: 6.00 Build 0)  -->
<svg version="1.1" id="Capa_1" xmlns="http://www.w3.org/2000/svg" xmlns:xlink="http://www.w3.org/1999/xlink" x="0px" y="0px"
	 viewBox="0 0 512 512" style="enable-background:new 0 0 512 512;" xml:space="preserve">
<g>
	<path style="fill:#A0E557;" d="M182.608,444.103c0,0,48.061,12.379,81.608-21.168s20.827-81.268,20.827-81.268
		s-47.721-12.72-81.268,20.827S182.608,444.103,182.608,444.103z"/>
	<path style="fill:#A0E557;" d="M147.444,243.387c-43.869-43.869-106.273-27.236-106.273-27.236s-16.633,62.404,27.236,106.273
		s106.718,27.681,106.718,27.681S191.313,287.256,147.444,243.387z"/>
	<path style="fill:#A0E557;" d="M285.263,170.955c42.901-42.901,26.635-103.929,26.635-103.929S250.87,50.76,207.969,93.661
		s-27.07,104.364-27.07,104.364S242.361,213.856,285.263,170.955z"/>
</g>
<circle style="fill:#4DBAF6;" cx="108.48" cy="38" r="28"/>
<circle style="fill:#FF5D5D;" cx="474" cy="142.98" r="28"/>
<circle style="fill:#62CD4D;" cx="474" cy="396" r="28"/>
<path d="M502,492H188.044v-36.733c4.096,0.578,9.546,1.104,15.898,1.104c18.899,0,45.63-4.649,67.345-26.364
	c36.756-36.757,24.185-87.96,23.444-90.819c-0.063-0.244-0.135-0.487-0.216-0.728c-1.074-3.17-3.662-5.593-6.896-6.455
	c-2.176-0.58-53.719-13.775-90.915,23.418c-3.26,3.26-6.127,6.634-8.66,10.077V209.523c5.153,0.738,12.087,1.418,20.172,1.418
	c23.621,0,57.01-5.808,84.118-32.916c46.443-46.444,29.951-110.857,29.227-113.576c-0.923-3.461-3.626-6.165-7.088-7.087
	c-2.717-0.724-67.13-17.217-113.575,29.227c-28.744,28.744-33.535,64.536-32.854,88.271v77.82
	c-3.797-5.611-8.268-11.104-13.528-16.364c-47.402-47.4-113.146-30.567-115.92-29.827c-3.462,0.922-6.165,3.626-7.088,7.087
	c-0.739,2.775-17.573,68.52,29.827,115.92c27.67,27.67,61.744,33.593,85.854,33.593c8.39,0,15.569-0.718,20.855-1.486V492H56
	c-5.522,0-10,4.477-10,10s4.478,10,10,10h446c5.522,0,10-4.477,10-10S507.522,492,502,492z M215.04,100.732
	c30.801-30.802,72.951-27.636,88.346-25.196c2.443,15.419,5.598,57.556-25.194,88.348c-24.356,24.356-55.956,27.649-75.812,26.803
	l39.003-39.002c3.905-3.905,3.905-10.237,0-14.142s-10.235-3.905-14.143,0l-39.06,39.059
	C187.288,156.791,190.542,125.23,215.04,100.732z M210.847,369.566c22.721-22.721,52.894-21.268,65.615-19.389
	c1.781,12.738,3.129,43.242-19.317,65.688c-16.522,16.523-37.501,20.259-52.561,20.406l22.802-22.802
	c3.905-3.905,3.905-10.237,0-14.143c-3.906-3.904-10.236-3.904-14.143,0l-22.875,22.875
	C190.477,407.183,194.196,386.217,210.847,369.566z M75.478,315.354c-31.69-31.69-28.303-75.091-25.797-90.722
	c15.624-2.554,58.854-6.013,90.692,25.827c25.175,25.175,28.395,57.889,27.45,78.202l-33.874-33.874
	c-3.906-3.905-10.236-3.905-14.143,0c-3.905,3.905-3.905,10.237,0,14.143l33.93,33.93
	C133.47,343.852,100.795,340.672,75.478,315.354z"/>
<path d="M10,492c-2.63,0-5.21,1.07-7.07,2.93C1.069,496.79,0,499.37,0,502s1.069,5.21,2.93,7.07S7.37,512,10,512
	s5.21-1.07,7.069-2.93C18.93,507.21,20,504.63,20,502s-1.07-5.21-2.931-7.07C15.21,493.07,12.63,492,10,492z"/>
<path d="M264.84,124.09c2.63,0,5.2-1.07,7.07-2.93c1.859-1.86,2.93-4.44,2.93-7.07s-1.07-5.21-2.93-7.07
	c-1.87-1.86-4.44-2.93-7.07-2.93c-2.64,0-5.21,1.07-7.08,2.93c-1.86,1.86-2.92,4.44-2.92,7.07s1.06,5.21,2.92,7.07
	C259.63,123.02,262.2,124.09,264.84,124.09z"/>
<path d="M98.477,74.655v62.011c0,5.523,4.478,10,10,10s10-4.477,10-10V74.655c16.116-4.402,28-19.163,28-36.655
	c0-20.953-17.047-38-38-38s-38,17.047-38,38C70.477,55.492,82.361,70.253,98.477,74.655z M108.477,20c9.925,0,18,8.075,18,18
	s-8.075,18-18,18s-18-8.075-18-18S98.552,20,108.477,20z"/>
<path d="M474,358c-17.492,0-32.253,11.884-36.655,28h-17.678c-5.522,0-10,4.477-10,10s4.478,10,10,10h17.678
	c4.402,16.116,19.163,28,36.655,28c20.953,0,38-17.047,38-38S494.953,358,474,358z M474,414c-9.925,0-18-8.075-18-18s8.075-18,18-18
	s18,8.075,18,18S483.925,414,474,414z"/>
<path d="M108.477,163.613c-5.522,0-10,4.477-10,10v0.765c0,5.523,4.478,10,10,10s10-4.477,10-10v-0.765
	C118.477,168.09,113.999,163.613,108.477,163.613z"/>
<path d="M400.667,152.98h36.678c4.402,16.116,19.163,28,36.655,28c20.953,0,38-17.047,38-38s-17.047-38-38-38
	c-17.492,0-32.253,11.884-36.655,28h-36.678c-5.522,0-10,4.477-10,10S395.145,152.98,400.667,152.98z M474,124.98
	c9.925,0,18,8.075,18,18s-8.075,18-18,18s-18-8.075-18-18S464.075,124.98,474,124.98z"/>
<path d="M362.333,152.98h1c5.522,0,10-4.477,10-10s-4.478-10-10-10h-1c-5.522,0-10,4.477-10,10S356.811,152.98,362.333,152.98z"/>
<path d="M358.167,406H384.5c5.522,0,10-4.477,10-10s-4.478-10-10-10h-26.333c-5.522,0-10,4.477-10,10S352.645,406,358.167,406z"/>
<path d="M313.149,388.93c-1.859,1.86-2.92,4.44-2.92,7.07s1.061,5.21,2.92,7.07c1.86,1.86,4.44,2.93,7.08,2.93
	c2.63,0,5.21-1.07,7.061-2.93c1.87-1.86,2.939-4.44,2.939-7.07s-1.069-5.21-2.939-7.07c-1.851-1.86-4.431-2.93-7.061-2.93
	C317.59,386,315.01,387.07,313.149,388.93z"/>
<g>
</g>
<g>
</g>
<g>
</g>
<g>
</g>
<g>
</g>
<g>
</g>
<g>
</g>
<g>
</g>
<g>
</g>
<g>
</g>
<g>
</g>
<g>
</g>
<g>
</g>
<g>
</g>
<g>
</g>
</svg>
