<?xml version="1.0" encoding="iso-8859-1"?>
<!-- Generator: Adobe Illustrator 19.0.0, SVG Export Plug-In . SVG Version: 6.00 Build 0)  -->
<svg version="1.1" id="Capa_1" xmlns="http://www.w3.org/2000/svg" xmlns:xlink="http://www.w3.org/1999/xlink" x="0px" y="0px"
	 viewBox="0 0 512 512" style="enable-background:new 0 0 512 512;" xml:space="preserve">
<path style="fill:#4DBAF6;" d="M412,30v452c0,11.046-8.954,20-20,20H120c-11.046,0-20-8.954-20-20V30c0-11.046,8.954-20,20-20h272
	C403.046,10,412,18.954,412,30z"/>
<rect x="100.01" y="63.994" style="fill:#FFFFFF;" width="312" height="366.01"/>
<path style="fill:#4DBAF6;" d="M176.104,190.497l79.903-79.903l79.903,79.903c44.129,44.129,44.129,115.677,0,159.806l0,0
	c-44.129,44.129-115.677,44.129-159.806,0l0,0C131.975,306.174,131.975,234.626,176.104,190.497z"/>
<g>
	<circle style="fill:#FFFFFF;" cx="296.44" cy="314.56" r="20"/>
	<circle style="fill:#FFFFFF;" cx="215.83" cy="226.06" r="20"/>
</g>
<path d="M411.997,157c-2.631,0-5.21,1.07-7.07,2.93c-1.86,1.86-2.93,4.44-2.93,7.07s1.069,5.21,2.93,7.07s4.439,2.93,7.07,2.93
	c2.63,0,5.21-1.07,7.069-2.93c1.86-1.86,2.931-4.44,2.931-7.07s-1.07-5.21-2.931-7.07C417.207,158.07,414.637,157,411.997,157z"/>
<path d="M422,212c0-5.523-4.478-10-10-10s-10,4.477-10,10v208H185.674c-5.522,0-10,4.477-10,10s4.478,10,10,10H402v42
	c0,5.514-4.486,10-10,10H120c-5.514,0-10-4.486-10-10V73.994h292v47.211c0,5.523,4.478,10,10,10s10-4.477,10-10V30
	c0-16.542-13.458-30-30-30H120c-16.542,0-30,13.458-30,30v452c0,16.542,13.458,30,30,30h272c16.542,0,30-13.458,30-30V212z M120,20
	h272c5.514,0,10,4.486,10,10v23.994H110V30C110,24.486,114.486,20,120,20z"/>
<path d="M135.937,422.93c-1.86,1.86-2.93,4.44-2.93,7.07s1.069,5.21,2.93,7.07s4.44,2.93,7.07,2.93s5.21-1.07,7.069-2.93
	c1.86-1.86,2.931-4.44,2.931-7.07s-1.07-5.21-2.931-7.07c-1.859-1.86-4.439-2.93-7.069-2.93S137.797,421.07,135.937,422.93z"/>
<path d="M263.057,473.06c1.87-1.86,2.93-4.44,2.93-7.07s-1.06-5.21-2.93-7.07c-1.86-1.86-4.43-2.93-7.07-2.93
	c-2.63,0-5.21,1.07-7.069,2.93c-1.86,1.86-2.931,4.44-2.931,7.07s1.07,5.21,2.931,7.07c1.859,1.86,4.439,2.93,7.069,2.93
	C258.627,475.99,261.196,474.92,263.057,473.06z"/>
<path d="M256.007,393.342c31.498,0,62.995-11.989,86.975-35.968c47.957-47.958,47.957-125.99,0-173.948l-79.903-79.903
	c-3.906-3.904-10.236-3.904-14.143,0l-79.903,79.903c-47.957,47.958-47.957,125.99,0,173.948
	C193.012,381.353,224.509,393.342,256.007,393.342z M183.175,197.568l72.832-72.833l72.832,72.833
	c40.16,40.159,40.16,105.504,0,145.663c-20.082,20.083-46.453,30.122-72.832,30.12c-26.373-0.002-52.755-10.042-72.832-30.119
	C143.015,303.072,143.015,237.728,183.175,197.568z"/>
<path d="M215.351,336.845c1.554,0.877,3.241,1.294,4.907,1.294c3.489,0,6.879-1.83,8.717-5.086l58.942-104.409
	c2.715-4.81,1.018-10.909-3.792-13.624c-4.808-2.714-10.909-1.019-13.624,3.792l-58.942,104.409
	C208.844,328.03,210.541,334.13,215.351,336.845z"/>
<path d="M266.438,314.556c0,16.542,13.458,30,30,30s30-13.458,30-30s-13.458-30-30-30S266.438,298.014,266.438,314.556z
	 M296.438,304.556c5.514,0,10,4.486,10,10s-4.486,10-10,10s-10-4.486-10-10S290.924,304.556,296.438,304.556z"/>
<path d="M215.83,256.065c16.542,0,30-13.458,30-30s-13.458-30-30-30s-30,13.458-30,30S199.288,256.065,215.83,256.065z
	 M215.83,216.065c5.514,0,10,4.486,10,10s-4.486,10-10,10s-10-4.486-10-10S210.316,216.065,215.83,216.065z"/>
<g>
</g>
<g>
</g>
<g>
</g>
<g>
</g>
<g>
</g>
<g>
</g>
<g>
</g>
<g>
</g>
<g>
</g>
<g>
</g>
<g>
</g>
<g>
</g>
<g>
</g>
<g>
</g>
<g>
</g>
</svg>
