<?xml version="1.0" encoding="iso-8859-1"?>
<!-- Generator: Adobe Illustrator 19.0.0, SVG Export Plug-In . SVG Version: 6.00 Build 0)  -->
<svg version="1.1" id="Capa_1" xmlns="http://www.w3.org/2000/svg" xmlns:xlink="http://www.w3.org/1999/xlink" x="0px" y="0px"
	 viewBox="0 0 512 512" style="enable-background:new 0 0 512 512;" xml:space="preserve">
<circle style="fill:#A0E557;" cx="41.996" cy="41.996" r="31.997"/>
<circle style="fill:#72D8FF;" cx="42.026" cy="470" r="31.997"/>
<g>
	<circle style="fill:#FFC66C;" cx="256.018" cy="256.018" r="151.987"/>
	<circle style="fill:#FFC66C;" cx="470" cy="470" r="31.997"/>
</g>
<circle style="fill:#72D8FF;" cx="470" cy="41.996" r="31.997"/>
<g>
	<path style="fill:#A0E557;" d="M258.045,307.584c0,0,43.826,11.289,74.418-19.302s18.992-74.108,18.992-74.108
		s-43.516-11.599-74.108,18.992S258.045,307.584,258.045,307.584z"/>
	<path style="fill:#A0E557;" d="M234.68,233.166c-30.591-30.591-74.108-18.992-74.108-18.992s-11.599,43.516,18.992,74.108
		s74.418,19.302,74.418,19.302S265.27,263.757,234.68,233.166z"/>
</g>
<path d="M41.996,83.993c23.157,0,41.996-18.839,41.996-41.996S65.153,0,41.996,0S0,18.839,0,41.996S18.839,83.993,41.996,83.993z
	 M41.996,19.998c12.13,0,21.998,9.868,21.998,21.998s-9.868,21.998-21.998,21.998s-21.998-9.868-21.998-21.998
	S29.866,19.998,41.996,19.998z"/>
<path d="M42.031,428.007c-23.157,0-41.996,18.839-41.996,41.996S18.874,512,42.031,512s41.996-18.839,41.996-41.996
	S65.189,428.007,42.031,428.007z M42.031,492.002c-12.13,0-21.998-9.868-21.998-21.998s9.868-21.998,21.998-21.998
	s21.998,9.868,21.998,21.998S54.161,492.002,42.031,492.002z"/>
<path d="M470.004,428.007c-23.157,0-41.996,18.839-41.996,41.996S446.847,512,470.004,512S512,493.161,512,470.004
	S493.161,428.007,470.004,428.007z M470.004,492.002c-12.13,0-21.998-9.868-21.998-21.998s9.868-21.998,21.998-21.998
	s21.998,9.868,21.998,21.998S482.134,492.002,470.004,492.002z"/>
<path d="M470.004,83.993c23.157,0,41.996-18.839,41.996-41.996S493.161,0,470.004,0s-41.996,18.839-41.996,41.996
	S446.847,83.993,470.004,83.993z M470.004,19.998c12.13,0,21.998,9.868,21.998,21.998s-9.868,21.998-21.998,21.998
	s-21.998-9.868-21.998-21.998S457.874,19.998,470.004,19.998z"/>
<path d="M256.013,114.025l0.932,0.003c0.025,0,0.05,0,0.075,0c5.488,0,9.957-4.429,9.997-9.926
	c0.04-5.522-4.404-10.031-9.926-10.071l-1.078-0.004c-5.522,0-9.999,4.477-9.999,9.999S250.491,114.025,256.013,114.025z"/>
<path d="M308.023,102.559c-5.229-1.773-10.907,1.031-12.679,6.261s1.031,10.907,6.261,12.679
	c57.657,19.535,96.396,73.592,96.396,134.512c0,74.931-58.345,136.482-131.989,141.631v-78.62c3.26,0.355,7.136,0.623,11.476,0.623
	c17.409,0,42.033-4.283,62.045-24.293c34.272-34.273,22.118-81.749,21.584-83.753c-0.923-3.461-3.626-6.164-7.087-7.086
	c-2.003-0.534-49.478-12.69-83.753,21.583c-6.117,6.117-10.759,12.667-14.264,19.309c-3.505-6.642-8.145-13.192-14.264-19.309
	c-34.274-34.273-81.75-22.118-83.753-21.583c-3.462,0.922-6.164,3.626-7.087,7.086c-0.534,2.004-12.688,49.48,21.584,83.753
	c20.013,20.013,44.636,24.294,62.045,24.294c4.339,0,8.216-0.268,11.476-0.623v78.621c-73.644-5.149-131.989-66.7-131.989-141.631
	c0-60.922,38.74-114.979,96.4-134.513c5.23-1.772,8.033-7.448,6.262-12.679c-1.772-5.229-7.448-8.034-12.68-6.261
	c-65.782,22.287-109.981,83.956-109.981,153.455c0,89.319,72.667,161.986,161.986,161.986s161.986-72.667,161.986-161.986
	C417.999,186.515,373.803,124.846,308.023,102.559z M284.419,240.236c20.098-20.099,46.727-19.16,58.489-17.518
	c1.646,11.782,2.574,38.401-17.517,58.492c-19.794,19.794-46.762,19.191-58.734,17.719c-0.295-2.322-0.555-5.214-0.639-8.503
	c0.031-1.44,0.033-2.937,0.001-4.484C266.379,272.57,270.045,254.61,284.419,240.236z M245.331,298.97
	c-11.936,1.516-38.766,2.172-58.695-17.76c-20.099-20.098-19.161-46.728-17.519-58.489c11.783-1.646,38.401-2.576,58.491,17.516
	C247.413,260.04,246.8,287.024,245.331,298.97z"/>
<path d="M390.796,131.229c2.56,0,5.118-0.977,7.07-2.929l27.22-27.22c3.905-3.905,3.905-10.236,0-14.141
	c-3.906-3.905-10.235-3.905-14.142,0l-27.22,27.22c-3.905,3.905-3.905,10.236,0,14.141
	C385.679,130.253,388.238,131.229,390.796,131.229z"/>
<path d="M114.159,128.3c1.953,1.953,4.512,2.929,7.07,2.929s5.118-0.977,7.07-2.929c3.905-3.905,3.905-10.236,0-14.141
	l-27.219-27.22c-3.905-3.905-10.234-3.905-14.142,0c-3.905,3.905-3.905,10.236,0,14.141L114.159,128.3z"/>
<path d="M114.159,383.726l-27.22,27.22c-3.905,3.905-3.905,10.236,0,14.141c1.953,1.953,4.512,2.929,7.07,2.929
	s5.118-0.977,7.07-2.929l27.22-27.22c3.905-3.905,3.905-10.236,0-14.141C124.395,379.82,118.065,379.821,114.159,383.726z"/>
<path d="M425.086,410.946l-27.22-27.22c-3.905-3.905-10.234-3.905-14.142,0c-3.905,3.905-3.905,10.236,0,14.141l27.22,27.22
	c1.953,1.953,4.512,2.929,7.07,2.929c2.559,0,5.118-0.977,7.07-2.929C428.992,421.182,428.992,414.85,425.086,410.946z"/>
<g>
</g>
<g>
</g>
<g>
</g>
<g>
</g>
<g>
</g>
<g>
</g>
<g>
</g>
<g>
</g>
<g>
</g>
<g>
</g>
<g>
</g>
<g>
</g>
<g>
</g>
<g>
</g>
<g>
</g>
</svg>
