<?xml version="1.0" encoding="iso-8859-1"?>
<!-- Generator: Adobe Illustrator 19.0.0, SVG Export Plug-In . SVG Version: 6.00 Build 0)  -->
<svg version="1.1" id="Capa_1" xmlns="http://www.w3.org/2000/svg" xmlns:xlink="http://www.w3.org/1999/xlink" x="0px" y="0px"
	 viewBox="0 0 512 512" style="enable-background:new 0 0 512 512;" xml:space="preserve">
<path style="fill:#72D8FF;" d="M463.311,284.246c0.985-4.384,1.522-8.937,1.522-13.618c0-34.2-27.742-61.924-61.963-61.924
	c-2.227,0-4.423,0.13-6.59,0.359C374.69,150.311,318.24,108.398,252,108.398c-74.187,0-136.093,52.572-150.501,122.493
	c-1.666-0.096-3.341-0.16-5.031-0.16C48.714,230.732,10,269.421,10,317.147s38.714,86.414,86.469,86.414h343.568
	c34.221,0,61.963-27.724,61.963-61.924C502,315.666,485.995,293.443,463.311,284.246z"/>
<g>
	<path style="fill:#A0E557;" d="M258.3,401.256c0,0,49.63,12.783,84.272-21.858s21.507-83.92,21.507-83.92
		s-49.278-13.135-83.92,21.507S258.3,401.256,258.3,401.256z"/>
	<path style="fill:#A0E557;" d="M231.841,316.984c-34.642-34.642-83.92-21.507-83.92-21.507s-13.135,49.278,21.507,83.92
		s84.272,21.858,84.272,21.858S266.483,351.626,231.841,316.984z"/>
</g>
<path d="M474.403,278.436c0.286-2.602,0.43-5.209,0.43-7.808c0-39.633-32.24-71.881-71.884-71.925
	c-11.813-28.167-31.154-52.314-56.274-70.157C318.907,108.823,286.17,98.399,252,98.399c-37.892,0-74.836,13.25-104.027,37.31
	c-26.641,21.957-45.738,51.923-54.378,85.066C41.726,222.298,0,264.944,0,317.147c0,53.163,43.275,96.414,96.469,96.414h132.322
	c0.974,0.024,1.936,0.039,2.874,0.039c0.991,0,1.954-0.015,2.901-0.039h42.864c0.948,0.023,1.913,0.039,2.904,0.039
	c19.453,0,46.961-4.783,69.309-27.131c38.277-38.278,24.695-91.327,24.099-93.567c-0.923-3.461-3.626-6.165-7.088-7.087
	c-2.237-0.596-55.287-14.179-93.566,24.098c-7.529,7.529-13.058,15.644-17.088,23.839c-4.03-8.195-9.559-16.31-17.088-23.839
	c-38.279-38.279-91.328-24.695-93.566-24.098c-3.462,0.922-6.165,3.626-7.088,7.087c-0.597,2.24-14.179,55.289,24.099,93.567
	c2.598,2.598,5.268,4.949,7.984,7.092H96.469c-42.165,0-76.469-34.28-76.469-76.414c0-42.135,34.304-76.415,76.469-76.415
	c0.954,0,1.905,0.03,2.855,0.065c0.477,0.02,0.968,0.043,1.484,0.072c17.187,0.972,33.547,7.681,46.465,19.163
	c1.905,1.693,4.276,2.526,6.64,2.526c2.757,0,5.502-1.134,7.478-3.356c3.67-4.127,3.298-10.448-0.83-14.118
	c-13.267-11.793-29.409-19.606-46.647-22.767C131.396,161.496,187.81,118.399,252,118.399c59.997,0,114.207,37.821,134.893,94.113
	c1.581,4.3,5.889,6.975,10.438,6.496c1.909-0.202,3.772-0.304,5.539-0.304c28.653,0,51.964,23.293,51.964,51.925
	c0,3.804-0.431,7.648-1.278,11.427c-1.072,4.772,1.466,9.62,5.999,11.458c19.71,7.991,32.445,26.881,32.445,48.122
	c0,28.631-23.311,51.924-51.964,51.924h-20.033c-5.522,0-10,4.477-10,10s4.478,10,10,10h20.033
	c39.681,0,71.964-32.265,71.964-71.924C512,314.939,497.48,290.925,474.403,278.436z M287.23,324.055
	c23.39-23.39,55.2-21.87,68.284-20.015c1.858,13.101,3.369,44.904-20.014,68.286c-17.43,17.429-39.638,21.145-55.302,21.174
	l26.039-26.039c3.905-3.905,3.905-10.237,0-14.142c-3.906-3.905-10.236-3.905-14.143,0l-26.055,26.055
	c0.001-0.813-0.004-1.636-0.021-2.476C266.406,361.475,270.596,340.69,287.23,324.055z M176.499,372.327
	c-23.388-23.388-21.871-55.203-20.015-68.285c13.101-1.859,44.903-3.369,68.285,20.013c15.745,15.745,20.295,35.384,21.051,50.578
	l-17.954-17.953c-3.906-3.905-10.236-3.905-14.143,0c-3.905,3.905-3.905,10.237,0,14.143l22.642,22.642
	c-1.077,0.05-2.199,0.082-3.36,0.096h-2.527C214.953,393.352,193.545,389.373,176.499,372.327z"/>
<path d="M379,393.56c-2.63,0-5.21,1.07-7.07,2.93s-2.93,4.44-2.93,7.07s1.069,5.21,2.93,7.07s4.44,2.93,7.07,2.93
	s5.21-1.07,7.069-2.93c1.86-1.86,2.931-4.44,2.931-7.07s-1.07-5.21-2.931-7.07C384.21,394.63,381.63,393.56,379,393.56z"/>
<path d="M288.381,233.507c2.559,0,5.118-0.977,7.071-2.929c3.905-3.905,3.905-10.237,0-14.142
	c-10.539-10.54-24.552-16.344-39.457-16.344c-14.904,0-28.917,5.804-39.456,16.344c-3.905,3.905-3.905,10.237,0,14.142
	c3.906,3.905,10.236,3.905,14.143,0c6.762-6.762,15.752-10.485,25.313-10.485c9.563,0,18.553,3.724,25.314,10.485
	C283.263,232.531,285.821,233.507,288.381,233.507z"/>
<path d="M320.767,201.121c2.56,0,5.118-0.977,7.071-2.929c3.905-3.905,3.905-10.237,0-14.142
	c-19.19-19.189-44.704-29.758-71.843-29.758s-52.652,10.568-71.842,29.758c-3.905,3.905-3.905,10.237,0,14.142
	c3.906,3.905,10.236,3.905,14.143,0c15.412-15.412,35.903-23.9,57.699-23.9s42.288,8.488,57.7,23.9
	C315.648,200.145,318.207,201.121,320.767,201.121z"/>
<path d="M248.92,249.031c-1.86,1.87-2.93,4.44-2.93,7.08c0,2.63,1.069,5.2,2.93,7.07c1.87,1.86,4.439,2.93,7.08,2.93
	c2.63,0,5.2-1.07,7.06-2.93c1.87-1.87,2.94-4.44,2.94-7.07c0-2.63-1.07-5.21-2.94-7.08c-1.859-1.86-4.43-2.92-7.06-2.92
	C253.359,246.11,250.79,247.171,248.92,249.031z"/>
<g>
</g>
<g>
</g>
<g>
</g>
<g>
</g>
<g>
</g>
<g>
</g>
<g>
</g>
<g>
</g>
<g>
</g>
<g>
</g>
<g>
</g>
<g>
</g>
<g>
</g>
<g>
</g>
<g>
</g>
</svg>
