<?xml version="1.0" encoding="iso-8859-1"?>
<!-- Generator: Adobe Illustrator 19.0.0, SVG Export Plug-In . SVG Version: 6.00 Build 0)  -->
<svg version="1.1" id="Capa_1" xmlns="http://www.w3.org/2000/svg" xmlns:xlink="http://www.w3.org/1999/xlink" x="0px" y="0px"
	 viewBox="0 0 512.001 512.001" style="enable-background:new 0 0 512.001 512.001;" xml:space="preserve">
<circle style="fill:#ADE5FF;" cx="374.014" cy="138.014" r="127.984"/>
<g>
	<path style="fill:#A0E557;" d="M121.198,362.483C87.655,328.94,39.94,341.658,39.94,341.658s-12.718,47.715,20.824,81.258
		s81.598,21.165,81.598,21.165S154.739,396.025,121.198,362.483z"/>
	<path style="fill:#A0E557;" d="M149.54,350.399c0,0,56.282,14.497,95.568-24.789s24.39-95.169,24.39-95.169
		s-55.884-14.895-95.169,24.39S149.54,350.399,149.54,350.399z"/>
	<path style="fill:#A0E557;" d="M144.072,198.033c0,0,15.829-61.455-27.067-104.351S13.089,67.05,13.089,67.05
		s-16.264,61.02,26.632,103.916S144.072,198.033,144.072,198.033z"/>
</g>
<path d="M374.018,256.001c-5.521,0-9.999,4.476-9.999,9.999s4.477,9.999,9.999,9.999h0.17c5.521,0,9.999-4.476,9.999-9.999
	s-4.477-9.999-9.999-9.999H374.018z"/>
<path d="M502.002,491.971H156.924V361.893c4.637,0.626,10.667,1.171,17.62,1.171c21.796,0,52.608-5.358,77.634-30.383
	c31.613-31.613,31.636-72.232,29.201-92.391c12.23,11.096,26.381,19.944,41.935,26.093c5.134,2.032,10.944-0.488,12.974-5.623
	c2.03-5.135-0.487-10.945-5.623-12.974c-45.337-17.922-74.633-61.009-74.633-109.769c0-65.057,52.928-117.985,117.985-117.985
	s117.985,52.928,117.985,117.985c0,48.988-29.48,92.147-75.106,109.954c-5.144,2.008-7.687,7.805-5.679,12.949
	c1.542,3.951,5.317,6.366,9.317,6.366c1.209,0,2.438-0.221,3.633-0.687c25.592-9.988,47.441-27.231,63.189-49.865
	C503.479,193.561,512,166.34,512,138.014C512,61.93,450.101,0.031,374.017,0.031S236.034,61.93,236.034,138.014
	c0,28.221,8.464,55.359,24.476,78.478c0.564,0.815,1.154,1.607,1.734,2.408c-19.077-2.714-61.95-4.176-94.988,28.859
	c-3.908,3.908-7.331,7.957-10.334,12.09v-84.981c0.682-23.732-4.109-59.52-32.85-88.26C77.635,40.172,13.232,56.664,10.513,57.389
	c-3.462,0.922-6.164,3.626-7.087,7.086c-0.725,2.719-17.215,67.124,29.223,113.562c27.108,27.108,60.489,32.912,84.107,32.912
	c8.082,0,15.017-0.68,20.169-1.418v112.282c-0.068,2.506-0.062,4.91,0,7.196v36.479c-2.533-3.442-5.399-6.816-8.659-10.076
	c-37.19-37.19-88.729-23.996-90.903-23.415c-3.462,0.922-6.164,3.626-7.087,7.086c-0.579,2.176-13.774,53.712,23.416,90.904
	c21.714,21.714,48.438,26.361,67.337,26.361c6.351,0,11.801-0.526,15.896-1.104v36.728H10.064c-5.521,0-9.999,4.476-9.999,9.999
	s4.477,9.999,9.999,9.999h491.938c5.521,0,9.999-4.476,9.999-9.999S507.524,491.971,502.002,491.971z M46.791,163.895
	C15.996,133.101,19.158,90.957,21.598,75.56c15.413-2.442,57.547-5.597,88.336,25.192c24.35,24.349,27.644,55.94,26.799,75.801
	l-43.858-43.858c-3.906-3.905-10.235-3.905-14.141,0c-3.905,3.905-3.905,10.236,0,14.141l43.859,43.859
	C102.733,191.541,71.141,188.247,46.791,163.895z M181.399,261.902c27.544-27.545,65.147-25.123,79.567-22.93
	c2.195,14.438,4.608,52.032-22.929,79.569c-21.311,21.311-48.769,24.834-66.863,24.365l33.981-33.981
	c3.905-3.905,3.905-10.236,0-14.141c-3.906-3.905-10.235-3.905-14.141,0l-33.981,33.981
	C156.565,310.669,160.089,283.211,181.399,261.902z M48.454,350.206c12.68-1.827,43.072-3.256,65.674,19.348
	c16.521,16.521,20.257,37.502,20.404,52.556l-22.8-22.8c-3.904-3.905-10.233-3.905-14.141,0c-3.905,3.905-3.905,10.236,0,14.14
	l22.871,22.872c-15.016-0.109-35.979-3.828-52.627-20.475C45.097,393.109,46.57,362.904,48.454,350.206z"/>
<path d="M59.207,103.17c-2.63,0-5.209,1.07-7.068,2.93c-1.86,1.86-2.931,4.429-2.931,7.069c0,2.63,1.07,5.209,2.931,7.069
	c1.859,1.86,4.438,2.93,7.068,2.93s5.209-1.07,7.069-2.93c1.86-1.86,2.93-4.439,2.93-7.069s-1.069-5.209-2.93-7.069
	C64.417,104.24,61.837,103.17,59.207,103.17z"/>
<path d="M403.465,153.839v-29.87c0-16.237-13.21-29.447-29.447-29.447c-16.237,0-29.447,13.21-29.447,29.447v29.87
	c0,16.237,13.21,29.447,29.447,29.447C390.255,183.286,403.465,170.077,403.465,153.839z M383.468,153.839
	c0,5.21-4.239,9.45-9.45,9.45c-5.21,0-9.45-4.239-9.45-9.45v-29.87c0-5.21,4.239-9.45,9.45-9.45c5.21,0,9.45,4.239,9.45,9.45
	V153.839z"/>
<path d="M304.097,94.521h-10.624c-5.521,0-9.999,4.476-9.999,9.999s4.477,9.999,9.999,9.999h10.624c5.063,0,9.342,3.294,9.342,7.193
	s-4.277,7.193-9.342,7.193h-10.624c-5.521,0-9.999,4.476-9.999,9.999c0,5.522,4.477,9.999,9.999,9.999h10.624
	c5.063,0,9.342,3.294,9.342,7.193s-4.277,7.193-9.342,7.193h-10.624c-5.521,0-9.999,4.476-9.999,9.999s4.477,9.999,9.999,9.999
	h10.624c16.178,0,29.339-12.197,29.339-27.191c0-6.516-2.489-12.503-6.628-17.192c4.139-4.688,6.628-10.676,6.628-17.192
	C333.435,106.719,320.274,94.521,304.097,94.521z"/>
<path d="M421.859,182.474c1.287,0.553,2.626,0.814,3.943,0.814c3.876,0,7.564-2.268,9.191-6.054l29.548-68.767
	c2.181-5.073-0.165-10.954-5.238-13.133c-5.074-2.181-10.955,0.166-13.134,5.239L416.62,169.34
	C414.44,174.413,416.786,180.293,421.859,182.474z"/>
<path d="M434.35,111.589c1.86-1.86,2.93-4.439,2.93-7.069s-1.069-5.209-2.93-7.069c-1.86-1.86-4.429-2.93-7.069-2.93
	c-2.63,0-5.209,1.07-7.068,2.93c-1.86,1.86-2.931,4.439-2.931,7.069s1.07,5.209,2.931,7.069c1.869,1.86,4.438,2.93,7.068,2.93
	S432.491,113.449,434.35,111.589z"/>
<path d="M451.728,166.442c-1.86,1.86-2.92,4.439-2.92,7.069s1.06,5.209,2.92,7.069s4.439,2.93,7.079,2.93
	c2.63,0,5.209-1.07,7.069-2.93c1.859-1.86,2.93-4.439,2.93-7.069s-1.07-5.209-2.93-7.069s-4.439-2.93-7.069-2.93
	C456.168,163.512,453.588,164.582,451.728,166.442z"/>
<g>
</g>
<g>
</g>
<g>
</g>
<g>
</g>
<g>
</g>
<g>
</g>
<g>
</g>
<g>
</g>
<g>
</g>
<g>
</g>
<g>
</g>
<g>
</g>
<g>
</g>
<g>
</g>
<g>
</g>
</svg>
