<?xml version="1.0" encoding="iso-8859-1"?>
<!-- Generator: Adobe Illustrator 19.0.0, SVG Export Plug-In . SVG Version: 6.00 Build 0)  -->
<svg version="1.1" id="Capa_1" xmlns="http://www.w3.org/2000/svg" xmlns:xlink="http://www.w3.org/1999/xlink" x="0px" y="0px"
	 viewBox="0 0 512 512" style="enable-background:new 0 0 512 512;" xml:space="preserve">
<path style="fill:#FFEFD5;" d="M491.667,165.715l-226-124.79c-6.017-3.322-13.318-3.322-19.335,0l-226,124.79
	C13.958,169.234,10,175.941,10,183.223v270.364c0,11.046,8.954,20,20,20h452c11.046,0,20-8.954,20-20V183.223
	C502,175.941,498.042,169.234,491.667,165.715z"/>
<path d="M338,483.59c-2.63,0-5.21-1.07-7.07-2.93c-1.86-1.87-2.93-4.44-2.93-7.07c0-2.64,1.07-5.21,2.93-7.07
	c1.86-1.87,4.44-2.93,7.07-2.93s5.21,1.06,7.07,2.93c1.86,1.86,2.93,4.43,2.93,7.07c0,2.63-1.07,5.2-2.93,7.07
	C343.21,482.52,340.63,483.59,338,483.59z"/>
<path d="M104.35,129.32c-2.63,0-5.21-1.07-7.07-2.93s-2.93-4.44-2.93-7.07s1.07-5.21,2.93-7.07s4.44-2.93,7.07-2.93
	s5.21,1.07,7.07,2.93c1.87,1.86,2.93,4.44,2.93,7.07s-1.06,5.21-2.93,7.07C109.56,128.25,106.98,129.32,104.35,129.32z"/>
<g>
	<path style="fill:#A0E557;" d="M93.681,393.452c0,0,36.834,9.487,62.544-16.223s15.962-62.283,15.962-62.283
		s-36.573-9.748-62.283,15.962C84.193,356.618,93.681,393.452,93.681,393.452z"/>
	<path style="fill:#A0E557;" d="M91.97,346.648c0,0,32.754-19.337,32.754-55.697S91.97,235.624,91.97,235.624
		s-32.754,18.968-32.754,55.328S91.97,346.648,91.97,346.648z"/>
	<path style="fill:#A0E557;" d="M74.096,330.907c-25.71-25.71-62.283-15.962-62.283-15.962s-9.748,36.573,15.962,62.283
		s62.544,16.223,62.544,16.223S99.807,356.618,74.096,330.907z"/>
	<path style="fill:#A0E557;" d="M257.681,393.452c0,0,36.834,9.487,62.544-16.223s15.962-62.283,15.962-62.283
		s-36.573-9.748-62.283,15.962C248.193,356.618,257.681,393.452,257.681,393.452z"/>
	<path style="fill:#A0E557;" d="M255.97,346.648c0,0,32.754-19.337,32.754-55.697s-32.754-55.328-32.754-55.328
		s-32.754,18.968-32.754,55.328S255.97,346.648,255.97,346.648z"/>
	<path style="fill:#A0E557;" d="M238.096,330.907c-25.71-25.71-62.283-15.962-62.283-15.962s-9.748,36.573,15.962,62.283
		s62.544,16.223,62.544,16.223S263.807,356.618,238.096,330.907z"/>
	<path style="fill:#A0E557;" d="M421.681,393.452c0,0,36.834,9.487,62.544-16.223s15.962-62.283,15.962-62.283
		s-36.573-9.748-62.283,15.962C412.193,356.618,421.681,393.452,421.681,393.452z"/>
	<path style="fill:#A0E557;" d="M419.97,346.648c0,0,32.754-19.337,32.754-55.697s-32.754-55.328-32.754-55.328
		s-32.754,18.968-32.754,55.328S419.97,346.648,419.97,346.648z"/>
	<path style="fill:#A0E557;" d="M402.096,330.907c-25.71-25.71-62.283-15.962-62.283-15.962s-9.748,36.573,15.962,62.283
		s62.544,16.223,62.544,16.223S427.807,356.618,402.096,330.907z"/>
</g>
<path d="M512,183.223c0-10.921-5.939-20.984-15.499-26.263l-226-124.789c-9.082-5.015-19.923-5.014-29.003,0L137.015,89.863
	c-4.835,2.67-6.59,8.753-3.921,13.588c2.67,4.834,8.753,6.589,13.588,3.92l104.484-57.693c3.026-1.671,6.64-1.671,9.667,0
	l226,124.79c3.187,1.759,5.166,5.114,5.166,8.754v120.299c-7.808-0.738-19.035-0.76-30.962,2.635
	c1.066-4.735,1.686-9.799,1.686-15.205c0-41.646-36.201-63.089-37.743-63.982c-3.099-1.794-6.922-1.795-10.022,0
	c-1.541,0.893-37.743,22.336-37.743,63.982c0,5.399,0.619,10.457,1.682,15.187c-19.41-5.506-36.965-1.974-40.897-1.046
	c-3.935-0.93-21.525-4.469-40.963,1.063c1.066-4.735,1.686-9.799,1.686-15.205c0-41.646-36.201-63.089-37.743-63.982
	c-3.099-1.794-6.922-1.795-10.022,0c-1.541,0.893-37.743,22.336-37.743,63.982c0,5.399,0.619,10.457,1.682,15.187
	c-19.411-5.506-36.965-1.974-40.898-1.046c-3.935-0.93-21.525-4.469-40.963,1.064c1.066-4.735,1.686-9.799,1.686-15.205
	c0-41.646-36.201-63.089-37.743-63.982c-3.099-1.794-6.922-1.795-10.022,0c-1.541,0.893-37.743,22.336-37.743,63.982
	c0,5.399,0.619,10.457,1.682,15.187c-11.903-3.376-23.104-3.353-30.898-2.616v-120.3c0-3.64,1.979-6.995,5.167-8.754l43.381-23.953
	c4.834-2.67,6.59-8.753,3.92-13.588c-2.669-4.834-8.753-6.589-13.588-3.92l-43.38,23.953C5.939,162.239,0,172.302,0,183.223v270.364
	c0,16.542,13.458,30,30,30h258.724c5.523,0,10-4.477,10-10s-4.477-10-10-10h-22.716v-58.765c2.378,0.209,5.06,0.353,7.994,0.353
	c14.946,0,36.099-3.679,53.295-20.875c4.408-4.408,7.916-9.069,10.704-13.815c2.788,4.746,6.296,9.408,10.704,13.816
	c17.198,17.197,38.348,20.875,53.294,20.875c2.939,0,5.627-0.145,8.009-0.354v58.766H380.5c-5.523,0-10,4.477-10,10s4.477,10,10,10
	H482c16.542,0,30-13.458,30-30V183.223z M255.968,247.797c8.031,6.304,22.756,20.899,22.756,43.155
	c0,15.158-6.821,26.844-13.719,34.788c-0.515,0.554-1.016,1.112-1.504,1.674c-2.713,2.92-5.362,5.259-7.531,6.99
	c-1.973-1.574-4.344-3.651-6.798-6.211c-0.909-1.076-1.866-2.141-2.87-3.192c-6.676-7.924-13.086-19.355-13.086-34.049
	C233.216,268.685,247.954,254.088,255.968,247.797z M183.981,329.209c0.076-2.109,0.241-4.012,0.437-5.638
	c10.114-1.192,30.93-1.271,46.608,14.408c0.477,0.477,0.939,0.96,1.388,1.446c0.287,0.324,0.573,0.655,0.859,0.969
	c9.442,10.782,12.276,23.47,12.746,33.447c-0.084,2.302-0.075,4.486-0.003,6.523c-0.078,1.628-0.204,3.117-0.352,4.429
	c-10.253,1.153-31.088,1.093-46.817-14.635c-11.384-11.384-14.483-25.378-14.867-36.082
	C184.026,332.385,184.022,330.758,183.981,329.209z M163.578,323.552c0.198,1.642,0.364,3.565,0.44,5.697
	c-0.04,1.525-0.044,3.126,0.002,4.789c-0.377,10.714-3.471,24.725-14.865,36.12c-15.721,15.72-36.542,15.787-46.798,14.638
	c-0.156-1.421-0.286-3.053-0.358-4.843c0.054-1.764,0.061-3.634,0.001-5.593c0.437-10.818,3.581-24.986,14.975-36.381
	C132.721,322.232,153.463,322.332,163.578,323.552z M91.968,247.797c8.031,6.304,22.756,20.899,22.756,43.155
	c0,15.158-6.821,26.844-13.719,34.788c-0.515,0.554-1.016,1.112-1.504,1.674c-2.713,2.92-5.362,5.259-7.531,6.99
	c-1.973-1.574-4.344-3.651-6.798-6.211c-0.909-1.076-1.866-2.141-2.87-3.192c-6.676-7.924-13.086-19.355-13.086-34.049
	C69.216,268.685,83.954,254.088,91.968,247.797z M20.417,323.571c10.115-1.192,30.93-1.271,46.608,14.408
	c0.477,0.477,0.939,0.96,1.388,1.446c0.287,0.324,0.573,0.655,0.859,0.969c9.442,10.782,12.276,23.47,12.746,33.447
	c-0.084,2.302-0.075,4.486-0.003,6.523c-0.078,1.628-0.204,3.117-0.352,4.429c-10.253,1.153-31.088,1.093-46.817-14.635
	C23.639,358.95,20.462,345.213,20,334.576v-5.841C20.083,326.815,20.237,325.074,20.417,323.571z M20,453.587v-70.01
	c0.234,0.241,0.464,0.484,0.704,0.723c17.198,17.197,38.348,20.875,53.294,20.875c2.939,0,5.627-0.145,8.009-0.354v58.766H30
	C24.486,463.587,20,459.101,20,453.587z M102.008,463.587v-58.765c2.378,0.209,5.06,0.353,7.994,0.353
	c14.946,0,36.099-3.679,53.295-20.875c4.408-4.408,7.916-9.069,10.704-13.815c2.788,4.746,6.296,9.408,10.704,13.816
	c17.198,17.197,38.348,20.875,53.294,20.875c2.939,0,5.627-0.145,8.009-0.354v58.766h-144V463.587z M313.154,370.158
	c-15.721,15.72-36.54,15.787-46.798,14.638c-0.156-1.421-0.286-3.053-0.358-4.843c0.054-1.764,0.061-3.634,0.001-5.593
	c0.437-10.818,3.581-24.986,14.975-36.381c15.746-15.747,36.489-15.646,46.603-14.427c0.198,1.642,0.364,3.565,0.44,5.697
	c-0.04,1.525-0.044,3.126,0.002,4.789C327.643,344.752,324.549,358.762,313.154,370.158z M491.578,323.552
	c0.183,1.521,0.34,3.285,0.422,5.232v5.752c-0.455,10.647-3.627,24.402-14.846,35.622c-15.72,15.72-36.541,15.787-46.798,14.638
	c-0.156-1.421-0.286-3.053-0.358-4.843c0.054-1.764,0.061-3.634,0.001-5.593c0.437-10.818,3.581-24.986,14.975-36.381
	C460.721,322.232,481.464,322.332,491.578,323.552z M419.968,247.797c8.031,6.304,22.756,20.899,22.756,43.155
	c0,15.158-6.821,26.844-13.719,34.788c-0.515,0.554-1.016,1.112-1.504,1.674c-2.713,2.92-5.362,5.259-7.531,6.99
	c-1.973-1.574-4.344-3.651-6.798-6.211c-0.909-1.076-1.866-2.141-2.87-3.192c-6.676-7.924-13.086-19.355-13.086-34.049
	C397.216,268.685,411.954,254.088,419.968,247.797z M409.664,384.793c-10.253,1.153-31.088,1.093-46.817-14.635
	c-11.384-11.384-14.483-25.378-14.867-36.082c0.047-1.692,0.043-3.318,0.001-4.867c0.076-2.109,0.241-4.012,0.437-5.638
	c10.114-1.192,30.93-1.271,46.608,14.408c0.477,0.477,0.939,0.96,1.388,1.446c0.287,0.324,0.573,0.655,0.859,0.969
	c9.442,10.782,12.276,23.47,12.746,33.447c-0.084,2.302-0.075,4.486-0.003,6.523C409.938,381.992,409.811,383.481,409.664,384.793z
	 M492,453.587c0,5.514-4.486,10-10,10h-51.992v-58.765c2.378,0.209,5.06,0.353,7.994,0.353c14.946,0,36.099-3.679,53.295-20.875
	c0.24-0.24,0.469-0.482,0.704-0.723v70.01H492z"/>
<g>
</g>
<g>
</g>
<g>
</g>
<g>
</g>
<g>
</g>
<g>
</g>
<g>
</g>
<g>
</g>
<g>
</g>
<g>
</g>
<g>
</g>
<g>
</g>
<g>
</g>
<g>
</g>
<g>
</g>
</svg>
