<?xml version="1.0" encoding="iso-8859-1"?>
<!-- Generator: Adobe Illustrator 19.0.0, SVG Export Plug-In . SVG Version: 6.00 Build 0)  -->
<svg version="1.1" id="Capa_1" xmlns="http://www.w3.org/2000/svg" xmlns:xlink="http://www.w3.org/1999/xlink" x="0px" y="0px"
	 viewBox="0 0 512 512" style="enable-background:new 0 0 512 512;" xml:space="preserve">
<g>
	<path style="fill:#4DBAF6;" d="M99.227,37.646V10H59.182v27.646c0,5.34,4.329,9.669,9.669,9.669h20.707
		C94.898,47.315,99.227,42.986,99.227,37.646z"/>
	<path style="fill:#4DBAF6;" d="M276.023,37.646V10h-40.045v27.646c0,5.34,4.329,9.669,9.669,9.669h20.707
		C271.694,47.315,276.023,42.986,276.023,37.646z"/>
	<path style="fill:#4DBAF6;" d="M452.818,37.646V10h-40.045v27.646c0,5.34,4.329,9.669,9.669,9.669h20.707
		C448.489,47.315,452.818,42.986,452.818,37.646z"/>
</g>
<path style="fill:#FFC66C;" d="M131.965,296.719c-8.932-50.243-29.289-85.343-52.972-85.343c-20.811,0-39.053,27.103-49.232,67.768
	c-1.193,4.766-2.275,9.719-3.238,14.836l52.492,64.815L131.965,296.719z"/>
<g>
	<path style="fill:#A0E557;" d="M148,382.036C148,428.511,117.108,448,79.002,448l0,0v-55.107c0-55.139,30.892-99.04,68.998-99.04
		l0,0V382.036z"/>
	<path style="fill:#A0E557;" d="M10,293.853L10,293.853c38.107,0,68.998,43.9,68.998,99.04V448l0,0
		C40.892,448,10,428.511,10,382.036V293.853z"/>
</g>
<path style="fill:#FFC66C;" d="M308.965,296.719c-8.932-50.243-29.289-85.343-52.972-85.343c-20.811,0-39.053,27.103-49.232,67.768
	c-1.193,4.766-2.275,9.719-3.238,14.836l52.492,64.815L308.965,296.719z"/>
<g>
	<path style="fill:#A0E557;" d="M325,382.036C325,428.511,294.108,448,256.002,448l0,0v-55.107c0-55.139,30.892-99.04,68.998-99.04
		l0,0V382.036z"/>
	<path style="fill:#A0E557;" d="M187,293.853L187,293.853c38.107,0,68.998,43.9,68.998,99.04V448l0,0
		C217.892,448,187,428.511,187,382.036V293.853z"/>
</g>
<path style="fill:#FFC66C;" d="M485.965,296.719c-8.932-50.243-29.289-85.343-52.972-85.343c-20.811,0-39.053,27.103-49.232,67.768
	c-1.193,4.766-2.275,9.719-3.238,14.836l52.492,64.815L485.965,296.719z"/>
<g>
	<path style="fill:#A0E557;" d="M502,382.036C502,428.511,471.108,448,433.002,448l0,0v-55.107c0-55.139,30.892-99.04,68.998-99.04
		l0,0V382.036z"/>
	<path style="fill:#A0E557;" d="M364,293.853L364,293.853c38.107,0,68.998,43.9,68.998,99.04V448l0,0
		C394.892,448,364,428.511,364,382.036V293.853z"/>
</g>
<path d="M325.002,372.036c-5.523,0-10,4.477-10,10c0,41.87-27.33,53.113-48.998,55.442v-44.585
	c0-41.541,18.949-76.512,44.486-86.298c0.076-0.012,0.152-0.017,0.228-0.03c1.085-0.193,2.094-0.56,3.013-1.059
	c0.424-0.124,0.844-0.263,1.271-0.374v4.534c0,5.523,4.477,10,10,10s10-4.477,10-10v-15.813c0-5.523-4.477-10-10-10
	c-2.788,0-5.549,0.195-8.277,0.574c-4.73-21.724-11.629-40.39-20.171-54.421c-14.407-23.663-30.008-28.63-40.559-28.63
	c-25.468,0-46.948,27.46-58.933,75.34c-0.63,2.518-1.232,5.095-1.801,7.709c-2.722-0.378-5.478-0.571-8.259-0.571
	c-5.523,0-10,4.477-10,10v88.183c0,24.682,8.198,44.741,23.708,58.009c11.64,9.958,27.164,15.919,45.29,17.508V502
	c0,5.523,4.477,10,10,10c5.523,0,10-4.477,10-10v-44.447c18.128-1.589,33.652-7.55,45.293-17.508
	c15.51-13.269,23.708-33.328,23.708-58.009C335.002,376.513,330.525,372.036,325.002,372.036z M216.463,281.571
	c9.013-36.005,24.899-60.196,39.532-60.196c13.431,0,31.68,21.693,41.566,69.059c-11.087,5.556-21.156,14.528-29.545,26.533
	c-4.74,6.782-8.75,14.319-12.014,22.4c-3.264-8.081-7.275-15.618-12.014-22.4c-8.391-12.008-18.464-20.982-29.554-26.537
	C215.068,287.417,215.743,284.449,216.463,281.571z M197.002,382.036v-76.903c27.787,7.188,48.998,43.806,48.998,87.76v44.585
	C224.332,435.149,197.002,423.906,197.002,382.036z"/>
<path d="M325.012,333.667h-0.01c-5.523,0-9.995,4.477-9.995,10s4.482,10,10.005,10c5.522,0,10-4.477,10-10
	S330.535,333.667,325.012,333.667z"/>
<path d="M148,283.853c-2.788,0-5.549,0.195-8.277,0.574c-4.73-21.724-11.629-40.39-20.171-54.421
	c-14.407-23.663-30.008-28.63-40.559-28.63c-25.468,0-46.948,27.46-58.933,75.34c-0.63,2.518-1.232,5.095-1.801,7.709
	c-2.722-0.378-5.478-0.571-8.259-0.571c-5.523,0-10,4.477-10,10v88.183c0,24.682,8.198,44.741,23.708,58.009
	c11.64,9.958,27.164,15.919,45.29,17.508V502c0,5.523,4.477,10,10,10s10-4.477,10-10v-44.447
	c18.128-1.589,33.652-7.55,45.293-17.508C149.802,426.776,158,406.717,158,382.036v-88.183C158,288.33,153.523,283.853,148,283.853z
	 M39.277,282.333h15.057c5.523,0,10-4.477,10-10s-4.477-10-10-10H45.32c9.176-25.118,21.835-40.958,33.674-40.958
	c13.431,0,31.68,21.693,41.566,69.059c-11.087,5.556-21.156,14.528-29.545,26.533c-4.74,6.782-8.75,14.319-12.014,22.4
	c-3.264-8.081-7.275-15.618-12.014-22.4c-8.391-12.008-18.464-20.982-29.554-26.537C38.011,287.68,38.626,284.973,39.277,282.333z
	 M20,382.036v-76.903c27.787,7.188,48.998,43.806,48.998,87.76v44.585C47.33,435.149,20,423.906,20,382.036z M138,382.036
	c0,41.87-27.33,53.113-48.998,55.442v-44.585c0-41.541,18.949-76.512,44.486-86.298c0.076-0.012,0.152-0.017,0.228-0.03
	c1.085-0.193,2.094-0.56,3.013-1.059c0.424-0.124,0.844-0.263,1.271-0.374V382.036z"/>
<path d="M502,283.853c-2.788,0-5.549,0.195-8.277,0.574c-4.73-21.724-11.629-40.39-20.171-54.421
	c-14.407-23.663-30.008-28.63-40.559-28.63c-25.468,0-46.948,27.46-58.933,75.34c-0.63,2.518-1.232,5.095-1.801,7.709
	c-2.722-0.378-5.478-0.571-8.259-0.571c-5.523,0-10,4.477-10,10v88.183c0,24.682,8.198,44.741,23.708,58.009
	c11.64,9.958,27.164,15.919,45.29,17.508V502c0,5.523,4.477,10,10,10s10-4.477,10-10v-44.447
	c18.128-1.589,33.652-7.55,45.293-17.508C503.802,426.776,512,406.717,512,382.036v-88.183C512,288.33,507.523,283.853,502,283.853z
	 M393.461,281.571c9.013-36.005,24.899-60.196,39.532-60.196c13.431,0,31.68,21.693,41.566,69.059
	c-11.087,5.556-21.156,14.528-29.545,26.533c-4.74,6.782-8.75,14.319-12.014,22.4c-3.264-8.081-7.275-15.618-12.014-22.4
	c-8.391-12.008-18.464-20.982-29.554-26.537C392.066,287.417,392.741,284.449,393.461,281.571z M374,382.036v-76.903
	c27.787,7.188,48.998,43.806,48.998,87.76v44.585C401.33,435.149,374,423.906,374,382.036z M492,382.036
	c0,41.87-27.33,53.113-48.998,55.442v-44.585c0-41.541,18.949-76.512,44.486-86.298c0.076-0.012,0.152-0.017,0.228-0.03
	c1.085-0.193,2.094-0.56,3.013-1.059c0.424-0.124,0.844-0.263,1.271-0.374V382.036z"/>
<path d="M10,20h39.182v17.646c0,10.846,8.823,19.669,19.669,19.669h20.707c10.846,0,19.669-8.823,19.669-19.669V20h116.75v17.646
	c0,10.846,8.823,19.669,19.669,19.669h20.707c10.846,0,19.669-8.823,19.669-19.669V20h116.75v17.646
	c0,10.846,8.824,19.669,19.669,19.669h20.707c10.846,0,19.669-8.823,19.669-19.669V20H502c5.523,0,10-4.477,10-10s-4.477-10-10-10
	h-49.182h-40.045h-136.75h-40.045H99.228H59.182H10C4.477,0,0,4.477,0,10S4.477,20,10,20z M442.818,20v17.315h-20.045V20H442.818z
	 M266.022,20v17.315h-20.045V20H266.022z M89.228,20v17.315H69.182V20H89.228z"/>
<path d="M210.187,78.928l-22.141,22.141c-3.905,3.905-3.905,10.237,0,14.143c1.953,1.953,4.512,2.929,7.071,2.929
	s5.119-0.976,7.071-2.929l22.141-22.141c3.905-3.905,3.905-10.237,0-14.143C220.424,75.023,214.092,75.023,210.187,78.928z"/>
<path d="M246.003,97.07v18.346c0,5.523,4.477,10,10,10s10-4.477,10-10V97.07c0-5.523-4.477-10-10-10S246.003,91.547,246.003,97.07z"
	/>
<path d="M287.555,78.928c-3.905,3.905-3.905,10.237,0,14.143l22.341,22.341c1.953,1.953,4.512,2.929,7.071,2.929
	s5.119-0.976,7.071-2.929c3.905-3.905,3.905-10.237,0-14.143l-22.341-22.341C297.792,75.023,291.46,75.023,287.555,78.928z"/>
<path d="M33.388,78.928l-22.141,22.141c-3.905,3.905-3.905,10.237,0,14.143c1.953,1.953,4.512,2.929,7.071,2.929
	s5.119-0.976,7.071-2.929L47.53,93.071c3.905-3.905,3.905-10.237,0-14.143C43.625,75.023,37.293,75.023,33.388,78.928z"/>
<path d="M69.205,97.07v18.346c0,5.523,4.477,10,10,10s10-4.477,10-10V97.07c0-5.523-4.477-10-10-10S69.205,91.547,69.205,97.07z"/>
<path d="M110.756,78.929c-3.905,3.905-3.905,10.237,0,14.142l22.342,22.341c1.953,1.953,4.512,2.929,7.071,2.929
	s5.119-0.977,7.071-2.929c3.905-3.905,3.905-10.237,0-14.142l-22.342-22.341C120.993,75.023,114.662,75.023,110.756,78.929z"/>
<path d="M386.939,78.929l-22.141,22.141c-3.905,3.905-3.905,10.237,0,14.142c1.953,1.953,4.512,2.929,7.071,2.929
	s5.119-0.977,7.071-2.929l22.141-22.141c3.905-3.905,3.905-10.237,0-14.142S390.845,75.023,386.939,78.929z"/>
<path d="M422.756,97.07v18.346c0,5.523,4.477,10,10,10s10-4.477,10-10V97.07c0-5.523-4.477-10-10-10S422.756,91.547,422.756,97.07z"
	/>
<path d="M478.451,78.928c-3.905-3.905-10.237-3.905-14.143,0c-3.905,3.905-3.905,10.237,0,14.143l22.341,22.341
	c1.953,1.953,4.512,2.929,7.071,2.929s5.119-0.976,7.071-2.929c3.905-3.905,3.905-10.237,0-14.143L478.451,78.928z"/>
<path d="M83.85,282.33c2.63,0,5.21-1.06,7.07-2.92c1.86-1.87,2.93-4.44,2.93-7.08c0-2.63-1.07-5.21-2.93-7.07s-4.44-2.93-7.07-2.93
	s-5.21,1.07-7.07,2.93s-2.93,4.44-2.93,7.07c0,2.64,1.07,5.21,2.93,7.08C78.64,281.27,81.22,282.33,83.85,282.33z"/>
<g>
</g>
<g>
</g>
<g>
</g>
<g>
</g>
<g>
</g>
<g>
</g>
<g>
</g>
<g>
</g>
<g>
</g>
<g>
</g>
<g>
</g>
<g>
</g>
<g>
</g>
<g>
</g>
<g>
</g>
</svg>
