<?xml version="1.0" encoding="iso-8859-1"?>
<!-- Generator: Adobe Illustrator 19.0.0, SVG Export Plug-In . SVG Version: 6.00 Build 0)  -->
<svg version="1.1" id="Capa_1" xmlns="http://www.w3.org/2000/svg" xmlns:xlink="http://www.w3.org/1999/xlink" x="0px" y="0px"
	 viewBox="0 0 512 512" style="enable-background:new 0 0 512 512;" xml:space="preserve">
<polygon style="fill:#FF5D5D;" points="310.041,165.507 309.959,323.5 29.875,323.5 29.875,165.507 10,165.507 45.113,64 
	169.959,10 170.041,10 294.887,64 330,165.507 "/>
<g>
	<rect x="91.96" y="167.5" style="fill:#898998;" width="156" height="156"/>
	<circle style="fill:#898998;" cx="170.04" cy="94.33" r="32"/>
</g>
<path style="fill:#FFFFFF;" d="M502,225.667V225c0-11.046-8.954-20-20-20H330c-11.046,0-20,8.954-20,20v257c0,11.046,8.954,20,20,20
	h152c11.046,0,20-8.954,20-20V305V225.667z"/>
<g>
	<path style="fill:#4DBAF6;" d="M482,205H330c-11.046,0-20,8.954-20,20v22.07h192v-21.403V225C502,213.954,493.046,205,482,205z"/>
	<path style="fill:#4DBAF6;" d="M482.299,502h-153.5C318.417,502,310,493.584,310,483.201v-29.285h191.098v29.285
		C501.098,493.584,492.681,502,482.299,502z"/>
</g>
<path style="fill:#A0E557;" d="M407.549,415.653c0,0,40.182-22.697,40.182-65.376s-40.182-64.943-40.182-64.943
	s-40.182,22.265-40.182,64.943S407.549,415.653,407.549,415.653z"/>
<path d="M36.95,237.07c1.86-1.86,2.93-4.44,2.93-7.07s-1.07-5.21-2.93-7.07c-1.87-1.86-4.44-2.93-7.07-2.93
	c-2.64,0-5.21,1.07-7.08,2.93c-1.86,1.86-2.92,4.44-2.92,7.07s1.06,5.21,2.92,7.07c1.87,1.86,4.44,2.93,7.08,2.93
	C32.51,240,35.08,238.93,36.95,237.07z"/>
<path d="M213.73,211.73c2.63,0,5.21-1.07,7.07-2.93s2.93-4.44,2.93-7.07s-1.07-5.21-2.93-7.07c-1.86-1.86-4.44-2.93-7.07-2.93
	s-5.21,1.07-7.07,2.93c-1.86,1.86-2.93,4.44-2.93,7.07s1.07,5.21,2.93,7.07C208.52,210.66,211.1,211.73,213.73,211.73z"/>
<path d="M212.042,94.334c0-23.159-18.841-42-42-42s-42,18.841-42,42s18.841,42,42,42S212.042,117.492,212.042,94.334z
	 M148.042,94.334c0-12.131,9.869-22,22-22s22,9.869,22,22s-9.869,22-22,22S148.042,106.464,148.042,94.334z"/>
<path d="M133.814,465.103c-3.905,3.905-3.905,10.237,0,14.143c1.953,1.953,4.512,2.929,7.071,2.929s5.119-0.976,7.071-2.929
	c12.437-12.438,32.676-12.439,45.116,0c3.905,3.905,10.237,3.905,14.142,0s3.905-10.237,0-14.142
	C186.978,444.867,154.05,444.868,133.814,465.103z"/>
<path d="M104.186,435.474c-3.905,3.905-3.906,10.237,0,14.142c3.906,3.907,10.238,3.905,14.142,0
	c28.776-28.776,75.599-28.776,104.374,0c1.953,1.953,4.512,2.929,7.071,2.929s5.119-0.976,7.071-2.929
	c3.905-3.905,3.905-10.237,0-14.143C200.269,398.9,140.759,398.9,104.186,435.474z"/>
<path d="M72.123,403.412c-3.905,3.905-3.905,10.237,0,14.143c3.905,3.905,10.237,3.905,14.143,0
	c46.456-46.457,122.044-46.456,168.499,0c1.953,1.953,4.512,2.929,7.071,2.929s5.119-0.976,7.071-2.929
	c3.905-3.905,3.905-10.237,0-14.143C214.652,349.159,126.377,349.16,72.123,403.412z"/>
<path d="M170.52,492c-2.64,0-5.21,1.07-7.08,2.93c-1.86,1.86-2.93,4.44-2.93,7.07s1.07,5.21,2.93,7.07
	c1.87,1.86,4.44,2.93,7.08,2.93c2.63,0,5.21-1.07,7.07-2.93s2.92-4.44,2.92-7.07s-1.06-5.21-2.92-7.07
	C175.73,493.07,173.15,492,170.52,492z"/>
<path d="M482,195H330c-3.49,0-6.841,0.605-9.959,1.706v-21.199H330c3.234,0,6.269-1.564,8.146-4.199
	c1.876-2.634,2.362-6.014,1.305-9.07L304.338,60.731c-0.917-2.651-2.906-4.795-5.481-5.909l-124.846-54
	C172.758,0.28,171.324,0,169.959,0s-2.717,0.28-3.97,0.822l-124.846,54c-2.575,1.114-4.564,3.258-5.481,5.909L0.549,162.238
	c-1.057,3.057-0.571,6.436,1.305,9.07s4.911,4.199,8.146,4.199h9.875V191c0,5.523,4.477,10,10,10s10-4.477,10-10v-25.493
	c0-5.523-4.477-10-10-10h-5.834L53.124,71.43L170,20.877L286.876,71.43l29.083,84.077h-5.918c-5.523,0-10,4.477-10,10L300,313.5
	h-42.043v-146c0-5.523-4.477-10-10-10h-156c-5.523,0-10,4.477-10,10v146H39.875V266c0-5.523-4.477-10-10-10s-10,4.477-10,10v57.5
	c0,5.523,4.477,10,10,10H300V482c0,16.542,13.458,30,30,30h152c16.542,0,30-13.458,30-30V225C512,208.458,498.542,195,482,195z
	 M155.814,245.5l-53.857,53.857V191.642L155.814,245.5z M169.957,259.643l53.857,53.857H116.099L169.957,259.643z M237.957,299.358
	L184.099,245.5l13.933-13.933c3.905-3.905,3.905-10.237,0-14.143c-3.905-3.904-10.237-3.904-14.143,0l-13.933,13.933L116.099,177.5
	h121.857v121.858H237.957z M320,256.97h172v186.947H320V256.97z M330,215h152c5.514,0,10,4.486,10,10v11.97H320.041v-12.78
	C320.456,219.054,324.759,215,330,215z M482,492H330c-5.514,0-10-4.486-10-10v-18.083h172V482C492,487.514,487.514,492,482,492z"/>
<path d="M407.55,468c-2.63,0-5.21,1.07-7.07,2.93c-1.86,1.86-2.93,4.44-2.93,7.07s1.07,5.21,2.93,7.07
	c1.86,1.86,4.44,2.93,7.07,2.93s5.21-1.07,7.07-2.93c1.86-1.86,2.93-4.44,2.93-7.07s-1.07-5.21-2.93-7.07
	C412.76,469.07,410.18,468,407.55,468z"/>
<path d="M412.396,276.586c-3.016-1.671-6.679-1.671-9.693,0c-1.851,1.026-45.335,25.672-45.335,73.69
	c0,47.964,43.416,73.039,45.264,74.083c1.526,0.862,3.222,1.293,4.918,1.293s3.392-0.431,4.918-1.293
	c1.848-1.044,45.263-26.119,45.263-74.083C457.731,302.258,414.247,277.612,412.396,276.586z M417.549,394.985v-34.719
	c0-5.523-4.477-10-10-10s-10,4.477-10,10v34.719c-9.562-9.59-20.182-24.737-20.182-44.708c0-27.774,20.564-45.98,30.181-52.974
	c9.633,7.005,30.183,25.208,30.183,52.974C437.731,370.248,427.111,385.395,417.549,394.985z"/>
<g>
</g>
<g>
</g>
<g>
</g>
<g>
</g>
<g>
</g>
<g>
</g>
<g>
</g>
<g>
</g>
<g>
</g>
<g>
</g>
<g>
</g>
<g>
</g>
<g>
</g>
<g>
</g>
<g>
</g>
</svg>
