<?xml version="1.0" encoding="iso-8859-1"?>
<!-- Generator: Adobe Illustrator 19.0.0, SVG Export Plug-In . SVG Version: 6.00 Build 0)  -->
<svg version="1.1" id="Capa_1" xmlns="http://www.w3.org/2000/svg" xmlns:xlink="http://www.w3.org/1999/xlink" x="0px" y="0px"
	 viewBox="0 0 512 512" style="enable-background:new 0 0 512 512;" xml:space="preserve">
<path style="fill:#72D8FF;" d="M380,404.063H132c-11.046,0-20-8.954-20-20v-176c0-11.046,8.954-20,20-20h248
	c11.046,0,20,8.954,20,20v176C400,395.108,391.046,404.063,380,404.063z"/>
<rect x="188" y="268.06" style="fill:#2E9DE3;" width="136" height="56"/>
<path d="M163,492c-2.63,0-5.21,1.07-7.07,2.93S153,499.37,153,502s1.069,5.21,2.93,7.07S160.37,512,163,512s5.21-1.07,7.069-2.93
	c1.86-1.86,2.931-4.44,2.931-7.07s-1.07-5.21-2.931-7.07C168.21,493.07,165.63,492,163,492z"/>
<path d="M324,258.063H188c-5.522,0-10,4.477-10,10v56c0,5.523,4.478,10,10,10h136c5.522,0,10-4.477,10-10v-56
	C334,262.54,329.522,258.063,324,258.063z M314,314.063H198v-36h116V314.063z"/>
<path d="M188,238.06c2.63,0,5.21-1.07,7.069-2.93c1.86-1.86,2.931-4.43,2.931-7.07c0-2.63-1.07-5.21-2.931-7.07
	c-1.859-1.86-4.439-2.93-7.069-2.93s-5.21,1.07-7.07,2.93s-2.93,4.44-2.93,7.07s1.069,5.21,2.93,7.07S185.37,238.06,188,238.06z"/>
<path d="M256,238.06c2.63,0,5.21-1.07,7.069-2.93c1.86-1.86,2.931-4.43,2.931-7.07c0-2.63-1.07-5.21-2.931-7.07
	c-1.859-1.86-4.439-2.93-7.069-2.93s-5.21,1.07-7.07,2.93s-2.93,4.44-2.93,7.07s1.069,5.21,2.93,7.07
	C250.79,237,253.37,238.06,256,238.06z"/>
<path d="M324,218.06c-2.63,0-5.21,1.07-7.07,2.93s-2.93,4.44-2.93,7.07s1.069,5.21,2.93,7.07s4.43,2.93,7.07,2.93
	c2.63,0,5.21-1.07,7.069-2.93c1.86-1.86,2.931-4.44,2.931-7.07s-1.07-5.21-2.931-7.07C329.21,219.13,326.63,218.06,324,218.06z"/>
<path d="M380,178.063h-21V87.958c0-5.523-4.478-10-10-10s-10,4.477-10,10v90.104H173V87.958c0-5.523-4.478-10-10-10s-10,4.477-10,10
	v90.104h-21c-16.542,0-30,13.458-30,30v176c0,16.542,13.458,30,30,30h21V465c0,5.523,4.478,10,10,10s10-4.477,10-10v-50.937h166V502
	c0,5.523,4.478,10,10,10s10-4.477,10-10v-87.938h21c16.542,0,30-13.458,30-30v-176C410,191.521,396.542,178.063,380,178.063z
	 M390,384.063c0,5.514-4.486,10-10,10H132c-5.514,0-10-4.486-10-10v-176c0-5.514,4.486-10,10-10h248c5.514,0,10,4.486,10,10V384.063
	z"/>
<path d="M284.234,106.578c2.56,0,5.118-0.977,7.071-2.929c3.905-3.905,3.905-10.237,0-14.142c-19.469-19.467-51.143-19.467-70.611,0
	c-3.905,3.905-3.905,10.237,0,14.142c3.905,3.906,10.235,3.906,14.143,0c11.668-11.669,30.658-11.669,42.326,0
	C279.116,105.602,281.675,106.578,284.234,106.578z"/>
<path d="M312.469,78.344c2.559,0,5.118-0.977,7.071-2.929c3.905-3.905,3.905-10.237,0-14.142
	C302.568,44.3,280.002,34.954,256,34.954s-46.568,9.347-63.54,26.319c-3.905,3.905-3.905,10.237,0,14.142
	c3.906,3.905,10.236,3.905,14.143,0C219.797,62.22,237.34,54.954,256,54.954s36.203,7.267,49.397,20.461
	C307.351,77.368,309.909,78.344,312.469,78.344z"/>
<path d="M181.887,50.699C201.683,30.902,228.004,20,256,20s54.317,10.902,74.113,30.699c1.953,1.953,4.512,2.929,7.071,2.929
	c2.559,0,5.118-0.977,7.071-2.929c3.905-3.905,3.905-10.237,0-14.142C320.682,12.983,289.339,0,256,0s-64.682,12.983-88.256,36.557
	c-3.905,3.905-3.905,10.237,0,14.142C171.65,54.604,177.98,54.604,181.887,50.699z"/>
<path d="M248.93,117.93c-1.86,1.86-2.93,4.44-2.93,7.07s1.069,5.21,2.93,7.07S253.37,135,256,135s5.21-1.07,7.069-2.93
	c1.86-1.86,2.931-4.44,2.931-7.07s-1.07-5.21-2.931-7.07C261.21,116.07,258.63,115,256,115S250.79,116.07,248.93,117.93z"/>
<path d="M234.333,353.667H188c-5.522,0-10,4.477-10,10s4.478,10,10,10h46.333c5.522,0,10-4.477,10-10
	S239.855,353.667,234.333,353.667z"/>
<path d="M272.7,353.67c-2.631,0-5.21,1.06-7.07,2.93c-1.86,1.86-2.93,4.43-2.93,7.07c0,2.63,1.069,5.2,2.93,7.07
	c1.86,1.86,4.439,2.93,7.07,2.93c2.64,0,5.21-1.07,7.069-2.93c1.87-1.87,2.931-4.44,2.931-7.07c0-2.64-1.061-5.21-2.931-7.07
	C277.91,354.73,275.34,353.67,272.7,353.67z"/>
<g>
</g>
<g>
</g>
<g>
</g>
<g>
</g>
<g>
</g>
<g>
</g>
<g>
</g>
<g>
</g>
<g>
</g>
<g>
</g>
<g>
</g>
<g>
</g>
<g>
</g>
<g>
</g>
<g>
</g>
</svg>
