<?xml version="1.0" encoding="iso-8859-1"?>
<!-- Generator: Adobe Illustrator 19.0.0, SVG Export Plug-In . SVG Version: 6.00 Build 0)  -->
<svg version="1.1" id="Capa_1" xmlns="http://www.w3.org/2000/svg" xmlns:xlink="http://www.w3.org/1999/xlink" x="0px" y="0px"
	 viewBox="0 0 511.999 511.999" style="enable-background:new 0 0 511.999 511.999;" xml:space="preserve">
<g>
	<path style="fill:#72D8FF;" d="M298.098,19.344l139.365,79.349c16.799,9.564,22.664,30.937,13.101,47.738l0,0
		c-9.563,16.8-30.934,22.666-47.732,13.102L281.657,90.541L298.098,19.344z"/>
	<path style="fill:#72D8FF;" d="M103.347,193.226L247.555,22.424c12.471-14.771,34.553-16.634,49.322-4.162l0,0
		c14.769,12.472,16.632,34.557,4.161,49.328L160.915,233.554L103.347,193.226z"/>
</g>
<path style="fill:#4DBAF6;" d="M278.042,501.999H31.916v-45.5c0-19.054,15.446-34.5,34.5-34.5h177.126
	c19.054,0,34.5,15.446,34.5,34.5L278.042,501.999L278.042,501.999z"/>
<path style="fill:#72D8FF;" d="M85.916,422V224.972c0-22.091,17.909-40,40-40l0,0c22.091,0,40,17.909,40,40V422"/>
<path style="fill:#A0E557;" d="M471.323,414.97c0-56.815-51.181-86.454-51.181-86.454s-51.181,29.639-51.181,86.454
	s51.181,87.029,51.181,87.029S471.323,471.784,471.323,414.97z"/>
<path d="M125.918,214.981c-2.64,0-5.21,1.07-7.07,2.93c-1.87,1.86-2.93,4.44-2.93,7.07c0,2.64,1.06,5.21,2.93,7.07
	c1.86,1.87,4.431,2.93,7.07,2.93c2.63,0,5.21-1.06,7.07-2.93c1.859-1.86,2.93-4.43,2.93-7.07c0-2.63-1.07-5.21-2.93-7.07
	C131.128,216.051,128.548,214.981,125.918,214.981z"/>
<path d="M273.349,54.91c0.331,0.034,0.664,0.052,0.998,0.052c2.63,0,5.21-1.07,7.07-2.93c1.87-1.86,2.939-4.44,2.939-7.07
	s-1.069-5.21-2.939-7.07c-1.86-1.86-4.44-2.93-7.07-2.93c-0.334,0-0.667,0.018-0.998,0.052c-0.332-0.034-0.666-0.052-1.002-0.052
	c-2.63,0-5.21,1.07-7.069,2.93c-1.86,1.86-2.931,4.44-2.931,7.07s1.07,5.21,2.931,7.07c1.859,1.86,4.439,2.93,7.069,2.93
	C272.683,54.962,273.018,54.944,273.349,54.91z"/>
<path d="M430.147,129.111c0-2.63-1.069-5.21-2.93-7.07c-1.87-1.86-4.439-2.93-7.07-2.93c-2.63,0-5.21,1.06-7.08,2.93
	c-1.859,1.86-2.92,4.44-2.92,7.07c0,2.63,1.061,5.21,2.92,7.07c1.87,1.86,4.44,2.93,7.08,2.93c2.631,0,5.21-1.07,7.07-2.93
	C429.078,134.321,430.147,131.741,430.147,129.111z"/>
<path d="M180.688,111.62c2.63,0,5.21-1.07,7.07-2.93c1.86-1.86,2.93-4.44,2.93-7.07c0-2.64-1.069-5.21-2.93-7.07
	c-1.861-1.86-4.44-2.93-7.07-2.93s-5.21,1.07-7.069,2.93c-1.86,1.86-2.931,4.44-2.931,7.07s1.07,5.21,2.931,7.07
	C175.478,110.551,178.058,111.62,180.688,111.62z"/>
<path d="M483.753,229.821l-33.639-13.288c0.013-0.362,0.028-0.723,0.028-1.088c0-13.036-8.361-24.152-20-28.28v-14.196
	c0.639-0.146,1.28-0.283,1.916-0.458c11.592-3.182,21.25-10.688,27.196-21.134c12.276-21.565,4.72-49.098-16.843-61.375
	l-138.48-78.846c-0.202-0.177-0.396-0.361-0.602-0.535c-9.186-7.756-20.843-11.47-32.816-10.459
	c-11.978,1.011-22.845,6.625-30.599,15.811l-44.451,52.648c-3.563,4.22-3.03,10.529,1.189,14.092
	c4.218,3.563,10.529,3.031,14.092-1.189l44.451-52.648c4.309-5.103,10.346-8.222,16.999-8.784c6.662-0.562,13.129,1.502,18.23,5.811
	c10.533,8.895,11.866,24.702,2.973,35.236l-19.229,22.775c-0.027,0.031-0.053,0.063-0.079,0.094L171.809,205.15
	c-6.974-16.085-22.159-27.805-40.24-29.85l34.185-40.489c3.563-4.22,3.03-10.529-1.189-14.092
	c-4.22-3.564-10.529-3.031-14.092,1.189L99.012,182.86c-13.874,8.896-23.095,24.442-23.095,42.111v187.028h-9.5
	c-24.537,0-44.5,19.962-44.5,44.5v45.5c0,5.523,4.478,10,10,10h246.126c5.522,0,10-4.477,10-10v-45.5
	c0-24.538-19.963-44.5-44.5-44.5h-67.627V231.288l108.021-127.943l113.947,64.878c3.889,2.214,8.017,3.792,12.259,4.766v14.177
	c-11.639,4.128-20,15.243-20,28.28c0,0.365,0.015,0.726,0.028,1.088l-33.639,13.288c-3.817,1.508-6.326,5.196-6.326,9.301v59.387
	c0,4.105,2.509,7.792,6.326,9.301l25.202,9.955c1.206,0.476,2.448,0.702,3.671,0.702c3.984,0,7.751-2.398,9.304-6.329
	c2.029-5.137-0.49-10.945-5.627-12.975l-18.876-7.456v-45.783l27.327-10.795c5.504,6.314,13.596,10.316,22.611,10.316
	c9.015,0,17.107-4.002,22.611-10.316l27.327,10.795v45.783l-18.878,7.457c-5.137,2.029-7.656,7.838-5.627,12.975
	c1.553,3.931,5.319,6.329,9.304,6.329c1.222,0,2.465-0.226,3.671-0.702l25.204-9.956c3.817-1.508,6.326-5.196,6.326-9.301v-59.387
	C490.079,235.017,487.571,231.329,483.753,229.821z M268.042,456.499v35.5H41.916v-35.5c0-13.509,10.99-24.5,24.5-24.5h177.126
	C257.052,432,268.042,442.99,268.042,456.499z M95.916,412V224.972c0-16.542,13.458-30,30-30s30,13.458,30,30V412H95.916z
	 M297.059,87.802l11.619-13.761c7.622-9.027,11.061-20.204,10.537-31.167l113.3,64.509c11.981,6.821,16.179,22.119,9.358,34.101
	c-3.304,5.804-8.67,9.974-15.109,11.741c-6.438,1.77-13.182,0.921-18.984-2.382L297.059,87.802z M420.143,225.445
	c-5.514,0-10-4.486-10-10s4.486-10,10-10s10,4.486,10,10S425.657,225.445,420.143,225.445z"/>
<path d="M125.915,256.014c-5.522,0-10,4.477-10,10V384c0,5.523,4.478,10,10,10c5.522,0,10-4.477,10-10V266.014
	C135.915,260.491,131.438,256.014,125.915,256.014z"/>
<path d="M214.978,471.999c2.63,0,5.21-1.07,7.07-2.93c1.86-1.86,2.93-4.44,2.93-7.07c0-2.63-1.069-5.21-2.93-7.07
	c-1.86-1.86-4.44-2.93-7.07-2.93s-5.21,1.07-7.069,2.93c-1.86,1.86-2.931,4.44-2.931,7.07c0,2.63,1.07,5.21,2.931,7.07
	C209.768,470.929,212.348,471.999,214.978,471.999z"/>
<path d="M154.978,451.999c-2.63,0-5.21,1.07-7.069,2.93c-1.86,1.86-2.931,4.44-2.931,7.07c0,2.63,1.07,5.21,2.931,7.07
	c1.859,1.86,4.439,2.93,7.069,2.93s5.21-1.07,7.07-2.93c1.86-1.86,2.93-4.44,2.93-7.07c0-2.63-1.069-5.21-2.93-7.07
	C160.188,453.069,157.608,451.999,154.978,451.999z"/>
<path d="M94.979,451.999c-2.63,0-5.21,1.07-7.069,2.93c-1.86,1.86-2.931,4.44-2.931,7.07c0,2.63,1.07,5.21,2.931,7.07
	c1.859,1.86,4.439,2.93,7.069,2.93s5.21-1.07,7.07-2.93c1.86-1.86,2.93-4.44,2.93-7.07c0-2.63-1.069-5.21-2.93-7.07
	C100.189,453.069,97.609,451.999,94.979,451.999z"/>
<path d="M425.155,319.862c-3.1-1.795-6.924-1.795-10.023,0c-2.293,1.328-56.169,33.24-56.169,95.107
	c0,61.813,53.807,94.288,56.097,95.64c1.568,0.926,3.326,1.389,5.084,1.389c1.758,0,3.516-0.463,5.084-1.389
	c2.29-1.352,56.097-33.829,56.097-95.64C481.323,353.102,427.448,321.19,425.155,319.862z M456.287,386.798l-26.145,26.145v-4.938
	c0-0.003,0-0.007,0-0.01v-59.218C439.163,357.114,450.055,369.873,456.287,386.798z M410.143,348.865v34.992l-16.192-16.193
	C399.141,359.979,404.951,353.69,410.143,348.865z M378.962,414.97c0-10.609,2.059-20.188,5.291-28.718l25.89,25.89v24.939
	c0,0.003,0,0.007,0,0.01v44.459C396.641,468.905,378.962,446.358,378.962,414.97z M430.143,481.462v-40.234l31.027-31.027
	c0.091,1.568,0.154,3.152,0.154,4.768C461.323,446.162,443.645,468.755,430.143,481.462z"/>
<g>
</g>
<g>
</g>
<g>
</g>
<g>
</g>
<g>
</g>
<g>
</g>
<g>
</g>
<g>
</g>
<g>
</g>
<g>
</g>
<g>
</g>
<g>
</g>
<g>
</g>
<g>
</g>
<g>
</g>
</svg>
