<?xml version="1.0" encoding="iso-8859-1"?>
<!-- Generator: Adobe Illustrator 19.0.0, SVG Export Plug-In . SVG Version: 6.00 Build 0)  -->
<svg version="1.1" id="Capa_1" xmlns="http://www.w3.org/2000/svg" xmlns:xlink="http://www.w3.org/1999/xlink" x="0px" y="0px"
	 viewBox="0 0 512 512" style="enable-background:new 0 0 512 512;" xml:space="preserve">
<path style="fill:#FFC66C;" d="M10,422h140.672l62.001,62.001c23.999,23.999,62.91,23.999,86.909,0l62-62.001H502v80H10V422z"/>
<path style="fill:#C9F3FF;" d="M197.761,24l-69.147,71.924c-13.376,13.955-12.907,36.113,1.048,49.492l0,0
	c13.955,13.378,36.111,12.91,49.487-1.045l52.84-55.129L197.761,24z"/>
<path style="fill:#72D8FF;" d="M502,90H228.079c-22.091,0-40-17.909-40-40l0,0c0-22.091,17.909-40,40-40H502"/>
<g>
	<path style="fill:#A0E557;" d="M149.82,297.543c-12.528,4.54-27.624,25.747-11.005,56.09s45.915,33.024,57.328,24.364
		s10.916-23.307,4.857-29.729c-7.735-8.198-14.825-4.872-21.326-14.734c-6.607-10.023,0.29-18.74-6.446-29.05
		C168.19,296.772,159.329,294.097,149.82,297.543z"/>
	<path style="fill:#A0E557;" d="M247.311,442.287c10.196,8.58,36.109,11.05,54.078-18.514s5.642-56.275-7.565-61.829
		c-13.207-5.554-25.643,2.2-28.175,10.659c-3.232,10.798,3.193,15.275-2.097,25.836c-5.376,10.733-16.375,9.119-21.935,20.107
		C237.459,426.763,239.573,435.774,247.311,442.287z"/>
</g>
<path d="M460,412h-98.418c-2.652,0-5.195,1.054-7.071,2.929L292.51,476.93c-9.718,9.718-22.64,15.07-36.383,15.07
	c-13.744,0-26.665-5.352-36.383-15.071l-62.001-62c-1.876-1.875-4.419-2.929-7.071-2.929H10c-5.522,0-10,4.477-10,10s4.478,10,10,10
	h136.529l59.072,59.071C219.098,504.567,237.041,512,256.127,512s37.029-7.433,50.525-20.928L365.725,432H460
	c5.522,0,10-4.477,10-10S465.522,412,460,412z"/>
<path d="M502,412c-2.63,0-5.21,1.07-7.07,2.93c-1.86,1.86-2.93,4.44-2.93,7.07s1.069,5.21,2.93,7.07S499.37,432,502,432
	s5.21-1.07,7.069-2.93c1.86-1.86,2.931-4.44,2.931-7.07s-1.07-5.21-2.931-7.07C507.21,413.07,504.63,412,502,412z"/>
<path d="M153.89,109.82c-2.64,0-5.21,1.07-7.07,2.93c-1.869,1.86-2.93,4.43-2.93,7.07c0,2.63,1.061,5.21,2.93,7.07
	c1.86,1.86,4.431,2.93,7.07,2.93c2.63,0,5.2-1.07,7.061-2.93c1.869-1.86,2.939-4.44,2.939-7.07s-1.07-5.21-2.939-7.07
	C159.09,110.89,156.52,109.82,153.89,109.82z"/>
<path d="M502,80H235.792c-2.439-1.003-5.184-1-7.613,0h-0.1c-16.542,0-30-13.458-30-30c0-7.149,2.517-13.719,6.707-18.879
	l0.183-0.191c0.303-0.315,0.572-0.649,0.825-0.991C211.29,23.841,219.244,20,228.079,20H502c5.522,0,10-4.477,10-10s-4.478-10-10-10
	H228.079c-15.211,0-28.848,6.836-38.026,17.588l-68.659,71.416c-17.169,17.913-16.564,46.457,1.348,63.63
	c5.91,5.666,13.083,9.525,20.853,11.335v16.39l-35.362,16.232c-3.546,1.628-5.821,5.17-5.828,9.072l-0.077,46.932
	c-0.006,3.496,1.814,6.742,4.802,8.559l17.321,10.541c4.72,2.871,10.87,1.374,13.741-3.344s1.373-10.87-3.345-13.741l-12.511-7.613
	l0.058-34.899l31.253-14.346l31.205,14.441l-0.058,34.899l-12.532,7.574c-4.728,2.857-6.243,9.004-3.387,13.731
	c1.879,3.109,5.182,4.829,8.568,4.829c1.761,0,3.545-0.465,5.162-1.443l17.352-10.486c2.992-1.808,4.822-5.047,4.828-8.542
	l0.077-46.932c0.007-3.903-2.258-7.453-5.8-9.092l-35.468-16.414v-16.215c8.635-1.889,16.52-6.287,22.774-12.813L235.529,100H502
	c5.522,0,10-4.477,10-10S507.522,80,502,80z M171.929,137.451c-4.62,4.821-10.842,7.554-17.518,7.694
	c-6.663,0.128-13.009-2.327-17.829-6.948c-9.952-9.542-10.289-25.401-0.76-35.342l42.939-44.663
	c2.96,17.877,15.427,32.584,32.023,38.722L171.929,137.451z"/>
<path d="M221.02,42.93c-1.859,1.86-2.93,4.44-2.93,7.07s1.07,5.21,2.93,7.07c1.86,1.86,4.44,2.93,7.07,2.93s5.21-1.07,7.07-2.93
	c1.859-1.86,2.93-4.44,2.93-7.07s-1.07-5.21-2.93-7.07c-1.86-1.86-4.44-2.93-7.07-2.93S222.88,41.07,221.02,42.93z"/>
<path d="M263.149,40c-5.522,0-10,4.477-10,10s4.478,10,10,10H460c5.522,0,10-4.477,10-10s-4.478-10-10-10H263.149z"/>
<path d="M181.6,299.014c-7.581-11.604-21.391-15.874-35.187-10.874c-9.614,3.484-17.827,12.114-21.97,23.086
	c-3.771,9.987-5.859,26.285,5.602,47.209c12.955,23.653,31.289,30.687,41.065,32.773c3.39,0.724,6.763,1.078,10.031,1.078
	c8.119,0,15.591-2.185,21.047-6.325c7.577-5.75,12.17-13.98,12.932-23.175c0.673-8.132-1.886-16.126-6.847-21.383
	c-5.06-5.362-10.108-7.355-13.795-8.811c-3.392-1.339-4.66-1.84-6.456-4.564c-1.532-2.325-1.576-4.472-1.525-8.725
	C186.561,314.002,186.647,306.74,181.6,299.014z M187.134,351.195c2.863,1.13,4.591,1.813,6.593,3.934
	c0.867,0.919,1.694,3.191,1.462,6.007c-0.203,2.449-1.251,5.98-5.089,8.894c-2.45,1.857-7.977,3.08-14.813,1.621
	c-6.429-1.373-18.575-6.162-27.7-22.822c-7.81-14.257-6.72-24.476-4.432-30.537c2.326-6.16,6.735-10.138,10.073-11.347
	c3.563-1.294,8.475-1.818,11.629,3.008c1.646,2.521,1.694,4.736,1.643,9.112c-0.063,5.244-0.148,12.426,4.825,19.971
	C176.597,347.035,182.687,349.439,187.134,351.195z"/>
<path d="M247.818,399.643c-4.623,2.596-10.955,6.152-15.122,14.387c-6.26,12.367-3.05,26.462,8.177,35.909
	c6.21,5.226,14.786,8.066,23.849,8.066c2.354,0,4.741-0.192,7.128-0.583c10.535-1.728,25.694-8.067,38.086-28.455
	c14.007-23.047,10.93-42.442,7.849-51.952c-3.722-11.485-11.229-20.565-20.083-24.29c-8.769-3.686-18.192-3.549-26.536,0.389
	c-7.38,3.483-13.022,9.696-15.095,16.621c-2.114,7.063-1.316,12.432-0.733,16.352c0.535,3.607,0.736,4.957-0.726,7.874
	C253.364,396.449,251.526,397.561,247.818,399.643z M257.61,417.082c4.573-2.568,10.836-6.084,14.883-14.165
	c4.291-8.565,3.329-15.042,2.626-19.771c-0.452-3.044-0.726-4.882,0.111-7.678c0.362-1.21,1.916-3.063,4.471-4.268
	c1.272-0.601,2.989-1.139,5.059-1.139c1.546,0,3.288,0.301,5.188,1.099c2.834,1.192,6.656,5.37,8.811,12.018
	c2.025,6.253,3.951,19.168-5.913,35.4c-8.443,13.892-17.838,18.058-24.232,19.106c-6.499,1.065-12.146-0.764-14.862-3.049
	c-2.901-2.441-5.813-6.431-3.209-11.575C251.9,420.373,253.795,419.224,257.61,417.082z"/>
<g>
</g>
<g>
</g>
<g>
</g>
<g>
</g>
<g>
</g>
<g>
</g>
<g>
</g>
<g>
</g>
<g>
</g>
<g>
</g>
<g>
</g>
<g>
</g>
<g>
</g>
<g>
</g>
<g>
</g>
</svg>
