<?xml version="1.0" encoding="iso-8859-1"?>
<!-- Generator: Adobe Illustrator 19.0.0, SVG Export Plug-In . SVG Version: 6.00 Build 0)  -->
<svg version="1.1" id="Capa_1" xmlns="http://www.w3.org/2000/svg" xmlns:xlink="http://www.w3.org/1999/xlink" x="0px" y="0px"
	 viewBox="0 0 511.996 511.996" style="enable-background:new 0 0 511.996 511.996;" xml:space="preserve">
<polygon style="fill:#ADE5FF;" points="365.062,158.942 256.123,50.003 147.183,158.942 "/>
<path style="fill:#FFC66C;" d="M299.123,158.942c0,23.825-19.314,43.139-43.139,43.139s-43.139-19.314-43.139-43.139H299.123z"/>
<g>
	<path style="fill:#A0E557;" d="M93.685,500.269c0,0,36.832,9.487,62.541-16.222c25.709-25.709,15.961-62.28,15.961-62.28
		s-36.571-9.747-62.28,15.961C84.197,463.437,93.685,500.269,93.685,500.269z"/>
	<path style="fill:#A0E557;" d="M91.974,453.468c0,0,32.752-19.336,32.752-55.694s-32.752-55.325-32.752-55.325
		s-32.752,18.967-32.752,55.325S91.974,453.468,91.974,453.468z"/>
	<path style="fill:#A0E557;" d="M74.101,437.728c-25.709-25.709-62.28-15.961-62.28-15.961s-9.748,36.571,15.961,62.28
		c25.709,25.709,62.541,16.222,62.541,16.222S99.81,463.437,74.101,437.728z"/>
	<path style="fill:#A0E557;" d="M257.676,500.269c0,0,36.832,9.487,62.541-16.222c25.709-25.709,15.961-62.28,15.961-62.28
		s-36.571-9.747-62.28,15.961C248.189,463.437,257.676,500.269,257.676,500.269z"/>
	<path style="fill:#A0E557;" d="M255.966,453.468c0,0,32.752-19.336,32.752-55.694s-32.752-55.325-32.752-55.325
		s-32.752,18.967-32.752,55.325S255.966,453.468,255.966,453.468z"/>
	<path style="fill:#A0E557;" d="M238.092,437.728c-25.709-25.709-62.28-15.961-62.28-15.961s-9.747,36.571,15.961,62.28
		c25.709,25.709,62.541,16.222,62.541,16.222S263.802,463.437,238.092,437.728z"/>
	<path style="fill:#A0E557;" d="M421.668,500.269c0,0,36.832,9.487,62.541-16.222c25.709-25.709,15.961-62.28,15.961-62.28
		s-36.571-9.747-62.28,15.961C412.181,463.437,421.668,500.269,421.668,500.269z"/>
	<path style="fill:#A0E557;" d="M419.957,453.468c0,0,32.752-19.336,32.752-55.694s-32.752-55.325-32.752-55.325
		s-32.752,18.967-32.752,55.325S419.957,453.468,419.957,453.468z"/>
	<path style="fill:#A0E557;" d="M402.084,437.728c-25.709-25.709-62.28-15.961-62.28-15.961s-9.747,36.571,15.961,62.28
		c25.709,25.709,62.541,16.222,62.541,16.222S427.794,463.437,402.084,437.728z"/>
</g>
<path d="M509.832,419.191c-0.922-3.461-3.625-6.165-7.087-7.087c-1.167-0.311-20.325-5.216-41.722,0.875
	c1.065-4.735,1.687-9.799,1.687-15.205c0-41.644-36.2-63.086-37.741-63.978c-3.102-1.795-6.924-1.795-10.022,0
	c-1.541,0.893-37.74,22.334-37.74,63.978c0,5.399,0.619,10.457,1.682,15.187c-19.411-5.506-36.965-1.973-40.895-1.046
	c-3.933-0.929-21.522-4.469-40.96,1.064c1.065-4.735,1.687-9.799,1.687-15.205c0-41.644-36.2-63.086-37.741-63.978
	c-3.102-1.795-6.924-1.795-10.022,0c-1.541,0.893-37.74,22.334-37.74,63.978c0,5.399,0.619,10.456,1.682,15.187
	c-19.411-5.506-36.965-1.973-40.895-1.046c-3.933-0.929-21.523-4.469-40.96,1.064c1.065-4.735,1.687-9.799,1.687-15.205
	c0-41.644-36.2-63.086-37.741-63.978c-3.102-1.795-6.924-1.795-10.022,0c-1.541,0.893-37.74,22.334-37.74,63.978
	c0,5.399,0.619,10.457,1.682,15.187c-21.37-6.062-40.491-1.167-41.658-0.857c-3.462,0.922-6.165,3.626-7.087,7.087
	c-0.459,1.721-10.895,42.48,18.552,71.926c17.196,17.197,38.346,20.874,53.291,20.874c8.983,0,15.707-1.326,18.001-1.846
	c2.293,0.52,9.017,1.846,18.001,1.846c14.945,0,36.096-3.679,53.291-20.874c4.408-4.408,7.916-9.07,10.703-13.815
	c2.788,4.746,6.296,9.408,10.703,13.814c17.196,17.197,38.346,20.874,53.291,20.874c8.983,0,15.707-1.326,18.001-1.846
	c2.293,0.52,9.017,1.846,18.001,1.846c14.945,0,36.096-3.679,53.291-20.874c4.408-4.408,7.916-9.07,10.703-13.815
	c2.788,4.746,6.296,9.408,10.703,13.814c17.196,17.197,38.346,20.874,53.291,20.874c8.983,0,15.707-1.326,18.001-1.846
	c2.293,0.52,9.017,1.846,18.001,1.846c14.945,0,36.096-3.679,53.291-20.874C520.726,461.672,510.291,420.912,509.832,419.191z
	 M419.955,354.622c8.031,6.304,22.756,20.897,22.756,43.152c0,15.16-6.824,26.847-13.722,34.791
	c-0.511,0.55-1.008,1.104-1.493,1.661c-2.71,2.918-5.356,5.257-7.525,6.988c-2.113-1.695-4.69-3.977-7.341-6.815
	c-0.571-0.66-1.16-1.316-1.767-1.967c-6.872-7.96-13.658-19.622-13.658-34.657C397.204,375.508,411.942,360.912,419.955,354.622z
	 M255.964,354.622c8.031,6.304,22.756,20.897,22.756,43.152c0,15.16-6.824,26.847-13.722,34.791
	c-0.511,0.55-1.008,1.104-1.493,1.661c-2.71,2.918-5.356,5.257-7.525,6.988c-2.113-1.695-4.69-3.977-7.341-6.815
	c-0.571-0.66-1.16-1.316-1.767-1.967c-6.872-7.96-13.658-19.622-13.658-34.657C233.213,375.508,247.95,360.912,255.964,354.622z
	 M91.972,354.622c8.031,6.304,22.756,20.897,22.756,43.152c0,15.16-6.824,26.847-13.722,34.791c-0.511,0.55-1.008,1.104-1.493,1.661
	c-2.71,2.918-5.356,5.257-7.525,6.988c-2.113-1.695-4.69-3.977-7.341-6.815c-0.571-0.66-1.16-1.316-1.767-1.967
	c-6.872-7.96-13.658-19.622-13.658-34.657C69.221,375.508,83.958,360.912,91.972,354.622z M34.854,476.976
	c-15.745-15.744-15.645-36.485-14.426-46.601c10.135-1.221,30.867-1.313,46.603,14.423c0.473,0.473,0.93,0.951,1.375,1.433
	c0.298,0.336,0.595,0.679,0.893,1.005c9.425,10.775,12.255,23.451,12.725,33.419c-0.084,2.305-0.076,4.493-0.003,6.533
	c-0.077,1.619-0.203,3.1-0.35,4.406C71.439,492.717,50.521,492.643,34.854,476.976z M149.154,476.976
	c-15.721,15.721-36.538,15.788-46.796,14.637c-0.156-1.419-0.286-3.049-0.357-4.837c0.055-1.768,0.061-3.643,0.001-5.607
	c0.438-10.817,3.583-24.98,14.975-36.371c15.735-15.736,36.461-15.645,46.585-14.428c0.211,1.792,0.385,3.925,0.445,6.301
	c-0.022,1.121-0.024,2.28-0.001,3.473C163.729,450.955,160.761,465.369,149.154,476.976z M198.845,476.976
	c-11.384-11.383-14.483-25.378-14.866-36.08c0.046-1.687,0.042-3.31,0.001-4.856c0.077-2.12,0.243-4.032,0.439-5.665
	c10.136-1.221,30.867-1.313,46.603,14.423c0.473,0.473,0.93,0.951,1.375,1.433c0.298,0.336,0.595,0.679,0.893,1.005
	c9.425,10.775,12.255,23.451,12.725,33.419c-0.084,2.305-0.076,4.493-0.003,6.533c-0.077,1.619-0.203,3.1-0.35,4.406
	C235.432,492.717,214.512,492.643,198.845,476.976z M313.146,476.976c-15.721,15.721-36.54,15.788-46.796,14.637
	c-0.156-1.419-0.286-3.049-0.357-4.837c0.055-1.768,0.061-3.643,0.001-5.607c0.438-10.817,3.583-24.98,14.975-36.371
	c15.735-15.736,36.461-15.645,46.585-14.428c0.211,1.792,0.385,3.925,0.445,6.301c-0.022,1.121-0.024,2.28-0.001,3.473
	C327.721,450.955,324.753,465.369,313.146,476.976z M362.837,476.976c-11.384-11.383-14.483-25.378-14.866-36.08
	c0.046-1.687,0.042-3.31,0.001-4.856c0.077-2.12,0.243-4.032,0.439-5.665c10.135-1.221,30.867-1.313,46.603,14.423
	c0.473,0.473,0.93,0.951,1.375,1.433c0.298,0.336,0.595,0.679,0.893,1.005c9.424,10.775,12.255,23.451,12.725,33.419
	c-0.084,2.305-0.076,4.493-0.003,6.533c-0.077,1.619-0.203,3.1-0.35,4.406C399.422,492.717,378.503,492.643,362.837,476.976z
	 M477.137,476.976c-15.721,15.721-36.539,15.788-46.796,14.637c-0.156-1.419-0.286-3.049-0.357-4.837
	c0.055-1.768,0.061-3.643,0.001-5.607c0.438-10.817,3.583-24.98,14.975-36.371c15.735-15.736,36.461-15.645,46.585-14.428
	C492.737,440.485,492.818,461.298,477.137,476.976z"/>
<path d="M147.183,168.94h56.622c4.693,24.535,26.3,43.139,52.181,43.139c25.882,0,47.489-18.604,52.181-43.139h56.895
	c4.045,0,7.691-2.437,9.239-6.173c1.547-3.736,0.691-8.038-2.168-10.897L265.995,45.733V10.005c0-5.523-4.478-9.999-9.999-9.999
	s-9.999,4.477-9.999,9.999v35.982L140.111,151.87c-2.859,2.86-3.715,7.162-2.168,10.897
	C139.491,166.505,143.138,168.94,147.183,168.94z M255.986,192.08c-14.789,0-27.343-9.74-31.593-23.14h63.187
	C283.328,182.342,270.775,192.08,255.986,192.08z M256.123,64.144l84.799,84.799H171.324L256.123,64.144z"/>
<path d="M246.012,236.453v52.537c0,5.523,4.478,9.999,9.999,9.999c5.522,0,9.999-4.477,9.999-9.999v-52.537
	c0-5.523-4.478-9.999-9.999-9.999C250.49,226.454,246.012,230.93,246.012,236.453z"/>
<path d="M191.752,209.07l-34.836,34.836c-3.905,3.905-3.905,10.236,0,14.141c1.953,1.953,4.512,2.929,7.071,2.929
	c2.559,0,5.118-0.977,7.071-2.929l34.836-34.836c3.905-3.905,3.905-10.236,0-14.141C201.987,205.166,195.658,205.166,191.752,209.07
	z"/>
<path d="M135.962,288.999c2.63,0,5.21-1.06,7.069-2.93c1.86-1.86,2.931-4.44,2.931-7.07c0-2.63-1.07-5.21-2.931-7.07
	c-1.859-1.86-4.439-2.93-7.069-2.93s-5.21,1.07-7.07,2.93c-1.86,1.86-2.93,4.44-2.93,7.07c0,2.64,1.069,5.21,2.93,7.07
	C130.752,287.939,133.332,288.999,135.962,288.999z"/>
<path d="M306.114,209.034c-3.905,3.905-3.905,10.236,0,14.141l33.061,33.06c1.953,1.953,4.512,2.929,7.071,2.929
	c2.559,0,5.118-0.977,7.071-2.929c3.905-3.905,3.905-10.236,0-14.141l-33.061-33.06C316.349,205.129,310.02,205.129,306.114,209.034
	z"/>
<path d="M365.79,268.71c-1.86,1.86-2.93,4.44-2.93,7.07s1.069,5.21,2.93,7.07c1.86,1.87,4.44,2.93,7.07,2.93
	c2.64,0,5.21-1.06,7.069-2.93c1.87-1.86,2.931-4.43,2.931-7.07c0-2.63-1.07-5.21-2.931-7.07c-1.859-1.86-4.43-2.93-7.069-2.93
	C370.23,265.782,367.65,266.852,365.79,268.71z"/>
<g>
</g>
<g>
</g>
<g>
</g>
<g>
</g>
<g>
</g>
<g>
</g>
<g>
</g>
<g>
</g>
<g>
</g>
<g>
</g>
<g>
</g>
<g>
</g>
<g>
</g>
<g>
</g>
<g>
</g>
</svg>
