<?xml version="1.0" encoding="iso-8859-1"?>
<!-- Generator: Adobe Illustrator 19.0.0, SVG Export Plug-In . SVG Version: 6.00 Build 0)  -->
<svg version="1.1" id="Capa_1" xmlns="http://www.w3.org/2000/svg" xmlns:xlink="http://www.w3.org/1999/xlink" x="0px" y="0px"
	 viewBox="0 0 512 512" style="enable-background:new 0 0 512 512;" xml:space="preserve">
<rect x="236" y="330.44" style="fill:#4DBAF6;" width="40" height="48"/>
<polygon style="fill:#ADE5FF;" points="502,498.5 10,498.5 10,458.438 224,458.438 224,378.438 288,378.438 288,458.438 
	502,458.438 "/>
<path d="M10,468.439c2.63,0,5.21-1.069,7.07-2.93s2.93-4.44,2.93-7.07s-1.07-5.21-2.93-7.069c-1.86-1.86-4.44-2.931-7.07-2.931
	s-5.21,1.07-7.07,2.931C1.07,453.229,0,455.81,0,458.439s1.07,5.21,2.93,7.07C4.79,467.37,7.37,468.439,10,468.439z"/>
<path d="M502,488.5H10c-5.523,0-10,4.478-10,10s4.477,10,10,10h492c5.523,0,10-4.478,10-10S507.523,488.5,502,488.5z"/>
<path d="M226,330.438v38h-2c-5.523,0-10,4.478-10,10v70H43.667c-5.523,0-10,4.478-10,10s4.477,10,10,10H224c5.523,0,10-4.478,10-10
	v-70h2h40h2v70c0,5.522,4.477,10,10,10h214c5.523,0,10-4.478,10-10s-4.477-10-10-10H298v-70c0-5.522-4.477-10-10-10h-2v-38
	c0-5.522-4.477-10-10-10h-10V311.5c0-5.522-4.477-10-10-10s-10,4.478-10,10v8.938h-10C230.477,320.438,226,324.915,226,330.438z
	 M246,340.438h20v28h-20V340.438z"/>
<path d="M256,121.5c5.523,0,10-4.477,10-10v-20c0-5.523-4.477-10-10-10s-10,4.477-10,10v20C246,117.023,250.477,121.5,256,121.5z"/>
<path d="M256,199.5c5.523,0,10-4.477,10-10v-20c0-5.523-4.477-10-10-10s-10,4.477-10,10v20C246,195.023,250.477,199.5,256,199.5z"/>
<path d="M256,277.5c5.523,0,10-4.478,10-10v-20c0-5.523-4.477-10-10-10s-10,4.477-10,10v20C246,273.022,250.477,277.5,256,277.5z"/>
<path d="M256,43.5c5.523,0,10-4.477,10-10v-20c0-5.523-4.477-10-10-10s-10,4.477-10,10v20C246,39.023,250.477,43.5,256,43.5z"/>
<path d="M285.448,294.896c1.192,0.464,2.419,0.684,3.625,0.684c4.003,0,7.782-2.42,9.321-6.374
	c2.369-6.084,4.869-12.218,7.431-18.229c2.165-5.08-0.199-10.954-5.28-13.119c-5.08-2.163-10.955,0.199-13.12,5.279
	c-2.645,6.208-5.226,12.537-7.669,18.813C277.754,287.096,280.302,292.892,285.448,294.896z"/>
<path d="M317.029,223.614c1.509,0.813,3.134,1.199,4.735,1.199c3.559,0,7.005-1.905,8.812-5.258
	c3.099-5.751,6.333-11.531,9.61-17.178c2.773-4.776,1.148-10.896-3.628-13.668c-4.774-2.772-10.896-1.148-13.668,3.628
	c-3.383,5.829-6.721,11.793-9.92,17.729C310.35,214.928,312.167,220.994,317.029,223.614z"/>
<path d="M411.841,97.927c2.711,0,5.413-1.096,7.386-3.255c4.41-4.827,8.953-9.645,13.503-14.319
	c3.852-3.958,3.767-10.289-0.191-14.141s-10.289-3.766-14.141,0.191c-4.696,4.825-9.385,9.797-13.937,14.778
	c-3.725,4.077-3.439,10.402,0.638,14.128C407.017,97.062,409.433,97.927,411.841,97.927z"/>
<path d="M467.859,43.724c2.299,0,4.61-0.789,6.495-2.4c4.968-4.249,10.068-8.472,15.157-12.553c4.309-3.455,5-9.749,1.546-14.058
	c-3.456-4.308-9.749-5-14.058-1.546c-5.252,4.212-10.516,8.571-15.644,12.957c-4.197,3.59-4.69,9.902-1.1,14.1
	C462.232,42.536,465.037,43.724,467.859,43.724z"/>
<path d="M357.114,156.749c1.757,1.247,3.778,1.847,5.78,1.847c3.13,0,6.213-1.466,8.163-4.212
	c3.783-5.329,7.701-10.668,11.646-15.869c3.337-4.4,2.476-10.673-1.925-14.011c-4.401-3.336-10.673-2.476-14.011,1.925
	c-4.07,5.368-8.114,10.877-12.019,16.377C351.552,147.31,352.611,153.552,357.114,156.749z"/>
<path d="M365.827,279.337c1.729,3.562,5.293,5.635,9.003,5.635c1.465,0,2.953-0.323,4.36-1.006
	c5.722-2.777,11.629-5.34,17.558-7.615c5.156-1.979,7.732-7.763,5.753-12.919c-1.979-5.157-7.762-7.73-12.919-5.753
	c-6.458,2.479-12.894,5.27-19.126,8.295C365.488,268.386,363.416,274.368,365.827,279.337z"/>
<path d="M319.864,298.827c-5.298,4.463-10.466,9.207-15.36,14.103c-3.905,3.905-3.905,10.236,0,14.142
	c1.953,1.953,4.512,2.929,7.071,2.929s5.119-0.977,7.071-2.93c4.493-4.493,9.238-8.85,14.102-12.946
	c4.224-3.559,4.764-9.867,1.206-14.091C330.396,295.81,324.088,295.269,319.864,298.827z"/>
<path d="M449.306,263.116c0.395,0,0.794-0.023,1.196-0.071c6.309-0.753,12.728-1.24,19.079-1.451
	c5.52-0.184,9.846-4.807,9.663-10.326s-4.789-9.823-10.326-9.663c-6.918,0.229-13.911,0.761-20.783,1.581
	c-5.484,0.654-9.4,5.629-8.746,11.114C439.995,259.381,444.312,263.116,449.306,263.116z"/>
<path d="M92.773,94.672c1.973,2.159,4.674,3.255,7.386,3.255c2.408,0,4.824-0.865,6.742-2.617
	c4.077-3.726,4.363-10.051,0.638-14.128c-4.552-4.981-9.24-9.954-13.937-14.778c-3.852-3.957-10.183-4.043-14.141-0.191
	s-4.043,10.183-0.191,14.141C83.82,85.027,88.364,89.845,92.773,94.672z"/>
<path d="M140.943,154.383c1.95,2.747,5.033,4.212,8.163,4.212c2.001,0,4.023-0.6,5.78-1.847c4.503-3.197,5.563-9.439,2.366-13.943
	c-3.904-5.5-7.948-11.01-12.019-16.377c-3.337-4.4-9.611-5.261-14.011-1.925c-4.4,3.337-5.262,9.61-1.925,14.011
	C133.242,143.715,137.16,149.054,140.943,154.383z"/>
<path d="M22.489,28.771c5.089,4.081,10.188,8.304,15.157,12.553c1.885,1.612,4.195,2.4,6.495,2.4c2.822,0,5.627-1.188,7.604-3.5
	c3.59-4.197,3.097-10.51-1.1-14.1c-5.128-4.385-10.392-8.745-15.644-12.957c-4.309-3.454-10.602-2.762-14.058,1.546
	C17.489,19.022,18.181,25.316,22.489,28.771z"/>
<path d="M222.809,285.621l0.084-0.033c5.194-2.023,7.696-7.908,5.592-13.069c-1.234-3.028-2.492-6.048-3.764-9.039
	c-2.164-5.086-7.984-7.771-13.105-5.691c-5.192,2.108-7.629,8.053-5.441,13.186c1.282,3.008,2.548,6.045,3.789,9.09
	C212.021,285.115,217.728,287.599,222.809,285.621z"/>
<path d="M181.424,219.555c1.807,3.353,5.252,5.258,8.812,5.258c1.602,0,3.227-0.386,4.735-1.199
	c4.862-2.62,6.679-8.686,4.059-13.547c-3.199-5.936-6.537-11.901-9.92-17.729c-2.773-4.776-8.893-6.399-13.668-3.628
	c-4.776,2.772-6.401,8.892-3.628,13.668C175.091,208.024,178.325,213.803,181.424,219.555z"/>
<path d="M193.353,327.07c1.953,1.953,4.512,2.93,7.071,2.93s5.118-0.977,7.071-2.929c3.905-3.905,3.906-10.236,0-14.142
	c-4.894-4.896-10.062-9.64-15.36-14.103c-4.224-3.558-10.532-3.019-14.091,1.206c-3.558,4.224-3.018,10.532,1.206,14.091
	C184.115,318.221,188.86,322.577,193.353,327.07z"/>
<path d="M115.252,276.351c5.929,2.275,11.836,4.838,17.558,7.615c1.407,0.683,2.895,1.006,4.36,1.006
	c3.71,0,7.274-2.073,9.003-5.635c2.412-4.969,0.339-10.951-4.629-13.363c-6.232-3.025-12.667-5.816-19.126-8.295
	c-5.154-1.979-10.94,0.597-12.919,5.753S110.096,274.372,115.252,276.351z"/>
<path d="M32.756,251.268c-0.183,5.52,4.143,10.143,9.663,10.326c6.351,0.211,12.77,0.698,19.079,1.451
	c0.402,0.048,0.801,0.071,1.196,0.071c4.994,0,9.311-3.735,9.917-8.817c0.654-5.484-3.262-10.46-8.746-11.114
	c-6.872-0.819-13.865-1.351-20.783-1.581C37.556,241.447,32.94,245.748,32.756,251.268z"/>
<g>
</g>
<g>
</g>
<g>
</g>
<g>
</g>
<g>
</g>
<g>
</g>
<g>
</g>
<g>
</g>
<g>
</g>
<g>
</g>
<g>
</g>
<g>
</g>
<g>
</g>
<g>
</g>
<g>
</g>
</svg>
