<?xml version="1.0" encoding="iso-8859-1"?>
<!-- Generator: Adobe Illustrator 19.0.0, SVG Export Plug-In . SVG Version: 6.00 Build 0)  -->
<svg version="1.1" id="Capa_1" xmlns="http://www.w3.org/2000/svg" xmlns:xlink="http://www.w3.org/1999/xlink" x="0px" y="0px"
	 viewBox="0 0 512 512" style="enable-background:new 0 0 512 512;" xml:space="preserve">
<polygon style="fill:#FF5D5D;" points="343.796,326.233 343.704,502 32.111,502 32.111,326.233 10,326.233 49.063,213.306 
	187.954,153.231 188.046,153.231 326.937,213.306 366,326.233 "/>
<g>
	<rect x="103.95" y="334" style="fill:#898998;" width="168" height="168"/>
	<circle style="fill:#898998;" cx="188.05" cy="247.05" r="35.6"/>
</g>
<path style="fill:#72D8FF;" d="M381.805,32.352v22.03c0,12.344-10.007,22.352-22.352,22.352h-98.907
	c-12.344,0-22.352-10.007-22.352-22.352v-22.03c0-12.344,10.007-22.352,22.352-22.352l0,0h98.907l0,0
	C371.798,10,381.805,20.007,381.805,32.352z"/>
<path style="fill:#4DBAF6;" d="M346.488,111.512h-72.976l-13.659-34.778h100.293L346.488,111.512z"/>
<path d="M343.754,402.195h-0.003c-5.523,0-9.999,4.478-9.999,10s4.479,10,10.002,10s10-4.478,10-10S349.277,402.195,343.754,402.195
	z"/>
<path d="M236.98,378.98c2.63,0,5.2-1.069,7.07-2.93c1.86-1.87,2.93-4.44,2.93-7.07c0-2.64-1.07-5.21-2.93-7.08
	c-1.86-1.859-4.44-2.92-7.07-2.92c-2.64,0-5.21,1.061-7.07,2.92c-1.87,1.86-2.93,4.44-2.93,7.08c0,2.63,1.06,5.21,2.93,7.07
	C231.77,377.91,234.34,378.98,236.98,378.98z"/>
<path d="M142.446,247.052c0,25.144,20.456,45.6,45.6,45.6s45.6-20.456,45.6-45.6s-20.456-45.6-45.6-45.6
	S142.446,221.908,142.446,247.052z M213.646,247.052c0,14.116-11.484,25.6-25.6,25.6s-25.6-11.484-25.6-25.6s11.484-25.6,25.6-25.6
	S213.646,232.937,213.646,247.052z"/>
<path d="M502,0h-42.146h-42.146c-5.523,0-10,4.477-10,10s4.477,10,10,10h32.146v27h-58.049V32.352
	C391.805,14.513,377.292,0,359.453,0h-98.906c-17.839,0-32.352,14.513-32.352,32.352V47h-58.049V20h32.146c5.523,0,10-4.477,10-10
	s-4.477-10-10-10h-42.146H118c-5.523,0-10,4.477-10,10s4.477,10,10,10h32.146v27h-11.073c-5.523,0-10,4.477-10,10s4.477,10,10,10
	h91.685c2.943,6.921,8.233,12.606,14.861,16.07l-36.413,25.884c-2.639,1.875-4.206,4.913-4.206,8.15v32.565l-12.984-5.616
	c-1.253-0.542-2.696-0.822-4.062-0.822s-2.717,0.28-3.97,0.822L45.093,204.128c-2.575,1.114-4.563,3.258-5.481,5.909L0.549,322.964
	c-1.057,3.057-0.571,6.437,1.305,9.07c1.876,2.635,4.911,4.199,8.146,4.199h12.111V502c0,5.522,4.477,10,10,10h311.594
	c5.521,0,9.998-4.475,10-9.995l0.023-51.999c0.002-5.523-4.473-10.002-9.996-10.005c-0.001,0-0.003,0-0.004,0
	c-5.521,0-9.998,4.475-10,9.996L333.709,492h-51.757V334c0-5.522-4.477-10-10-10h-168c-5.523,0-10,4.478-10,10v158H42.111V326.233
	c0-5.522-4.477-10-10-10h-8.07l33.034-95.497L188,164.107l130.926,56.629l33.034,95.497h-8.164c-5.521,0-9.998,4.475-10,9.996
	l-0.019,45.767c-0.002,5.522,4.473,10.002,9.996,10.004c0.002,0,0.003,0,0.004,0c5.521,0,9.998-4.475,10-9.996l0.015-35.771H366
	c3.234,0,6.269-1.564,8.146-4.199c1.876-2.634,2.362-6.014,1.305-9.07l-39.063-112.927c-0.917-2.651-2.906-4.795-5.481-5.909
	L225,158.32v-36.055l32.827-23.335l6.377,16.238c1.503,3.827,5.196,6.344,9.308,6.344h72.976c4.112,0,7.805-2.517,9.308-6.344
	l6.377-16.238L395,122.265V164c0,5.523,4.477,10,10,10s10-4.477,10-10v-46.896c0-3.238-1.567-6.275-4.206-8.15L374.381,83.07
	c6.628-3.463,11.918-9.149,14.861-16.07h91.685c5.523,0,10-4.477,10-10s-4.477-10-10-10h-11.073V20H502c5.523,0,10-4.477,10-10
	S507.523,0,502,0z M173.809,418l-59.857,59.858V358.143L173.809,418z M187.951,432.142L247.809,492H128.094L187.951,432.142z
	 M261.952,477.857L202.094,418l15.953-15.953c3.905-3.905,3.905-10.237,0-14.143c-3.905-3.904-10.237-3.904-14.143,0l-15.953,15.953
	L128.094,344h133.857v133.857H261.952z M248.195,32.352c0-6.811,5.541-12.352,12.352-12.352h98.906
	c6.811,0,12.352,5.541,12.352,12.352v22.03c0,6.811-5.541,12.352-12.352,12.352h-98.906c-6.811,0-12.352-5.541-12.352-12.352
	L248.195,32.352L248.195,32.352z M339.671,101.512h-59.343l-5.704-14.522l0.36-0.256h70.03l0.36,0.256L339.671,101.512z"/>
<g>
</g>
<g>
</g>
<g>
</g>
<g>
</g>
<g>
</g>
<g>
</g>
<g>
</g>
<g>
</g>
<g>
</g>
<g>
</g>
<g>
</g>
<g>
</g>
<g>
</g>
<g>
</g>
<g>
</g>
</svg>
