<?xml version="1.0" encoding="iso-8859-1"?>
<!-- Generator: Adobe Illustrator 19.0.0, SVG Export Plug-In . SVG Version: 6.00 Build 0)  -->
<svg version="1.1" id="Capa_1" xmlns="http://www.w3.org/2000/svg" xmlns:xlink="http://www.w3.org/1999/xlink" x="0px" y="0px"
	 viewBox="0 0 512 512" style="enable-background:new 0 0 512 512;" xml:space="preserve">
<rect x="10" y="185.25" style="fill:#FEDA9B;" width="492" height="316.75"/>
<path style="fill:#FFC66C;" d="M502,185.252c-174.935,0-316.748,141.813-316.748,316.748H502V185.252z"/>
<circle style="fill:#FEDA9B;" cx="137.67" cy="83.67" r="31.02"/>
<path d="M399,491.961c-5.523,0-10,4.517-10,10.039s4.477,10,10,10s10-4.478,10-10v-0.078C409,496.399,404.523,491.961,399,491.961z"
	/>
<path d="M502,389c-44.666,0-85.23,26.389-103.343,67.229c-2.239,5.049,0.038,10.957,5.087,13.196
	c1.318,0.584,2.694,0.861,4.049,0.861c3.834,0,7.492-2.218,9.146-5.948C431.848,430.722,465.236,409,502,409c5.523,0,10-4.478,10-10
	S507.523,389,502,389z"/>
<path d="M502,318.052c-101.429,0-183.948,82.519-183.948,183.948c0,5.522,4.477,10,10,10s10-4.478,10-10
	c0-90.401,73.547-163.948,163.948-163.948c5.523,0,10-4.478,10-10S507.523,318.052,502,318.052z"/>
<path d="M502,246c-68.38,0-132.667,26.629-181.019,74.98C272.629,369.333,246,433.62,246,502c0,5.522,4.477,10,10,10
	c5.523,0,10-4.478,10-10c0-130.131,105.869-236,236-236c5.523,0,10-4.478,10-10C512,250.477,507.523,246,502,246z"/>
<path d="M502,195.251c5.523,0,10-4.477,10-10s-4.477-10-10-10H10c-5.523,0-10,4.477-10,10s4.477,10,10,10h379.001
	c-43.837,16.121-84.035,41.69-118.047,75.703c-19.092,19.092-35.522,40.135-49.122,62.672H10c-5.523,0-10,4.478-10,10
	s4.477,10,10,10h200.718c-23.181,45.389-35.466,95.935-35.466,148.374c0,5.522,4.477,10,10,10s10-4.478,10-10
	C195.251,332.858,332.858,195.251,502,195.251z"/>
<path d="M447.411,119.214c2.559,0,5.119-0.977,7.071-2.929c3.905-3.905,3.905-10.237,0-14.143
	c-21.757-21.756-57.156-21.756-78.913,0c-3.905,3.905-3.905,10.237,0,14.143c3.905,3.904,10.237,3.904,14.143,0
	c13.958-13.959,36.67-13.959,50.628,0C442.292,118.238,444.852,119.214,447.411,119.214z"/>
<path d="M357.326,83.9c15.412-15.413,35.903-23.9,57.7-23.9s42.288,8.488,57.7,23.9c1.953,1.952,4.512,2.929,7.071,2.929
	s5.119-0.977,7.071-2.929c3.905-3.905,3.905-10.237,0-14.143c-39.614-39.613-104.07-39.613-143.685,0
	c-3.905,3.905-3.905,10.237,0,14.143C347.089,87.805,353.421,87.805,357.326,83.9z"/>
<path d="M407.96,134.74c-1.87,1.86-2.93,4.44-2.93,7.08c0,2.63,1.06,5.2,2.93,7.07c1.85,1.86,4.43,2.93,7.07,2.93
	c2.63,0,5.21-1.07,7.07-2.93c1.86-1.87,2.93-4.45,2.93-7.07c0-2.64-1.07-5.21-2.93-7.08c-1.86-1.86-4.44-2.92-7.07-2.92
	C412.39,131.82,409.81,132.88,407.96,134.74z"/>
<path d="M36.405,461.23c-3.905,3.905-3.905,10.237,0,14.143c1.953,1.952,4.512,2.929,7.071,2.929s5.119-0.977,7.071-2.929
	c14.56-14.561,38.25-14.561,52.811,0c3.905,3.904,10.237,3.904,14.142,0c3.905-3.905,3.905-10.237,0-14.143
	C95.143,438.873,58.764,438.873,36.405,461.23z"/>
<path d="M2.929,427.754c-3.905,3.905-3.906,10.237,0,14.143c3.906,3.905,10.238,3.905,14.142,0c33.02-33.02,86.744-33.02,119.764,0
	c1.953,1.952,4.512,2.929,7.071,2.929s5.119-0.977,7.071-2.929c3.905-3.905,3.905-10.237,0-14.143
	C110.16,386.938,43.746,386.938,2.929,427.754z"/>
<path d="M76.95,492c-2.63,0-5.21,1.069-7.07,2.93s-2.93,4.44-2.93,7.07s1.07,5.21,2.93,7.069c1.86,1.86,4.44,2.931,7.07,2.931
	s5.21-1.07,7.07-2.931c1.87-1.859,2.93-4.439,2.93-7.069s-1.06-5.21-2.93-7.07C82.16,493.069,79.58,492,76.95,492z"/>
<path d="M137.672,124.692c22.619,0,41.02-18.401,41.02-41.02c0-22.618-18.401-41.02-41.02-41.02c-22.618,0-41.02,18.401-41.02,41.02
	C96.652,106.291,115.054,124.692,137.672,124.692z M137.672,62.652c11.59,0,21.02,9.429,21.02,21.02s-9.43,21.02-21.02,21.02
	s-21.02-9.43-21.02-21.02S126.082,62.652,137.672,62.652z"/>
<path d="M137.672,37.564c5.523,0,10-4.477,10-10V10c0-5.523-4.477-10-10-10s-10,4.477-10,10v17.564
	C127.672,33.087,132.149,37.564,137.672,37.564z"/>
<path d="M127.672,141.623v15.721c0,5.523,4.477,10,10,10s10-4.477,10-10v-15.721c0-5.523-4.477-10-10-10
	S127.672,136.1,127.672,141.623z"/>
<path d="M183.78,83.672c0,5.523,4.477,10,10,10h17.564c5.523,0,10-4.477,10-10s-4.477-10-10-10H193.78
	C188.257,73.672,183.78,78.149,183.78,83.672z"/>
<path d="M64,93.672h15.721c5.523,0,10-4.477,10-10s-4.477-10-10-10H64c-5.523,0-10,4.477-10,10S58.477,93.672,64,93.672z"/>
<path d="M170.275,116.275c-3.905,3.905-3.905,10.237,0,14.143l12.42,12.42c1.953,1.953,4.512,2.929,7.071,2.929
	s5.119-0.976,7.071-2.929c3.905-3.905,3.905-10.237,0-14.143l-12.42-12.42C180.512,112.37,174.18,112.37,170.275,116.275z"/>
<path d="M89.623,49.766c1.953,1.953,4.512,2.929,7.071,2.929s5.119-0.976,7.071-2.929c3.905-3.905,3.905-10.237,0-14.143
	L92.649,24.507c-3.905-3.905-10.237-3.905-14.143,0c-3.905,3.905-3.905,10.237,0,14.143L89.623,49.766z"/>
<path d="M90.926,116.275l-12.419,12.42c-3.905,3.905-3.905,10.237,0,14.142c1.953,1.953,4.512,2.929,7.071,2.929
	s5.119-0.977,7.071-2.929l12.419-12.42c3.905-3.905,3.905-10.237,0-14.142S94.832,112.37,90.926,116.275z"/>
<path d="M178.649,52.694c2.559,0,5.119-0.977,7.071-2.929l11.117-11.116c3.905-3.905,3.906-10.237,0-14.142s-10.237-3.905-14.142,0
	l-11.117,11.116c-3.905,3.905-3.906,10.237,0,14.142C173.531,51.718,176.09,52.694,178.649,52.694z"/>
<path d="M10,274.438h183.333c5.523,0,10-4.478,10-10s-4.477-10-10-10H10c-5.523,0-10,4.478-10,10S4.477,274.438,10,274.438z"/>
<path d="M241.4,271.51c1.87-1.86,2.93-4.44,2.93-7.07s-1.06-5.21-2.93-7.069c-1.86-1.86-4.43-2.93-7.07-2.93
	c-2.63,0-5.21,1.07-7.07,2.93c-1.86,1.859-2.93,4.43-2.93,7.069c0,2.63,1.07,5.21,2.93,7.07s4.44,2.93,7.07,2.93
	C236.97,274.439,239.54,273.37,241.4,271.51z"/>
<g>
</g>
<g>
</g>
<g>
</g>
<g>
</g>
<g>
</g>
<g>
</g>
<g>
</g>
<g>
</g>
<g>
</g>
<g>
</g>
<g>
</g>
<g>
</g>
<g>
</g>
<g>
</g>
<g>
</g>
</svg>
