<?xml version="1.0" encoding="iso-8859-1"?>
<!-- Generator: Adobe Illustrator 19.0.0, SVG Export Plug-In . SVG Version: 6.00 Build 0)  -->
<svg version="1.1" id="Capa_1" xmlns="http://www.w3.org/2000/svg" xmlns:xlink="http://www.w3.org/1999/xlink" x="0px" y="0px"
	 viewBox="0 0 512 512" style="enable-background:new 0 0 512 512;" xml:space="preserve">
<path style="fill:#4DBAF6;" d="M30,190h452c11.046,0,20,8.954,20,20v272c0,11.046-8.954,20-20,20H30c-11.046,0-20-8.954-20-20V210
	C10,198.954,18.954,190,30,190z"/>
<rect x="63.994" y="189.99" style="fill:#FFFFFF;" width="366.01" height="312"/>
<circle style="fill:#FEDA9B;" cx="256" cy="123.25" r="47.684"/>
<g>
	<path style="fill:#A0E557;" d="M258.657,445.296c0,0,58.224,14.997,98.865-25.644s25.231-98.453,25.231-98.453
		S324.941,305.79,284.3,346.43S258.657,445.296,258.657,445.296z"/>
	<path style="fill:#A0E557;" d="M227.699,346.431c-40.641-40.641-98.453-25.231-98.453-25.231s-15.409,57.812,25.231,98.453
		s98.865,25.644,98.865,25.644S268.34,387.072,227.699,346.431z"/>
</g>
<path d="M126.672,311.536c-3.462,0.923-6.165,3.626-7.088,7.088c-0.689,2.588-16.385,63.891,27.823,108.1
	c25.808,25.808,57.584,31.332,80.064,31.332c15.994,0,27.283-2.797,28.365-3.076c0.053-0.014,0.102-0.037,0.155-0.051
	c0.021,0.006,0.043,0.01,0.064,0.016c0.037,0.01,0.071,0.026,0.107,0.036c1.082,0.279,12.367,3.076,28.365,3.076
	c22.479,0,54.259-5.527,80.064-31.332c44.208-44.209,28.513-105.512,27.823-108.1c-0.923-3.462-3.626-6.165-7.088-7.088
	c-2.587-0.689-63.89-16.387-108.099,27.823c-9.661,9.661-16.479,20.158-21.229,30.691c-4.75-10.533-11.569-21.031-21.229-30.691
	C190.562,295.152,129.26,310.848,126.672,311.536z M291.372,353.502c28.764-28.764,68.068-26.067,82.856-23.78
	c2.289,14.813,4.977,54.104-23.778,82.859c-22.446,22.446-51.452,25.896-70.221,25.285l47.211-47.212
	c3.905-3.905,3.905-10.237,0-14.143c-3.906-3.904-10.236-3.904-14.143,0l-47.211,47.212c-0.011-0.342-0.016-0.699-0.024-1.047
	c0.047-1.976,0.053-4.035,0.007-6.169C266.586,398.047,271.636,373.238,291.372,353.502z M245.931,416.502
	c-0.014,0.639-0.023,1.272-0.028,1.897l-37.068-37.068c-3.906-3.904-10.236-3.904-14.143,0c-3.905,3.905-3.905,10.237,0,14.143
	l42.12,42.12c-18.256,1.366-50.688-0.436-75.262-25.012c-28.781-28.781-26.063-68.117-23.775-82.886
	c14.765-2.336,53.93-5.118,82.854,23.807C240.363,373.237,245.413,398.044,245.931,416.502z"/>
<path d="M482,180c0,0-52.167-0.002-52.251,0H380c-5.522,0-10,4.477-10,10s4.478,10,10,10h40v220.959c0,5.522,4.478,10,10,10
	s10-4.478,10-10V200h42c5.514,0,10,4.486,10,10v272c0,5.514-4.486,10-10,10H73.994V200h58.673c5.522,0,10-4.477,10-10
	s-4.478-10-10-10H30c-16.542,0-30,13.458-30,30v272c0,16.542,13.458,30,30,30h452c16.542,0,30-13.458,30-30V210
	C512,193.458,498.542,180,482,180z M53.994,492H30c-5.514,0-10-4.486-10-10V210c0-5.514,4.486-10,10-10h23.994V492z"/>
<path d="M437.069,467.35c1.86-1.859,2.931-4.439,2.931-7.069c0-2.631-1.07-5.211-2.931-7.07c-1.859-1.86-4.439-2.93-7.069-2.93
	s-5.21,1.069-7.07,2.93c-1.86,1.859-2.93,4.439-2.93,7.07c0,2.63,1.069,5.21,2.93,7.069c1.86,1.87,4.44,2.931,7.07,2.931
	S435.21,469.22,437.069,467.35z"/>
<path d="M473.06,353.08c1.86-1.86,2.931-4.44,2.931-7.07s-1.07-5.21-2.931-7.07c-1.859-1.859-4.439-2.93-7.069-2.93
	c-2.631,0-5.21,1.07-7.07,2.93c-1.86,1.86-2.93,4.44-2.93,7.07s1.069,5.21,2.93,7.07c1.86,1.859,4.439,2.93,7.07,2.93
	C468.62,356.01,471.2,354.939,473.06,353.08z"/>
<path d="M256,180.934c31.808,0,57.685-25.877,57.685-57.684S287.808,65.566,256,65.566s-57.685,25.877-57.685,57.684
	S224.192,180.934,256,180.934z M256,85.566c20.779,0,37.685,16.905,37.685,37.684S276.779,160.934,256,160.934
	s-37.685-16.905-37.685-37.684S235.221,85.566,256,85.566z"/>
<path d="M256,47c5.522,0,10-4.477,10-10V10c0-5.523-4.478-10-10-10s-10,4.477-10,10v27C246,42.523,250.478,47,256,47z"/>
<path d="M266,236.5v-24.167c0-5.523-4.478-10-10-10s-10,4.477-10,10V236.5c0,5.523,4.478,10,10,10S266,242.023,266,236.5z"/>
<path d="M332.25,123.25c0,5.523,4.478,10,10,10h27c5.522,0,10-4.477,10-10s-4.478-10-10-10h-27
	C336.728,113.25,332.25,117.727,332.25,123.25z"/>
<path d="M142.75,133.25h24.167c5.522,0,10-4.477,10-10s-4.478-10-10-10H142.75c-5.522,0-10,4.477-10,10
	C132.75,128.773,137.228,133.25,142.75,133.25z"/>
<path d="M336.08,213.33c2.559,0,5.118-0.977,7.071-2.929c3.905-3.905,3.905-10.237,0-14.142l-19.092-19.092
	c-3.904-3.905-10.234-3.905-14.143,0c-3.905,3.905-3.905,10.237,0,14.142l19.092,19.092
	C330.962,212.354,333.521,213.33,336.08,213.33z"/>
<path d="M185.938,67.33c1.953,1.953,4.512,2.929,7.071,2.929s5.118-0.976,7.071-2.929c3.905-3.905,3.905-10.237,0-14.143
	l-17.089-17.089c-3.906-3.905-10.236-3.905-14.143,0c-3.905,3.905-3.905,10.237,0,14.143L185.938,67.33z"/>
<path d="M182.991,210.401l19.092-19.092c3.905-3.905,3.905-10.237,0-14.142c-3.906-3.905-10.236-3.905-14.143,0l-19.092,19.092
	c-3.905,3.905-3.905,10.237,0,14.142c1.953,1.953,4.512,2.929,7.071,2.929S181.038,212.354,182.991,210.401z"/>
<path d="M318.991,70.259c2.56,0,5.118-0.976,7.071-2.929l17.089-17.089c3.905-3.905,3.905-10.237,0-14.143
	c-3.906-3.905-10.236-3.905-14.143,0l-17.088,17.09c-3.905,3.905-3.905,10.237,0,14.143
	C313.873,69.283,316.432,70.259,318.991,70.259z"/>
<g>
</g>
<g>
</g>
<g>
</g>
<g>
</g>
<g>
</g>
<g>
</g>
<g>
</g>
<g>
</g>
<g>
</g>
<g>
</g>
<g>
</g>
<g>
</g>
<g>
</g>
<g>
</g>
<g>
</g>
</svg>
