<?xml version="1.0" encoding="iso-8859-1"?>
<!-- Generator: Adobe Illustrator 19.0.0, SVG Export Plug-In . SVG Version: 6.00 Build 0)  -->
<svg version="1.1" id="Capa_1" xmlns="http://www.w3.org/2000/svg" xmlns:xlink="http://www.w3.org/1999/xlink" x="0px" y="0px"
	 viewBox="0 0 512 512" style="enable-background:new 0 0 512 512;" xml:space="preserve">
<path style="fill:#4DBAF6;" d="M435.986,34v444c0,13.255-10.745,24-24,24H100c-13.255,0-24-10.745-24-24V34
	c0-13.255,10.745-24,24-24h311.986C425.241,10,435.986,20.745,435.986,34z"/>
<rect x="76.01" y="63.994" style="fill:#FFFFFF;" width="359.99" height="366.01"/>
<path style="fill:#A0E557;" d="M199.062,181.41c14.325,0,25.938-11.613,25.938-25.938s-11.613-25.938-25.938-25.938
	c-0.062,0-0.123,0.004-0.185,0.005c-1.514-12.883-12.462-22.88-25.752-22.88s-24.238,9.997-25.752,22.88
	c-0.062,0-0.123-0.005-0.185-0.005c-14.325,0-25.938,11.613-25.938,25.938s11.613,25.938,25.938,25.938H199.062z"/>
<path style="fill:#FF5D5D;" d="M230.235,225.127c0-26.107-25.569-47.271-57.111-47.272c-31.541,0-57.111,21.164-57.111,47.272
	s33.132,164.532,57.111,164.532S230.235,251.234,230.235,225.127z"/>
<path style="fill:#A0E557;" d="M372.003,351.93h-66.035c-13.245,0-23.983-10.737-23.983-23.983l0,0
	c0-13.245,10.737-23.983,23.983-23.983h66.035c13.245,0,23.983,10.737,23.983,23.983l0,0
	C395.986,341.193,385.248,351.93,372.003,351.93z"/>
<path d="M76,329c2.63,0,5.21-1.07,7.069-2.931C84.93,324.21,86,321.63,86,319s-1.07-5.21-2.931-7.07C81.21,310.069,78.63,309,76,309
	s-5.21,1.069-7.07,2.93S66,316.37,66,319s1.069,5.21,2.93,7.069C70.79,327.93,73.37,329,76,329z"/>
<path d="M445.985,429.71V64.284c0.003-0.097,0.015-0.192,0.015-0.29s-0.012-0.193-0.015-0.29V34c0-18.748-15.252-34-34-34H100
	C81.252,0,66,15.252,66,34v245c0,5.522,4.478,10,10,10s10-4.478,10-10V73.994h339.985V420H86v-61c0-5.522-4.478-10-10-10
	s-10,4.478-10,10v119c0,18.748,15.252,34,34,34h311.985c18.748,0,34-15.252,34-34v-47.71c0.003-0.097,0.015-0.192,0.015-0.29
	S445.988,429.807,445.985,429.71z M86,53.994V34c0-7.72,6.28-14,14-14h311.985c7.72,0,14,6.28,14,14v19.994H86z M411.985,492H100
	c-7.72,0-14-6.28-14-14v-38h339.985v38C425.985,485.72,419.705,492,411.985,492z"/>
<path d="M256,455.99c-2.63,0-5.21,1.069-7.07,2.93s-2.93,4.439-2.93,7.07c0,2.63,1.069,5.21,2.93,7.069
	c1.86,1.86,4.44,2.931,7.07,2.931s5.21-1.07,7.069-2.931c1.86-1.859,2.931-4.439,2.931-7.069c0-2.631-1.07-5.21-2.931-7.07
	C261.21,457.06,258.63,455.99,256,455.99z"/>
<path d="M106.014,225.127c0,15.089,9.149,58.554,19.979,94.911c6.333,21.259,12.935,39.22,19.091,51.94
	c9.266,19.144,17.913,27.681,28.041,27.681s18.775-8.537,28.04-27.681c6.157-12.721,12.758-30.682,19.091-51.94
	c10.83-36.358,19.979-79.822,19.979-94.911c0-15.898-7.636-30.3-19.935-40.687c8.906-6.547,14.7-17.091,14.7-28.967
	c0-17.112-12.021-31.468-28.063-35.068c-5.024-13.971-18.387-23.745-33.813-23.745s-28.789,9.774-33.813,23.745
	c-16.041,3.6-28.063,17.957-28.063,35.068c0,11.876,5.794,22.42,14.7,28.967C113.649,194.827,106.014,209.229,106.014,225.127z
	 M173.125,379.118c-4.789-4.038-15.719-22.331-29.411-69.724c-2.511-8.693-4.837-17.45-6.924-25.895h21.045c5.522,0,10-4.478,10-10
	s-4.478-10-10-10h-25.682c-3.851-17.854-6.139-32.269-6.139-38.373c0-20.552,21.134-37.271,47.111-37.271
	c19.452,0,36.187,9.376,43.367,22.716H181.07c-5.522,0-10,4.477-10,10s4.478,10,10,10h38.812
	c-1.487,14.22-7.579,44.049-15.957,73.929h-19.112c-5.522,0-10,4.478-10,10s4.478,10,10,10h13.145
	C186.428,360.762,177.366,375.541,173.125,379.118z M147.187,171.41c-8.788,0-15.938-7.149-15.938-15.938
	c0-8.754,7.095-15.882,15.837-15.937c0.113,0.002,0.209,0.003,0.287,0.004c5.066,0,9.339-3.793,9.931-8.833
	c0.941-8.008,7.742-14.047,15.821-14.047c8.078,0,14.879,6.039,15.82,14.047c0.592,5.04,4.864,8.833,9.931,8.833
	c0.026,0,0.054,0,0.08,0l0.178-0.004c8.755,0.039,15.866,7.173,15.866,15.938c0,8.788-7.149,15.938-15.938,15.938
	c-0.7,0-1.384,0.073-2.043,0.21c-7.428-2.424-15.479-3.765-23.894-3.765s-16.466,1.341-23.895,3.765
	C148.57,171.484,147.887,171.41,147.187,171.41z"/>
<path d="M395.985,170.069c5.522,0,10-4.477,10-10s-4.478-10-10-10h-73.652c-5.522,0-10,4.477-10,10s4.478,10,10,10H395.985z"/>
<path d="M289.06,167.14c1.86-1.86,2.931-4.44,2.931-7.07s-1.07-5.21-2.931-7.07c-1.859-1.86-4.439-2.93-7.069-2.93
	c-2.641,0-5.221,1.07-7.08,2.93c-1.86,1.86-2.92,4.44-2.92,7.07s1.06,5.21,2.92,7.07c1.87,1.86,4.439,2.93,7.08,2.93
	C284.62,170.07,287.189,169,289.06,167.14z"/>
<path d="M281.985,218.035h114c5.522,0,10-4.477,10-10s-4.478-10-10-10h-114c-5.522,0-10,4.477-10,10
	S276.463,218.035,281.985,218.035z"/>
<path d="M281.985,266h114c5.522,0,10-4.478,10-10c0-5.523-4.478-10-10-10h-114c-5.522,0-10,4.477-10,10
	C271.985,261.522,276.463,266,281.985,266z"/>
<path d="M305.969,361.931h66.034c18.738,0,33.982-15.244,33.982-33.982s-15.244-33.983-33.982-33.983h-66.034
	c-18.738,0-33.983,15.245-33.983,33.983S287.23,361.931,305.969,361.931z M305.969,313.965h66.034
	c7.71,0,13.982,6.272,13.982,13.983c0,7.71-6.272,13.982-13.982,13.982h-66.034c-7.711,0-13.983-6.272-13.983-13.982
	C291.985,320.237,298.258,313.965,305.969,313.965z"/>
<g>
</g>
<g>
</g>
<g>
</g>
<g>
</g>
<g>
</g>
<g>
</g>
<g>
</g>
<g>
</g>
<g>
</g>
<g>
</g>
<g>
</g>
<g>
</g>
<g>
</g>
<g>
</g>
<g>
</g>
</svg>
