<?xml version="1.0" encoding="iso-8859-1"?>
<!-- Generator: Adobe Illustrator 19.0.0, SVG Export Plug-In . SVG Version: 6.00 Build 0)  -->
<svg version="1.1" id="Capa_1" xmlns="http://www.w3.org/2000/svg" xmlns:xlink="http://www.w3.org/1999/xlink" x="0px" y="0px"
	 viewBox="0 0 512.001 512.001" style="enable-background:new 0 0 512.001 512.001;" xml:space="preserve">
<path style="fill:#72D8FF;" d="M107.169,202.638l41.052-41.052l41.052,41.052c22.673,22.673,22.673,59.432,0,82.105l0,0
	c-22.673,22.673-59.432,22.673-82.105,0l0,0C84.496,262.071,84.496,225.311,107.169,202.638z"/>
<g>
	<path style="fill:#A0E557;" d="M346.198,321.969c-32.199-32.199-78.004-19.991-78.004-19.991s-12.209,45.804,19.991,78.004
		s78.33,20.317,78.33,20.317S378.398,354.169,346.198,321.969z"/>
	<path style="fill:#A0E557;" d="M370.49,332.07c0,0,39.444,10.16,66.976-17.372C464.999,287.165,454.56,248,454.56,248
		s-39.165-10.439-66.697,17.093C360.331,292.625,370.49,332.07,370.49,332.07z"/>
</g>
<circle style="fill:#FEDA9B;" cx="368.66" cy="97.83" r="36.982"/>
<g>
	<path style="fill:#A0E557;" d="M149.735,450.136c0,0,33.859,8.721,57.492-14.912s14.673-57.252,14.673-57.252
		s-33.619-8.961-57.252,14.673C141.014,416.277,149.735,450.136,149.735,450.136z"/>
	<path style="fill:#A0E557;" d="M131.733,392.644c-23.633-23.633-57.252-14.673-57.252-14.673s-8.961,33.619,14.673,57.252
		c23.633,23.633,57.492,14.912,57.492,14.912S155.366,416.277,131.733,392.644z"/>
</g>
<path d="M509.072,473.608l-21.321-21.32c-3.906-3.904-10.236-3.904-14.143,0c-3.905,3.905-3.905,10.237,0,14.143l4.25,4.249h-99.199
	v-88.27c0.038-1.639,0.041-3.35,0-5.123V343.47c2.721,0.263,5.861,0.449,9.319,0.449c15.865,0,38.313-3.903,56.561-22.15
	c31.249-31.249,20.171-74.518,19.685-76.344c-0.923-3.461-3.626-6.165-7.088-7.087c-1.826-0.487-45.095-11.565-76.344,19.684
	c-20.907,20.908-22.983,47.327-21.934,63.044c-1.72-2.092-3.574-4.153-5.588-6.167c-35.863-35.863-85.552-23.141-87.65-22.583
	c-3.462,0.923-6.165,3.626-7.088,7.088c-0.559,2.098-13.28,51.786,22.583,87.65c20.94,20.94,46.709,25.42,64.93,25.42
	c4.807,0,9.085-0.313,12.614-0.716v58.922H158.222v-9.215c1.975,0.151,4.155,0.251,6.507,0.251c13.898,0,33.57-3.421,49.569-19.42
	c27.395-27.396,17.69-65.299,17.265-66.898c-0.923-3.462-3.626-6.165-7.088-7.088c-1.601-0.427-39.503-10.132-66.898,17.264
	c-3.807,3.807-6.88,7.825-9.386,11.921c-2.506-4.096-5.579-8.114-9.386-11.921c-27.396-27.395-65.298-17.688-66.898-17.264
	c-3.462,0.923-6.165,3.626-7.088,7.088c-0.426,1.6-10.13,39.503,17.265,66.898c16,16,35.671,19.42,49.569,19.42
	c2.376,0,4.579-0.102,6.57-0.256v9.22H40.938V170c0-5.523-4.478-10-10-10s-10,4.477-10,10v310.679c0,5.522,4.478,10,10,10h446.92
	l-4.25,4.25c-3.905,3.905-3.905,10.237,0,14.143c1.953,1.952,4.512,2.929,7.071,2.929s5.118-0.977,7.071-2.929l21.321-21.321
	c1.875-1.876,2.929-4.419,2.929-7.071S510.947,475.483,509.072,473.608z M171.719,399.715
	c13.903-13.904,32.158-14.132,41.525-13.104c1.007,9.355,0.778,27.675-13.089,41.541c-13.892,13.893-32.222,14.258-41.715,13.292
	c-0.111-1.118-0.203-2.365-0.258-3.71c0.049-1.604,0.049-3.309-0.003-5.087C158.57,422.856,161.407,410.026,171.719,399.715z
	 M96.225,428.152c-13.905-13.905-14.129-32.164-13.104-41.525c9.354-1.005,27.678-0.776,41.541,13.088
	c10.224,10.223,13.117,22.852,13.551,32.585c-0.068,2.007-0.067,3.926-0.007,5.714c-0.058,1.237-0.146,2.389-0.251,3.428
	C128.471,442.408,110.123,442.052,96.225,428.152z M394.934,272.164c17.362-17.362,40.293-16.965,51.042-15.583
	c1.385,10.771,1.775,33.69-15.58,51.044c-11.557,11.557-25.899,15.244-37.364,16.045l17.009-17.009
	c3.905-3.905,3.905-10.237,0-14.143c-3.906-3.904-10.236-3.904-14.143,0l-17.009,17.009
	C379.689,298.064,383.376,283.721,394.934,272.164z M276.725,310.511c12.291-1.777,40.868-3.005,62.402,18.53
	c15.407,15.407,19.163,34.891,19.457,49.184l-22.981-22.982c-3.904-3.902-10.234-3.904-14.143,0c-3.905,3.905-3.905,10.237,0,14.143
	l22.979,22.979c-14.299-0.294-33.78-4.05-49.182-19.454C273.715,351.369,274.948,322.78,276.725,310.511z"/>
<path d="M20.938,91.786c0,5.523,4.478,10,10,10s10-4.477,10-10V34.142l3.867,3.867c1.953,1.953,4.512,2.929,7.071,2.929
	s5.118-0.977,7.071-2.929c3.905-3.905,3.905-10.237,0-14.142L38.009,2.929C36.133,1.054,33.59,0,30.938,0s-5.195,1.054-7.071,2.929
	L2.929,23.867c-3.905,3.905-3.905,10.237,0,14.142c3.906,3.905,10.236,3.905,14.143,0l3.866-3.866
	C20.938,34.143,20.938,91.786,20.938,91.786z"/>
<path d="M30.94,122.55c-2.64,0-5.22,1.07-7.069,2.93c-1.86,1.86-2.931,4.43-2.931,7.07c0,2.63,1.07,5.21,2.931,7.07
	c1.859,1.86,4.43,2.93,7.069,2.93c2.63,0,5.21-1.07,7.07-2.93c1.86-1.86,2.93-4.44,2.93-7.07s-1.069-5.21-2.93-7.07
	C36.15,123.62,33.57,122.55,30.94,122.55z"/>
<path d="M148.221,311.716c17.429,0,34.856-6.634,48.124-19.901c26.535-26.536,26.535-69.712,0-96.247l-41.052-41.052
	c-1.876-1.875-4.419-2.929-7.071-2.929s-5.195,1.054-7.071,2.929l-41.053,41.052c-26.535,26.536-26.535,69.711,0,96.248
	C113.365,305.082,130.793,311.716,148.221,311.716z M114.24,209.71l33.981-33.981l33.98,33.981
	c18.737,18.737,18.737,49.225,0,67.962c-18.736,18.737-49.226,18.739-67.962,0C95.503,258.935,95.503,228.447,114.24,209.71z"/>
<path d="M368.658,144.816c25.906,0,46.982-21.076,46.982-46.982s-21.076-46.982-46.982-46.982s-46.982,21.076-46.982,46.982
	S342.752,144.816,368.658,144.816z M368.658,70.851c14.878,0,26.982,12.104,26.982,26.982s-12.104,26.982-26.982,26.982
	s-26.982-12.104-26.982-26.982S353.781,70.851,368.658,70.851z"/>
<path d="M368.658,26.298c5.522,0,10-4.477,10-10V10c0-5.523-4.478-10-10-10s-10,4.477-10,10v6.298
	C358.658,21.821,363.136,26.298,368.658,26.298z"/>
<path d="M358.658,179.368v6.298c0,5.523,4.478,10,10,10s10-4.477,10-10v-6.298c0-5.523-4.478-10-10-10
	S358.658,173.845,358.658,179.368z"/>
<path d="M450.194,107.834h6.298c5.522,0,10-4.477,10-10s-4.478-10-10-10h-6.298c-5.522,0-10,4.477-10,10
	S444.671,107.834,450.194,107.834z"/>
<path d="M280.824,107.834h6.299c5.522,0,10-4.477,10-10s-4.478-10-10-10h-6.299c-5.522,0-10,4.477-10,10
	S275.302,107.834,280.824,107.834z"/>
<path d="M303.933,148.417l-4.453,4.454c-3.905,3.906-3.905,10.237,0.001,14.142c1.952,1.953,4.511,2.929,7.07,2.929
	s5.119-0.977,7.071-2.929l4.453-4.454c3.905-3.906,3.905-10.237-0.001-14.142C314.17,144.511,307.837,144.511,303.933,148.417z"/>
<path d="M426.312,50.179c2.559,0,5.118-0.976,7.07-2.929l4.454-4.454c3.906-3.905,3.906-10.236,0.001-14.142
	c-3.902-3.904-10.235-3.906-14.142,0l-4.454,4.454c-3.906,3.905-3.906,10.236-0.001,14.142
	C421.193,49.203,423.752,50.179,426.312,50.179z"/>
<path d="M303.933,47.25c1.952,1.953,4.512,2.929,7.071,2.929c2.559,0,5.118-0.976,7.07-2.929c3.906-3.905,3.906-10.236,0.001-14.142
	l-4.453-4.454c-3.903-3.904-10.236-3.906-14.142,0c-3.906,3.905-3.906,10.236-0.001,14.142L303.933,47.25z"/>
<path d="M423.696,167.012c1.952,1.953,4.511,2.929,7.07,2.929s5.119-0.977,7.071-2.929c3.905-3.906,3.905-10.237-0.001-14.142
	l-4.454-4.454c-3.904-3.905-10.237-3.905-14.142,0c-3.905,3.906-3.905,10.237,0.001,14.142L423.696,167.012z"/>
<g>
</g>
<g>
</g>
<g>
</g>
<g>
</g>
<g>
</g>
<g>
</g>
<g>
</g>
<g>
</g>
<g>
</g>
<g>
</g>
<g>
</g>
<g>
</g>
<g>
</g>
<g>
</g>
<g>
</g>
</svg>
