<?xml version="1.0" encoding="iso-8859-1"?>
<!-- Generator: Adobe Illustrator 19.0.0, SVG Export Plug-In . SVG Version: 6.00 Build 0)  -->
<svg version="1.1" id="Capa_1" xmlns="http://www.w3.org/2000/svg" xmlns:xlink="http://www.w3.org/1999/xlink" x="0px" y="0px"
	 viewBox="0 0 512 512" style="enable-background:new 0 0 512 512;" xml:space="preserve">
<path style="fill:#FFB9B7;" d="M10,308.167V202.875c0-55.228,44.771-100,100-100l0,0c55.228,0,100,44.771,100,100v33.069
	l-74.609,6.222v-36.297c0-14.023-11.368-25.391-25.391-25.391l0,0c-14.023,0-25.391,11.368-25.391,25.391v48.277L10,308.167z"/>
<path style="fill:#FF5D5D;" d="M374.496,145.736L399,157.667l2.221-0.459c7.691-19.274,26.514-32.901,48.532-32.901l0,0
	c14.396,0,27.431,5.824,36.881,15.243l0.426-0.088v-35.229c3.174-18.344-8.82-35.842-26.791-39.082
	c-8.46-1.525-16.715,0.413-23.437,4.771c-5.043-5.735-11.909-9.876-19.921-11.32c-19.036-3.432-37.193,9.537-40.556,28.968
	c-0.133,0.77-0.199,1.535-0.282,2.302c-9.822,3.334-17.589,11.917-19.516,23.052C354.109,127.072,361.898,140.649,374.496,145.736z"
	/>
<path style="fill:#FFC66C;" d="M135.391,288.477L135.391,288.477c0,86.234,69.907,156.141,156.141,156.141h36.351
	c86.234,0,156.141-69.907,156.141-156.141v-87.014H502v-24.91c0-28.855-23.392-52.247-52.247-52.247l0,0
	c-28.855,0-52.247,23.392-52.247,52.247v65.612H135.391V288.477z"/>
<path style="fill:#FF5D5D;" d="M204.773,287.667H319.31c30.006,0,54.331,24.325,54.331,54.331l0,0
	c0,30.006-24.325,54.331-54.331,54.331h-5.874C253.423,396.33,204.773,347.68,204.773,287.667L204.773,287.667z"/>
<path d="M327.84,249.24c1.86-1.87,2.93-4.44,2.93-7.07c0-2.64-1.07-5.21-2.93-7.07c-1.86-1.87-4.43-2.93-7.07-2.93
	c-2.63,0-5.21,1.06-7.07,2.93c-1.86,1.851-2.93,4.431-2.93,7.07c0,2.63,1.07,5.21,2.93,7.07c1.86,1.859,4.44,2.92,7.07,2.92
	C323.41,252.16,325.98,251.1,327.84,249.24z"/>
<path d="M491.445,130.375l5.373-23.954c0.036-0.16,0.068-0.321,0.096-0.483c4.103-23.71-11.54-46.422-34.871-50.628
	c-7.962-1.437-16.073-0.554-23.485,2.474c-5.76-4.615-12.512-7.696-19.872-9.022c-11.724-2.116-23.579,0.5-33.383,7.36
	c-9.189,6.43-15.567,15.85-18.185,26.759c-10.674,5.662-18.289,16.063-20.413,28.338c-3.173,18.334,6.783,36.627,23.703,43.649
	l18.046,8.787c0.121,0.059,0.247,0.1,0.369,0.154c-0.86,4.116-1.317,8.378-1.317,12.745v55.612H359c-5.523,0-10,4.478-10,10
	s4.477,10,10,10h38.505c5.523,0,10-4.478,10-10v-65.612c0-23.295,18.952-42.247,42.248-42.247c23.295,0,42.247,18.952,42.247,42.247
	v14.909h-7.976c-5.523,0-10,4.478-10,10v87.014c0,80.583-65.559,146.142-146.141,146.142h-36.351
	c-80.582,0-146.141-65.559-146.141-146.142v-36.311h134.917c5.523,0,10-4.478,10-10s-4.477-10-10-10H220v-29.291
	c0-60.654-49.346-110-110-110s-110,49.346-110,110v60.792c0,5.522,4.477,10,10,10s10-4.478,10-10v-60.792c0-49.626,40.374-90,90-90
	s90,40.374,90,90v29.291h-16.847v-26.718c0-40.337-32.816-73.153-73.153-73.153s-73.153,32.816-73.153,73.153V275
	c0,5.522,4.477,10,10,10s10-4.478,10-10v-69.552c0-29.309,23.845-53.153,53.153-53.153s53.153,23.845,53.153,53.153v26.718h-17.762
	v-26.297c0-19.515-15.876-35.391-35.391-35.391s-35.391,15.876-35.391,35.391v48.276c0,5.522,4.477,10,10,10s10-4.478,10-10v-48.276
	c0-8.486,6.904-15.391,15.391-15.391s15.391,6.904,15.391,15.391v36.297v46.311c0,81.326,58.738,149.185,136.017,163.397V502
	c0,5.522,4.477,10,10,10h17.799c5.523,0,10-4.478,10-10s-4.477-10-10-10h-7.799v-37.699c3.35,0.202,6.723,0.317,10.124,0.317h28.72
	V502c0,5.522,4.477,10,10,10h17.799c5.523,0,10-4.478,10-10s-4.477-10-10-10h-7.799v-37.842
	c85.856-6.349,153.772-78.231,153.772-165.681v-77.014H502c5.523,0,10-4.478,10-10v-24.909
	C512,158.253,504.059,141.775,491.445,130.375z M396.062,145.114l-17.188-8.369c-0.208-0.101-0.419-0.195-0.633-0.281
	c-8.453-3.413-13.428-12.597-11.829-21.836c1.238-7.154,6.172-13.012,12.876-15.287c3.684-1.251,6.309-4.525,6.728-8.394
	l0.055-0.518c0.04-0.384,0.072-0.77,0.139-1.155c1.191-6.881,4.941-12.836,10.559-16.767c5.405-3.782,11.929-5.23,18.369-4.064
	c5.503,0.991,10.409,3.786,14.186,8.082c3.276,3.726,8.789,4.487,12.95,1.787c4.86-3.151,10.624-4.332,16.222-3.32
	c12.482,2.25,20.852,14.474,18.75,27.313l-3.75,16.718c-7.321-3.032-15.337-4.716-23.741-4.716
	C426.894,114.307,406.886,126.701,396.062,145.114z"/>
<path d="M10,298.17c-2.63,0-5.21,1.06-7.07,2.93C1.07,302.96,0,305.54,0,308.17s1.07,5.21,2.93,7.07c1.86,1.859,4.44,2.93,7.07,2.93
	s5.21-1.07,7.07-2.93S20,310.8,20,308.17c0-2.64-1.07-5.21-2.93-7.07C15.21,299.229,12.63,298.17,10,298.17z"/>
<path d="M204.773,277.667c-5.523,0-10,4.478-10,10c0,65.431,53.232,118.663,118.663,118.663h5.874
	c35.473,0,64.332-28.859,64.332-64.332s-28.859-64.331-64.332-64.331H204.773z M363.642,341.998
	c0,24.444-19.887,44.332-44.332,44.332h-5.874c-37.025,0-69.346-20.501-86.22-50.745c8.375,5.02,18.163,7.915,28.617,7.915h24.475
	c5.523,0,10-4.478,10-10s-4.477-10-10-10h-24.475c-16.288,0-30.063-10.927-34.403-25.833h97.88
	C343.754,297.667,363.642,317.554,363.642,341.998z"/>
<path d="M452.75,180.59c1.86-1.86,2.93-4.44,2.93-7.07c0-2.64-1.07-5.21-2.93-7.08c-1.86-1.859-4.44-2.92-7.07-2.92
	s-5.21,1.061-7.07,2.92c-1.86,1.87-2.93,4.44-2.93,7.08c0,2.63,1.07,5.21,2.93,7.07s4.44,2.93,7.07,2.93
	C448.31,183.52,450.89,182.45,452.75,180.59z"/>
<path d="M288.385,79.215c2.559,0,5.119-0.977,7.071-2.929c3.905-3.905,3.906-10.236,0-14.143C284.917,51.604,270.905,45.8,256,45.8
	s-28.917,5.805-39.457,16.344c-3.905,3.906-3.905,10.237,0,14.143c3.905,3.904,10.237,3.904,14.142,0
	C237.448,69.523,246.437,65.8,256,65.8c9.562,0,18.552,3.724,25.314,10.486C283.267,78.238,285.826,79.215,288.385,79.215z"/>
<path d="M198.3,43.9C213.712,28.487,234.204,20,256,20s42.288,8.487,57.7,23.9c1.953,1.952,4.512,2.929,7.071,2.929
	c2.559,0,5.119-0.977,7.071-2.929c3.905-3.905,3.906-10.237,0-14.143C308.652,10.568,283.138,0,256,0s-52.652,10.568-71.842,29.758
	c-3.905,3.905-3.905,10.237,0,14.143C188.063,47.805,194.395,47.805,198.3,43.9z"/>
<path d="M248.93,94.74c-1.86,1.86-2.93,4.44-2.93,7.07c0,2.641,1.07,5.21,2.93,7.08c1.86,1.86,4.44,2.92,7.07,2.92
	s5.21-1.06,7.07-2.92c1.86-1.87,2.93-4.439,2.93-7.08c0-2.63-1.07-5.21-2.93-7.069c-1.86-1.86-4.44-2.931-7.07-2.931
	S250.79,92.88,248.93,94.74z"/>
<g>
</g>
<g>
</g>
<g>
</g>
<g>
</g>
<g>
</g>
<g>
</g>
<g>
</g>
<g>
</g>
<g>
</g>
<g>
</g>
<g>
</g>
<g>
</g>
<g>
</g>
<g>
</g>
<g>
</g>
</svg>
