<?xml version="1.0" encoding="iso-8859-1"?>
<!-- Generator: Adobe Illustrator 19.0.0, SVG Export Plug-In . SVG Version: 6.00 Build 0)  -->
<svg version="1.1" id="Capa_1" xmlns="http://www.w3.org/2000/svg" xmlns:xlink="http://www.w3.org/1999/xlink" x="0px" y="0px"
	 viewBox="0 0 512.003 512.003" style="enable-background:new 0 0 512.003 512.003;" xml:space="preserve">
<path style="fill:#A0E557;" d="M110.338,341.205c17.307,0,31.338-14.03,31.338-31.337s-14.03-31.338-31.338-31.338
	c-0.075,0-0.149,0.005-0.224,0.006c-1.83-15.565-15.057-27.644-31.114-27.644s-29.284,12.079-31.113,27.644
	c-0.075-0.001-0.149-0.006-0.224-0.006c-17.307,0-31.337,14.03-31.337,31.338s14.03,31.337,31.337,31.337H110.338z"/>
<path style="fill:#FF5D5D;" d="M125.319,502.002C138.457,457.166,148,409.422,148,394.023c0-31.543-30.892-57.113-69-57.113
	s-69,25.57-69,57.113c0,15.4,9.543,63.143,22.681,107.979H125.319z"/>
<path style="fill:#A0E557;" d="M287.464,341.205c17.307,0,31.338-14.03,31.338-31.337s-14.03-31.338-31.338-31.338
	c-0.075,0-0.149,0.005-0.224,0.006c-1.829-15.565-15.057-27.644-31.113-27.644s-29.284,12.079-31.113,27.644
	c-0.075-0.001-0.149-0.006-0.224-0.006c-17.307,0-31.337,14.03-31.337,31.338s14.03,31.337,31.337,31.337H287.464z"/>
<path style="fill:#FF5D5D;" d="M302.446,502.002c13.138-44.836,22.681-92.579,22.681-107.979c0-31.543-30.892-57.113-69-57.113
	s-69,25.57-69,57.113c0,15.4,9.544,63.143,22.681,107.979H302.446z"/>
<path style="fill:#A0E557;" d="M464.339,341.205c17.307,0,31.338-14.03,31.338-31.337s-14.03-31.338-31.338-31.338
	c-0.075,0-0.149,0.005-0.224,0.006c-1.829-15.565-15.057-27.644-31.113-27.644s-29.284,12.079-31.113,27.644
	c-0.075-0.001-0.149-0.006-0.224-0.006c-17.307,0-31.337,14.03-31.337,31.338s14.03,31.337,31.337,31.337H464.339z"/>
<path style="fill:#FF5D5D;" d="M479.321,502.002c13.138-44.836,22.681-92.579,22.681-107.979c0-31.543-30.892-57.113-69-57.113
	s-69,25.57-69,57.113c0,15.4,9.544,63.143,22.681,107.979H479.321z"/>
<g>
	<path style="fill:#72D8FF;" d="M89.608,81.205L89.608,81.205c-8.616,0-15.602-6.985-15.602-15.601V50.002h31.203v15.602
		C105.209,74.22,98.224,81.205,89.608,81.205z"/>
	<path style="fill:#72D8FF;" d="M327.767,32.342L327.767,32.342v36.697c0,7.892-6.398,14.29-14.29,14.29H198.523
		c-7.892,0-14.29-6.398-14.29-14.29V32.342l0,0c14.304-14.304,33.704-22.34,53.933-22.34h35.668
		C294.063,10.002,313.463,18.038,327.767,32.342z"/>
	<path style="fill:#72D8FF;" d="M422.392,81.205L422.392,81.205c8.616,0,15.602-6.985,15.602-15.601V50.002h-31.203v15.602
		C406.791,74.22,413.776,81.205,422.392,81.205z"/>
</g>
<path d="M62.07,378.522c-2.64,0-5.21,1.061-7.08,2.931c-1.86,1.859-2.92,4.43-2.92,7.069c0,2.63,1.06,5.21,2.92,7.07
	c1.87,1.86,4.44,2.93,7.08,2.93c2.63,0,5.21-1.069,7.07-2.93c1.86-1.86,2.92-4.44,2.92-7.07c0-2.64-1.06-5.21-2.92-7.069
	C67.28,379.582,64.7,378.522,62.07,378.522z"/>
<path d="M132.526,344.718c11.501-7.348,19.149-20.219,19.149-34.85c0-20.082-14.395-36.866-33.408-40.575
	c-5.464-16.648-21.125-28.4-39.267-28.4s-33.803,11.752-39.267,28.4c-19.013,3.709-33.408,20.493-33.408,40.575
	c0,14.631,7.648,27.502,19.149,34.85C9.824,356.989,0,374.547,0,394.022c0,17.649,10.356,67.351,23.084,110.791
	c1.249,4.261,5.157,7.188,9.597,7.188h92.638c4.44,0,8.348-2.928,9.597-7.188C147.644,461.373,158,411.672,158,394.022
	C158,374.547,148.176,356.989,132.526,344.718z M47.663,331.205c-11.766,0-21.337-9.571-21.337-21.337
	c0-11.729,9.51-21.277,21.225-21.338c0.146,0.003,0.247,0.005,0.339,0.006c5.063,0,9.337-3.791,9.93-8.833
	c1.26-10.724,10.366-18.811,21.182-18.811s19.922,8.087,21.182,18.811c0.592,5.042,4.866,8.833,9.93,8.833
	c0.043,0,0.088,0,0.132-0.001l0.184-0.005c11.724,0.049,21.248,9.603,21.248,21.338c0,11.766-9.572,21.337-21.337,21.337
	c-0.882,0-1.732,0.125-2.547,0.34c-8.928-2.98-18.633-4.635-28.791-4.635s-19.863,1.655-28.791,4.635
	C49.395,331.331,48.544,331.205,47.663,331.205z M117.791,492.002H40.209c-2.82-9.977-5.426-19.945-7.768-29.535h28.087
	c5.523,0,10-4.478,10-10s-4.477-10-10-10H27.81C22.914,420.018,20,401.798,20,394.022c0-25.978,26.467-47.112,59-47.112
	c25.731,0,47.654,13.227,55.702,31.608H99.667c-5.523,0-10,4.478-10,10s4.477,10,10,10h38.114
	C136.406,415.142,128.66,453.544,117.791,492.002z"/>
<path d="M237.66,378.522c-2.64,0-5.21,1.061-7.08,2.931c-1.86,1.859-2.93,4.439-2.93,7.069s1.07,5.21,2.93,7.07
	c1.87,1.86,4.44,2.93,7.08,2.93c2.63,0,5.2-1.069,7.07-2.93c1.86-1.86,2.93-4.44,2.93-7.07s-1.07-5.21-2.93-7.069
	C242.86,379.582,240.29,378.522,237.66,378.522z"/>
<path d="M309.653,344.718c11.501-7.348,19.149-20.219,19.149-34.85c0-20.082-14.395-36.866-33.408-40.575
	c-5.464-16.648-21.125-28.4-39.267-28.4s-33.803,11.752-39.267,28.4c-19.013,3.709-33.408,20.493-33.408,40.575
	c0,14.631,7.648,27.502,19.149,34.85c-15.65,12.271-25.474,29.828-25.474,49.304c0,17.649,10.356,67.351,23.084,110.791
	c1.249,4.261,5.157,7.188,9.597,7.188h92.638c4.44,0,8.348-2.928,9.597-7.188c12.729-43.44,23.084-93.142,23.084-110.791
	C335.127,374.547,325.302,356.989,309.653,344.718z M224.79,331.205c-11.766,0-21.337-9.571-21.337-21.337
	c0-11.729,9.51-21.277,21.225-21.338c0.146,0.003,0.247,0.005,0.339,0.006c5.063,0,9.337-3.791,9.93-8.833
	c1.26-10.724,10.366-18.811,21.182-18.811s19.922,8.087,21.182,18.811c0.592,5.042,4.866,8.833,9.93,8.833
	c0.043,0,0.088,0,0.132-0.001l0.184-0.005c11.724,0.049,21.248,9.603,21.248,21.338c0,11.766-9.572,21.337-21.337,21.337
	c-0.882,0-1.732,0.125-2.547,0.34c-8.928-2.98-18.633-4.635-28.791-4.635s-19.863,1.655-28.791,4.635
	C226.522,331.331,225.671,331.205,224.79,331.205z M294.918,492.002h-77.582c-2.82-9.977-5.426-19.945-7.768-29.535h28.087
	c5.523,0,10-4.478,10-10s-4.477-10-10-10h-32.718c-4.896-22.448-7.81-40.668-7.81-48.444c0-25.978,26.467-47.112,59-47.112
	c25.731,0,47.654,13.227,55.702,31.608H279c-5.523,0-10,4.478-10,10s4.477,10,10,10h35.907
	C313.533,415.142,305.787,453.544,294.918,492.002z"/>
<path d="M486.528,344.718c11.501-7.348,19.149-20.219,19.149-34.85c0-20.082-14.395-36.866-33.408-40.575
	c-5.464-16.648-21.125-28.4-39.267-28.4s-33.803,11.752-39.267,28.4c-19.013,3.709-33.408,20.493-33.408,40.575
	c0,14.631,7.648,27.502,19.15,34.85c-15.65,12.271-25.474,29.828-25.474,49.304c0,17.649,10.355,67.35,23.084,110.791
	c1.249,4.261,5.157,7.188,9.597,7.188h92.638c4.44,0,8.348-2.928,9.597-7.188c12.729-43.44,23.084-93.142,23.084-110.791
	C512.002,374.547,502.177,356.989,486.528,344.718z M401.664,331.205c-11.766,0-21.337-9.571-21.337-21.337
	c0-11.729,9.511-21.277,21.225-21.338c0.148,0.005,0.248,0.007,0.338,0.006c5.063,0,9.337-3.791,9.93-8.833
	c1.26-10.724,10.367-18.811,21.182-18.811s19.921,8.087,21.182,18.811c0.593,5.043,4.866,8.833,9.93,8.833
	c0.043,0,0.088,0,0.132-0.001l0.184-0.005c11.724,0.049,21.248,9.603,21.248,21.338c0,11.766-9.572,21.337-21.337,21.337
	c-0.882,0-1.732,0.125-2.547,0.34c-8.928-2.98-18.633-4.635-28.791-4.635s-19.863,1.655-28.791,4.635
	C403.396,331.331,402.546,331.205,401.664,331.205z M471.793,492.002h-77.582c-2.82-9.977-5.426-19.945-7.768-29.535h28.087
	c5.523,0,10-4.478,10-10s-4.477-10-10-10h-32.718c-4.897-22.449-7.81-40.668-7.81-48.444c0-25.978,26.467-47.112,59-47.112
	c25.731,0,47.654,13.227,55.702,31.608h-46.102c-5.523,0-10,4.478-10,10s4.477,10,10,10h49.181
	C490.408,415.142,482.662,453.544,471.793,492.002z"/>
<path d="M290.307,61.064c5.523,0,10-4.478,10-10v-0.102c0-5.522-4.477-10-10-10s-10,4.478-10,10v0.102
	C280.307,56.586,284.784,61.064,290.307,61.064z"/>
<path d="M256,61.064c5.523,0,10-4.478,10-10v-0.102c0-5.522-4.477-10-10-10s-10,4.478-10,10v0.102
	C246,56.586,250.477,61.064,256,61.064z"/>
<path d="M221.693,61.064c5.523,0,10-4.478,10-10v-0.102c0-5.522-4.477-10-10-10s-10,4.478-10,10v0.102
	C211.693,56.586,216.17,61.064,221.693,61.064z"/>
<path d="M359.609,139.494v-15.815c0-3.007-1.353-5.854-3.684-7.753l-31.161-25.389c7.723-4.071,13.002-12.178,13.002-21.498v-9.037
	h59.024v5.602c0,14.117,11.484,25.602,25.601,25.602l0,0c14.117,0,25.601-11.484,25.601-25.602V50.002c0-5.522-4.477-10-10-10
	h-5.602v-20h37.774c5.523,0,10-4.478,10-10s-4.477-10-10-10h-95.548c-5.523,0-10,4.478-10,10s4.477,10,10,10h37.774v20h-5.601
	h-69.024v-7.66c0-2.652-1.054-5.196-2.929-7.071c-16.295-16.295-37.96-25.269-61.004-25.269h-35.668
	c-23.044,0-44.709,8.974-61.004,25.269c-1.875,1.875-2.929,4.419-2.929,7.071v7.66h-69.024h-5.601v-20h37.774
	c5.523,0,10-4.478,10-10s-4.477-10-10-10H41.833c-5.523,0-10,4.478-10,10s4.477,10,10,10h37.774v20h-5.602c-5.523,0-10,4.478-10,10
	v15.602c0,14.117,11.485,25.602,25.602,25.602s25.601-11.484,25.601-25.602v-5.602h59.024v9.037c0,9.534,5.524,17.799,13.538,21.773
	l-31.59,25.029c-2.394,1.896-3.79,4.783-3.79,7.838v15.815c0,5.522,4.477,10,10,10s10-4.478,10-10v-10.98l44.408-35.185h79.729
	l43.081,35.101v11.064c0,5.522,4.477,10,10,10S359.609,145.017,359.609,139.494z M427.994,65.604c0,3.089-2.513,5.602-5.602,5.602
	c-3.088,0-5.601-2.513-5.601-5.602v-5.602h5.601h5.602V65.604z M95.209,65.604c0,3.089-2.513,5.602-5.601,5.602l0,0
	c-3.088,0-5.601-2.513-5.601-5.602v-5.602h5.602h5.601L95.209,65.604L95.209,65.604z M194.233,36.652
	c12.129-10.767,27.579-16.65,43.933-16.65h35.668c16.354,0,31.804,5.884,43.933,16.65v32.387c0,2.365-1.925,4.29-4.291,4.29h-13.445
	c-0.002,0-0.003,0-0.005,0H198.523c-2.366,0-4.291-1.925-4.291-4.29V36.652H194.233z"/>
<path d="M221.275,144.924c-3.905,3.905-3.905,10.237,0,14.143c9.574,9.573,22.149,14.36,34.725,14.36
	c12.576,0,25.151-4.787,34.725-14.36c3.905-3.905,3.906-10.237,0-14.143c-3.905-3.903-10.237-3.904-14.142,0
	c-11.35,11.35-29.816,11.35-41.166,0C231.512,141.02,225.18,141.02,221.275,144.924z"/>
<path d="M193.621,172.578c-3.905,3.905-3.905,10.237,0,14.143c17.198,17.197,39.788,25.796,62.378,25.796
	s45.181-8.599,62.378-25.796c3.905-3.905,3.906-10.237,0-14.143c-3.905-3.903-10.237-3.904-14.142,0
	c-26.599,26.598-69.875,26.598-96.474,0C203.858,168.674,197.526,168.674,193.621,172.578z"/>
<path d="M263.07,131.231c1.86-1.87,2.93-4.439,2.93-7.08c0-2.63-1.07-5.21-2.93-7.069c-1.86-1.86-4.44-2.92-7.07-2.92
	s-5.21,1.06-7.07,2.92c-1.86,1.859-2.93,4.439-2.93,7.069c0,2.641,1.07,5.21,2.93,7.08c1.86,1.86,4.44,2.931,7.07,2.931
	S261.21,133.092,263.07,131.231z"/>
<g>
</g>
<g>
</g>
<g>
</g>
<g>
</g>
<g>
</g>
<g>
</g>
<g>
</g>
<g>
</g>
<g>
</g>
<g>
</g>
<g>
</g>
<g>
</g>
<g>
</g>
<g>
</g>
<g>
</g>
</svg>
