<?xml version="1.0" encoding="iso-8859-1"?>
<!-- Generator: Adobe Illustrator 19.0.0, SVG Export Plug-In . SVG Version: 6.00 Build 0)  -->
<svg version="1.1" id="Capa_1" xmlns="http://www.w3.org/2000/svg" xmlns:xlink="http://www.w3.org/1999/xlink" x="0px" y="0px"
	 viewBox="0 0 512.002 512.002" style="enable-background:new 0 0 512.002 512.002;" xml:space="preserve">
<g>
	<path style="fill:#898998;" d="M413.045,341.334v11.54c0,25.052-9.952,49.079-27.667,66.793l0,0v68L399.211,502h-51.876V347.668
		L413.045,341.334z"/>
	<path style="fill:#898998;" d="M229.709,341.334v11.54c0,25.052-9.952,49.079-27.667,66.793l0,0v68L215.875,502H164V353.945
		L229.709,341.334z"/>
</g>
<path style="fill:#D8D8E4;" d="M154.841,146.001h196.286c43.521,0,78.801,35.281,78.801,78.801v97.234
	c0,34.222-27.742,61.964-61.964,61.964h-4.202c-4.641,13.297-12.236,25.519-22.384,35.667v68L355.211,502h-51.876V384h-8.074
	c-8.075,11.519-21.443,19.057-36.578,19.057h-79.41c-3.743,5.969-8.168,11.548-13.23,16.61v68L179.876,502H128V384h-1.196
	c-44.26,0-80.151-35.857-80.194-80.117l-0.048-49.48C46.494,194.555,94.992,146.001,154.841,146.001z"/>
<path style="fill:#EDF2FA;" d="M303.335,358.405L303.335,358.405c0,24.661-19.991,44.652-44.652,44.652h-79.41l17.582-44.652
	H303.335"/>
<g>
	<path style="fill:#898998;" d="M46.963,245.001c4.706-55.449,51.198-99,107.878-99h49.283l-2.31,3.483l0,0
		c0,52.752-42.764,95.516-95.517,95.516H46.963V245.001z"/>
	<path style="fill:#898998;" d="M282.974,234.417H238.82c-9.539,0-17.272,7.733-17.272,17.272l0,0
		c0,9.539-7.733,17.272-17.272,17.272h-0.815c-10.932,0-19.794,8.862-19.794,19.794l0,0c0,10.932,8.862,19.794,19.794,19.794h79.514
		c20.471,0,37.066-16.595,37.066-37.066l0,0C320.041,251.012,303.445,234.417,282.974,234.417z"/>
	<path style="fill:#898998;" d="M370.18,143.337L370.18,143.337c-13.654-8.99-21.874-24.242-21.874-40.59v-2.465l51.18,22.688
		L370.18,143.337z"/>
</g>
<path style="fill:#D8D8E4;" d="M332.68,141.673c0,0,0.03,0.01,0.099,0.03c4.408,1.26,9.542,1.473,15.039-0.42
	c7.975-2.745,15.563-0.862,21.423,1.97l2.389-3.754c12.08-10.319,27.751-16.555,44.883-16.555s32.803,6.236,44.883,16.555
	l4.732,3.838c5.747-2.623,13.015-4.235,20.643-1.609c5.497,1.892,10.631,1.68,15.039,0.42c0.07-0.02,0.099-0.03,0.099-0.03
	c1.709,28.631-20.901,32.363-26.564,32.849v34.406c0,28.215-15.423,54.172-40.203,67.663l0,0c-10.731,5.842-23.693,5.842-34.424,0
	l0,0c-24.78-13.491-40.203-39.449-40.203-67.663v-34.331l-1.269-0.003l-0.16-0.532C353.185,173.969,330.985,170.059,332.68,141.673z
	"/>
<g>
	<path style="fill:#898998;" d="M383.647,264.406c6.264-12.599,19.26-21.262,34.285-21.262c15.024,0,28.018,8.66,34.283,21.257
		c-5.013,4.912-10.735,9.184-17.074,12.635l0,0c-10.731,5.842-23.693,5.842-34.424,0l0,0
		C394.379,273.586,388.659,269.316,383.647,264.406z"/>
	<path style="fill:#898998;" d="M462.844,143.337L462.844,143.337c13.654-8.99,21.874-24.242,21.874-40.59v-2.465l-51.18,22.688
		L462.844,143.337z"/>
</g>
<path d="M284.6,153.07c-1.87-1.859-2.93-4.439-2.93-7.069s1.06-5.21,2.93-7.07c1.86-1.86,4.43-2.93,7.07-2.93
	c2.63,0,5.21,1.069,7.07,2.93s2.93,4.44,2.93,7.07s-1.07,5.21-2.93,7.069c-1.86,1.86-4.44,2.931-7.07,2.931
	C289.03,156.001,286.46,154.931,284.6,153.07z"/>
<path d="M0,246.501v61.417c0,5.522,4.477,10,10,10s10-4.478,10-10v-61.417c0-40.339,26.531-74.594,63.059-86.243
	c-4.158,3.188-8.136,6.665-11.902,10.434c-22.345,22.371-34.631,52.104-34.594,83.724l0.043,44.835
	c0.046,47.681,35.488,87.242,81.394,93.792v108.958c0,5.522,4.477,10,10,10h87.647c4.012,0,7.636-2.398,9.205-6.092
	c1.568-3.692,0.777-7.966-2.009-10.853l-11.029-11.428v-60.342l8.519-10.229h38.35c13.143,0,25.215-4.665,34.652-12.423v101.367
	c0,5.522,4.477,10,10,10h94.564c4.012,0,7.636-2.398,9.205-6.092c1.568-3.692,0.777-7.966-2.009-10.853l-11.029-11.428v-58.1
	c15.26-13.186,24.203-31.979,24.869-52.114c12.955-12.851,20.994-30.652,20.994-50.298v-37.301
	c28.013-15.255,45.416-44.546,45.416-76.443V183.14c5.262-1.622,11.487-4.626,16.705-10.205c7.308-7.813,10.619-18.382,9.841-31.413
	c-0.189-3.162-1.686-6.109-4.338-7.841c-2.621-1.71-5.716-2.155-8.653-1.104c-2.984,0.809-5.952,0.701-8.875-0.305
	c-0.925-0.318-1.861-0.583-2.801-0.821c4.844-8.623,7.495-18.464,7.495-28.705v-2.465c0-3.384-1.711-6.537-4.547-8.382
	c-2.837-1.846-6.413-2.133-9.506-0.76l-51.18,22.688c-0.107,0.047-0.206,0.106-0.31,0.157c-4.166-0.676-8.397-1.039-12.662-1.039
	s-8.496,0.363-12.662,1.04c-0.105-0.051-0.203-0.109-0.31-0.157l-51.18-22.688c-3.093-1.373-6.67-1.086-9.506,0.76
	c-2.836,1.845-4.547,4.998-4.547,8.382v2.465c0,10.237,2.649,20.075,7.49,28.695c-0.412,0.125-0.824,0.246-1.233,0.387
	c-2.939,1.011-5.921,1.114-8.867,0.307c-2.94-1.056-6.037-0.611-8.66,1.102c-2.652,1.731-4.149,4.679-4.338,7.841
	c-0.778,13.031,2.533,23.601,9.841,31.413c5.645,6.035,12.468,9.058,17.975,10.575v26.306c0,31.9,17.405,61.193,45.422,76.447
	c6.886,3.748,14.44,5.622,21.994,5.622c0.667,0,1.333-0.033,2-0.062v31.737c0,25.337-18.617,46.403-42.889,50.25
	c1.322-6.678,2.004-13.533,2.004-20.494v-11.54c0-5.522-4.477-10-10-10s-10,4.478-10,10v11.54c0,22.561-8.785,43.771-24.738,59.723
	c-1.875,1.876-2.929,4.419-2.929,7.071v68c0,1.514,0.343,2.993,0.987,4.333h-19.03V347.668c0-5.522-4.477-10-10-10s-10,4.478-10,10
	v10.737c0,19.107-15.545,34.652-34.652,34.652h-62.952c5.233-12.564,7.979-26.163,7.979-40.184v-11.54c0-5.522-4.477-10-10-10
	s-10,4.478-10,10v11.54c0,15.989-4.433,31.289-12.682,44.53c-0.074,0.108-0.14,0.22-0.21,0.331
	c-3.347,5.317-7.294,10.31-11.846,14.862c-1.875,1.876-2.929,4.419-2.929,7.071v68c0,1.514,0.343,2.993,0.987,4.333H138V391.543
	c2.108-1.833,3.447-4.529,3.447-7.542c0-5.522-4.477-10-10-10c-41.228,0-74.802-33.541-74.841-74.77l-0.042-44.23h49.734
	c55.993,0,101.931-43.842,105.309-99h34.06c5.523,0,10-4.478,10-10s-4.477-10-10-10H110.5C49.57,136.001,0,185.571,0,246.501z
	 M405.498,268.254c-3.061-1.667-5.952-3.558-8.669-5.635c0.361-0.404,0.722-0.809,1.108-1.194
	c11.023-11.023,28.961-11.023,39.985,0.001c0.385,0.385,0.752,0.785,1.113,1.189c-2.719,2.079-5.612,3.972-8.676,5.64
	C422.577,272.491,413.282,272.492,405.498,268.254z M376.589,123.758c-2.738,1.599-5.377,3.38-7.919,5.31
	c-3.336-3.57-5.952-7.722-7.718-12.241L376.589,123.758z M472.072,116.826c-1.766,4.519-4.383,8.671-7.718,12.241
	c-2.542-1.93-5.181-3.71-7.919-5.31L472.072,116.826z M465.344,174.595v34.778c0,14.185-4.475,27.695-12.404,38.847
	c-0.294-0.31-0.573-0.634-0.876-0.937c-18.822-18.819-49.447-18.821-68.27,0c-0.302,0.302-0.594,0.612-0.887,0.921
	c-7.922-11.149-12.394-24.653-12.394-38.832v-34.778c0-5.498-4.439-9.958-9.929-9.996v-0.004c0.008-0.001-8.417-0.288-13.536-5.869
	c-1.553-1.692-2.703-3.793-3.446-6.285c2.519-0.291,5.021-0.858,7.469-1.7c10.16-3.498,20.651,5.837,22.081,7.173
	c0.036,0.038,0.072,0.075,0.108,0.113c4.054,4.149,9.692,3.775,13.167,1.263c4.015-2.904,5.297-8.313,3.014-12.711
	c-0.462-0.89-1.25-1.871-2.246-2.882c0.129,0.115,0.251,0.231,0.366,0.349c-0.136-0.138-0.275-0.271-0.417-0.399
	c-0.569-0.575-1.22-1.159-1.899-1.741c9.329-5.813,20.159-8.959,31.266-8.959c11.583,0,22.867,3.417,32.459,9.718
	c-0.535,0.47-1.047,0.94-1.508,1.405c-0.151,0.138-0.299,0.28-0.444,0.428c0.117-0.118,0.241-0.237,0.372-0.354
	c-0.122,0.124-0.24,0.247-0.355,0.37l-0.001,0.002c-0.826,0.879-1.482,1.729-1.888,2.51c-2.284,4.397-1.002,9.806,3.013,12.711
	c3.475,2.513,9.114,2.889,13.167-1.262c0.037-0.039,0.074-0.077,0.111-0.116c1.432-1.339,11.917-10.667,22.078-7.172
	c2.447,0.843,4.95,1.409,7.471,1.699c-0.743,2.493-1.893,4.594-3.446,6.287c-3.288,3.584-7.928,4.98-10.858,5.524
	c-0.438-0.059-0.882-0.1-1.337-0.1C469.821,164.595,465.344,169.072,465.344,174.595z M374.066,420.834v66.834
	c0,1.514,0.343,2.993,0.987,4.333h-15.595l-8.08-8.372v-59.937c8.186-8.859,14.671-18.904,19.302-29.733
	c8.907-0.203,17.412-2.048,25.223-5.259c-3.136,8.698-8.564,16.496-15.912,22.537l-2.276,1.871
	C375.405,415.009,374.066,417.843,374.066,420.834z M191.814,419.668v68c0,1.514,0.343,2.993,0.987,4.333h-8.679l-8.079-8.371
	v-59.938c3.122-3.379,5.991-6.934,8.611-10.635h9.652l-0.176,0.211C192.633,415.065,191.814,417.33,191.814,419.668z
	 M85.308,184.826c18.567-18.588,43.261-28.825,69.533-28.825H164h27.541c-3.344,44.118-40.284,79-85.243,79H58.442
	C62.177,216.117,71.396,198.755,85.308,184.826z"/>
<path d="M387.439,215.872h-0.205c-5.523,0-10-4.478-10-10s4.477-10,10-10h0.205c5.523,0,10,4.478,10,10
	S392.962,215.872,387.439,215.872z"/>
<path d="M445.524,215.872h-0.205c-5.523,0-10-4.478-10-10s4.477-10,10-10h0.205c5.523,0,10,4.478,10,10
	S451.047,215.872,445.524,215.872z"/>
<path d="M10,339.001c2.63,0,5.21,1.069,7.07,2.93c1.86,1.86,2.93,4.44,2.93,7.07s-1.07,5.21-2.93,7.069
	c-1.86,1.86-4.44,2.931-7.07,2.931s-5.21-1.07-7.07-2.931C1.07,354.211,0,351.631,0,349.001s1.07-5.21,2.93-7.07
	S7.37,339.001,10,339.001z"/>
<path d="M282.974,224.417H238.82c-15.038,0-27.272,12.234-27.272,27.272c0,4.01-3.262,7.272-7.272,7.272h-0.815
	c-16.428,0-29.794,13.365-29.794,29.794s13.366,29.794,29.794,29.794h79.514c25.953,0,47.066-21.114,47.066-47.066
	S308.927,224.417,282.974,224.417z M310.041,271.483c0,14.925-12.142,27.066-27.066,27.066H203.46c-5.4,0-9.794-4.394-9.794-9.794
	s4.394-9.794,9.794-9.794h0.815c15.038,0,27.272-12.234,27.272-27.272c0-4.01,3.262-7.272,7.272-7.272h44.154
	C297.898,244.417,310.041,256.558,310.041,271.483z"/>
<path d="M223.615,79.216c-2.559,0-5.119-0.977-7.071-2.929c-3.905-3.905-3.906-10.236,0-14.143
	C227.083,51.605,241.095,45.801,256,45.801s28.917,5.805,39.457,16.344c3.905,3.906,3.905,10.237,0,14.143
	c-3.905,3.904-10.237,3.904-14.142,0c-6.762-6.763-15.751-10.486-25.314-10.486s-18.552,3.724-25.314,10.486
	C228.733,78.239,226.174,79.216,223.615,79.216z"/>
<path d="M313.7,43.901c-15.412-15.413-35.903-23.9-57.7-23.9s-42.288,8.487-57.7,23.9c-1.953,1.952-4.512,2.929-7.071,2.929
	s-5.119-0.977-7.071-2.929c-3.905-3.905-3.906-10.237,0-14.143C203.348,10.569,228.862,0.001,256,0.001s52.652,10.568,71.842,29.758
	c3.905,3.905,3.905,10.237,0,14.143C323.937,47.806,317.605,47.806,313.7,43.901z"/>
<path d="M246,101.81c0-2.63,1.07-5.21,2.93-7.069c1.86-1.86,4.44-2.931,7.07-2.931s5.21,1.07,7.07,2.931
	c1.86,1.859,2.93,4.439,2.93,7.069c0,2.641-1.07,5.21-2.93,7.08c-1.86,1.86-4.44,2.92-7.07,2.92s-5.21-1.06-7.07-2.92
	C247.07,107.02,246,104.451,246,101.81z"/>
<g>
</g>
<g>
</g>
<g>
</g>
<g>
</g>
<g>
</g>
<g>
</g>
<g>
</g>
<g>
</g>
<g>
</g>
<g>
</g>
<g>
</g>
<g>
</g>
<g>
</g>
<g>
</g>
<g>
</g>
</svg>
