<?xml version="1.0" encoding="iso-8859-1"?>
<!-- Generator: Adobe Illustrator 19.0.0, SVG Export Plug-In . SVG Version: 6.00 Build 0)  -->
<svg version="1.1" id="Capa_1" xmlns="http://www.w3.org/2000/svg" xmlns:xlink="http://www.w3.org/1999/xlink" x="0px" y="0px"
	 viewBox="0 0 512 512" style="enable-background:new 0 0 512 512;" xml:space="preserve">
<path style="fill:#72D8FF;" d="M489.52,336.158h-71.04c-6.893,0-12.48-5.588-12.48-12.48v-95.04c0-6.893,5.588-12.48,12.48-12.48
	h71.04c6.893,0,12.48,5.588,12.48,12.48v95.04C502,330.571,496.412,336.158,489.52,336.158z"/>
<g>
	<path style="fill:#A0E557;" d="M127.178,254.867c0,0,24.404,6.286,41.439-10.748s10.576-41.266,10.576-41.266
		s-24.232-6.459-41.266,10.576C120.892,230.462,127.178,254.867,127.178,254.867z"/>
	<path style="fill:#A0E557;" d="M203.302,302.199c0,0,24.404,6.286,41.439-10.748s10.576-41.266,10.576-41.266
		s-24.232-6.459-41.266,10.576S203.302,302.199,203.302,302.199z"/>
	<path style="fill:#A0E557;" d="M299.527,340.112c0,0,21.701-12.812,21.701-36.902s-21.701-36.657-21.701-36.657
		s-21.701,12.567-21.701,36.657C277.826,327.301,299.527,340.112,299.527,340.112z"/>
</g>
<g>
	<circle style="fill:#FF5D5D;" cx="320.79" cy="359.33" r="28"/>
	<circle style="fill:#FF5D5D;" cx="243.29" cy="367.24" r="28"/>
</g>
<path style="fill:#A0E557;" d="M168.51,340.315c0-20.887-18.816-31.783-18.816-31.783s-18.816,10.896-18.816,31.783
	s18.816,31.995,18.816,31.995S168.51,361.202,168.51,340.315z"/>
<g>
	<circle style="fill:#FF5D5D;" cx="83.55" cy="399.29" r="28"/>
	<circle style="fill:#FF5D5D;" cx="161.05" cy="407.2" r="28"/>
	<circle style="fill:#FF5D5D;" cx="101.97" cy="267.62" r="28"/>
	<circle style="fill:#FF5D5D;" cx="208.39" cy="215.9" r="28"/>
</g>
<path d="M502,471.969h-38v-57.636c0-5.522-4.478-10-10-10s-10,4.478-10,10v57.636H212.169v-76.727c0-1.956,0.111-3.886,0.315-5.789
	c6.909,9.555,18.139,15.789,30.804,15.789c20.953,0,38-17.047,38-38c0-9.882-3.794-18.893-10-25.659
	c4.923,0.474,9.739,1.619,14.321,3.397c-1.813,4.43-2.821,9.272-2.821,14.347c0,20.953,17.047,38,38,38s38-17.047,38-38
	c0-18.657-13.519-34.205-31.273-37.392c2.241-5.433,3.714-11.672,3.714-18.725c0-29.517-25.6-44.681-26.689-45.312
	c-3.1-1.795-6.924-1.795-10.023,0c-1.09,0.631-26.689,15.795-26.689,45.312c0,6.874,1.4,12.973,3.545,18.308
	c-1.756-0.125-3.519-0.191-5.289-0.191c-15.605,0-30.086,4.874-42.029,13.161c-3.376,1.99-6.422,4.483-9.027,7.382
	c-0.979,0.936-1.933,1.897-2.859,2.885v-31.468c0.62,0.018,1.251,0.031,1.906,0.031c10.567,0,25.544-2.604,37.737-14.798
	c20.87-20.871,13.491-49.696,13.167-50.913c-0.923-3.462-3.627-6.165-7.088-7.088c-0.638-0.171-8.88-2.277-19.581-1.232
	c5.057-6.454,8.083-14.572,8.083-23.388c0-20.953-17.047-38-38-38c-12.135,0-22.951,5.725-29.913,14.608
	c-8.323-1.407-30.615-3.164-47.626,13.848c-8.274,8.274-12.124,17.825-13.75,26.415c-4.641-2.024-9.758-3.153-15.135-3.153
	c-20.953,0-38,17.047-38,38s17.047,38,38,38s38-17.047,38-38c0-0.557-0.018-1.111-0.042-1.662c1.872-0.058,3.862-0.212,5.926-0.477
	c25.517,0.018,46.274,20.76,46.316,46.272v72.965c-0.926-0.988-1.88-1.949-2.859-2.885c-2.605-2.899-5.65-5.392-9.027-7.382
	c-3.587-2.49-7.406-4.664-11.414-6.496c5.106-6.679,9.64-15.905,9.64-27.639c0-26.349-22.832-39.874-23.804-40.437
	c-3.099-1.796-6.923-1.795-10.023,0c-0.972,0.563-23.805,14.088-23.805,40.437c0,8.671,2.481,15.968,5.834,21.887
	c-7.178,1.13-14.147,3.304-20.685,6.473c-6.3-4.638-14.073-7.386-22.478-7.386c-20.953,0-38,17.047-38,38s17.047,38,38,38
	s38-17.047,38-38c0-5.075-1.008-9.917-2.821-14.347c4.582-1.778,9.398-2.923,14.321-3.397c-6.205,6.766-10,15.777-10,25.659
	c0,20.953,17.047,38,38,38c12.665,0,23.895-6.234,30.804-15.789c0.204,1.903,0.315,3.833,0.315,5.789v36.767H20V40.031h172.171v4
	c0,5.522,4.478,10,10,10s10-4.478,10-10v-4H448c5.522,0,10-4.478,10-10s-4.478-10-10-10H10c-5.522,0-10,4.478-10,10v451.938
	c0,5.522,4.478,10,10,10h492c5.522,0,10-4.478,10-10S507.522,471.969,502,471.969z M320.788,341.328c9.925,0,18,8.075,18,18
	s-8.075,18-18,18s-18-8.075-18-18S310.863,341.328,320.788,341.328z M299.492,279.055c4.926,4.47,11.736,12.718,11.736,24.156
	c0,11.538-6.714,19.798-11.667,24.321c-4.943-4.553-11.735-12.89-11.735-24.321C287.826,291.662,294.567,283.486,299.492,279.055z
	 M229.554,355.635c1.651-1.524,3.4-2.94,5.231-4.25c2.534-1.364,5.429-2.142,8.503-2.142c9.925,0,18,8.075,18,18s-8.075,18-18,18
	s-18-8.075-18-18C225.288,362.82,226.898,358.771,229.554,355.635z M101.97,285.618c-9.925,0-18-8.075-18-18s8.075-18,18-18
	s18,8.075,18,18S111.895,285.618,101.97,285.618z M83.55,417.288c-9.925,0-18-8.075-18-18s8.075-18,18-18s18,8.075,18,18
	S93.475,417.288,83.55,417.288z M149.691,321.161c3.971,3.821,8.818,10.299,8.818,19.153c0,8.846-4.823,15.385-8.79,19.267
	c-3.975-3.907-8.842-10.485-8.842-19.267C140.878,331.454,145.732,324.974,149.691,321.161z M161.05,425.202
	c-9.925,0-18-8.075-18-18s8.075-18,18-18c3.074,0,5.969,0.778,8.503,2.142c1.831,1.31,3.581,2.726,5.231,4.25
	c2.656,3.137,4.266,7.186,4.266,11.608C179.05,417.127,170.975,425.202,161.05,425.202z M246.451,259
	c0.323,6.644-0.693,17.293-8.781,25.38c-8.159,8.16-18.746,9.246-25.448,8.948c-0.276-6.715,0.816-17.413,8.9-25.496
	C229.288,259.665,239.838,258.654,246.451,259z M208.394,197.901c9.925,0,18,8.075,18,18s-8.075,18-18,18s-18-8.075-18-18
	S198.469,197.901,208.394,197.901z M161.545,237.047c-5.21,5.21-11.405,7.53-16.951,8.453c-2.442,0.045-4.872,0.222-7.281,0.531
	c-0.417-0.007-0.824-0.018-1.216-0.036c-0.276-6.715,0.816-17.413,8.9-25.496c8.187-8.187,18.762-9.188,25.373-8.829
	C170.729,218.3,169.725,228.868,161.545,237.047z M174.709,252.108c0.325-0.308,0.656-0.597,0.978-0.918
	c2.535-2.535,4.646-5.189,6.411-7.895c2.945,2.828,6.34,5.191,10.071,6.96v14.158C187.073,259.431,181.188,255.254,174.709,252.108z
	"/>
<path d="M489.52,206.158h-71.04c-12.396,0-22.48,10.085-22.48,22.48v95.039c0,12.396,10.085,22.48,22.48,22.48h71.039
	c12.396,0,22.48-10.085,22.48-22.48v-95.039C512,216.243,501.915,206.158,489.52,206.158z M492,323.678
	c0,1.368-1.112,2.48-2.48,2.48h-71.04c-1.368,0-2.48-1.112-2.48-2.48v-95.039c0-1.368,1.112-2.48,2.48-2.48h71.039
	c1.368,0,2.48,1.112,2.48,2.48L492,323.678L492,323.678z"/>
<path d="M454,386.33c2.63,0,5.21-1.061,7.069-2.931c1.86-1.859,2.931-4.439,2.931-7.069s-1.07-5.21-2.931-7.07
	c-1.859-1.86-4.439-2.93-7.069-2.93s-5.21,1.069-7.07,2.93s-2.93,4.44-2.93,7.07s1.069,5.21,2.93,7.069
	C448.79,385.27,451.37,386.33,454,386.33z"/>
<path d="M477.893,159.174c2.56,0,5.118-0.977,7.071-2.929c3.905-3.905,3.905-10.237,0-14.143c-17.113-17.113-44.958-17.115-62.071,0
	c-3.905,3.905-3.905,10.237,0,14.143c3.906,3.904,10.236,3.904,14.143,0c9.315-9.316,24.473-9.314,33.786,0
	C472.774,158.197,475.333,159.174,477.893,159.174z"/>
<path d="M398.929,118.138c-3.905,3.905-3.905,10.237,0,14.143c3.906,3.904,10.236,3.904,14.143,0
	c10.913-10.913,25.423-16.924,40.857-16.924s29.943,6.011,40.856,16.924c1.953,1.952,4.512,2.929,7.071,2.929
	s5.118-0.977,7.071-2.929c3.905-3.905,3.905-10.237,0-14.143c-14.691-14.69-34.224-22.781-54.999-22.781
	C433.152,95.356,413.619,103.447,398.929,118.138z"/>
<path d="M446.859,166.229c-1.859,1.86-2.93,4.44-2.93,7.07s1.07,5.21,2.93,7.07c1.86,1.859,4.44,2.93,7.07,2.93s5.21-1.07,7.07-2.93
	c1.859-1.86,2.93-4.44,2.93-7.07s-1.07-5.21-2.93-7.07c-1.86-1.87-4.44-2.93-7.07-2.93S448.72,164.359,446.859,166.229z"/>
<path d="M135.44,94.479l-3.535,3.535c-3.905,3.905-3.905,10.237,0,14.143c1.953,1.952,4.512,2.929,7.071,2.929
	s5.118-0.977,7.071-2.929l3.535-3.535c3.905-3.905,3.905-10.237,0-14.143C145.677,90.575,139.347,90.575,135.44,94.479z"/>
<path d="M160.189,69.73l-3.535,3.535c-3.905,3.905-3.905,10.237,0,14.143c1.953,1.952,4.512,2.929,7.071,2.929
	s5.118-0.977,7.071-2.929l3.535-3.535c3.905-3.905,3.905-10.237,0-14.143C170.426,65.826,164.096,65.826,160.189,69.73z"/>
<path d="M110.691,119.228l-3.535,3.535c-3.905,3.905-3.905,10.237,0,14.143c1.953,1.952,4.512,2.929,7.071,2.929
	s5.118-0.977,7.071-2.929l3.535-3.535c3.905-3.905,3.905-10.237,0-14.143C120.928,115.323,114.598,115.323,110.691,119.228z"/>
<path d="M230.011,69.73c-3.905,3.905-3.905,10.237,0,14.143l3.535,3.535c1.953,1.952,4.512,2.929,7.071,2.929
	s5.118-0.977,7.071-2.929c3.905-3.905,3.905-10.237,0-14.143l-3.535-3.535C240.247,65.826,233.917,65.826,230.011,69.73z"/>
<path d="M254.76,94.479c-3.905,3.905-3.905,10.237,0,14.143l3.535,3.535c1.953,1.952,4.512,2.929,7.071,2.929
	s5.118-0.977,7.071-2.929c3.905-3.905,3.905-10.237,0-14.143l-3.535-3.535C264.996,90.575,258.666,90.575,254.76,94.479z"/>
<path d="M279.508,119.228c-3.905,3.905-3.905,10.237,0,14.143l3.536,3.536c1.953,1.952,4.512,2.929,7.071,2.929
	s5.118-0.977,7.071-2.929c3.905-3.905,3.905-10.237,0-14.143l-3.536-3.536C289.744,115.323,283.414,115.323,279.508,119.228z"/>
<path d="M212.171,79.95c0-5.522-4.478-10-10-10s-10,4.478-10,10v5c0,5.522,4.478,10,10,10s10-4.478,10-10V79.95z"/>
<path d="M212.171,114.95c0-5.522-4.478-10-10-10s-10,4.478-10,10v5c0,5.522,4.478,10,10,10s10-4.478,10-10V114.95z"/>
<path d="M202.171,139.95c-5.522,0-10,4.478-10,10v5c0,5.522,4.478,10,10,10s10-4.478,10-10v-5
	C212.171,144.428,207.693,139.95,202.171,139.95z"/>
<path d="M454,246c-2.63,0-5.21,1.069-7.07,2.93S444,253.37,444,256s1.069,5.21,2.93,7.069c1.86,1.86,4.44,2.931,7.07,2.931
	s5.21-1.07,7.069-2.931C462.93,261.21,464,258.63,464,256s-1.07-5.21-2.931-7.07C459.21,247.069,456.63,246,454,246z"/>
<path d="M454,283.53c-2.63,0-5.21,1.069-7.07,2.93c-1.86,1.859-2.93,4.439-2.93,7.07c0,2.63,1.069,5.21,2.93,7.069
	c1.86,1.86,4.44,2.931,7.07,2.931s5.21-1.07,7.069-2.931c1.86-1.859,2.931-4.439,2.931-7.069c0-2.631-1.07-5.211-2.931-7.07
	C459.21,284.6,456.63,283.53,454,283.53z"/>
<g>
</g>
<g>
</g>
<g>
</g>
<g>
</g>
<g>
</g>
<g>
</g>
<g>
</g>
<g>
</g>
<g>
</g>
<g>
</g>
<g>
</g>
<g>
</g>
<g>
</g>
<g>
</g>
<g>
</g>
</svg>
