<?xml version="1.0" encoding="iso-8859-1"?>
<!-- Generator: Adobe Illustrator 19.0.0, SVG Export Plug-In . SVG Version: 6.00 Build 0)  -->
<svg version="1.1" id="Capa_1" xmlns="http://www.w3.org/2000/svg" xmlns:xlink="http://www.w3.org/1999/xlink" x="0px" y="0px"
	 viewBox="0 0 512 512" style="enable-background:new 0 0 512 512;" xml:space="preserve">
<path style="fill:#FEDA9B;" d="M440.412,10H71.588C37.574,10,10,37.574,10,71.588V305.5h492V71.588
	C502,37.574,474.426,10,440.412,10z"/>
<rect x="10" y="305.5" style="fill:#C9F3FF;" width="492" height="196.5"/>
<path style="fill:#4DBAF6;" d="M101.56,439.493c11.502,7.847,30.729,18.024,53.085,18.024c31.452,0,48.737-32.32,48.737-32.32
	v-0.037c0,0-17.285-32.32-48.737-32.32c-22.356,0-41.583,10.177-53.085,18.024C95.373,396.253,80.887,386,64,386
	c0.001,8.272,2.473,15.968,6.721,22.39c6.716,10.157,6.716,23.417,0,33.574c-4.247,6.423-6.72,14.118-6.721,22.39
	C80.887,464.355,95.373,454.102,101.56,439.493z"/>
<g>
	<path style="fill:#A0E557;" d="M120.259,190.934c-22.567-22.567-54.668-14.01-54.668-14.01s-8.556,32.101,14.01,54.668
		s54.897,14.239,54.897,14.239S142.826,213.5,120.259,190.934z"/>
	<path style="fill:#A0E557;" d="M137.557,245.83c0,0,32.33,8.327,54.897-14.239s14.01-54.668,14.01-54.668
		s-32.101-8.556-54.668,14.01S137.557,245.83,137.557,245.83z"/>
	<path style="fill:#A0E557;" d="M123.258,119.467c-18.275-18.275-44.271-11.346-44.271-11.346s-6.929,25.996,11.346,44.271
		s44.457,11.531,44.457,11.531S141.533,137.742,123.258,119.467z"/>
	<path style="fill:#A0E557;" d="M137.266,163.923c0,0,26.182,6.744,44.457-11.531s11.346-44.271,11.346-44.271
		s-25.996-6.929-44.271,11.346S137.266,163.923,137.266,163.923z"/>
	<path style="fill:#A0E557;" d="M136.055,117.455c0,0,19.31-11.4,19.31-32.836S136.055,52,136.055,52s-19.31,11.183-19.31,32.619
		S136.055,117.455,136.055,117.455z"/>
	<path style="fill:#A0E557;" d="M360.204,190.934c-22.567-22.567-54.668-14.01-54.668-14.01s-8.556,32.101,14.01,54.668
		s54.897,14.239,54.897,14.239S382.771,213.5,360.204,190.934z"/>
	<path style="fill:#A0E557;" d="M377.502,245.83c0,0,32.33,8.327,54.897-14.239s14.01-54.668,14.01-54.668
		s-32.101-8.556-54.668,14.01S377.502,245.83,377.502,245.83z"/>
	<path style="fill:#A0E557;" d="M363.203,119.467c-18.275-18.275-44.271-11.346-44.271-11.346s-6.929,25.996,11.346,44.271
		s44.457,11.531,44.457,11.531S381.478,137.742,363.203,119.467z"/>
	<path style="fill:#A0E557;" d="M377.211,163.923c0,0,26.182,6.744,44.457-11.531s11.346-44.271,11.346-44.271
		s-25.996-6.929-44.271,11.346S377.211,163.923,377.211,163.923z"/>
	<path style="fill:#A0E557;" d="M376,117.455c0,0,19.31-11.4,19.31-32.836S376,52,376,52s-19.31,11.183-19.31,32.619
		S376,117.455,376,117.455z"/>
</g>
<path style="fill:#4DBAF6;" d="M293.56,439.493c11.502,7.847,30.729,18.024,53.085,18.024c31.452,0,48.737-32.32,48.737-32.32
	v-0.037c0,0-17.285-32.32-48.737-32.32c-22.356,0-41.583,10.177-53.085,18.024C287.373,396.253,272.887,386,256,386
	c0.001,8.272,2.473,15.968,6.721,22.39c6.716,10.157,6.716,23.417,0,33.574c-4.247,6.423-6.72,14.118-6.721,22.39
	C272.887,464.355,287.373,454.102,293.56,439.493z"/>
<path d="M270,20c2.63,0,5.21-1.07,7.069-2.931C278.93,15.21,280,12.63,280,10s-1.07-5.21-2.931-7.07C275.21,1.069,272.63,0,270,0
	s-5.21,1.069-7.07,2.93S260,7.37,260,10s1.069,5.21,2.93,7.069C264.79,18.93,267.37,20,270,20z"/>
<path d="M440.412,0h-122.77c-5.522,0-10,4.478-10,10s4.478,10,10,10h122.77C468.857,20,492,43.143,492,71.588V295.5H385.945v-38.379
	c1.797,0.129,3.758,0.214,5.868,0.214c13.359,0,32.272-3.289,47.656-18.673c26.34-26.34,17.011-62.775,16.601-64.313
	c-0.922-3.462-3.625-6.165-7.087-7.087c-0.878-0.236-13.168-3.375-28.452-1.108c2.815-1.852,5.573-4.057,8.207-6.691
	c22.098-22.097,14.28-52.629,13.937-53.918c-0.922-3.461-3.625-6.164-7.086-7.087c-0.905-0.24-16.195-4.144-32.87,1.162
	c1.587-4.451,2.592-9.447,2.592-15.001c0-26.893-23.307-40.698-24.299-41.272c-3.1-1.795-6.924-1.795-10.023,0
	c-0.992,0.574-24.299,14.38-24.299,41.272c0,5.562,1.008,10.565,2.599,15.021c-16.699-5.336-32.026-1.423-32.933-1.182
	c-3.461,0.923-6.164,3.627-7.087,7.088c-0.343,1.289-8.159,31.82,13.938,53.917c2.634,2.634,5.392,4.839,8.206,6.69
	c-15.283-2.266-27.573,0.872-28.451,1.108c-3.462,0.923-6.165,3.627-7.088,7.088c-0.409,1.538-9.737,37.974,16.603,64.313
	c15.385,15.386,34.297,18.673,47.657,18.673c2.088,0,4.03-0.083,5.813-0.21V295.5H146v-38.379c1.797,0.129,3.758,0.214,5.868,0.214
	c13.359,0,32.272-3.289,47.656-18.673c26.34-26.34,17.012-62.775,16.603-64.313c-0.923-3.461-3.626-6.165-7.088-7.088
	c-0.879-0.234-13.17-3.373-28.455-1.106c2.816-1.852,5.575-4.057,8.21-6.692c22.097-22.097,14.28-52.628,13.938-53.917
	c-0.923-3.461-3.626-6.165-7.087-7.088c-0.904-0.24-16.196-4.144-32.872,1.163c1.587-4.451,2.592-9.448,2.592-15.002
	c0-26.893-23.307-40.698-24.299-41.272c-3.1-1.795-6.924-1.795-10.023,0c-0.992,0.574-24.299,14.38-24.299,41.272
	c0,5.562,1.008,10.565,2.599,15.021c-16.698-5.335-32.026-1.423-32.932-1.182c-3.461,0.923-6.164,3.626-7.086,7.087
	c-0.344,1.289-8.161,31.821,13.937,53.918c2.634,2.634,5.391,4.839,8.206,6.69c-15.283-2.267-27.573,0.873-28.451,1.109
	c-3.462,0.922-6.165,3.625-7.087,7.087c-0.41,1.538-9.739,37.974,16.601,64.313c15.385,15.386,34.297,18.673,47.657,18.673
	c2.088,0,4.03-0.083,5.813-0.21V295.5H89c-5.522,0-10,4.478-10,10s4.478,10,10,10h33.023L93.68,343.844
	c-3.905,3.905-3.905,10.237,0,14.143c3.906,3.904,10.236,3.904,14.143,0L126,339.808v11.107c0,5.522,4.478,10,10,10s10-4.478,10-10
	v-11.107l18.178,18.178c1.953,1.952,4.512,2.929,7.071,2.929s5.118-0.977,7.071-2.929c3.905-3.905,3.905-10.237,0-14.143
	L149.977,315.5h211.99l-28.344,28.344c-3.905,3.905-3.905,10.237,0,14.143c3.906,3.904,10.236,3.904,14.143,0l18.179-18.179v11.107
	c0,5.522,4.478,10,10,10s10-4.478,10-10v-11.107l18.178,18.178c1.953,1.952,4.512,2.929,7.071,2.929
	c2.559,0,5.118-0.977,7.071-2.929c3.905-3.905,3.905-10.237,0-14.143L389.923,315.5H492V492H20V71.588
	C20,43.143,43.143,20,71.588,20H225c5.522,0,10-4.478,10-10s-4.478-10-10-10H71.588C32.114,0,0,32.114,0,71.588V502
	c0,5.522,4.478,10,10,10h492c5.522,0,10-4.478,10-10V71.588C512,32.114,479.886,0,440.412,0z M197.8,185.585
	c0.926,8.971,0.55,25.967-12.418,38.935c-12.956,12.957-30.024,13.462-39.102,12.598c-0.847-9.051-0.345-26.182,12.587-39.112
	C171.841,185.031,188.847,184.66,197.8,185.585z M146,182.654v-7.583c0.905,0.037,1.85,0.059,2.831,0.059
	c2.35,0,4.906-0.124,7.597-0.436C152.861,176.851,149.358,179.477,146,182.654z M184.297,116.894
	c0.488,7.171-0.396,19.178-9.646,28.427c-9.241,9.24-21.293,10.222-28.559,9.775c-0.44-7.273,0.536-19.319,9.775-28.558
	C165.119,117.286,177.129,116.404,184.297,116.894z M136.052,64.598c4.145,3.933,9.313,10.705,9.313,20.021
	c0,9.297-5.134,16.13-9.286,20.135c-4.146-4.023-9.335-10.903-9.335-20.135C126.744,75.296,131.92,68.521,136.052,64.598z
	 M87.759,116.896c7.2-0.491,19.188,0.4,28.428,9.642c9.246,9.245,10.218,21.302,9.778,28.558c-7.264,0.44-19.32-0.534-28.561-9.775
	C88.156,136.073,87.27,124.074,87.759,116.896z M123.224,175.13c0.962,0,1.888-0.021,2.776-0.057v7.529
	c-3.341-3.153-6.825-5.762-10.371-7.906C118.318,175.006,120.875,175.13,123.224,175.13z M125.787,237.116
	c-9.073,0.867-26.153,0.365-39.114-12.597c-12.971-12.97-13.344-29.969-12.421-38.923c8.95-0.906,25.997-0.531,38.937,12.408
	c9.683,9.683,12.41,21.662,12.812,30.879v5.115C125.952,235.116,125.878,236.163,125.787,237.116z M437.735,185.584
	c0.908,8.949,0.531,25.997-12.408,38.936c-12.957,12.959-30.026,13.465-39.102,12.598c-0.848-9.051-0.346-26.182,12.586-39.112
	C411.78,185.035,428.777,184.658,437.735,185.584z M385.945,182.653v-7.582c0.905,0.037,1.85,0.059,2.831,0.059
	c2.349,0,4.906-0.124,7.595-0.435C392.806,176.851,389.303,179.477,385.945,182.653z M424.237,116.893
	c0.491,7.196-0.399,19.187-9.642,28.428c-9.239,9.24-21.288,10.222-28.558,9.775c-0.441-7.272,0.536-19.319,9.775-28.558
	C405.062,117.29,417.059,116.408,424.237,116.893z M375.997,64.598c4.145,3.933,9.313,10.705,9.313,20.021
	c0,9.297-5.134,16.13-9.286,20.135c-4.146-4.023-9.335-10.903-9.335-20.135C366.689,75.296,371.865,68.521,375.997,64.598z
	 M327.704,116.893c7.178-0.492,19.181,0.396,28.428,9.646c9.245,9.245,10.218,21.302,9.778,28.558
	c-7.271,0.448-19.32-0.534-28.562-9.775C328.1,136.071,327.215,124.07,327.704,116.893z M363.169,175.13
	c0.962,0,1.888-0.021,2.776-0.057v7.529c-3.341-3.154-6.825-5.763-10.372-7.907C358.263,175.006,360.82,175.13,363.169,175.13z
	 M365.732,237.116c-9.08,0.867-26.153,0.365-39.114-12.597c-12.971-12.97-13.345-29.969-12.422-38.923
	c8.95-0.906,25.998-0.531,38.937,12.408c9.686,9.686,12.412,21.669,12.813,30.887v5.1
	C365.897,235.112,365.823,236.161,365.732,237.116z"/>
<path d="M154.646,382.838c-19.501,0-36.691,6.76-49.563,14.055C95.668,383.93,80.516,376,64,376c-2.652,0-5.196,1.054-7.071,2.93
	c-1.876,1.875-2.929,4.419-2.929,7.071c0.001,9.968,2.898,19.617,8.38,27.905c4.527,6.847,4.527,15.695-0.001,22.542
	c-5.48,8.288-8.378,17.938-8.379,27.905c0,2.652,1.053,5.196,2.929,7.071c1.875,1.876,4.419,2.93,7.071,2.93
	c16.516,0,31.669-7.93,41.082-20.893c12.872,7.295,30.063,14.055,49.563,14.055c37.018,0,56.734-36.068,57.556-37.604
	c0.775-1.45,1.182-3.107,1.182-4.753s-0.406-3.266-1.182-4.716C211.38,418.907,191.663,382.838,154.646,382.838z M154.646,447.517
	c-19.487,0-36.56-8.855-47.449-16.285c-2.476-1.689-5.576-2.178-8.455-1.334c-2.875,0.845-5.22,2.936-6.389,5.695
	c-3.072,7.254-8.697,12.874-15.577,16.002c0.651-1.421,1.415-2.797,2.286-4.115c8.959-13.548,8.959-31.057,0.001-44.604
	c-0.872-1.318-1.636-2.693-2.287-4.115c6.88,3.128,12.505,8.748,15.577,16.003c1.169,2.76,3.514,4.85,6.39,5.694
	c2.875,0.844,5.979,0.354,8.454-1.334c10.89-7.429,27.962-16.285,47.449-16.285c18.397,0,31.311,14.594,36.866,22.338
	C185.945,432.935,173.035,447.517,154.646,447.517z"/>
<path d="M246,464.354c0,2.652,1.053,5.196,2.929,7.071c1.875,1.876,4.419,2.93,7.071,2.93c16.516,0,31.669-7.93,41.082-20.893
	c12.872,7.295,30.063,14.055,49.563,14.055c37.018,0,56.734-36.068,57.556-37.604c0.775-1.45,1.182-3.107,1.182-4.753
	s-0.406-3.266-1.182-4.716c-0.821-1.536-20.538-37.605-57.556-37.605c-19.501,0-36.691,6.76-49.563,14.055
	C287.668,383.93,272.516,376,256,376c-2.652,0-5.196,1.054-7.071,2.93c-1.876,1.875-2.929,4.419-2.929,7.071
	c0.001,9.968,2.898,19.617,8.38,27.905c4.527,6.847,4.527,15.695-0.001,22.542C248.898,444.736,246.001,454.386,246,464.354z
	 M271.063,402.875c-0.872-1.318-1.636-2.693-2.287-4.115c6.88,3.128,12.505,8.748,15.577,16.003c1.169,2.76,3.514,4.85,6.39,5.694
	c2.875,0.844,5.979,0.354,8.454-1.334c10.89-7.429,27.962-16.285,47.449-16.285c18.397,0,31.311,14.594,36.866,22.338
	c-5.566,7.759-18.477,22.341-36.866,22.341c-19.487,0-36.56-8.855-47.449-16.285c-2.476-1.689-5.576-2.178-8.455-1.334
	c-2.875,0.845-5.22,2.936-6.389,5.695c-3.072,7.254-8.697,12.874-15.577,16.002c0.651-1.421,1.415-2.797,2.286-4.115
	C280.021,433.932,280.021,416.423,271.063,402.875z"/>
<path d="M168.333,415.178h-0.806c-5.522,0-10,4.478-10,10s4.478,10,10,10h0.806c5.522,0,10-4.478,10-10
	S173.855,415.178,168.333,415.178z"/>
<path d="M362.194,435.178H363c5.522,0,10-4.478,10-10s-4.478-10-10-10h-0.806c-5.522,0-10,4.478-10,10
	S356.672,435.178,362.194,435.178z"/>
<path d="M422.26,418.109c-1.86,1.86-2.93,4.44-2.93,7.07s1.069,5.21,2.93,7.07c1.86,1.859,4.44,2.93,7.07,2.93s5.21-1.07,7.069-2.93
	c1.87-1.86,2.931-4.44,2.931-7.07s-1.061-5.21-2.931-7.07c-1.859-1.869-4.439-2.93-7.069-2.93S424.12,416.24,422.26,418.109z"/>
<path d="M475.399,400.74c1.87-1.86,2.931-4.44,2.931-7.07s-1.061-5.21-2.931-7.07c-1.859-1.87-4.439-2.93-7.069-2.93
	s-5.21,1.06-7.07,2.93c-1.86,1.86-2.93,4.431-2.93,7.07c0,2.63,1.069,5.21,2.93,7.07c1.86,1.859,4.44,2.93,7.07,2.93
	S473.54,402.6,475.399,400.74z"/>
<path d="M446.33,354.33c2.63,0,5.21-1.061,7.069-2.931c1.87-1.859,2.931-4.439,2.931-7.069s-1.061-5.21-2.931-7.07
	c-1.859-1.86-4.43-2.93-7.069-2.93c-2.63,0-5.21,1.069-7.07,2.93s-2.93,4.44-2.93,7.07c0,2.64,1.069,5.21,2.93,7.069
	C441.12,353.27,443.7,354.33,446.33,354.33z"/>
<path d="M224.069,382.569c1.86-1.859,2.931-4.439,2.931-7.069s-1.07-5.21-2.931-7.07c-1.859-1.86-4.439-2.93-7.069-2.93
	s-5.21,1.069-7.07,2.93s-2.93,4.43-2.93,7.07c0,2.63,1.069,5.21,2.93,7.069c1.86,1.86,4.44,2.931,7.07,2.931
	S222.21,384.43,224.069,382.569z"/>
<path d="M237,329c-2.63,0-5.21,1.069-7.07,2.93S227,336.37,227,339s1.069,5.21,2.93,7.069c1.86,1.86,4.44,2.931,7.07,2.931
	s5.21-1.07,7.069-2.931C245.93,344.21,247,341.63,247,339s-1.07-5.21-2.931-7.07C242.21,330.069,239.63,329,237,329z"/>
<path d="M49,295.5c-2.63,0-5.21,1.069-7.07,2.93S39,302.87,39,305.5s1.069,5.21,2.93,7.069c1.86,1.86,4.44,2.931,7.07,2.931
	s5.21-1.07,7.069-2.931C57.93,310.71,59,308.13,59,305.5s-1.07-5.21-2.931-7.07C54.21,296.569,51.63,295.5,49,295.5z"/>
<g>
</g>
<g>
</g>
<g>
</g>
<g>
</g>
<g>
</g>
<g>
</g>
<g>
</g>
<g>
</g>
<g>
</g>
<g>
</g>
<g>
</g>
<g>
</g>
<g>
</g>
<g>
</g>
<g>
</g>
</svg>
