<?xml version="1.0" encoding="iso-8859-1"?>
<!-- Generator: Adobe Illustrator 19.0.0, SVG Export Plug-In . SVG Version: 6.00 Build 0)  -->
<svg version="1.1" id="Capa_1" xmlns="http://www.w3.org/2000/svg" xmlns:xlink="http://www.w3.org/1999/xlink" x="0px" y="0px"
	 viewBox="0 0 512 512" style="enable-background:new 0 0 512 512;" xml:space="preserve">
<polygon style="fill:#FEDA9B;" points="502.002,211.989 256.047,78.014 10.093,211.989 10.093,481.939 502.002,481.939 "/>
<rect x="56.079" y="259.983" style="fill:#FFFFFF;" width="399.926" height="221.959"/>
<path style="fill:#62CD4D;" d="M149.957,358.714c-0.04,0.489-16.624,50.091,26.687,93.403s93.401,26.685,93.401,26.685
	s16.627-50.089-26.685-93.401S149.957,358.714,149.957,358.714z"/>
<path style="fill:#A0E557;" d="M268.735,385.401c-43.312,43.312-26.685,93.401-26.685,93.401s50.089,16.627,93.401-26.685
	s26.727-92.914,26.687-93.403C362.138,358.714,312.047,342.091,268.735,385.401z"/>
<path d="M506.784,203.209L260.829,69.234c-2.981-1.625-6.583-1.625-9.564,0l-84.204,45.867c-4.85,2.642-6.64,8.713-3.997,13.561
	c2.64,4.85,8.714,6.641,13.561,3.997l79.422-43.262l235.956,128.529V471.94h-25.995V259.98c0-5.521-4.477-9.998-9.998-9.998H56.084
	c-5.521,0-9.998,4.477-9.998,9.998V471.94H20.091V217.928l84.467-46.011c4.85-2.642,6.64-8.713,3.997-13.561
	c-2.642-4.849-8.713-6.638-13.561-3.998L5.311,203.208c-3.215,1.751-5.216,5.119-5.216,8.779v269.95
	c0,5.521,4.477,9.998,9.998,9.998h491.909c5.521,0,9.998-4.477,9.998-9.998v-269.95C512,208.328,509.999,204.96,506.784,203.209z
	 M263.053,471.94l34.99-34.991c3.904-3.904,3.904-10.235,0-14.14c-3.905-3.903-10.234-3.903-14.14,0l-34.957,34.957
	c-0.49-16.522,3.52-41.958,26.859-65.296c30.946-30.945,65.205-28.046,78.023-25.531c2.683,13.859,5.043,47.617-25.447,78.107
	c-20.566,20.568-42.589,26.178-58.817,26.893h-6.51V471.94z M232.568,427.186l-25.142-25.143c-3.905-3.903-10.234-3.903-14.14,0
	c-3.904,3.904-3.904,10.235,0,14.14l34.899,34.899c0.233,0.233,0.476,0.45,0.725,0.655c-0.217,7.3,0.343,13.657,1.09,18.638
	c-14.295-2.771-30.741-9.783-46.283-25.326c-30.488-30.487-28.131-64.242-25.448-78.104c12.862-2.521,47.099-5.395,78.024,25.528
	c2.716,2.717,5.245,5.55,7.57,8.452C238.465,409.885,234.876,418.767,232.568,427.186z M327.578,471.94
	c5.013-3.611,10.016-7.828,14.942-12.754c43.511-43.51,32.05-93.375,29.31-102.928l-0.005-0.018
	c-0.832-3.262-3.271-5.932-6.539-7.017c-2.285-0.759-56.488-18.024-103.622,29.107c-1.993,1.993-3.861,3.999-5.63,6.013
	c-1.794-2.047-3.654-4.061-5.606-6.013c-47.135-47.133-101.339-29.865-103.622-29.107c-3.267,1.085-5.707,3.754-6.539,7.017
	l-0.005,0.018c-2.739,9.554-14.2,59.419,29.31,102.928c4.925,4.925,9.933,9.142,14.955,12.754H66.083V269.978h379.93V471.94H327.578
	z"/>
<path d="M124.522,144.211c0,2.63,1.069,5.209,2.929,7.069c1.86,1.859,4.438,2.929,7.069,2.929c2.63,0,5.209-1.07,7.068-2.929
	c1.86-1.86,2.93-4.439,2.93-7.069s-1.07-5.209-2.93-7.069c-1.859-1.859-4.438-2.929-7.068-2.929c-2.631,0-5.209,1.07-7.069,2.929
	C125.591,139.002,124.522,141.582,124.522,144.211z"/>
<path d="M474.817,89.465c2.56,0,5.118-0.977,7.07-2.928c3.904-3.905,3.904-10.235,0-14.14c-18.81-18.81-49.415-18.81-68.225,0
	c-3.904,3.904-3.904,10.234,0,14.14c3.905,3.903,10.234,3.904,14.14,0c11.012-11.012,28.934-11.012,39.946,0
	C469.699,88.49,472.257,89.465,474.817,89.465z"/>
<path d="M400.758,59.495c25.923-25.925,68.106-25.925,94.03,0c1.953,1.952,4.511,2.928,7.07,2.928c2.559,0,5.117-0.977,7.07-2.928
	c3.904-3.904,3.904-10.235,0-14.14c-33.721-33.721-88.589-33.721-122.309,0c-3.904,3.904-3.904,10.235,0,14.14
	C390.524,63.399,396.853,63.399,400.758,59.495z"/>
<path d="M440.702,99.619c-1.859,1.86-2.929,4.439-2.929,7.069s1.07,5.209,2.929,7.069c1.86,1.859,4.439,2.929,7.069,2.929
	s5.209-1.07,7.069-2.929c1.859-1.86,2.929-4.439,2.929-7.069s-1.07-5.209-2.929-7.069c-1.86-1.859-4.439-2.929-7.069-2.929
	S442.563,97.76,440.702,99.619z"/>
<path d="M91.126,89.465c2.56,0,5.118-0.977,7.07-2.928c3.904-3.905,3.904-10.235,0-14.14c-18.811-18.81-49.415-18.81-68.225,0
	c-3.904,3.904-3.904,10.234,0,14.14c3.905,3.903,10.234,3.904,14.14,0c11.012-11.012,28.934-11.012,39.946,0
	C86.009,88.49,88.566,89.465,91.126,89.465z"/>
<path d="M17.069,59.495c25.923-25.925,68.106-25.925,94.03,0c1.953,1.952,4.511,2.928,7.07,2.928c2.559,0,5.117-0.977,7.07-2.928
	c3.904-3.904,3.904-10.235,0-14.14c-33.721-33.721-88.589-33.721-122.309,0c-3.904,3.904-3.904,10.235,0,14.14
	C6.833,63.399,13.162,63.399,17.069,59.495z"/>
<path d="M57.014,99.619c-1.86,1.86-2.929,4.439-2.929,7.069s1.069,5.209,2.929,7.069c1.86,1.859,4.439,2.929,7.069,2.929
	c2.63,0,5.209-1.07,7.068-2.929c1.86-1.86,2.93-4.439,2.93-7.069s-1.07-5.209-2.93-7.069c-1.859-1.859-4.438-2.929-7.068-2.929
	S58.874,97.76,57.014,99.619z"/>
<path d="M318.206,392.644c-2.641,0-5.209,1.07-7.069,2.93c-1.859,1.859-2.929,4.438-2.929,7.068s1.07,5.209,2.929,7.069
	s4.429,2.929,7.069,2.929c2.63,0,5.209-1.069,7.069-2.929c1.859-1.86,2.929-4.429,2.929-7.069c0-2.63-1.07-5.209-2.929-7.068
	C323.415,393.715,320.835,392.644,318.206,392.644z"/>
<g>
</g>
<g>
</g>
<g>
</g>
<g>
</g>
<g>
</g>
<g>
</g>
<g>
</g>
<g>
</g>
<g>
</g>
<g>
</g>
<g>
</g>
<g>
</g>
<g>
</g>
<g>
</g>
<g>
</g>
</svg>
