<?xml version="1.0" encoding="iso-8859-1"?>
<!-- Generator: Adobe Illustrator 19.0.0, SVG Export Plug-In . SVG Version: 6.00 Build 0)  -->
<svg version="1.1" id="Capa_1" xmlns="http://www.w3.org/2000/svg" xmlns:xlink="http://www.w3.org/1999/xlink" x="0px" y="0px"
	 viewBox="0 0 512.001 512.001" style="enable-background:new 0 0 512.001 512.001;" xml:space="preserve">
<g>
	<ellipse style="fill:#A0E557;" cx="64" cy="411.24" rx="54" ry="50.694"/>
	<ellipse style="fill:#A0E557;" cx="232" cy="411.24" rx="54" ry="50.694"/>
	<ellipse style="fill:#A0E557;" cx="400" cy="411.24" rx="54" ry="50.694"/>
</g>
<g>
	<path style="fill:#72D8FF;" d="M489.52,280.802h-71.04c-6.893,0-12.48-5.588-12.48-12.48v-95.04c0-6.893,5.588-12.48,12.48-12.48
		h71.04c6.893,0,12.48,5.588,12.48,12.48v95.04C502,275.214,496.413,280.802,489.52,280.802z"/>
	<path style="fill:#72D8FF;" d="M274.098,32.352v22.03c0,12.344-10.007,22.352-22.352,22.352H152.84
		c-12.344,0-22.352-10.007-22.352-22.352v-22.03C130.488,20.007,140.495,10,152.84,10l0,0h98.907l0,0
		C264.091,10,274.098,20.007,274.098,32.352z"/>
</g>
<path style="fill:#4DBAF6;" d="M238.781,111.512h-72.976l-13.659-34.778h100.293L238.781,111.512z"/>
<path d="M464,290.802h25.52c12.396,0,22.48-10.085,22.48-22.48v-95.039c0-12.396-10.085-22.48-22.48-22.48h-71.039
	c-12.396,0-22.48,10.085-22.48,22.48v95.039c0,12.396,10.085,22.48,22.48,22.48H444v76.429c-0.094-0.084-0.187-0.17-0.281-0.254
	c-0.488-0.515-1.021-0.976-1.595-1.369c-11.266-9.364-26.002-15.058-42.125-15.058c-18.771,0-35.68,7.704-47.397,19.953
	c-0.36,0.342-0.699,0.707-1.007,1.102C341.891,382.248,336,396.101,336,411.243c0,15.643,6.275,29.921,16.56,40.694h-73.12
	c10.285-10.773,16.56-25.051,16.56-40.694c0-17.446-7.813-33.185-20.281-44.266c-0.488-0.515-1.021-0.976-1.595-1.369
	c-11.266-9.364-26.002-15.058-42.125-15.058c-18.77,0-35.677,7.703-47.394,19.949c-0.362,0.344-0.703,0.71-1.012,1.107
	C173.89,382.249,168,396.102,168,411.243c0,15.643,6.275,29.921,16.56,40.694h-73.12c10.285-10.773,16.56-25.051,16.56-40.694
	c0-17.446-7.813-33.185-20.281-44.266c-0.488-0.515-1.021-0.976-1.595-1.369C94.859,356.244,80.122,350.55,64,350.55
	c-18.769,0-35.675,7.702-47.392,19.947c-0.364,0.345-0.705,0.713-1.015,1.111C5.89,382.25,0,396.102,0,411.243
	c0,15.643,6.275,29.921,16.56,40.694H10c-5.522,0-10,4.478-10,10s4.478,10,10,10h492c5.522,0,10-4.478,10-10s-4.478-10-10-10h-38
	V290.802z M416,268.321v-95.039c0-1.368,1.112-2.48,2.48-2.48h71.039c1.368,0,2.48,1.112,2.48,2.48v95.039
	c0,1.368-1.112,2.48-2.48,2.48H418.48C417.113,270.802,416,269.69,416,268.321z M415.915,373.316
	c-6.386,3.655-12.353,7.924-17.813,12.755c-5.104-4.637-10.829-8.523-16.98-11.577c5.724-2.526,12.125-3.944,18.879-3.944
	C405.612,370.55,410.977,371.537,415.915,373.316z M356,411.243c0-8.248,2.675-15.927,7.253-22.345
	c7.854,2.286,15.103,6.319,21.175,11.778c-2.97,3.832-5.699,7.87-8.148,12.109c-2.764,4.782-1.127,10.898,3.655,13.661
	c1.576,0.911,3.296,1.344,4.993,1.344c3.455,0,6.815-1.793,8.668-4.999c3.236-5.601,7.061-10.783,11.386-15.483
	c0.061-0.061,0.118-0.124,0.176-0.187c6.881-7.433,15.025-13.646,24.146-18.338l5.242-2.696c5.912,6.929,9.453,15.665,9.453,25.156
	c0,22.438-19.738,40.694-44,40.694S356,433.682,356,411.243z M247.915,373.316c-6.386,3.655-12.353,7.924-17.813,12.755
	c-5.104-4.637-10.829-8.523-16.98-11.577c5.724-2.526,12.125-3.944,18.879-3.944C237.612,370.55,242.976,371.537,247.915,373.316z
	 M188,411.243c0-8.248,2.675-15.927,7.253-22.345c7.854,2.286,15.103,6.319,21.175,11.778c-2.97,3.832-5.699,7.87-8.148,12.109
	c-2.764,4.782-1.127,10.898,3.655,13.661c1.576,0.911,3.296,1.344,4.993,1.344c3.455,0,6.815-1.793,8.668-4.999
	c3.236-5.601,7.061-10.783,11.386-15.483c0.061-0.061,0.118-0.124,0.176-0.187c6.881-7.433,15.025-13.646,24.146-18.338l5.242-2.696
	c5.912,6.929,9.453,15.665,9.453,25.156c0,22.438-19.738,40.694-44,40.694S188,433.682,188,411.243z M79.915,373.316
	c-6.386,3.655-12.353,7.924-17.813,12.755c-5.104-4.637-10.829-8.523-16.98-11.577c5.724-2.526,12.125-3.944,18.879-3.944
	C69.612,370.55,74.976,371.537,79.915,373.316z M20,411.243c0-8.248,2.675-15.927,7.253-22.345
	c7.854,2.286,15.103,6.319,21.175,11.778c-2.97,3.832-5.699,7.87-8.148,12.109c-2.764,4.782-1.127,10.898,3.655,13.661
	c1.576,0.911,3.296,1.344,4.993,1.344c3.455,0,6.815-1.793,8.668-4.999c3.236-5.601,7.061-10.783,11.386-15.483
	c0.061-0.061,0.118-0.124,0.176-0.187c6.881-7.433,15.025-13.646,24.146-18.338l5.242-2.696c5.912,6.929,9.453,15.665,9.453,25.156
	c0,22.438-19.738,40.694-44,40.694S20,433.682,20,411.243z"/>
<path d="M477.893,103.817c2.56,0,5.119-0.977,7.071-2.929c3.905-3.906,3.905-10.237,0-14.143c-17.114-17.112-44.959-17.11-62.071,0
	c-3.905,3.905-3.905,10.236,0,14.143c3.906,3.904,10.236,3.906,14.143,0c9.316-9.315,24.474-9.313,33.786,0
	C472.775,102.84,475.333,103.817,477.893,103.817z"/>
<path d="M398.929,76.924c3.906,3.904,10.236,3.904,14.143,0C423.985,66.011,438.494,60,453.929,60
	c15.434,0,29.943,6.011,40.856,16.924c1.953,1.952,4.512,2.929,7.071,2.929s5.118-0.977,7.071-2.929
	c3.905-3.905,3.905-10.237,0-14.143C494.237,48.091,474.704,40,453.929,40c-20.776,0-40.31,8.091-55,22.781
	C395.024,66.687,395.024,73.019,398.929,76.924z"/>
<path d="M446.86,110.87c-1.859,1.859-2.93,4.439-2.93,7.069c0,2.63,1.07,5.21,2.93,7.07s4.44,2.93,7.07,2.93s5.21-1.069,7.07-2.93
	c1.859-1.86,2.93-4.44,2.93-7.07c0-2.63-1.07-5.21-2.93-7.069c-1.86-1.86-4.44-2.931-7.07-2.931S448.72,109.01,446.86,110.87z"/>
<path d="M454,210.64c2.63,0,5.21-1.06,7.069-2.93c1.86-1.86,2.931-4.44,2.931-7.07s-1.07-5.2-2.931-7.07
	c-1.859-1.859-4.43-2.92-7.069-2.92c-2.63,0-5.21,1.061-7.07,2.92c-1.86,1.86-2.93,4.44-2.93,7.07c0,2.641,1.069,5.21,2.93,7.07
	C448.79,209.58,451.37,210.64,454,210.64z"/>
<path d="M454,248.18c2.63,0,5.21-1.07,7.069-2.939c1.86-1.86,2.931-4.431,2.931-7.07c0-2.63-1.07-5.2-2.931-7.07
	c-1.859-1.859-4.439-2.92-7.069-2.92s-5.21,1.061-7.07,2.92c-1.86,1.86-2.93,4.44-2.93,7.07c0,2.64,1.069,5.21,2.93,7.07
	C448.79,247.109,451.37,248.18,454,248.18z"/>
<path d="M10.179,487.679l-7.25,7.25c-3.905,3.905-3.905,10.237,0,14.143C4.882,511.024,7.441,512,10,512s5.118-0.977,7.071-2.929
	l7.25-7.25c3.905-3.905,3.905-10.237,0-14.143C20.415,483.775,14.085,483.775,10.179,487.679z"/>
<path d="M84.5,484.75c-2.641,0-5.21,1.069-7.07,2.93s-2.93,4.44-2.93,7.07s1.069,5.21,2.93,7.069c1.86,1.86,4.44,2.931,7.07,2.931
	s5.21-1.07,7.069-2.931c1.86-1.859,2.931-4.439,2.931-7.069s-1.07-5.21-2.931-7.07C89.71,485.819,87.13,484.75,84.5,484.75z"/>
<path d="M148.414,487.679l-7.25,7.25c-3.905,3.905-3.905,10.237,0,14.143c1.953,1.952,4.512,2.929,7.071,2.929
	s5.118-0.977,7.071-2.929l7.25-7.25c3.905-3.905,3.905-10.237,0-14.143C158.651,483.775,152.321,483.775,148.414,487.679z"/>
<path d="M222.74,484.75c-2.641,0-5.211,1.069-7.08,2.93c-1.86,1.86-2.92,4.44-2.92,7.07s1.06,5.21,2.92,7.069
	c1.869,1.86,4.439,2.931,7.08,2.931c2.63,0,5.21-1.07,7.069-2.931c1.86-1.859,2.931-4.439,2.931-7.069s-1.07-5.21-2.931-7.07
	C227.94,485.819,225.37,484.75,222.74,484.75z"/>
<path d="M286.651,487.679l-7.25,7.25c-3.905,3.905-3.905,10.237,0,14.143c1.953,1.952,4.512,2.929,7.071,2.929
	s5.118-0.977,7.071-2.929l7.25-7.25c3.905-3.905,3.905-10.237,0-14.143C296.887,483.775,290.557,483.775,286.651,487.679z"/>
<path d="M360.97,484.75c-2.63,0-5.21,1.069-7.07,2.93c-1.859,1.86-2.93,4.44-2.93,7.07s1.07,5.21,2.93,7.069
	c1.86,1.86,4.44,2.931,7.07,2.931s5.21-1.07,7.07-2.931c1.87-1.859,2.93-4.439,2.93-7.069s-1.06-5.21-2.93-7.07
	C366.18,485.819,363.6,484.75,360.97,484.75z"/>
<path d="M427.679,487.679l-7.25,7.25c-3.905,3.905-3.905,10.237,0,14.143c1.953,1.952,4.512,2.929,7.071,2.929
	s5.118-0.977,7.071-2.929l7.25-7.25c3.905-3.905,3.905-10.237,0-14.143C437.915,483.775,431.585,483.775,427.679,487.679z"/>
<path d="M502,484.75c-2.63,0-5.21,1.069-7.07,2.93s-2.93,4.44-2.93,7.07s1.069,5.21,2.93,7.069c1.86,1.86,4.44,2.931,7.07,2.931
	s5.21-1.07,7.069-2.931c1.86-1.859,2.931-4.439,2.931-7.069s-1.07-5.21-2.931-7.07C507.21,485.819,504.63,484.75,502,484.75z"/>
<path d="M202.29,20c2.63,0,5.21-1.07,7.069-2.931c1.87-1.859,2.931-4.439,2.931-7.069s-1.061-5.21-2.931-7.07
	C207.5,1.069,204.92,0,202.29,0s-5.21,1.069-7.07,2.93s-2.93,4.44-2.93,7.07s1.069,5.21,2.93,7.069
	C197.08,18.93,199.66,20,202.29,20z"/>
<path d="M10.293,20H42.44v27H31.366c-5.522,0-10,4.478-10,10s4.478,10,10,10h91.686c2.942,6.921,8.232,12.607,14.861,16.07
	l-36.414,25.885c-2.639,1.876-4.206,4.913-4.206,8.15V164c0,5.522,4.478,10,10,10s10-4.478,10-10v-41.735L150.12,98.93l6.377,16.237
	c1.503,3.827,5.195,6.345,9.308,6.345h72.976c4.112,0,7.805-2.517,9.308-6.345l6.377-16.238l32.828,23.335V164
	c0,5.522,4.478,10,10,10s10-4.478,10-10v-46.896c0-3.237-1.567-6.274-4.206-8.15L266.674,83.07
	c6.628-3.463,11.918-9.149,14.861-16.07h91.686c5.522,0,10-4.478,10-10s-4.478-10-10-10h-11.073V20h32.146c5.522,0,10-4.478,10-10
	s-4.478-10-10-10H310c-5.522,0-10,4.478-10,10s4.478,10,10,10h32.146v27h-58.049V32.352C284.098,14.513,269.585,0,251.746,0h-9.496
	c-5.522,0-10,4.478-10,10s4.478,10,10,10h9.496c6.811,0,12.352,5.541,12.352,12.352v22.03c0,6.811-5.541,12.352-12.352,12.352
	H152.84c-6.811,0-12.352-5.541-12.352-12.352v-22.03c0-6.811,5.541-12.352,12.352-12.352H162c5.522,0,10-4.478,10-10
	s-4.478-10-10-10h-9.161c-17.838,0-32.351,14.513-32.351,32.352V47H62.44V20h32.146c5.522,0,10-4.478,10-10s-4.478-10-10-10H10.293
	c-5.522,0-10,4.478-10,10S4.771,20,10.293,20z M231.964,101.512h-59.343l-5.703-14.522l0.36-0.256h70.03l0.36,0.256L231.964,101.512
	z"/>
<path d="M165.26,170.215c-3.905,3.905-3.905,10.237,0,14.143c10.211,10.211,23.62,15.314,37.033,15.314
	c13.409,0,26.824-5.106,37.033-15.314c3.905-3.905,3.905-10.236,0-14.143c-3.904-3.903-10.234-3.904-14.143,0
	c-12.621,12.622-33.16,12.622-45.781,0C175.496,166.311,169.166,166.311,165.26,170.215z"/>
<path d="M135.298,200.177c-3.905,3.905-3.905,10.237,0,14.143c17.896,17.895,41.688,27.75,66.994,27.75
	c25.308,0,49.1-9.855,66.995-27.75c3.905-3.905,3.905-10.237,0-14.143c-3.906-3.904-10.236-3.904-14.143,0
	c-14.117,14.117-32.887,21.893-52.853,21.893c-19.965,0-38.734-7.775-52.852-21.893
	C145.534,196.273,139.204,196.273,135.298,200.177z"/>
<path d="M209.36,154.2c1.87-1.87,2.931-4.44,2.931-7.08c0-2.63-1.061-5.2-2.931-7.07c-1.859-1.86-4.43-2.92-7.069-2.92
	c-2.63,0-5.21,1.06-7.07,2.92c-1.86,1.87-2.93,4.44-2.93,7.07c0,2.64,1.069,5.21,2.93,7.08c1.86,1.859,4.44,2.93,7.07,2.93
	S207.5,156.06,209.36,154.2z"/>
<g>
</g>
<g>
</g>
<g>
</g>
<g>
</g>
<g>
</g>
<g>
</g>
<g>
</g>
<g>
</g>
<g>
</g>
<g>
</g>
<g>
</g>
<g>
</g>
<g>
</g>
<g>
</g>
<g>
</g>
</svg>
