<?xml version="1.0" encoding="iso-8859-1"?>
<!-- Generator: Adobe Illustrator 19.0.0, SVG Export Plug-In . SVG Version: 6.00 Build 0)  -->
<svg version="1.1" id="Capa_1" xmlns="http://www.w3.org/2000/svg" xmlns:xlink="http://www.w3.org/1999/xlink" x="0px" y="0px"
	 viewBox="0 0 512 512" style="enable-background:new 0 0 512 512;" xml:space="preserve">
<path style="fill:#4DBAF6;" d="M447.993,30v452c0,11.046-8.954,20-20,20h-272c-11.046,0-20-8.954-20-20V30c0-11.046,8.954-20,20-20
	h272C439.039,10,447.993,18.954,447.993,30z"/>
<rect x="136.001" y="63.994" style="fill:#FFFFFF;" width="312" height="366.01"/>
<path style="fill:#A0E557;" d="M292.006,366.5c0,0,60.69-34.282,60.69-98.744s-60.69-98.09-60.69-98.09s-60.69,33.628-60.69,98.09
	S292.006,366.5,292.006,366.5z"/>
<path style="fill:#FFDFDF;" d="M136.006,373.5v-34.667c19.201-19.201,29.966-29.966,49.167-49.167h106.821l0,0
	c-7.877,31.51-36.189,53.615-68.668,53.615h-6.541c-14.035,14.035-21.905,21.905-35.94,35.94v36.28
	c0,32.357-12.709,63.42-35.389,86.498l0,0h-81.45V308.897c0-33.788,13.422-66.192,37.314-90.084l34.249-34.249L136.006,373.5z"/>
<path d="M447.993,246c-5.523,0-10,4.478-10,10v164H190.761c0.049-1.496,0.083-2.994,0.083-4.498v-32.138l30.082-30.082h2.399
	c10.675,0,20.932-2.105,30.359-5.927c0.104,0.127,0.2,0.258,0.312,0.381c16.156,17.804,32.408,27.084,33.092,27.471
	c1.526,0.862,3.222,1.293,4.918,1.293s3.393-0.431,4.918-1.293c2.686-1.518,65.771-37.952,65.771-107.45
	c0-69.554-63.155-105.347-65.843-106.837c-3.016-1.67-6.678-1.67-9.693,0c-2.688,1.489-65.844,37.283-65.844,106.837
	c0,3.982,0.222,7.964,0.648,11.91h-12.135c-18.571,0-36.03,7.231-49.162,20.363l-14.674,14.674V73.994h292V165
	c0,5.522,4.477,10,10,10s10-4.478,10-10V30c0-16.542-13.458-30-30-30h-272c-16.542,0-30,13.458-30,30v149.998l-31.745,31.744
	c-25.951,25.952-40.243,60.456-40.243,97.155V502c0,5.522,4.477,10,10,10s10-4.478,10-10V308.896
	c0-31.357,12.211-60.839,34.385-83.013l17.603-17.602v128.257l-15.966,32.558c-2.432,4.959-0.383,10.95,4.576,13.382
	c4.957,2.43,10.95,0.384,13.381-4.575l16.268-33.175l30.557-30.556c9.354-9.354,21.791-14.506,35.02-14.506h67.882
	c-10.108,20.293-30.948,33.615-54.386,33.615h-6.541c-2.652,0-5.196,1.054-7.071,2.929l-35.94,35.939
	c-1.875,1.876-2.929,4.419-2.929,7.071v36.28c0,29.919-11.55,58.149-32.521,79.488c-3.871,3.939-3.816,10.271,0.123,14.142
	c1.947,1.914,4.479,2.868,7.009,2.868l0,0h282.538c16.542,0,30-13.458,30-30V256C457.993,250.478,453.516,246,447.993,246z
	 M145.993,30c0-5.514,4.486-10,10-10h272c5.514,0,10,4.486,10,10v23.994h-292V30z M339.929,245.733
	c-0.032,0.031-0.068,0.058-0.099,0.09l-37.823,37.823v-27.683l30.255-30.255C335.429,231.814,338.086,238.496,339.929,245.733z
	 M302.006,346.903V311.93l40.603-40.603C341.162,307.678,317.96,333.414,302.006,346.903z M321.132,208.552l-19.126,19.126v-38.66
	C307.877,193.89,314.733,200.424,321.132,208.552z M282.006,189.088v38.59l-19.07-19.07
	C269.32,200.502,276.152,193.97,282.006,189.088z M242.113,279.667c-0.52-3.932-0.797-7.918-0.797-11.91
	c0-16.079,4.29-30.112,10.479-42.005l30.211,30.211v23.704H242.113z M282.006,328.042v18.948c-3.246-2.731-6.795-5.976-10.412-9.723
	C275.314,334.494,278.809,331.421,282.006,328.042z M437.993,482c0,5.514-4.486,10-10,10H166.758
	c10.961-15.603,18.379-33.278,21.841-52h249.395v42H437.993z"/>
<path d="M291.986,475.99c2.63,0,5.21-1.07,7.07-2.931c1.86-1.859,2.93-4.439,2.93-7.069c0-2.631-1.07-5.21-2.93-7.07
	s-4.44-2.93-7.07-2.93s-5.21,1.069-7.07,2.93c-1.87,1.86-2.93,4.439-2.93,7.07c0,2.63,1.06,5.21,2.93,7.069
	C286.776,474.92,289.356,475.99,291.986,475.99z"/>
<path d="M447.996,203.26c-2.63,0-5.21,1.06-7.07,2.93c-1.86,1.851-2.93,4.431-2.93,7.07c0,2.63,1.07,5.21,2.93,7.07
	c1.86,1.859,4.43,2.93,7.07,2.93c2.63,0,5.21-1.07,7.07-2.93c1.86-1.87,2.93-4.44,2.93-7.07c0-2.64-1.07-5.21-2.93-7.07
	C453.206,204.319,450.626,203.26,447.996,203.26z"/>
<path d="M258.24,142.128c-3.905,3.905-3.906,10.237,0,14.143c3.906,3.905,10.238,3.905,14.142,0c10.821-10.82,28.429-10.82,39.25,0
	c1.953,1.952,4.512,2.929,7.071,2.929s5.119-0.977,7.071-2.929c3.905-3.905,3.905-10.237,0-14.143
	C307.154,123.509,276.859,123.509,258.24,142.128z"/>
<path d="M345.398,132.504c2.559,0,5.119-0.977,7.071-2.929c3.905-3.905,3.905-10.237,0-14.143
	c-33.34-33.338-87.586-33.338-120.926,0c-3.905,3.905-3.905,10.237,0,14.143c3.905,3.904,10.237,3.904,14.143,0
	c25.541-25.541,67.1-25.541,92.641,0C340.279,131.527,342.839,132.504,345.398,132.504z"/>
<g>
</g>
<g>
</g>
<g>
</g>
<g>
</g>
<g>
</g>
<g>
</g>
<g>
</g>
<g>
</g>
<g>
</g>
<g>
</g>
<g>
</g>
<g>
</g>
<g>
</g>
<g>
</g>
<g>
</g>
</svg>
