<?xml version="1.0" encoding="iso-8859-1"?>
<!-- Generator: Adobe Illustrator 19.0.0, SVG Export Plug-In . SVG Version: 6.00 Build 0)  -->
<svg version="1.1" id="Capa_1" xmlns="http://www.w3.org/2000/svg" xmlns:xlink="http://www.w3.org/1999/xlink" x="0px" y="0px"
	 viewBox="0 0 511.999 511.999" style="enable-background:new 0 0 511.999 511.999;" xml:space="preserve">
<g>
	<path style="fill:#A0E557;" d="M93.688,446.279c0,0,36.832,9.487,62.541-16.222c25.709-25.709,15.961-62.28,15.961-62.28
		s-36.571-9.747-62.28,15.961C84.202,409.447,93.688,446.279,93.688,446.279z"/>
	<path style="fill:#A0E557;" d="M74.105,383.737c-25.709-25.709-62.28-15.961-62.28-15.961s-9.748,36.572,15.96,62.281
		c25.709,25.709,62.541,16.222,62.541,16.222S99.814,409.447,74.105,383.737z"/>
	<path style="fill:#A0E557;" d="M257.68,446.279c0,0,36.832,9.487,62.541-16.222c25.709-25.709,15.961-62.28,15.961-62.28
		s-36.571-9.747-62.28,15.961S257.68,446.279,257.68,446.279z"/>
	<path style="fill:#A0E557;" d="M238.097,383.737c-25.709-25.709-62.28-15.961-62.28-15.961s-9.747,36.571,15.961,62.28
		c25.709,25.709,62.541,16.222,62.541,16.222S263.806,409.447,238.097,383.737z"/>
	<path style="fill:#A0E557;" d="M421.671,446.279c0,0,36.832,9.487,62.541-16.222c25.709-25.709,15.961-62.28,15.961-62.28
		s-36.571-9.747-62.28,15.961C412.185,409.447,421.671,446.279,421.671,446.279z"/>
	<path style="fill:#A0E557;" d="M402.088,383.737c-25.709-25.709-62.28-15.961-62.28-15.961s-9.747,36.571,15.961,62.28
		c25.709,25.709,62.541,16.222,62.541,16.222S427.797,409.447,402.088,383.737z"/>
</g>
<path style="fill:#72D8FF;" d="M327.8,32.363v22.029c0,12.343-10.006,22.351-22.351,22.351h-98.901
	c-12.343,0-22.351-10.006-22.351-22.351V32.363c0-12.343,10.006-22.351,22.351-22.351l0,0h98.902l0,0
	C317.794,10.012,327.8,20.019,327.8,32.363z"/>
<path style="fill:#4DBAF6;" d="M292.485,111.519h-72.972l-13.658-34.776h100.289L292.485,111.519z"/>
<path d="M218.968,170.219c-3.905,3.905-3.905,10.236,0,14.142c10.209,10.209,23.62,15.313,37.031,15.313s26.822-5.104,37.031-15.313
	c3.905-3.905,3.906-10.236,0-14.142c-3.906-3.903-10.236-3.903-14.141,0c-12.621,12.62-33.158,12.62-45.78,0
	C229.204,166.315,222.873,166.315,218.968,170.219z"/>
<path d="M322.99,200.179c-3.905-3.904-10.236-3.904-14.142,0c-29.141,29.141-76.558,29.141-105.698,0
	c-3.905-3.904-10.236-3.904-14.142,0c-3.905,3.905-3.905,10.236,0,14.142c17.894,17.894,41.686,27.749,66.991,27.749
	s49.097-9.854,66.991-27.749C326.895,210.416,326.895,204.084,322.99,200.179z"/>
<path d="M263.069,154.195c1.86-1.859,2.93-4.43,2.93-7.069c0-2.63-1.07-5.2-2.93-7.07c-1.86-1.86-4.44-2.93-7.07-2.93
	c-2.63,0-5.21,1.069-7.07,2.93c-1.86,1.86-2.93,4.44-2.93,7.07c0,2.64,1.07,5.21,2.93,7.069c1.86,1.87,4.44,2.931,7.07,2.931
	C258.629,157.124,261.209,156.064,263.069,154.195z"/>
<path d="M82.038,318.996v23.499c0,5.522,4.477,9.999,9.999,9.999s9.999-4.478,9.999-9.999v-23.499c0-5.522-4.477-9.999-9.999-9.999
	S82.038,313.474,82.038,318.996z"/>
<path d="M99.107,275.928c-1.86-1.86-4.44-2.93-7.07-2.93s-5.21,1.069-7.07,2.93c-1.86,1.861-2.93,4.44-2.93,7.07
	c0,2.63,1.07,5.21,2.93,7.069c1.86,1.86,4.44,2.931,7.07,2.931s5.21-1.07,7.07-2.931c1.86-1.859,2.93-4.439,2.93-7.069
	C102.037,280.368,100.967,277.788,99.107,275.928z"/>
<path d="M255.969,352.494c5.523,0,9.999-4.478,9.999-9.999v-23.499c0-5.522-4.477-9.999-9.999-9.999
	c-5.523,0-9.999,4.478-9.999,9.999v23.499C245.969,348.017,250.447,352.494,255.969,352.494z"/>
<path d="M255.969,292.997c2.63,0,5.21-1.07,7.07-2.931c1.86-1.859,2.93-4.439,2.93-7.069c0-2.63-1.07-5.21-2.93-7.07
	c-1.86-1.86-4.44-2.93-7.07-2.93c-2.63,0-5.21,1.069-7.07,2.93c-1.86,1.861-2.93,4.44-2.93,7.07c0,2.63,1.07,5.21,2.93,7.069
	C250.759,291.927,253.339,292.997,255.969,292.997z"/>
<path d="M419.9,352.494c5.523,0,9.999-4.478,9.999-9.999v-23.499c0-5.522-4.477-9.999-9.999-9.999c-5.523,0-9.999,4.478-9.999,9.999
	v23.499C409.901,348.017,414.378,352.494,419.9,352.494z"/>
<path d="M419.9,292.997c2.63,0,5.21-1.07,7.07-2.931c1.86-1.859,2.93-4.439,2.93-7.069c0-2.63-1.07-5.21-2.93-7.07
	c-1.86-1.86-4.44-2.93-7.07-2.93c-2.63,0-5.21,1.069-7.07,2.93c-1.86,1.861-2.93,4.44-2.93,7.07c0,2.63,1.07,5.21,2.93,7.069
	C414.691,291.927,417.27,292.997,419.9,292.997z"/>
<path d="M501.986,491.987H430.02V457.65c2.373,0.208,5.047,0.351,7.972,0.351c14.945,0,36.097-3.68,53.292-20.874
	c29.445-29.446,19.011-70.205,18.552-71.926c-0.922-3.462-3.626-6.165-7.087-7.088c-1.722-0.459-42.48-10.892-71.927,18.553
	c-4.467,4.467-8.017,9.201-10.831,14.023c-2.815-4.823-6.365-9.556-10.831-14.023l0,0c-27.616-27.615-65.179-20.156-71.164-18.742
	c-5.986-1.413-43.549-8.872-71.164,18.742c-4.467,4.467-8.017,9.201-10.831,14.023c-2.815-4.823-6.365-9.556-10.831-14.023l0,0
	c-27.616-27.615-65.179-20.156-71.164-18.742c-5.986-1.413-43.549-8.872-71.164,18.742c-4.467,4.467-8.017,9.201-10.831,14.023
	c-2.815-4.823-6.365-9.556-10.831-14.023l0,0C51.73,347.221,10.971,357.655,9.25,358.114c-3.461,0.923-6.165,3.626-7.087,7.088
	c-0.458,1.721-10.893,42.479,18.553,71.926c17.197,17.196,38.346,20.874,53.291,20.874c2.949,0,5.644-0.146,8.032-0.356v34.342
	H10.013c-5.523,0-9.999,4.478-9.999,9.999c0,5.522,4.477,10,9.999,10h491.974c5.523,0,10-4.478,10-9.999
	C511.986,496.465,507.509,491.987,501.986,491.987z M274,458.001c14.945,0,36.097-3.68,53.292-20.874
	c4.408-4.408,7.916-9.07,10.703-13.814c2.788,4.746,6.296,9.408,10.703,13.814c17.197,17.196,38.346,20.874,53.291,20.874
	c2.949,0,5.644-0.146,8.032-0.356v34.342H266.029v-34.336C268.401,457.858,271.076,458.001,274,458.001z M444.963,390.809
	c15.745-15.743,36.488-15.642,46.602-14.426c1.221,10.136,1.313,30.866-14.422,46.603c-15.72,15.719-36.539,15.787-46.796,14.637
	c-0.156-1.421-0.286-3.053-0.358-4.843c0.054-1.764,0.061-3.635,0.001-5.594C430.426,416.369,433.57,402.202,444.963,390.809z
	 M395.018,390.809L395.018,390.809c11.257,11.258,14.486,25.13,14.992,35.86c-0.084,2.302-0.075,4.487-0.003,6.523
	c-0.078,1.628-0.204,3.117-0.352,4.429c-10.251,1.154-31.087,1.094-46.815-14.635c-11.383-11.382-14.482-25.377-14.866-36.079
	c0.047-1.692,0.043-3.318,0.001-4.867c0.076-2.109,0.241-4.012,0.437-5.638C358.526,375.208,379.34,375.131,395.018,390.809z
	 M280.972,390.809c15.744-15.743,36.487-15.642,46.602-14.426c0.198,1.642,0.364,3.565,0.44,5.697
	c-0.04,1.525-0.044,3.126,0.002,4.789c-0.377,10.713-3.471,24.724-14.864,36.118c-15.72,15.719-36.539,15.787-46.796,14.637
	c-0.156-1.421-0.286-3.053-0.358-4.843c0.054-1.764,0.061-3.635,0.001-5.594C266.434,416.369,269.578,402.202,280.972,390.809z
	 M231.026,390.809L231.026,390.809c11.257,11.258,14.486,25.13,14.992,35.86c-0.084,2.302-0.075,4.487-0.003,6.523
	c-0.078,1.628-0.204,3.117-0.352,4.429c-10.251,1.154-31.087,1.094-46.815-14.635c-11.383-11.382-14.482-25.377-14.866-36.079
	c0.047-1.692,0.043-3.318,0.001-4.867c0.076-2.109,0.241-4.012,0.437-5.638C194.535,375.208,215.349,375.131,231.026,390.809z
	 M116.98,390.809c15.744-15.743,36.487-15.642,46.602-14.426c0.198,1.642,0.364,3.565,0.44,5.697
	c-0.04,1.525-0.044,3.126,0.002,4.789c-0.377,10.713-3.471,24.724-14.864,36.118c-15.72,15.719-36.538,15.787-46.796,14.637
	c-0.156-1.421-0.286-3.053-0.358-4.843c0.054-1.764,0.061-3.635,0.001-5.594C102.443,416.369,105.587,402.202,116.98,390.809z
	 M34.857,422.985c-15.735-15.734-15.644-36.463-14.428-46.584c10.115-1.194,30.928-1.271,46.606,14.406l0,0
	c11.258,11.258,14.487,25.13,14.992,35.86c-0.084,2.302-0.075,4.487-0.003,6.523c-0.078,1.628-0.204,3.117-0.352,4.429
	C71.42,438.775,50.585,438.715,34.857,422.985z M102.037,457.65c2.373,0.208,5.047,0.351,7.972,0.351
	c14.945,0,36.097-3.68,53.292-20.874c4.408-4.408,7.916-9.07,10.703-13.814c2.788,4.746,6.296,9.408,10.703,13.814
	c17.197,17.196,38.346,20.874,53.291,20.874c2.949,0,5.644-0.146,8.032-0.356v34.342H102.038L102.037,457.65L102.037,457.65z"/>
<path d="M64.009,20.012h32.145V47.01H85.081c-5.523,0-9.999,4.478-9.999,9.999s4.477,9.999,9.999,9.999h91.68
	c2.943,6.921,8.233,12.606,14.86,16.069l-36.412,25.884c-2.639,1.876-4.206,4.913-4.206,8.15v46.894
	c0,5.522,4.477,9.999,9.999,9.999s9.999-4.478,9.999-9.999v-41.733l32.825-23.334l6.377,16.236c1.503,3.827,5.196,6.345,9.308,6.345
	h72.972c4.112,0,7.805-2.518,9.308-6.345l6.377-16.236l32.825,23.334v41.733c0,5.522,4.477,9.999,9.999,9.999
	c5.523,0,9.999-4.478,9.999-9.999v-46.894c0-3.237-1.567-6.274-4.206-8.15l-36.412-25.884c6.628-3.463,11.917-9.149,14.86-16.069
	h91.68c5.523,0,9.999-4.478,9.999-9.999s-4.477-9.999-9.999-9.999h-11.072V20.012h32.144c5.523,0,9.999-4.478,9.999-9.999
	s-4.477-9.999-9.999-9.999h-42.144h-42.144c-5.523,0-9.999,4.478-9.999,9.999s4.477,9.999,9.999,9.999h32.144V47.01h-58.046V32.363
	c0-17.838-14.512-32.35-32.35-32.35h-98.899c-17.838,0-32.35,14.512-32.35,32.35V47.01h-58.045V20.012h32.144
	c5.523,0,9.999-4.478,9.999-9.999s-4.477-9.999-9.999-9.999h-42.144H64.009c-5.523,0-9.999,4.478-9.999,9.999
	S58.486,20.012,64.009,20.012z M285.669,101.519h-59.34l-5.704-14.521l0.36-0.256h70.026l0.36,0.256L285.669,101.519z
	 M194.198,32.363c0-6.811,5.541-12.351,12.351-12.351h98.901c6.811,0,12.351,5.541,12.351,12.351v22.029
	c0,6.811-5.541,12.351-12.351,12.351h-98.902c-6.811,0-12.351-5.541-12.351-12.351V32.363H194.198z"/>
<g>
</g>
<g>
</g>
<g>
</g>
<g>
</g>
<g>
</g>
<g>
</g>
<g>
</g>
<g>
</g>
<g>
</g>
<g>
</g>
<g>
</g>
<g>
</g>
<g>
</g>
<g>
</g>
<g>
</g>
</svg>
