<?xml version="1.0" encoding="iso-8859-1"?>
<!-- Generator: Adobe Illustrator 19.0.0, SVG Export Plug-In . SVG Version: 6.00 Build 0)  -->
<svg version="1.1" id="Capa_1" xmlns="http://www.w3.org/2000/svg" xmlns:xlink="http://www.w3.org/1999/xlink" x="0px" y="0px"
	 viewBox="0 0 512 512" style="enable-background:new 0 0 512 512;" xml:space="preserve">
<path style="fill:#FFB954;" d="M318.626,99.559h-192c-13.255,0-24,10.745-24,24l0,0c0,13.255,10.745,24,24,24h192
	c13.255,0,24-10.745,24-24l0,0C342.626,110.304,331.881,99.559,318.626,99.559z"/>
<g>
	<path style="fill:#FFC66C;" d="M247.333,18.022L247.333,18.022c-13.794,13.794-36.159,13.794-49.953,0l0,0
		C192.243,12.885,185.277,10,178.014,10l0,0c-15.126,0-27.388,12.262-27.388,27.388v62.171h144V37.388
		c0-15.126-12.262-27.388-27.388-27.388h-0.539C259.435,10,252.469,12.885,247.333,18.022z"/>
	<path style="fill:#FFC66C;" d="M271.468,287.228c0,12.506,8.778,23.294,21.022,25.837l98.127,20.384
		c25.684,5.335,44.096,27.965,44.096,54.197V502H10V387.677c0-26.246,18.431-48.884,44.132-54.205l98.613-20.417
		c12.252-2.537,21.039-13.329,21.039-25.841v-23.547h97.684V287.228z"/>
</g>
<path style="fill:#4DBAF6;" d="M341.252,323.147v67.866c0,14.919-12.094,27.013-27.013,27.013h-80.987H212h-80.987
	c-14.919,0-27.013-12.094-27.013-27.013v-67.866l-40,8.282V502h317.252V331.429L341.252,323.147z"/>
<path style="fill:#FFDFDF;" d="M144.626,147.559v69.6c0,43.078,34.922,78,78,78l0,0c43.078,0,78-34.922,78-78v-69.6L144.626,147.559
	L144.626,147.559z"/>
<path style="fill:#C9F3FF;" d="M235.823,313.066h248.432c9.8,0,17.745,7.945,17.745,17.745V502H218.078V330.811
	C218.078,321.011,226.023,313.066,235.823,313.066z"/>
<path style="fill:#A0E557;" d="M360.039,463.117c0,0,38.211-19.337,38.211-55.697s-38.211-55.328-38.211-55.328
	s-38.211,18.968-38.211,55.328S360.039,463.117,360.039,463.117z"/>
<path d="M484.255,303.065H293.701c-7.134-1.875-12.233-8.395-12.233-15.837v-4.694c17.891-16.119,29.158-39.455,29.158-65.375
	v-59.601h8c18.748,0,34-15.252,34-34s-15.252-34-34-34h-14v-52.17C304.626,16.772,287.854,0,267.238,0h-0.54
	c-9.986,0-19.375,3.889-26.437,10.95c-9.875,9.873-25.939,9.873-35.812,0C197.388,3.889,188,0,178.014,0
	c-20.616,0-37.388,16.772-37.388,37.388v52.171h-14c-18.748,0-34,15.252-34,34s15.252,34,34,34h8v59.601
	c0,25.92,11.267,49.256,29.158,65.375v4.68c0,7.731-5.495,14.481-13.066,16.049l-48.691,10.082
	c-0.029,0.006-0.059,0.012-0.088,0.018l-39.898,8.261c-0.04,0.008-0.079,0.016-0.118,0.024l-9.819,2.033
	C21.913,329.932,0,356.846,0,387.677V502c0,5.522,4.477,10,10,10h492c5.523,0,10-4.478,10-10V330.811
	C512,315.512,499.554,303.065,484.255,303.065z M265.137,303.065h-23.411c7.292-1.62,14.247-4.144,20.738-7.453
	C263.084,298.206,263.985,300.702,265.137,303.065z M160.626,37.388c0-9.588,7.8-17.388,17.388-17.388
	c4.644,0,9.01,1.809,12.295,5.093c17.672,17.671,46.425,17.67,64.095,0c3.285-3.284,7.651-5.093,12.295-5.093h0.54
	c9.587,0,17.388,7.8,17.388,17.388v52.171h-124V37.388H160.626z M112.626,123.559c0-7.72,6.28-14,14-14h192c7.72,0,14,6.28,14,14
	s-6.28,14-14,14h-192C118.906,137.559,112.626,131.278,112.626,123.559z M154.626,217.159v-59.601h136v59.601
	c0,37.495-30.505,68-68,68C185.13,285.159,154.626,254.654,154.626,217.159z M154.772,322.847
	c13.995-2.897,24.788-13.77,28.013-27.236c11.969,6.103,25.51,9.549,39.841,9.549c0.922,0,1.84-0.019,2.756-0.047
	c-10.138,4.134-17.304,14.093-17.304,25.699v77.216h-77.065c-9.381,0-17.013-7.632-17.013-17.013V331.29L154.772,322.847z
	 M20,387.677c0-20.653,14.171-38.769,34-43.905V421.5c0,5.522,4.477,10,10,10s10-4.478,10-10v-81.929l20-4.141v55.584
	c0,20.409,16.604,37.013,37.013,37.013h77.065V492H20V387.677z M492,492H339H228.078V330.811c0-4.271,3.475-7.745,7.745-7.745
	h56.639c0.013,0,0.026,0.002,0.038,0.002c0.015,0,0.03-0.002,0.045-0.002h191.71c4.271,0,7.745,3.475,7.745,7.745V492z"/>
<path d="M64,450.5c-2.63,0-5.21,1.069-7.07,2.93c-1.86,1.86-2.93,4.44-2.93,7.07s1.07,5.21,2.93,7.069
	c1.86,1.86,4.44,2.931,7.07,2.931c2.63,0,5.21-1.07,7.07-2.931C72.93,465.71,74,463.13,74,460.5s-1.07-5.21-2.93-7.07
	S66.63,450.5,64,450.5z"/>
<path d="M253.13,220c2.63,0,5.21-1.07,7.07-2.931c1.86-1.859,2.93-4.439,2.93-7.069s-1.07-5.21-2.93-7.07
	c-1.87-1.86-4.44-2.93-7.07-2.93c-2.64,0-5.21,1.069-7.08,2.93c-1.86,1.86-2.92,4.44-2.92,7.07s1.06,5.21,2.92,7.069
	C247.91,218.93,250.49,220,253.13,220z"/>
<path d="M192.13,220c2.63,0,5.21-1.07,7.07-2.931c1.86-1.859,2.93-4.439,2.93-7.069s-1.07-5.21-2.93-7.07
	c-1.86-1.86-4.44-2.93-7.07-2.93c-2.64,0-5.21,1.069-7.07,2.93c-1.87,1.86-2.93,4.44-2.93,7.07s1.06,5.21,2.93,7.069
	C186.91,218.93,189.49,220,192.13,220z"/>
<path d="M364.485,343.136c-2.801-1.391-6.092-1.391-8.893,0c-1.787,0.887-43.765,22.209-43.765,64.285
	c0,42.023,41.912,63.716,43.696,64.619c1.419,0.718,2.967,1.077,4.515,1.077s3.096-0.359,4.515-1.077
	c1.784-0.903,43.696-22.596,43.696-64.619C408.25,365.345,366.272,344.022,364.485,343.136z M370.039,443.704v-36.098
	c0-5.522-4.477-10-10-10s-10,4.478-10,10v36.098c-8.752-7.97-18.211-20.279-18.211-36.283c0-22.848,19.313-37.979,28.235-43.75
	c8.946,5.736,28.187,20.751,28.187,43.75C388.25,423.424,378.791,435.734,370.039,443.704z"/>
<path d="M425.297,244.586c2.559,0,5.119-0.977,7.071-2.929c3.905-3.905,3.905-10.237,0-14.143
	c-18.813-18.813-49.424-18.813-68.236,0c-3.905,3.905-3.906,10.237,0,14.143c3.906,3.904,10.238,3.905,14.142,0
	c11.016-11.016,28.938-11.016,39.953,0C420.179,243.609,422.738,244.586,425.297,244.586z"/>
<path d="M337.083,214.61c3.905,3.904,10.237,3.904,14.143,0c25.929-25.93,68.119-25.93,94.048,0
	c1.953,1.952,4.512,2.929,7.071,2.929s5.119-0.977,7.071-2.929c3.905-3.905,3.905-10.237,0-14.143
	c-16.338-16.338-38.061-25.336-61.167-25.336s-44.828,8.998-61.167,25.336C333.178,204.373,333.178,210.705,337.083,214.61z"/>
<path d="M391.18,254.74c-1.86,1.859-2.93,4.439-2.93,7.069s1.07,5.21,2.93,7.07c1.86,1.87,4.44,2.93,7.07,2.93s5.21-1.06,7.07-2.93
	c1.86-1.86,2.93-4.44,2.93-7.07s-1.07-5.21-2.93-7.069c-1.86-1.86-4.44-2.931-7.07-2.931C395.62,251.81,393.04,252.88,391.18,254.74
	z"/>
<g>
</g>
<g>
</g>
<g>
</g>
<g>
</g>
<g>
</g>
<g>
</g>
<g>
</g>
<g>
</g>
<g>
</g>
<g>
</g>
<g>
</g>
<g>
</g>
<g>
</g>
<g>
</g>
<g>
</g>
</svg>
