<?xml version="1.0" encoding="iso-8859-1"?>
<!-- Generator: Adobe Illustrator 19.0.0, SVG Export Plug-In . SVG Version: 6.00 Build 0)  -->
<svg version="1.1" id="Capa_1" xmlns="http://www.w3.org/2000/svg" xmlns:xlink="http://www.w3.org/1999/xlink" x="0px" y="0px"
	 viewBox="0 0 512 512" style="enable-background:new 0 0 512 512;" xml:space="preserve">
<rect x="10" y="81" style="fill:#C9F3FF;" width="492" height="128.13"/>
<g>
	<path style="fill:#A0E557;" d="M347.933,140.483c0,0-8.108,31.48,13.865,53.453s53.23,13.642,53.23,13.642
		s8.331-31.257-13.642-53.23S347.933,140.483,347.933,140.483z"/>
	<path style="fill:#A0E557;" d="M103.942,160.412c0,0-7.263,28.197,12.419,47.878s47.679,12.219,47.679,12.219
		s7.462-27.997-12.219-47.679S103.942,160.412,103.942,160.412z"/>
</g>
<g>
	<path style="fill:#4DBAF6;" d="M325,145H189c-17.673,0-32-14.327-32-32l0,0c0-17.673,14.327-32,32-32h136c17.673,0,32,14.327,32,32
		l0,0C357,130.673,342.673,145,325,145z"/>
	<path style="fill:#4DBAF6;" d="M10,81h22c17.673,0,32,14.327,32,32l0,0c0,17.673-14.327,32-32,32H10V81z"/>
	<path style="fill:#4DBAF6;" d="M502,81h-22c-17.673,0-32,14.327-32,32l0,0c0,17.673,14.327,32,32,32h22V81z"/>
</g>
<g>
	<path style="fill:#FF5D5D;" d="M283.422,309.484c0-0.426,0.004-0.85,0.013-1.271c0.544-27.306,23.159-49.011,50.471-48.919
		l25.678,0.087c27.183,0.092,49.63,21.752,50.128,48.93c0.007,0.389,0.011,0.779,0.011,1.172c0,4.836-0.554,10.004-1.584,15.316
		l0.01,0.003c-6.396,32.997-31.537,71.614-61.577,71.614c-29.779,0-54.743-37.949-61.406-70.753l0.006-0.002
		C284.032,320.046,283.422,314.581,283.422,309.484z"/>
	<path style="fill:#FF5D5D;" d="M235.571,350.168l0.007,0.003c-7.611,37.476-36.131,80.83-70.151,80.83
		c-34.318,0-63.039-44.117-70.346-81.813l0.011-0.004c-1.177-6.068-1.809-11.973-1.809-17.497c0-0.448,0.004-0.895,0.012-1.339
		c0.57-31.049,26.213-55.793,57.267-55.898l29.335-0.1c31.201-0.106,57.037,24.69,57.659,55.885c0.01,0.481,0.014,0.965,0.014,1.452
		C237.571,337.509,236.874,343.753,235.571,350.168z"/>
</g>
<path d="M203.81,201.93c-1.859,1.86-2.93,4.43-2.93,7.07c0,2.63,1.07,5.21,2.93,7.069c1.86,1.86,4.431,2.931,7.07,2.931
	c2.63,0,5.2-1.07,7.07-2.931c1.859-1.859,2.93-4.439,2.93-7.069s-1.07-5.21-2.93-7.07c-1.87-1.86-4.44-2.93-7.07-2.93
	C208.24,199,205.67,200.069,203.81,201.93z"/>
<path d="M480,155h22c5.522,0,10-4.478,10-10s-4.478-10-10-10h-22c-12.131,0-22-9.869-22-22s9.869-22,22-22h7.333H502
	c5.522,0,10-4.478,10-10s-4.478-10-10-10H325H189H10C4.478,71,0,75.478,0,81s4.478,10,10,10h14.667H32c12.131,0,22,9.869,22,22
	s-9.869,22-22,22H10c-5.522,0-10,4.478-10,10s4.478,10,10,10h22c23.159,0,42-18.841,42-42c0-8.062-2.288-15.597-6.242-22h85.483
	c-3.954,6.403-6.242,13.938-6.242,22c0,9.865,3.427,18.939,9.142,26.115c-0.396,2.349-0.613,4.758-0.613,7.218v16.352
	c-23.085-19.612-52.769-12.295-54.081-11.957c-3.527,0.908-6.281,3.662-7.189,7.189c-0.277,1.074-5.245,21.166,3.721,41.082H10
	c-5.522,0-10,4.478-10,10s4.478,10,10,10h103.298c12.733,10.484,27.305,12.894,38.002,12.894c1.493,0,2.903-0.049,4.229-0.127
	v18.475l-2.243-2.243c-3.906-3.904-10.236-3.904-14.143,0c-3.905,3.905-3.905,10.237,0,14.143l2.883,2.883
	c-14.463,1.858-27.902,8.292-38.501,18.602c-12.721,12.372-19.904,28.899-20.228,46.522c-0.01,0.511-0.015,1.022-0.015,1.538
	c0,5.904,0.638,12.259,1.895,18.893c0.024,0.17,0.053,0.341,0.086,0.512c4.087,21.081,13.929,42.703,27.002,59.321
	C127.783,430.137,146.663,441,165.428,441c38.751,0,71.081-45.17,79.95-88.84c0.026-0.13,0.05-0.259,0.071-0.389
	c1.408-7.05,2.122-13.805,2.122-20.085c0-0.556-0.006-1.106-0.017-1.651c-0.661-33.231-26.11-60.694-58.443-65.063l2.757-2.757
	c3.905-3.905,3.905-10.237,0-14.143c-3.906-3.904-10.236-3.904-14.143,0l-2.196,2.196v-97.497c4.232,1.437,8.76,2.229,13.471,2.229
	h136c3.977,0,7.822-0.568,11.471-1.605V199h-86.804c-5.522,0-10,4.478-10,10s4.478,10,10,10h86.804v16.215
	c-3.92-3.697-10.089-3.638-13.925,0.197c-3.905,3.905-3.905,10.237,0,14.143l0.681,0.681c-27.725,4.924-49.216,28.918-49.79,57.792
	c-0.009,0.482-0.015,0.968-0.015,1.456c0,5.574,0.632,11.563,1.878,17.804c0.02,0.122,0.042,0.245,0.067,0.367
	c7.862,38.716,36.646,78.763,71.205,78.763c16.816,0,33.69-9.678,47.515-27.25c11.563-14.697,20.266-33.819,23.88-52.461
	c0.03-0.156,0.057-0.312,0.079-0.467c1.113-5.877,1.678-11.512,1.678-16.756c0-0.451-0.005-0.9-0.013-1.355
	c-0.289-15.771-6.712-30.547-18.084-41.607c-8.867-8.625-19.959-14.212-31.941-16.255l0.776-0.776
	c3.905-3.905,3.905-10.236,0-14.143c-3.856-3.855-10.073-3.897-13.991-0.137V219H502c5.522,0,10-4.478,10-10s-4.478-10-10-10
	h-75.629c0.93-12.895-0.698-34.507-17.914-51.724c-14.313-14.313-31.742-17.913-44.65-18.229C365.86,124.1,367,118.682,367,113
	c0-8.062-2.288-15.597-6.242-22h83.483c-3.954,6.403-6.242,13.938-6.242,22C438,136.159,456.841,155,480,155z M155.311,211.776
	c-7.781,0.632-21.428-0.104-31.879-10.558c-10.45-10.449-11.29-24.13-10.706-32.021c7.868-0.577,21.577,0.259,32.023,10.705
	C155.21,190.362,155.946,203.988,155.311,211.776z M227.559,330.438c0.009,0.414,0.013,0.83,0.013,1.249
	c0,5.062-0.605,10.61-1.8,16.491c-0.024,0.119-0.046,0.237-0.065,0.355C218.462,383.599,192.59,421,165.428,421
	c-12.501,0-25.799-8.151-37.443-22.953c-10.91-13.869-19.485-32.638-22.995-50.298c-0.022-0.156-0.049-0.313-0.079-0.469
	c-1.08-5.566-1.627-10.813-1.627-15.594c0-0.383,0.003-0.764,0.011-1.156c0.465-25.322,21.685-45.994,47.303-46.082l29.336-0.1
	c0.055,0,0.106,0,0.162,0C205.774,284.349,227.052,304.989,227.559,330.438z M179.76,132.958c4.224-6.015,11.209-9.958,19.102-9.958
	c8.685,0,16.377,4.801,20.391,12H189C185.701,135,182.572,134.265,179.76,132.958z M292.747,135c4.013-7.199,11.706-12,20.391-12
	c8.176,0,15.378,4.23,19.546,10.613C330.29,134.508,327.702,135,325,135H292.747z M399.715,308.487
	c0.006,0.33,0.009,0.662,0.009,0.996c0,4.107-0.472,8.619-1.401,13.412c-0.027,0.142-0.052,0.283-0.072,0.425
	c-5.952,29.934-28.539,63.097-51.678,63.097c-23.161,0-45.289-32.207-51.537-62.412c-0.02-0.111-0.04-0.224-0.063-0.335
	c-1.029-5.064-1.551-9.838-1.551-14.187c0-0.363,0.004-0.726,0.011-1.071c0.431-21.6,18.494-39.118,40.3-39.118
	c0.046,0,0.093,0,0.139,0l25.679,0.088C381.303,269.455,399.32,287.001,399.715,308.487z M406.354,198.894
	c-0.399,0.039-0.818,0.074-1.248,0.106h-8.577c-8.536-0.659-19.041-3.517-27.66-12.136c-9.392-9.392-12.021-21.023-12.398-29.964
	v-4.829c0.042-1.018,0.108-1.974,0.188-2.854c8.817-0.793,25.24-0.215,37.655,12.201C406.766,173.87,407.22,190.171,406.354,198.894
	z M347,113c0,1.895-0.241,3.734-0.693,5.489C338.351,109.028,326.438,103,313.138,103c-19.772,0-36.809,13.393-41.834,32h-30.606
	c-5.026-18.607-22.062-32-41.834-32c-12.427,0-23.641,5.266-31.55,13.674C167.111,115.479,167,114.252,167,113
	c0-12.131,9.869-22,22-22h136C337.131,91,347,100.869,347,113z"/>
<path d="M326.33,305.81c1.859-1.859,2.93-4.43,2.93-7.069c0-2.631-1.07-5.2-2.93-7.07c-1.86-1.86-4.44-2.93-7.07-2.93
	s-5.21,1.069-7.07,2.93c-1.859,1.86-2.93,4.439-2.93,7.07c0,2.64,1.07,5.21,2.93,7.069c1.86,1.87,4.44,2.931,7.07,2.931
	S324.47,307.68,326.33,305.81z"/>
<path d="M372.76,308.979c2.63,0,5.21-1.069,7.07-2.93c1.859-1.86,2.93-4.44,2.93-7.07s-1.07-5.21-2.93-7.069
	c-1.86-1.86-4.44-2.931-7.07-2.931s-5.21,1.07-7.07,2.931c-1.859,1.859-2.93,4.439-2.93,7.069s1.07,5.21,2.93,7.07
	C367.55,307.91,370.13,308.979,372.76,308.979z"/>
<path d="M326.68,335.06c-2.63,0-5.21,1.07-7.07,2.931c-1.859,1.859-2.93,4.439-2.93,7.069s1.07,5.21,2.93,7.07
	c1.87,1.86,4.44,2.93,7.07,2.93s5.21-1.069,7.07-2.93c1.87-1.86,2.93-4.44,2.93-7.07s-1.06-5.21-2.93-7.069
	C331.89,336.13,329.31,335.06,326.68,335.06z"/>
<path d="M346.56,309.54c-2.64,0-5.22,1.069-7.08,2.93c-1.859,1.86-2.92,4.44-2.92,7.07c0,2.64,1.061,5.21,2.92,7.069
	c1.87,1.87,4.44,2.931,7.08,2.931c2.63,0,5.2-1.061,7.061-2.931c1.87-1.859,2.93-4.43,2.93-7.069c0-2.63-1.06-5.21-2.93-7.07
	C351.77,310.609,349.189,309.54,346.56,309.54z"/>
<path d="M371.77,354.76c2.63,0,5.21-1.07,7.07-2.93c1.86-1.87,2.93-4.44,2.93-7.07c0-2.64-1.069-5.22-2.93-7.07
	c-1.86-1.87-4.44-2.93-7.07-2.93s-5.21,1.06-7.069,2.93c-1.86,1.851-2.931,4.431-2.931,7.07c0,2.63,1.07,5.21,2.931,7.07
	C366.56,353.689,369.14,354.76,371.77,354.76z"/>
<path d="M196.63,329.42c2.63,0,5.21-1.07,7.07-2.93c1.869-1.87,2.93-4.44,2.93-7.07s-1.061-5.21-2.93-7.07
	c-1.86-1.87-4.44-2.93-7.07-2.93s-5.21,1.06-7.07,2.93c-1.859,1.86-2.93,4.431-2.93,7.07c0,2.63,1.07,5.21,2.93,7.07
	C191.42,328.35,194,329.42,196.63,329.42z"/>
<path d="M135.51,329.689c2.63,0,5.21-1.069,7.07-2.93c1.859-1.86,2.93-4.44,2.93-7.07s-1.07-5.21-2.93-7.069
	c-1.86-1.87-4.44-2.931-7.07-2.931s-5.21,1.061-7.07,2.931c-1.859,1.859-2.93,4.43-2.93,7.069c0,2.63,1.07,5.21,2.93,7.07
	C130.3,328.62,132.88,329.689,135.51,329.689z"/>
<path d="M181.08,379.399c1.859,1.86,4.439,2.931,7.069,2.931c2.631,0,5.21-1.07,7.07-2.931c1.86-1.859,2.93-4.439,2.93-7.069
	s-1.069-5.21-2.93-7.07s-4.439-2.93-7.07-2.93c-2.63,0-5.21,1.069-7.069,2.93c-1.86,1.86-2.931,4.44-2.931,7.07
	S179.22,377.54,181.08,379.399z"/>
<path d="M165.45,333.18c-2.641,0-5.21,1.07-7.07,2.93s-2.93,4.431-2.93,7.07c0,2.63,1.069,5.21,2.93,7.07
	c1.86,1.859,4.439,2.93,7.07,2.93c2.63,0,5.21-1.07,7.069-2.93c1.86-1.86,2.931-4.44,2.931-7.07c0-2.64-1.07-5.21-2.931-7.07
	C170.66,334.24,168.08,333.18,165.45,333.18z"/>
<path d="M136.64,361.979c-2.63,0-5.2,1.07-7.07,2.931c-1.859,1.859-2.92,4.439-2.92,7.069s1.061,5.21,2.92,7.07
	c1.87,1.86,4.44,2.93,7.07,2.93c2.641,0,5.21-1.069,7.07-2.93c1.859-1.86,2.93-4.44,2.93-7.07s-1.07-5.21-2.93-7.069
	C141.85,363.05,139.28,361.979,136.64,361.979z"/>
<g>
</g>
<g>
</g>
<g>
</g>
<g>
</g>
<g>
</g>
<g>
</g>
<g>
</g>
<g>
</g>
<g>
</g>
<g>
</g>
<g>
</g>
<g>
</g>
<g>
</g>
<g>
</g>
<g>
</g>
</svg>
