<?xml version="1.0" encoding="iso-8859-1"?>
<!-- Generator: Adobe Illustrator 19.0.0, SVG Export Plug-In . SVG Version: 6.00 Build 0)  -->
<svg version="1.1" id="Capa_1" xmlns="http://www.w3.org/2000/svg" xmlns:xlink="http://www.w3.org/1999/xlink" x="0px" y="0px"
	 viewBox="0 0 512.003 512.003" style="enable-background:new 0 0 512.003 512.003;" xml:space="preserve">
<g>
	<path style="fill:#FF5D5D;" d="M321.327,435.229l12.464-0.29l5.225,25.805c4.238,23.082,6.533,41.256,6.533,41.256H311.83
		c0,0-4.185-33.147-11.695-66.771H321.327z"/>
	<path style="fill:#FF5D5D;" d="M158.597,431.577c10.082,2.383,20.595,3.651,31.406,3.651h5.688l-7.655,41.838l14.998,24.933
		h-37.763l-14.998-24.933L158.597,431.577z"/>
</g>
<path style="fill:#FE8F8D;" d="M500.666,253.265c-26.044,0-50.246-12.782-65.548-33.857c-0.638-0.878-1.292-1.744-1.95-2.606
	l35.915-67.599c-23.549-12.509-52.78-3.559-65.289,19.99l-7.877,13.983c-20.649-12.647-44.926-19.948-70.915-19.948h-135
	c-75.111,0-136,60.889-136,136l0,0c0,26.583,10.243,49.949,20.819,72.331c20.181,42.706,34.662,130.44,34.662,130.44h55.788
	l-14.998-24.933l8.323-45.489c10.082,2.384,20.595,3.651,31.406,3.651h135c2.953,0,5.882-0.105,8.788-0.29
	C341.34,468.662,345.548,502,345.548,502h55.787c0,0-8.999-21.116-14.998-24.933l11.525-62.988
	c25.277-16.069,44.877-40.257,55.159-68.887h35.884c7.233,0,13.096-5.863,13.096-13.096v-78.83L500.666,253.265L500.666,253.265z"/>
<path d="M84.013,367.59l-0.234-0.477c-2.456-4.947-8.456-6.966-13.404-4.51c-4.946,2.457-6.966,8.458-4.51,13.404l0.188,0.379
	c1.736,3.545,5.29,5.604,8.988,5.604c1.476,0,2.976-0.328,4.391-1.021C84.391,378.54,86.443,372.55,84.013,367.59z"/>
<path d="M502.003,243.265h-1.336c-21.191,0-41.51-9.896-55.096-26.657l32.399-62.821c2.51-4.867,0.639-10.847-4.196-13.415
	c-28.338-15.05-63.63-4.281-78.746,24.006l-2.927,5.17c-20.657-10.703-43.651-16.319-67.099-16.319h-135
	c-51.915,0-97.582,27.241-123.474,68.176c-0.023,0.029-0.049,0.054-0.072,0.084c-6.293,8.152-15.8,12.374-26.079,11.562
	c-5.894-0.461-11.251-3.188-15.086-7.68c-3.834-4.491-5.687-10.21-5.217-16.104c0.688-8.645,8.257-15.122,16.929-14.451
	c6.042,0.473,9.589,4.286,9.507,10.211c-0.236,0.844-1.531,2.11-2.549,2.609c-2.639-4.802-8.658-6.589-13.495-3.991
	c-4.865,2.614-6.69,8.677-4.077,13.542c4.488,8.355,12.797,12.217,21.685,10.087c10.12-2.429,18.216-11.955,18.43-21.687
	c0.362-16.5-11.388-29.416-27.94-30.711c-19.636-1.519-36.863,13.18-38.426,32.803c-0.895,11.224,2.637,22.118,9.943,30.677
	s17.513,13.756,28.737,14.634c1.322,0.104,2.639,0.154,3.95,0.154c3.033,0,6.029-0.283,8.962-0.817
	c-5.009,14.727-7.728,30.502-7.728,46.902c0,12.732,2.031,25.526,6.209,39.113c1.623,5.277,7.216,8.241,12.498,6.619
	c5.278-1.624,8.242-7.219,6.619-12.498c-3.584-11.653-5.326-22.524-5.326-33.234c0-69.477,56.523-126,126-126h135
	c23.24,0,45.956,6.389,65.691,18.476c4.148,2.541,9.512,1.714,12.723-1.942c0.597-0.679,1.086-1.42,1.468-2.2l7.61-13.44
	c0.045-0.078,0.088-0.157,0.13-0.236c8.305-15.631,25.974-23.155,42.451-19.34l-30.173,58.506c-1.761,3.414-1.41,7.533,0.9,10.601
	l0.347,0.459c0.296,0.392,0.592,0.782,0.877,1.173c15.528,21.389,39.356,35.025,64.976,37.556v28.415h-2c-5.522,0-10,4.478-10,10
	s4.478,10,10,10h2v20.842c0,1.707-1.389,3.096-3.096,3.096h-35.884c-4.22,0-7.985,2.648-9.411,6.62
	c-9.404,26.185-27.556,48.853-51.113,63.829c-2.35,1.493-3.971,3.899-4.472,6.639l-11.525,62.987
	c-0.718,3.923,0.965,7.889,4.263,10.103c1.023,0.922,2.666,3.382,4.513,6.631h-17.66h-13.346
	c-1.757-12.208-5.402-35.483-10.722-59.246c-1.075-4.802-5.493-8.095-10.396-7.795c-2.804,0.179-5.546,0.27-8.151,0.27h-25
	c-0.017,0-0.034,0-0.051,0h-109.95c-9.818,0-19.611-1.139-29.105-3.383c-2.668-0.631-5.477-0.14-7.771,1.36
	c-2.294,1.5-3.873,3.875-4.366,6.571l-8.322,45.489c-0.438,2.396,0.013,4.868,1.268,6.954l5.882,9.779h-0.342h-29.184
	c-2.518-15.537-8.592-49.546-18.163-81.927c-1.565-5.296-7.123-8.318-12.425-6.755c-5.296,1.565-8.32,7.128-6.755,12.425
	c12.245,41.424,18.8,87.2,18.864,87.658c0.698,4.932,4.92,8.599,9.901,8.599h93.549c3.604,0,6.931-1.94,8.705-5.078
	s1.722-6.987-0.136-10.076l-13.05-21.7l5.475-29.921h88.039c6.263,29.947,9.804,57.722,9.843,58.023
	c0.631,4.999,4.883,8.748,9.921,8.748h89.507c3.357,0,6.491-1.686,8.343-4.486c1.852-2.802,2.173-6.345,0.856-9.434
	c-2.89-6.782-7.906-17.456-13.428-24.305l9.824-53.691c23.52-15.987,42.049-38.72,52.938-64.893h29.037
	c12.735,0,23.096-10.36,23.096-23.096v-78.83C512.003,247.743,507.525,243.265,502.003,243.265z M170.926,492l-10.135-16.851
	l5.816-31.794c5.656,0.912,11.374,1.49,17.112,1.735l-5.521,30.176c-0.438,2.396,0.013,4.868,1.268,6.954l5.883,9.779h-14.423V492z
	 M312.489,445.228h12.514c0.26,0,0.521-0.001,0.782-0.002c3.838,18.352,6.652,35.875,8.266,46.773h-13.5
	C319.106,481.946,316.378,464.385,312.489,445.228z"/>
<path d="M420.072,276.069c1.86-1.859,2.931-4.439,2.931-7.069s-1.07-5.21-2.931-7.07c-1.859-1.86-4.439-2.93-7.069-2.93
	c-2.641,0-5.21,1.069-7.07,2.93s-2.93,4.44-2.93,7.07s1.069,5.21,2.93,7.069c1.86,1.86,4.44,2.931,7.07,2.931
	S418.212,277.929,420.072,276.069z"/>
<path d="M288.388,79.215c2.56,0,5.118-0.977,7.071-2.929c3.905-3.905,3.905-10.237,0-14.143c-21.758-21.756-57.156-21.756-78.914,0
	c-3.905,3.905-3.905,10.237,0,14.143c3.906,3.904,10.236,3.904,14.143,0c13.959-13.959,36.67-13.959,50.629,0
	C283.27,78.238,285.829,79.215,288.388,79.215z"/>
<path d="M198.303,43.9C213.715,28.487,234.206,20,256.002,20s42.287,8.487,57.699,23.9c1.953,1.952,4.512,2.929,7.071,2.929
	c2.559,0,5.118-0.977,7.071-2.929c3.905-3.905,3.905-10.237,0-14.143C308.655,10.568,283.141,0,256.003,0
	s-52.652,10.568-71.842,29.758c-3.905,3.905-3.905,10.237,0,14.143C188.067,47.804,194.397,47.804,198.303,43.9z"/>
<path d="M248.932,94.74c-1.86,1.869-2.93,4.439-2.93,7.069c0,2.641,1.069,5.21,2.93,7.07c1.86,1.87,4.44,2.93,7.07,2.93
	s5.21-1.06,7.069-2.93c1.86-1.86,2.931-4.43,2.931-7.07c0-2.63-1.07-5.2-2.931-7.069c-1.859-1.86-4.439-2.931-7.069-2.931
	C253.373,91.809,250.793,92.88,248.932,94.74z"/>
<g>
</g>
<g>
</g>
<g>
</g>
<g>
</g>
<g>
</g>
<g>
</g>
<g>
</g>
<g>
</g>
<g>
</g>
<g>
</g>
<g>
</g>
<g>
</g>
<g>
</g>
<g>
</g>
<g>
</g>
</svg>
