<?xml version="1.0" encoding="iso-8859-1"?>
<!-- Generator: Adobe Illustrator 19.0.0, SVG Export Plug-In . SVG Version: 6.00 Build 0)  -->
<svg version="1.1" id="Capa_1" xmlns="http://www.w3.org/2000/svg" xmlns:xlink="http://www.w3.org/1999/xlink" x="0px" y="0px"
	 viewBox="0 0 512 512" style="enable-background:new 0 0 512 512;" xml:space="preserve">
<path style="fill:#FFB954;" d="M446.22,195.584h-25.089c-4.118,0-7.456,3.338-7.456,7.456v41.679h40V203.04
	C453.676,198.922,450.338,195.584,446.22,195.584z"/>
<rect x="10.04" y="330.997" style="fill:#898998;" width="203.588" height="48"/>
<path style="fill:#4DBAF6;" d="M213.629,378.999V153.906h113.837l50.867,90.813h74.215c27.31,0,49.449,22.139,49.449,49.449v84.831
	H213.629z"/>
<circle style="fill:#898998;" cx="457.836" cy="403.837" r="44.16"/>
<polygon style="fill:#C9F3FF;" points="327.466,153.906 252.629,153.906 252.629,244.719 378.332,244.719 "/>
<path style="fill:#898998;" d="M331.334,394.414c1.131-4.957,1.73-10.116,1.73-15.415c0-5.299-0.599-10.458-1.73-15.415h-7.553
	c-1.456-5.657-3.706-10.992-6.604-15.898l5.348-5.348c-5.532-8.803-12.997-16.268-21.8-21.8l-5.348,5.348
	c-4.906-2.899-10.241-5.148-15.898-6.604v-7.553c-4.957-1.131-10.116-1.73-15.415-1.73s-10.458,0.599-15.415,1.73v7.553
	c-5.657,1.456-10.992,3.706-15.898,6.604l-5.348-5.348c-8.803,5.532-16.268,12.997-21.8,21.8l5.348,5.348
	c-2.899,4.906-5.148,10.241-6.604,15.898h-7.553c-1.131,4.957-1.73,10.116-1.73,15.415c0,5.299,0.599,10.458,1.73,15.415h7.553
	c1.456,5.657,3.706,10.992,6.604,15.898l-5.348,5.348c5.532,8.803,12.997,16.268,21.8,21.8l5.348-5.348
	c4.906,2.899,10.241,5.148,15.898,6.604v7.553c4.957,1.131,10.116,1.73,15.415,1.73s10.458-0.599,15.415-1.73v-7.553
	c5.657-1.456,10.992-3.706,15.898-6.604l5.348,5.348c8.803-5.532,16.268-12.997,21.8-21.8l-5.348-5.348
	c2.899-4.906,5.148-10.241,6.604-15.898H331.334z"/>
<circle style="fill:#686C83;" cx="264.068" cy="378.997" r="27.952"/>
<path d="M501.996,491.998H367.997c-5.522,0-10,4.478-10,10c0,5.522,4.478,10,10,10h133.999c5.522,0,10-4.478,10-10
	C511.996,496.476,507.518,491.998,501.996,491.998z"/>
<path d="M333.469,491.998h-0.13c-5.522,0-10,4.478-10,10c0,5.522,4.478,10,10,10h0.13c5.522,0,10-4.478,10-10
	C343.469,496.476,338.991,491.998,333.469,491.998z"/>
<path d="M299.393,491.998H10c-5.522,0-10,4.478-10,10c0,5.522,4.478,10,10,10h289.393c5.522,0,10-4.478,10-10
	C309.393,496.476,304.915,491.998,299.393,491.998z"/>
<path d="M99.671,340.999c2.63,0,5.21-1.07,7.07-2.931c1.859-1.859,2.93-4.439,2.93-7.069s-1.07-5.21-2.93-7.07s-4.44-2.93-7.07-2.93
	c-2.64,0-5.21,1.069-7.07,2.93c-1.859,1.86-2.93,4.44-2.93,7.07s1.07,5.21,2.93,7.069C94.461,339.929,97.041,340.999,99.671,340.999
	z"/>
<path d="M264.064,416.951c20.928,0,37.953-17.025,37.953-37.952c0-20.927-17.025-37.952-37.953-37.952
	c-20.927,0-37.952,17.025-37.952,37.952C226.112,399.926,243.138,416.951,264.064,416.951z M264.064,361.047
	c9.899,0,17.953,8.054,17.953,17.952c0,9.898-8.054,17.952-17.953,17.952c-9.898,0-17.952-8.054-17.952-17.952
	C246.112,369.101,254.166,361.047,264.064,361.047z"/>
<path d="M501.996,437.999h-2.167C507.431,428.672,512,416.78,512,403.837c0-0.052-0.004-0.102-0.004-0.154V294.168
	c0-28.976-20.843-53.162-48.32-58.389V203.04c0-9.625-7.83-17.456-17.455-17.456h-2.545v-17.632c0-5.522-4.478-10-10-10
	c-5.522,0-10,4.478-10,10v17.632h-2.544c-9.625,0-17.456,7.831-17.456,17.456v31.679h-19.484l-48.002-85.7
	c-1.769-3.158-5.105-5.113-8.725-5.113H213.629c-5.522,0-10,4.478-10,10V321h-66.578c-5.522,0-10,4.478-10,10
	c0,5.522,4.478,10,10,10h58.645c-0.407,3.018,0.576,6.148,2.838,8.411l0.179,0.179c-0.595,1.316-1.148,2.648-1.661,3.995h-0.256
	c-4.666,0-8.712,3.227-9.749,7.775c-0.575,2.518-1.018,5.07-1.343,7.64H20.037v-28h38.965c5.522,0,10-4.478,10-10
	c0-5.522-4.478-10-10-10H10.037c-5.522,0-10,4.478-10,10v48c0,5.522,4.478,10,10,10h44.857L2.966,440.928
	c-0.007,0.007-0.011,0.013-0.018,0.021c-1.798,1.808-2.911,4.299-2.911,7.051c0,5.522,4.478,10,10,10h491.959
	c5.522,0,10-4.478,10-10C511.996,442.478,507.518,437.999,501.996,437.999z M92.193,437.999l49-49h29.729l-49,49H92.193z
	 M218.669,341.326c2.331-2.801,4.921-5.391,7.723-7.723c3.218,2.655,7.796,3.051,11.446,0.893c4.191-2.476,8.668-4.336,13.305-5.529
	c4.104-1.057,7.061-4.567,7.461-8.718c3.625-0.332,7.296-0.332,10.923,0c0.4,4.15,3.357,7.661,7.461,8.718
	c4.637,1.193,9.113,3.054,13.305,5.529c3.649,2.157,8.228,1.764,11.446-0.893c2.802,2.332,5.392,4.922,7.723,7.723
	c-2.656,3.219-3.05,7.796-0.893,11.446c2.476,4.191,4.336,8.667,5.529,13.305c1.057,4.103,4.567,7.059,8.717,7.46
	c0.166,1.813,0.25,3.637,0.25,5.462c0,1.825-0.084,3.649-0.25,5.462c-4.149,0.401-7.66,3.357-8.717,7.46
	c-1.193,4.638-3.054,9.113-5.529,13.305c-2.157,3.65-1.764,8.228,0.893,11.446c-2.331,2.801-4.921,5.391-7.723,7.723
	c-3.218-2.655-7.796-3.052-11.446-0.893c-4.191,2.476-8.668,4.336-13.305,5.529c-4.104,1.057-7.061,4.567-7.461,8.718
	c-3.627,0.332-7.298,0.332-10.923,0c-0.4-4.15-3.357-7.661-7.461-8.718c-4.637-1.193-9.113-3.054-13.305-5.529
	c-3.649-2.158-8.228-1.764-11.446,0.893c-2.802-2.332-5.392-4.922-7.723-7.723c2.656-3.219,3.05-7.796,0.893-11.446
	c-2.476-4.191-4.336-8.667-5.529-13.305c-1.057-4.104-4.567-7.06-8.717-7.46c-0.167-1.812-0.251-3.634-0.251-5.458
	c0-0.002,0-0.005,0-0.007c0-1.824,0.084-3.646,0.251-5.458c4.149-0.4,7.66-3.356,8.717-7.46c1.193-4.638,3.054-9.113,5.529-13.305
	C221.719,349.122,221.325,344.545,218.669,341.326z M188.385,399.821c1.8,2.798,4.932,4.593,8.41,4.593h0.256
	c0.513,1.347,1.066,2.679,1.661,3.995l-0.179,0.179c-3.299,3.3-3.878,8.441-1.396,12.392c3.961,6.304,8.845,12.052,14.417,17.02
	h-61.348L188.385,399.821z M330.991,420.979c2.482-3.95,1.903-9.092-1.396-12.392l-0.179-0.179c0.595-1.316,1.148-2.648,1.661-3.995
	h0.256c4.666,0,8.712-3.227,9.75-7.775c0.574-2.517,1.017-5.069,1.342-7.64h63.333c-1.346,4.719-2.083,9.693-2.083,14.838
	c0,12.943,4.569,24.835,12.171,34.162h-99.273C322.146,433.031,327.03,427.283,330.991,420.979z M423.677,403.837
	c0-18.837,15.325-34.162,34.162-34.162c18.785,0,34.075,15.242,34.158,34.008v0.154c0,0.017,0.002,0.034,0.002,0.052
	C491.97,422.702,476.657,438,457.837,438C439.002,437.999,423.677,422.674,423.677,403.837z M423.677,205.584h20v29.135h-20V205.584
	z M361.269,234.719h-98.64v-70.813h58.978L361.269,234.719z M242.629,163.905v80.813c0,5.522,4.478,10,10,10h199.918
	c21.752,0,39.449,17.697,39.449,39.449v67.675c-9.326-7.6-21.217-12.168-34.158-12.168c-16.627,0-31.522,7.538-41.466,19.368
	c-0.289-0.025-0.579-0.044-0.874-0.044h-73.072c-0.325-2.57-0.768-5.122-1.342-7.64c-1.038-4.549-5.084-7.775-9.75-7.775h-0.256
	c-0.513-1.347-1.066-2.679-1.661-3.995l0.179-0.179c3.299-3.3,3.878-8.441,1.396-12.392c-6.297-10.021-14.923-18.647-24.945-24.946
	c-3.949-2.48-9.093-1.904-12.393,1.396l-0.179,0.179c-1.316-0.595-2.649-1.148-3.996-1.661v-0.256c0-4.666-3.227-8.712-7.775-9.749
	c-11.521-2.629-23.757-2.629-35.278,0c-4.549,1.037-7.775,5.083-7.775,9.749v0.256c-1.347,0.513-2.68,1.066-3.996,1.661
	l-0.179-0.179c-2.884-2.884-7.175-3.687-10.847-2.188V163.905H242.629z M112.908,388.999l-49,49H34.18l49-49H112.908z"/>
<path d="M421.726,74.784c2.559,0,5.118-0.977,7.071-2.929c3.905-3.905,3.905-10.236,0-14.143
	c-9.892-9.892-23.043-15.34-37.032-15.34c-13.99,0-27.142,5.448-37.033,15.34c-3.905,3.906-3.905,10.237,0,14.143
	c3.906,3.904,10.238,3.904,14.143,0c6.114-6.115,14.243-9.482,22.891-9.482c8.646,0,16.775,3.367,22.89,9.482
	C416.608,73.808,419.167,74.784,421.726,74.784z"/>
<path d="M338.913,41.895c14.117-14.117,32.887-21.893,52.853-21.893c19.965,0,38.734,7.775,52.852,21.893
	c1.953,1.952,4.512,2.929,7.071,2.929c2.559,0,5.118-0.977,7.071-2.929c3.905-3.905,3.905-10.237,0-14.143
	c-17.896-17.895-41.688-27.75-66.993-27.75c-25.308,0-49.1,9.855-66.994,27.75c-3.905,3.905-3.905,10.237,0,14.143
	C328.677,45.799,335.007,45.799,338.913,41.895z"/>
<path d="M384.688,87.871c-1.859,1.87-2.93,4.439-2.93,7.069s1.07,5.21,2.93,7.07c1.87,1.87,4.44,2.93,7.07,2.93
	c2.64,0,5.21-1.06,7.08-2.93c1.86-1.86,2.92-4.44,2.92-7.07s-1.06-5.21-2.92-7.069c-1.87-1.86-4.44-2.931-7.08-2.931
	C389.129,84.94,386.559,86.011,384.688,87.871z"/>
<g>
</g>
<g>
</g>
<g>
</g>
<g>
</g>
<g>
</g>
<g>
</g>
<g>
</g>
<g>
</g>
<g>
</g>
<g>
</g>
<g>
</g>
<g>
</g>
<g>
</g>
<g>
</g>
<g>
</g>
</svg>
