<?xml version="1.0" encoding="iso-8859-1"?>
<!-- Generator: Adobe Illustrator 19.0.0, SVG Export Plug-In . SVG Version: 6.00 Build 0)  -->
<svg version="1.1" id="Capa_1" xmlns="http://www.w3.org/2000/svg" xmlns:xlink="http://www.w3.org/1999/xlink" x="0px" y="0px"
	 viewBox="0 0 512.001 512.001" style="enable-background:new 0 0 512.001 512.001;" xml:space="preserve">
<polygon style="fill:#4DBAF6;" points="285.556,74.003 274.054,10.006 237.947,10.006 226.445,74.003 "/>
<g>
	<path style="fill:#C9F3FF;" d="M85.061,217.996L85.061,217.996c-11.045,0-19.999-8.954-19.999-19.999v-19.999h39.998v19.999
		C105.06,209.041,96.106,217.996,85.061,217.996z"/>
	<path style="fill:#C9F3FF;" d="M426.274,217.996L426.274,217.996c11.045,0,19.999-8.954,19.999-19.999v-19.999h-39.998v19.999
		C406.275,209.041,415.228,217.996,426.274,217.996z"/>
</g>
<path style="fill:#72D8FF;" d="M152.133,177.882H10.013l0,0c9.023-24.059,32.022-39.998,57.717-39.998h92.378h191.784h92.378
	c25.695,0,48.695,15.939,57.717,39.998l0,0h-142.12H152.133z"/>
<circle style="fill:#4DBAF6;" cx="255.878" cy="178.001" r="103.995"/>
<path style="fill:#C9F3FF;" d="M359.868,177.998c0-57.435-46.56-103.995-103.995-103.995s-103.995,46.56-103.995,103.995H359.868z"
	/>
<g>
	<path style="fill:#A0E557;" d="M93.69,500.27c0,0,36.832,9.487,62.541-16.222c25.709-25.709,15.961-62.28,15.961-62.28
		s-36.571-9.747-62.28,15.961C84.202,463.438,93.69,500.27,93.69,500.27z"/>
	<path style="fill:#A0E557;" d="M74.106,437.73c-25.709-25.709-62.28-15.961-62.28-15.961s-9.748,36.571,15.961,62.28
		c25.709,25.709,62.541,16.222,62.541,16.222S99.815,463.438,74.106,437.73z"/>
	<path style="fill:#A0E557;" d="M257.681,500.27c0,0,36.832,9.487,62.541-16.222c25.709-25.709,15.961-62.28,15.961-62.28
		s-36.571-9.747-62.28,15.961C248.194,463.438,257.681,500.27,257.681,500.27z"/>
	<path style="fill:#A0E557;" d="M238.097,437.73c-25.709-25.709-62.28-15.961-62.28-15.961s-9.747,36.571,15.961,62.28
		c25.709,25.709,62.541,16.222,62.541,16.222S263.807,463.438,238.097,437.73z"/>
	<path style="fill:#A0E557;" d="M421.673,500.27c0,0,36.832,9.487,62.541-16.222c25.709-25.709,15.961-62.28,15.961-62.28
		s-36.571-9.747-62.28,15.961C412.186,463.438,421.673,500.27,421.673,500.27z"/>
	<path style="fill:#A0E557;" d="M402.089,437.73c-25.709-25.709-62.28-15.961-62.28-15.961s-9.747,36.571,15.961,62.28
		c25.709,25.709,62.541,16.222,62.541,16.222S427.799,463.438,402.089,437.73z"/>
</g>
<path d="M399.673,147.888c2.63,0,5.21-1.07,7.07-2.93c1.859-1.87,2.93-4.45,2.93-7.07c0-2.64-1.07-5.21-2.93-7.08
	c-1.86-1.859-4.44-2.92-7.07-2.92c-2.63,0-5.21,1.061-7.07,2.92c-1.859,1.87-2.93,4.44-2.93,7.08c0,2.63,1.07,5.2,2.93,7.07
	C394.463,146.818,397.043,147.888,399.673,147.888z"/>
<path d="M10.013,187.881h45.05v10.115c0,13.035,8.361,24.151,19.999,28.279v5.26c0,5.522,4.478,9.999,9.999,9.999
	c5.522,0,9.999-4.478,9.999-9.999v-5.26c11.638-4.128,19.999-15.242,19.999-28.279v-10.115h27.254
	c5.027,58.245,54.035,104.11,113.56,104.11s108.533-45.865,113.56-104.11h26.842v10.115c0,13.282,8.681,24.569,20.663,28.504v5.035
	c0,5.522,4.478,9.999,9.999,9.999s10-4.478,10-9.999v-5.505c11.29-4.31,19.335-15.247,19.335-28.034v-10.115h45.716
	c3.279,0,6.351-1.608,8.219-4.304c1.868-2.696,2.296-6.137,1.145-9.207c-10.426-27.806-37.384-46.487-67.08-46.487h-5.28
	c-5.522,0-9.999,4.478-9.999,9.999c0,5.522,4.478,9.999,9.999,9.999h5.28c16.133,0,31.145,7.65,40.78,19.999H369.414
	c-3.944-44.636-33.715-81.966-74.24-96.895l-9.164-50.981h47.013c5.522,0,10-4.478,10-9.999s-4.478-9.999-10-9.999h-58.97h-36.105
	h-58.97c-5.522,0-9.999,4.478-9.999,9.999s4.478,9.999,9.999,9.999h47.013l-9.146,50.881c-27.72,10.131-50.434,30.737-63.342,56.997
	H67.73c-29.695,0-56.653,18.682-67.08,46.487c-1.151,3.07-0.724,6.511,1.144,9.207C3.662,186.273,6.733,187.881,10.013,187.881z
	 M95.061,197.997c0,5.514-4.486,9.999-9.999,9.999c-5.514,0-9.999-4.486-9.999-9.999v-9.999h19.999V197.997z M416.274,187.997
	h19.999v9.999c0,5.514-4.486,9.999-10,9.999s-9.999-4.486-9.999-9.999V187.997z M255.874,271.993
	c-48.492,0-88.521-36.91-93.476-84.111h86.434c0.478,0.069,0.958,0.115,1.44,0.115c0.482,0,0.962-0.046,1.44-0.115h97.64
	C344.394,235.083,304.365,271.993,255.874,271.993z M311.701,102.426l-65.457,65.458h-35.318l77.91-77.91
	C297.063,93.064,304.748,97.276,311.701,102.426z M349.324,167.882h-74.796l51.909-51.909
	C338.915,130.153,347.198,148.108,349.324,167.882z M246.311,20.006h19.38l8.165,45.421c-5.86-0.933-11.864-1.423-17.981-1.423
	c-6.026,0-11.943,0.474-17.72,1.38L246.311,20.006z M255.874,84.003c3.414,0,6.784,0.188,10.103,0.544l-83.336,83.336h-20.217
	c0.926-8.611,3.017-16.876,6.116-24.636c0.595-0.933,1.037-1.969,1.297-3.078C184.421,107.125,217.495,84.003,255.874,84.003z
	 M67.73,147.883h78.194c-1.771,6.458-2.985,13.142-3.591,19.999H26.95C36.584,155.534,51.597,147.883,67.73,147.883z"/>
<path d="M22.273,321.256c-4.45-3.268-10.708-2.313-13.979,2.137l-2.961,4.029c-3.27,4.451-2.313,10.709,2.137,13.979
	c1.784,1.311,3.857,1.942,5.914,1.942c3.073,0,6.106-1.413,8.066-4.079l2.961-4.029C27.68,330.785,26.723,324.526,22.273,321.256z"
	/>
<path d="M28.194,313.198c1.783,1.31,3.856,1.941,5.912,1.941c3.074,0,6.107-1.413,8.067-4.081l2.96-4.029
	c3.27-4.45,2.312-10.708-2.14-13.978c-4.45-3.267-10.707-2.312-13.978,2.14l-2.96,4.029
	C22.784,303.668,23.742,309.927,28.194,313.198z"/>
<path d="M48.913,284.993c1.784,1.311,3.857,1.942,5.914,1.942c3.073,0,6.106-1.413,8.066-4.079l2.961-4.029
	c3.27-4.451,2.313-10.709-2.137-13.979c-4.449-3.269-10.707-2.313-13.979,2.137l-2.961,4.029
	C43.506,275.464,44.463,281.723,48.913,284.993z"/>
<path d="M120.384,266.984c-3.271-4.451-9.528-5.406-13.979-2.137c-4.45,3.271-5.406,9.529-2.137,13.979l2.961,4.029
	c1.96,2.667,4.993,4.079,8.066,4.079c2.056,0,4.13-0.632,5.914-1.942c4.45-3.271,5.407-9.529,2.137-13.979L120.384,266.984z"/>
<path d="M148.673,339.265c1.96,2.667,4.993,4.079,8.066,4.079c2.056,0,4.13-0.632,5.914-1.942c4.45-3.271,5.406-9.529,2.137-13.979
	l-2.961-4.029c-3.271-4.451-9.529-5.406-13.979-2.137c-4.45,3.271-5.407,9.529-2.137,13.979L148.673,339.265z"/>
<path d="M127.949,311.058c1.96,2.668,4.993,4.081,8.067,4.081c2.056,0,4.129-0.632,5.912-1.941c4.451-3.271,5.409-9.529,2.14-13.978
	l-2.96-4.029c-3.271-4.451-9.529-5.407-13.978-2.14c-4.451,3.271-5.409,9.529-2.14,13.978L127.949,311.058z"/>
<path d="M95.061,311.25c0-5.522-4.478-9.999-9.999-9.999c-5.522,0-9.999,4.478-9.999,9.999v5c0,5.522,4.478,9.999,9.999,9.999
	c5.522,0,9.999-4.478,9.999-9.999V311.25z"/>
<path d="M85.061,336.249c-5.522,0-9.999,4.478-9.999,10v5c0,5.522,4.478,10,9.999,10c5.522,0,9.999-4.478,9.999-10v-5
	C95.061,340.727,90.583,336.249,85.061,336.249z"/>
<path d="M95.061,276.252c0-5.522-4.478-9.999-9.999-9.999c-5.522,0-9.999,4.478-9.999,9.999v5c0,5.522,4.478,9.999,9.999,9.999
	c5.522,0,9.999-4.478,9.999-9.999V276.252z"/>
<path d="M370.069,313.198c1.784,1.311,3.857,1.942,5.914,1.942c3.073,0,6.106-1.413,8.066-4.079l2.961-4.029
	c3.271-4.451,2.313-10.709-2.137-13.979c-4.449-3.269-10.707-2.313-13.979,2.137l-2.961,4.029
	C364.662,303.668,365.619,309.927,370.069,313.198z"/>
<path d="M364.148,321.255c-4.449-3.268-10.707-2.312-13.978,2.14l-2.96,4.029c-3.27,4.45-2.312,10.708,2.14,13.978
	c1.783,1.31,3.856,1.941,5.912,1.941c3.074,0,6.107-1.413,8.067-4.081l2.96-4.029C369.558,330.784,368.599,324.525,364.148,321.255z
	"/>
<path d="M390.794,284.994c1.783,1.31,3.856,1.941,5.912,1.941c3.074,0,6.107-1.413,8.067-4.081l2.96-4.029
	c3.27-4.45,2.312-10.708-2.14-13.978c-4.448-3.268-10.707-2.313-13.978,2.14l-2.96,4.029
	C385.385,275.465,386.343,281.724,390.794,284.994z"/>
<path d="M490.55,339.263c1.96,2.668,4.993,4.081,8.067,4.081c2.056,0,4.129-0.632,5.912-1.941c4.451-3.271,5.409-9.529,2.14-13.978
	l-2.96-4.029c-3.271-4.452-9.529-5.407-13.978-2.14c-4.451,3.271-5.409,9.529-2.14,13.978L490.55,339.263z"/>
<path d="M469.829,311.061c1.96,2.667,4.993,4.079,8.066,4.079c2.056,0,4.13-0.632,5.914-1.942c4.45-3.271,5.407-9.529,2.137-13.979
	l-2.961-4.029c-3.271-4.451-9.529-5.407-13.979-2.137c-4.45,3.271-5.407,9.529-2.137,13.979L469.829,311.061z"/>
<path d="M462.263,266.986c-3.271-4.452-9.529-5.408-13.978-2.14c-4.451,3.271-5.409,9.529-2.14,13.978l2.96,4.029
	c1.96,2.668,4.993,4.081,8.067,4.081c2.056,0,4.129-0.632,5.912-1.941c4.451-3.271,5.409-9.529,2.14-13.978L462.263,266.986z"/>
<path d="M436.937,276.252c0-5.522-4.478-9.999-10-9.999s-9.999,4.478-9.999,9.999v5c0,5.522,4.478,9.999,9.999,9.999
	s10-4.478,10-9.999V276.252z"/>
<path d="M426.938,336.249c-5.522,0-9.999,4.478-9.999,10v5c0,5.522,4.478,10,9.999,10s10-4.478,10-10v-5
	C436.937,340.727,432.461,336.249,426.938,336.249z"/>
<path d="M436.937,311.25c0-5.522-4.478-9.999-10-9.999s-9.999,4.478-9.999,9.999v5c0,5.522,4.478,9.999,9.999,9.999
	s10-4.478,10-9.999V311.25z"/>
<path d="M509.837,419.193c-0.922-3.461-3.625-6.164-7.087-7.087c-1.719-0.458-42.478-10.892-71.926,18.553
	c-4.467,4.467-8.017,9.201-10.831,14.023c-2.815-4.823-6.365-9.557-10.831-14.023c-27.616-27.615-65.182-20.154-71.164-18.742
	c-5.981-1.412-43.547-8.873-71.164,18.742c-4.467,4.467-8.017,9.201-10.831,14.023c-2.815-4.823-6.365-9.557-10.831-14.023
	c-27.615-27.615-65.182-20.154-71.164-18.742c-5.981-1.412-43.547-8.873-71.164,18.742c-4.467,4.467-8.017,9.201-10.831,14.023
	c-2.815-4.823-6.365-9.557-10.831-14.023c-29.445-29.444-70.206-19.011-71.926-18.553c-3.462,0.923-6.165,3.626-7.087,7.087
	c-0.459,1.722-10.895,42.48,18.552,71.927c17.196,17.196,38.347,20.874,53.291,20.874c8.983,0,15.707-1.326,18.001-1.846
	c2.293,0.521,9.016,1.846,18.001,1.846c14.944,0,36.096-3.68,53.291-20.874c4.408-4.408,7.916-9.07,10.703-13.815
	c2.788,4.746,6.296,9.408,10.703,13.815c17.196,17.196,38.347,20.874,53.291,20.874c8.983,0,15.707-1.326,18.001-1.846
	c2.293,0.521,9.016,1.846,18.001,1.846c14.944,0,36.096-3.68,53.291-20.874c4.408-4.408,7.916-9.07,10.703-13.815
	c2.788,4.746,6.296,9.408,10.703,13.815c17.196,17.196,38.347,20.874,53.291,20.874c8.983,0,15.707-1.326,18.001-1.846
	c2.293,0.521,9.016,1.846,18.001,1.846c14.944,0,36.096-3.68,53.291-20.874C520.731,461.672,510.296,420.913,509.837,419.193z
	 M82.025,487.189c-0.077,1.619-0.203,3.1-0.35,4.406c-10.232,1.124-31.15,1.049-46.817-14.617
	c-15.745-15.744-15.645-36.485-14.426-46.601c10.136-1.223,30.867-1.313,46.603,14.423c11.257,11.256,14.486,25.127,14.993,35.856
	C81.944,482.961,81.952,485.149,82.025,487.189z M164.01,440.147c-0.277,10.81-3.245,25.225-14.851,36.831
	c-15.719,15.718-36.536,15.788-46.796,14.637c-0.156-1.419-0.286-3.049-0.357-4.836c0.055-1.768,0.061-3.643,0.001-5.607
	c0.438-10.816,3.583-24.98,14.975-36.371c15.734-15.736,36.463-15.643,46.585-14.428c0.211,1.792,0.385,3.925,0.445,6.301
	C163.989,437.794,163.987,438.953,164.01,440.147z M246.017,487.189c-0.077,1.619-0.203,3.1-0.35,4.406
	c-10.231,1.124-31.15,1.049-46.817-14.617c-11.384-11.384-14.483-25.378-14.866-36.081c0.046-1.688,0.042-3.31,0.001-4.856
	c0.077-2.12,0.243-4.032,0.439-5.664c10.135-1.223,30.867-1.313,46.603,14.423c11.257,11.256,14.486,25.127,14.993,35.856
	C245.936,482.961,245.944,485.149,246.017,487.189z M328.002,440.147c-0.277,10.81-3.245,25.225-14.851,36.831
	c-15.719,15.718-36.533,15.788-46.796,14.637c-0.156-1.419-0.286-3.049-0.357-4.836c0.055-1.768,0.061-3.643,0.001-5.607
	c0.438-10.816,3.583-24.98,14.975-36.371c15.735-15.736,36.46-15.643,46.585-14.428c0.211,1.792,0.385,3.925,0.445,6.301
	C327.981,437.794,327.979,438.953,328.002,440.147z M410.009,487.189c-0.077,1.619-0.203,3.1-0.35,4.406
	c-10.234,1.124-31.151,1.049-46.817-14.617c-11.384-11.384-14.483-25.378-14.866-36.081c0.046-1.688,0.042-3.31,0.001-4.856
	c0.077-2.12,0.243-4.032,0.439-5.664c10.137-1.223,30.867-1.313,46.603,14.423c11.257,11.256,14.486,25.127,14.993,35.856
	C409.928,482.961,409.936,485.149,410.009,487.189z M477.142,476.978c-15.718,15.718-36.535,15.788-46.796,14.637
	c-0.156-1.419-0.286-3.049-0.357-4.836c0.055-1.768,0.061-3.643,0.001-5.607c0.438-10.816,3.583-24.98,14.975-36.371
	c15.734-15.736,36.463-15.643,46.585-14.428C492.741,440.487,492.822,461.298,477.142,476.978z"/>
<g>
</g>
<g>
</g>
<g>
</g>
<g>
</g>
<g>
</g>
<g>
</g>
<g>
</g>
<g>
</g>
<g>
</g>
<g>
</g>
<g>
</g>
<g>
</g>
<g>
</g>
<g>
</g>
<g>
</g>
</svg>
