<?xml version="1.0" encoding="iso-8859-1"?>
<!-- Generator: Adobe Illustrator 19.0.0, SVG Export Plug-In . SVG Version: 6.00 Build 0)  -->
<svg version="1.1" id="Capa_1" xmlns="http://www.w3.org/2000/svg" xmlns:xlink="http://www.w3.org/1999/xlink" x="0px" y="0px"
	 viewBox="0 0 511.999 511.999" style="enable-background:new 0 0 511.999 511.999;" xml:space="preserve">
<path style="fill:#FFC66C;" d="M192.249,238.68c16.779-10.32,22.398-32.181,12.488-49.348c-9.912-17.167-31.654-23.231-48.98-13.86
	c-0.549-19.691-16.671-35.488-36.495-35.488s-35.946,15.797-36.494,35.488c-17.327-9.371-39.069-3.308-48.98,13.86
	s-4.293,39.029,12.488,49.348C29.495,249,23.876,270.862,33.787,288.029c9.912,17.168,31.654,23.231,48.98,13.86
	c0.548,19.691,16.67,35.488,36.494,35.488s35.946-15.797,36.494-35.488c17.327,9.371,39.068,3.308,48.98-13.86
	C214.647,270.862,209.028,249,192.249,238.68z"/>
<path style="fill:#FF5D5D;" d="M465.722,238.68c16.779-10.32,22.398-32.181,12.487-49.348c-9.912-17.167-31.654-23.231-48.98-13.86
	c-0.547-19.691-16.669-35.488-36.493-35.488s-35.946,15.797-36.494,35.488c-17.327-9.371-39.068-3.308-48.98,13.86
	c-9.912,17.168-4.293,39.029,12.488,49.348c-16.779,10.32-22.398,32.181-12.488,49.348c9.912,17.168,31.654,23.231,48.98,13.86
	c0.548,19.691,16.67,35.488,36.494,35.488s35.946-15.797,36.494-35.488c17.327,9.371,39.069,3.308,48.98-13.86
	C488.121,270.862,482.501,249,465.722,238.68z"/>
<g>
	<circle style="fill:#FFFFFF;" cx="392.734" cy="238.493" r="29.986"/>
	<circle style="fill:#FFFFFF;" cx="119.266" cy="238.493" r="29.986"/>
</g>
<path style="fill:#62CD4D;" d="M286.638,378.709c-0.04,0.489-16.625,50.094,26.689,93.409s93.407,26.687,93.407,26.687
	s16.628-50.092-26.687-93.407S286.638,378.709,286.638,378.709z"/>
<path style="fill:#A0E557;" d="M405.424,405.398c-43.315,43.315-26.687,93.407-26.687,93.407s50.092,16.628,93.407-26.687
	c43.315-43.315,26.729-92.92,26.689-93.409C498.833,378.709,448.739,362.084,405.424,405.398z"/>
<path style="fill:#62CD4D;" d="M13.163,378.709c-0.04,0.489-16.625,50.094,26.689,93.409s93.407,26.687,93.407,26.687
	s16.628-50.092-26.687-93.407S13.163,378.709,13.163,378.709z"/>
<path style="fill:#A0E557;" d="M131.951,405.398c-43.315,43.315-26.687,93.407-26.687,93.407s50.092,16.628,93.407-26.687
	s26.729-92.92,26.689-93.409C225.36,378.709,175.265,362.084,131.951,405.398z"/>
<path d="M508.527,376.254l-0.005-0.018c-0.832-3.263-3.272-5.932-6.539-7.016c-2.214-0.736-53.2-16.975-99.249,24.929v-47.837
	c16.228-3.498,29.218-15.349,34.252-30.986c19.243,4.146,39.499-4.313,49.883-22.296c10.383-17.983,7.579-39.754-5.633-54.348
	c13.212-14.593,16.016-36.364,5.633-54.348c-10.384-17.986-30.637-26.443-49.883-22.295c-6.03-18.741-23.484-32.052-44.251-32.052
	c-20.766,0-38.219,13.313-44.251,32.051c-19.242-4.144-39.5,4.313-49.883,22.296s-7.579,39.755,5.633,54.348
	c-13.212,14.592-16.016,36.364-5.633,54.348c10.384,17.985,30.637,26.443,49.883,22.295c5.032,15.639,18.022,27.491,34.252,30.987
	v47.837c-46.05-41.905-97.036-25.663-99.249-24.929c-3.268,1.084-5.707,3.754-6.539,7.016l-0.005,0.018
	c-2.74,9.555-14.201,59.422,29.312,102.935c26.722,26.721,55.874,32.753,76.74,32.752c1.208,0,2.393-0.021,3.544-0.058
	c1.148-0.038,2.24-0.277,3.255-0.667c3.718,0.458,8.042,0.783,12.843,0.783c20.537,0,49.706-5.939,76.577-32.81
	C522.728,435.676,511.267,385.809,508.527,376.254z M366.236,301.611c-0.097-3.473-1.988-6.645-4.995-8.381
	c-1.546-0.893-3.272-1.34-4.999-1.34c-1.636,0-3.272,0.401-4.757,1.204c-12.715,6.878-28.336,2.456-35.564-10.064
	c-7.228-12.521-3.246-28.26,9.066-35.832c2.959-1.82,4.761-5.043,4.761-8.517c0-3.474-1.803-6.697-4.761-8.517
	c-12.312-7.572-16.294-23.311-9.066-35.832c7.228-12.521,22.851-16.94,35.564-10.065c3.057,1.653,6.747,1.602,9.757-0.136
	c3.008-1.737,4.898-4.909,4.995-8.381c0.402-14.449,12.042-25.768,26.499-25.768c14.457,0,26.097,11.319,26.499,25.768
	c0.097,3.472,1.988,6.644,4.995,8.381c3.01,1.738,6.701,1.788,9.757,0.136c12.715-6.877,28.335-2.455,35.564,10.064
	c7.228,12.521,3.246,28.261-9.066,35.833c-2.959,1.82-4.761,5.043-4.761,8.517c0,3.474,1.803,6.697,4.761,8.517
	c12.312,7.572,16.294,23.311,9.066,35.832c-7.228,12.521-22.85,16.943-35.564,10.065c-3.056-1.651-6.747-1.602-9.757,0.136
	c-3.008,1.736-4.898,4.909-4.995,8.381c-0.402,14.449-12.042,25.768-26.499,25.768C378.278,327.38,366.638,316.061,366.236,301.611z
	 M294.942,386.964c12.811-2.447,47.256-5.275,78.034,25.504c2.718,2.717,5.245,5.55,7.571,8.453
	c-5.395,8.962-8.984,17.845-11.293,26.264L344.11,422.04c-3.905-3.905-10.234-3.905-14.141,0c-3.905,3.905-3.905,10.236,0,14.14
	l34.901,34.902c0.233,0.233,0.476,0.45,0.725,0.655c-0.217,7.298,0.343,13.656,1.089,18.636
	c-14.296-2.772-30.744-9.782-46.287-25.325C289.924,434.576,292.262,400.842,294.942,386.964z M465.074,465.048
	c-23.493,23.495-48.887,27.476-65.37,26.933l30.782-30.782c3.905-3.905,3.905-10.236,0-14.141c-3.906-3.905-10.235-3.905-14.141,0
	l-30.711,30.711c-0.49-16.522,3.522-41.96,26.861-65.299c30.946-30.945,65.208-28.046,78.028-25.533
	C493.206,400.797,495.567,434.556,465.074,465.048z"/>
<path d="M454.899,412.642c-2.63,0-5.209,1.07-7.068,2.93c-1.86,1.87-2.931,4.439-2.931,7.079c0,2.63,1.07,5.199,2.931,7.069
	c1.859,1.86,4.438,2.92,7.068,2.92s5.209-1.06,7.069-2.92c1.86-1.87,2.93-4.45,2.93-7.069c0-2.63-1.069-5.209-2.93-7.079
	C460.109,413.712,457.529,412.642,454.899,412.642z"/>
<path d="M235.048,376.236c-0.832-3.263-3.272-5.932-6.539-7.016c-2.213-0.736-53.2-16.975-99.249,24.929v-47.837
	c16.228-3.498,29.218-15.349,34.252-30.986c19.242,4.146,39.499-4.313,49.883-22.296c10.383-17.983,7.579-39.754-5.633-54.348
	c13.212-14.593,16.016-36.364,5.633-54.348c-10.384-17.986-30.642-26.443-49.883-22.295c-6.03-18.741-23.483-32.052-44.251-32.052
	c-20.766,0-38.219,13.313-44.251,32.051c-19.243-4.144-39.498,4.313-49.882,22.296c-10.385,17.985-7.583,39.755,5.632,54.348
	c-13.214,14.593-16.016,36.363-5.632,54.348c10.384,17.986,30.636,26.44,49.882,22.296c5.032,15.639,18.022,27.49,34.252,30.986
	v47.837c-46.05-41.905-97.035-25.663-99.249-24.929c-3.27,1.084-5.709,3.757-6.54,7.02l-0.005,0.018
	c-2.738,9.556-14.191,59.426,29.313,102.931c26.722,26.721,55.874,32.753,76.74,32.752c1.208,0,2.393-0.021,3.544-0.058
	c1.148-0.038,2.24-0.277,3.255-0.667c3.718,0.458,8.043,0.783,12.843,0.783c20.538,0,49.706-5.939,76.577-32.81
	c43.514-43.514,32.052-93.381,29.312-102.935L235.048,376.236z M92.762,301.611c-0.097-3.473-1.988-6.645-4.995-8.381
	c-1.546-0.893-3.272-1.34-4.999-1.34c-1.636,0-3.272,0.401-4.757,1.204c-12.715,6.878-28.336,2.456-35.563-10.065
	c-7.228-12.521-3.247-28.26,9.065-35.832c2.959-1.82,4.761-5.043,4.761-8.517c0-3.474-1.803-6.697-4.761-8.517
	c-12.312-7.572-16.294-23.311-9.065-35.833c7.228-12.52,22.848-16.94,35.563-10.064c3.057,1.653,6.747,1.602,9.757-0.136
	c3.008-1.737,4.898-4.909,4.995-8.381c0.402-14.448,12.042-25.767,26.499-25.767s26.097,11.319,26.499,25.768
	c0.097,3.472,1.988,6.644,4.995,8.381c3.011,1.738,6.701,1.788,9.757,0.136c12.715-6.877,28.335-2.455,35.564,10.064
	c7.228,12.521,3.246,28.261-9.066,35.833c-2.959,1.82-4.761,5.043-4.761,8.517c0,3.474,1.803,6.697,4.761,8.517
	c12.312,7.572,16.294,23.311,9.066,35.832c-7.228,12.52-22.849,16.943-35.564,10.065c-3.056-1.651-6.746-1.602-9.757,0.136
	c-3.008,1.736-4.898,4.909-4.995,8.381c-0.402,14.449-12.042,25.768-26.499,25.768S93.164,316.061,92.762,301.611z M21.468,386.964
	c12.812-2.449,47.257-5.272,78.033,25.504c2.717,2.717,5.245,5.55,7.57,8.453c-5.395,8.962-8.983,17.845-11.293,26.264
	L70.635,422.04c-3.904-3.905-10.233-3.905-14.141,0c-3.905,3.905-3.905,10.236,0,14.14l34.901,34.902
	c0.233,0.233,0.476,0.45,0.725,0.655c-0.217,7.298,0.343,13.655,1.09,18.636c-14.295-2.772-30.745-9.782-46.287-25.324
	C16.456,434.581,18.791,400.844,21.468,386.964z M191.6,465.048c-23.493,23.494-48.888,27.476-65.37,26.933l30.783-30.782
	c3.905-3.905,3.905-10.236,0-14.141c-3.906-3.905-10.235-3.905-14.141,0l-30.711,30.711c-0.49-16.522,3.522-41.96,26.861-65.299
	c30.945-30.945,65.208-28.046,78.028-25.533C219.731,400.797,222.092,434.556,191.6,465.048z"/>
<path d="M181.421,412.652c-2.63,0-5.209,1.06-7.069,2.92c-1.859,1.87-2.93,4.439-2.93,7.069c0,2.64,1.07,5.209,2.93,7.079
	c1.86,1.86,4.439,2.92,7.069,2.92s5.209-1.06,7.069-2.92c1.87-1.87,2.93-4.45,2.93-7.079s-1.06-5.199-2.93-7.069
	C186.63,413.712,184.061,412.652,181.421,412.652z"/>
<path d="M432.72,238.497c0-22.047-17.937-39.984-39.984-39.984s-39.984,17.937-39.984,39.984s17.937,39.984,39.984,39.984
	S432.72,260.544,432.72,238.497z M372.749,238.497c0-11.021,8.966-19.987,19.987-19.987c11.021,0,19.987,8.966,19.987,19.987
	s-8.966,19.987-19.987,19.987C381.715,258.483,372.749,249.517,372.749,238.497z"/>
<path d="M159.245,238.497c0-22.047-17.937-39.984-39.984-39.984s-39.984,17.937-39.984,39.984s17.937,39.984,39.984,39.984
	S159.245,260.544,159.245,238.497z M99.274,238.497c0-11.021,8.966-19.987,19.987-19.987s19.987,8.966,19.987,19.987
	s-8.966,19.987-19.987,19.987S99.274,249.517,99.274,238.497z"/>
<path d="M207.243,79.022c-3.905,3.905-3.905,10.236,0,14.14c3.906,3.906,10.235,3.906,14.141,0
	c9.228-9.228,21.497-14.31,34.547-14.31c13.051,0,25.318,5.082,34.546,14.309c1.953,1.953,4.511,2.929,7.07,2.929
	c2.559,0,5.117-0.977,7.07-2.929c3.905-3.905,3.905-10.236,0-14.14c-13.005-13.005-30.296-20.167-48.686-20.167
	S220.248,66.017,207.243,79.022z"/>
<path d="M179.768,51.545c20.343-20.344,47.392-31.547,76.163-31.547s55.82,11.204,76.163,31.547c1.953,1.953,4.511,2.929,7.07,2.929
	c2.559,0,5.117-0.977,7.07-2.929c3.905-3.905,3.905-10.236,0-14.14C322.114,13.284,290.043,0,255.931,0
	s-66.182,13.284-90.304,37.406c-3.905,3.905-3.905,10.236,0,14.14C169.532,55.451,175.861,55.451,179.768,51.545z"/>
<path d="M255.933,117.986c-2.631,0-5.209,1.07-7.069,2.93s-2.93,4.439-2.93,7.069c0,2.63,1.069,5.209,2.93,7.069
	s4.429,2.93,7.069,2.93c2.63,0,5.209-1.07,7.068-2.93c1.86-1.86,2.931-4.439,2.931-7.069c0-2.63-1.07-5.209-2.931-7.069
	C261.132,119.056,258.562,117.986,255.933,117.986z"/>
<g>
</g>
<g>
</g>
<g>
</g>
<g>
</g>
<g>
</g>
<g>
</g>
<g>
</g>
<g>
</g>
<g>
</g>
<g>
</g>
<g>
</g>
<g>
</g>
<g>
</g>
<g>
</g>
<g>
</g>
</svg>
