<?xml version="1.0" encoding="iso-8859-1"?>
<!-- Generator: Adobe Illustrator 19.0.0, SVG Export Plug-In . SVG Version: 6.00 Build 0)  -->
<svg version="1.1" id="Capa_1" xmlns="http://www.w3.org/2000/svg" xmlns:xlink="http://www.w3.org/1999/xlink" x="0px" y="0px"
	 viewBox="0 0 512 512" style="enable-background:new 0 0 512 512;" xml:space="preserve">
<path style="fill:#ADE5FF;" d="M350.355,501.99L350.355,501.99H161.643l0,0c0-24.854,20.148-45.002,45.002-45.002h98.709
	C330.207,456.989,350.355,477.137,350.355,501.99z"/>
<rect x="212.17" y="383.991" style="fill:#4DBAF6;" width="87.66" height="72.998"/>
<path style="fill:#FFFFFF;" d="M431.592,10.011H482c11.046,0,20,8.929,20,19.943v333.025c0,11.014-8.954,19.943-20,19.943H30
	c-11.046,0-20-8.929-20-19.943V29.954c0-11.014,8.954-19.943,20-19.943h52.999C82.999,10.011,431.592,10.011,431.592,10.011z"/>
<path style="fill:#ADE5FF;" d="M482.545,382.922H29.455C18.71,382.922,10,374.211,10,363.467v-52.435h492v52.435
	C502,374.211,493.29,382.922,482.545,382.922z"/>
<g>
	<path style="fill:#A0E557;" d="M147.718,144.33c0,0,36.834,9.487,62.544-16.223s15.962-62.283,15.962-62.283
		s-36.573-9.748-62.283,15.962S147.718,144.33,147.718,144.33z"/>
	<path style="fill:#A0E557;" d="M128.134,81.786c-25.71-25.71-62.283-15.962-62.283-15.962s-9.748,36.573,15.962,62.283
		s62.544,16.223,62.544,16.223S153.844,107.497,128.134,81.786z"/>
</g>
<path style="fill:#FFC66C;" d="M357.119,184.011L357.119,184.011c-33.137,0-60-26.863-60-60l0,0c0-33.137,26.863-60,60-60l0,0
	c33.137,0,60,26.863,60,60l0,0C417.119,157.148,390.256,184.011,357.119,184.011z"/>
<path style="fill:#FF5D5D;" d="M417.119,124.011c0-33.137-26.863-60-60-60l0,0v60H417.119L417.119,124.011z"/>
<path d="M256,356.961c2.63,0,5.21-1.07,7.07-2.931c1.86-1.859,2.93-4.439,2.93-7.069c0-2.631-1.07-5.21-2.93-7.07
	s-4.44-2.93-7.07-2.93s-5.21,1.069-7.07,2.93c-1.86,1.86-2.93,4.439-2.93,7.07c0,2.63,1.07,5.21,2.93,7.069
	C250.79,355.891,253.37,356.961,256,356.961z"/>
<path d="M502,138.551c-2.63,0-5.21,1.069-7.07,2.93c-1.86,1.86-2.93,4.44-2.93,7.07s1.07,5.21,2.93,7.069
	c1.86,1.86,4.44,2.931,7.07,2.931s5.21-1.07,7.07-2.931c1.86-1.859,2.93-4.439,2.93-7.069s-1.07-5.21-2.93-7.07
	S504.63,138.551,502,138.551z"/>
<path d="M482,0.011H30c-16.542,0-30,13.432-30,29.942v333.025c0,16.511,13.458,29.943,30,29.943h172.168v54.264
	c-28.241,2.287-50.526,25.985-50.526,54.804c0,5.522,4.477,10,10,10h188.712c5.523,0,10-4.478,10-10
	c0-28.819-22.284-52.516-50.523-54.804v-54.264H482c16.542,0,30-13.433,30-29.943v-172.63c0-5.522-4.477-10-10-10s-10,4.478-10,10
	v110.684H20V29.954c0-5.482,4.486-9.942,10-9.942h452c5.514,0,10,4.46,10,9.942v67.022c0,5.522,4.477,10,10,10s10-4.478,10-10
	V29.954C512,13.443,498.542,0.011,482,0.011z M338.9,491.991H173.098c4.313-14.442,17.72-25.002,33.546-25.002h98.709
	C321.179,466.989,334.586,477.548,338.9,491.991z M222.168,446.989v-52.998h67.663v52.998L222.168,446.989L222.168,446.989z
	 M492,321.032v41.947c0,5.482-4.486,9.943-10,9.943H30c-5.514,0-10-4.461-10-9.943v-41.947H492z"/>
<path d="M234.21,224.721c5.523,0,10-4.478,10-10v-28.428c0-5.522-4.477-10-10-10h-28.428c-5.523,0-10,4.478-10,10s4.477,10,10,10
	h4.285l-44.989,44.989l-36.925-36.925c-3.905-3.904-10.237-3.904-14.143,0l-57.082,57.082c-3.905,3.905-3.906,10.237,0,14.143
	c1.953,1.952,4.512,2.929,7.071,2.929s5.119-0.977,7.071-2.929l50.012-50.011l36.925,36.925c1.875,1.875,4.419,2.929,7.071,2.929
	s5.196-1.054,7.071-2.929l52.06-52.061v4.285C224.21,220.244,228.687,224.721,234.21,224.721z"/>
<path d="M372.333,224.511c0-5.522-4.477-10-10-10H296c-5.523,0-10,4.478-10,10s4.477,10,10,10h66.333
	C367.856,234.511,372.333,230.034,372.333,224.511z"/>
<path d="M448,214.511h-37c-5.523,0-10,4.478-10,10s4.477,10,10,10h37c5.523,0,10-4.478,10-10S453.523,214.511,448,214.511z"/>
<path d="M288.93,261.441c-1.86,1.86-2.93,4.44-2.93,7.07s1.07,5.21,2.93,7.069c1.86,1.86,4.44,2.931,7.07,2.931
	s5.21-1.07,7.07-2.931c1.86-1.859,2.93-4.439,2.93-7.069s-1.07-5.21-2.93-7.07s-4.44-2.93-7.07-2.93S290.79,259.581,288.93,261.441z
	"/>
<path d="M339,278.511h109c5.523,0,10-4.478,10-10s-4.477-10-10-10H339c-5.523,0-10,4.478-10,10S333.477,278.511,339,278.511z"/>
<path d="M357.119,194.011c38.598,0,70-31.402,70-70s-31.402-70-70-70s-70,31.402-70,70S318.521,194.011,357.119,194.011z
	 M367.119,75.017c19.563,3.987,35.007,19.431,38.994,38.994h-38.994V75.017z M347.119,75.017v48.994c0,5.522,4.477,10,10,10h48.994
	c-4.646,22.795-24.847,40-48.994,40c-27.57,0-50-22.43-50-50C307.119,99.865,324.324,79.663,347.119,75.017z"/>
<path d="M146.008,173.511c5.523,0,10-4.478,10-10v-7.813c2.387,0.211,5.082,0.356,8.031,0.356c14.946,0,36.099-3.68,53.295-20.875
	c29.447-29.448,19.012-70.209,18.553-71.93c-0.922-3.462-3.626-6.165-7.087-7.087c-1.721-0.461-42.483-10.896-71.931,18.553
	c-4.467,4.467-8.017,9.201-10.832,14.024c-2.815-4.823-6.365-9.557-10.832-14.024c-29.448-29.448-70.21-19.014-71.931-18.553
	c-3.461,0.922-6.165,3.625-7.087,7.087c-0.458,1.721-10.894,42.481,18.554,71.93c17.198,17.197,38.348,20.875,53.294,20.875
	c2.924,0,5.599-0.143,7.972-0.351v7.808C136.008,169.034,140.485,173.511,146.008,173.511z M171.012,88.858
	c15.745-15.746,36.486-15.648,46.603-14.427c1.221,10.137,1.313,30.868-14.423,46.605c-15.721,15.72-36.54,15.788-46.798,14.638
	c-0.156-1.421-0.286-3.053-0.358-4.843c0.054-1.764,0.061-3.634,0.001-5.593C156.474,114.42,159.617,100.252,171.012,88.858z
	 M135.701,135.672c-10.251,1.155-31.088,1.094-46.817-14.636C73.148,105.301,73.239,84.572,74.455,74.45
	c10.114-1.191,30.93-1.271,46.608,14.408c11.259,11.259,14.488,25.131,14.993,35.862c-0.06,1.637-0.072,3.214-0.048,4.721v2.626
	C135.93,133.374,135.823,134.586,135.701,135.672z"/>
<g>
</g>
<g>
</g>
<g>
</g>
<g>
</g>
<g>
</g>
<g>
</g>
<g>
</g>
<g>
</g>
<g>
</g>
<g>
</g>
<g>
</g>
<g>
</g>
<g>
</g>
<g>
</g>
<g>
</g>
</svg>
